<svg width="135" height="40" viewBox="0 0 135 40" fill="none" xmlns="http://www.w3.org/2000/svg">
<path fill-rule="evenodd" clip-rule="evenodd" d="M49.8084 31.6321C49.8084 31.6321 53.778 22.4227 53.5685 21.2092C53.5696 20.8645 53.6254 20.5222 53.7339 20.1952C54.0813 18.2447 54.9854 13.4073 52.8849 10.8805C52.8849 10.8805 54.7484 12.0386 54.9469 13.3408C54.9469 13.3408 54.6712 9.55619 52.317 10.6145C50.1117 11.6064 47.9505 9.46753 46.1531 8.9522V8.90789L50.1944 9.35118C50.1944 9.35118 43.628 7.71655 44.7252 3.20051C44.7252 3.20051 48.8602 -2.65094 55.2005 1.53817C55.596 2.49847 56.1558 3.38177 56.8545 4.14805C56.8545 4.14805 55.3548 2.21419 55.7518 1.72103C55.7518 1.72103 60.3113 5.37264 59.3575 10.3818C59.3116 10.6043 59.2256 10.8165 59.1039 11.008C58.7499 11.5364 58.4384 12.0923 58.1721 12.6703C57.8248 13.4627 59.9364 10.138 59.9364 10.138C59.9364 10.138 57.5105 19.1202 55.0406 21.0707C54.6245 21.3903 54.3025 21.8174 54.1088 22.3064L49.8084 31.6321Z" fill="#B8C61A"/>
<path d="M45.3139 39.1454C44.6572 39.4819 43.9411 39.685 43.2063 39.7433C42.4715 39.8016 41.7326 39.7138 41.0315 39.485C40.3305 39.2562 39.6812 38.8909 39.1206 38.41C38.5601 37.929 38.0993 37.3417 37.7646 36.6818L37.7607 36.6741L34.1825 29.6202L34.1219 29.4983L30.5603 22.4721C29.1764 30.0469 27.1255 34.164 25.1903 36.397C24.7605 37.3735 24.064 38.2075 23.1816 38.8022C22.2993 39.3969 21.2672 39.728 20.2052 39.757C19.1432 39.786 18.0947 39.5118 17.1815 38.9661C16.2683 38.4204 15.5278 37.6257 15.0458 36.6741L11.4677 29.6202L11.4071 29.4983L7.44299 21.6853L4.25079 15.3906L4.19016 15.2686L0.612005 8.20924C0.277146 7.54851 0.0750521 6.82797 0.017262 6.08874C-0.0405281 5.34952 0.0471173 4.60609 0.275194 3.90091C0.503271 3.19573 0.867312 2.5426 1.34653 1.97882C1.82575 1.41504 2.41077 0.951645 3.06818 0.615095C3.72558 0.278545 4.44251 0.0754311 5.17802 0.0173492C5.91353 -0.0407327 6.65322 0.0473552 7.35486 0.276584C8.0565 0.505812 8.70635 0.871692 9.26729 1.35333C9.82824 1.83497 10.2893 2.42294 10.6242 3.08367L25.058 31.5485C25.4725 32.3646 25.6826 33.27 25.67 34.1861C27.8147 32.9948 29.7939 25.4034 30.5107 22.3724L30.1578 21.6853L26.9656 15.3906L26.905 15.2686L23.3268 8.20924C22.6505 6.87484 22.5294 5.32509 22.99 3.90091C23.4506 2.47673 24.4553 1.29479 25.783 0.615102C27.1107 -0.0645897 28.6527 -0.186354 30.0697 0.276595C31.4867 0.739543 32.6627 1.74928 33.339 3.08368L47.7728 31.5485C48.1078 32.2092 48.3101 32.9297 48.368 33.6689C48.426 34.4081 48.3385 35.1516 48.1106 35.8568C47.8826 36.562 47.5187 37.2152 47.0396 37.7791C46.5606 38.343 45.9756 38.8065 45.3183 39.1432L45.3139 39.1454Z" fill="#7CB8CB"/>
<path d="M53.3906 32.3808C53.3906 30.8739 53.8352 29.4008 54.6682 28.1479C55.5012 26.8949 56.6852 25.9184 58.0704 25.3417C59.4556 24.765 60.9798 24.6141 62.4504 24.9081C63.9209 25.2021 65.2717 25.9278 66.3319 26.9933C67.3921 28.0588 68.1141 29.4164 68.4066 30.8944C68.6991 32.3723 68.5489 33.9043 67.9752 35.2965C67.4014 36.6887 66.4297 37.8786 65.1831 38.7158C63.9364 39.553 62.4708 39.9999 60.9714 39.9999C59.9759 39.9999 58.9901 39.8028 58.0704 39.4199C57.1506 39.037 56.3149 38.4758 55.611 37.7683C54.907 37.0608 54.3486 36.2209 53.9677 35.2965C53.5867 34.3721 53.3906 33.3813 53.3906 32.3808ZM64.9686 32.3808C64.9686 30.0147 63.3477 28.3025 61.1479 28.3025C58.9481 28.3025 57.3271 30.0147 57.3271 32.3808C57.3271 34.7469 58.915 36.4535 61.1479 36.4535C63.3807 36.4535 64.941 34.7413 64.941 32.3808H64.9686Z" fill="#7CB8CB"/>
<path d="M85.6284 24.9944V39.7616H81.8683V38.7864C80.6523 39.5802 79.233 40.0018 77.7829 39.9999C76.6046 40.0015 75.442 39.7271 74.3876 39.1984C73.3332 38.6696 72.416 37.9011 71.7087 36.9538C71.0015 36.0065 70.5237 34.9066 70.3132 33.7413C70.1028 32.576 70.1656 31.3775 70.4966 30.2408C70.8275 29.1042 71.4176 28.0607 72.2199 27.1933C73.0222 26.3259 74.0147 25.6584 75.1185 25.2438C76.2223 24.8292 77.4071 24.679 78.5788 24.805C79.7504 24.931 80.8768 25.3298 81.8683 25.9697V24.9944H85.6284ZM81.7194 32.3808C81.7194 30.0147 80.1041 28.3025 77.8987 28.3025C75.6934 28.3025 74.078 30.0147 74.078 32.3808C74.078 34.7469 75.6934 36.4535 77.8987 36.4535C80.1041 36.4535 81.7194 34.7413 81.7194 32.3808Z" fill="#7CB8CB"/>
<path d="M101.671 26.915L94.2057 36.2186H101.671V39.7593H88.1797V37.8421L95.6447 28.5385H88.1797V24.9922H101.671L101.671 26.915Z" fill="#7CB8CB"/>
<path d="M103.023 32.3808C103.023 30.8739 103.468 29.4008 104.301 28.1479C105.134 26.8949 106.318 25.9184 107.703 25.3417C109.088 24.765 110.613 24.6141 112.083 24.9081C113.554 25.2021 114.904 25.9278 115.965 26.9933C117.025 28.0588 117.747 29.4164 118.039 30.8944C118.332 32.3723 118.182 33.9043 117.608 35.2965C117.034 36.6887 116.063 37.8786 114.816 38.7158C113.569 39.553 112.104 39.9999 110.604 39.9999C109.609 39.9999 108.623 39.8028 107.703 39.4199C106.783 39.037 105.948 38.4758 105.244 37.7683C104.54 37.0608 103.981 36.2209 103.6 35.2965C103.22 34.3721 103.023 33.3813 103.023 32.3808ZM114.568 32.3808C114.568 30.0147 112.953 28.3025 110.753 28.3025C108.553 28.3025 106.96 30.0147 106.96 32.3808C106.96 34.7469 108.542 36.4535 110.781 36.4535C113.019 36.4535 114.568 34.7413 114.568 32.3808Z" fill="#7CB8CB"/>
<path d="M119.824 32.3802C119.823 30.8722 120.267 29.3977 121.1 28.1432C121.932 26.8887 123.116 25.9106 124.502 25.3325C125.888 24.7544 127.413 24.6023 128.885 24.8954C130.357 25.1886 131.709 25.9137 132.771 26.9793C133.833 28.0448 134.556 29.4029 134.85 30.8817C135.144 32.3605 134.995 33.8937 134.422 35.2873C133.848 36.681 132.877 37.8725 131.63 38.7112C130.383 39.5499 128.916 39.9982 127.416 39.9992H127.405C125.396 39.9934 123.471 39.1888 122.051 37.7612C120.631 36.3336 119.83 34.3991 119.824 32.3802ZM131.375 32.3802C131.375 30.0141 129.759 28.3019 127.554 28.3019C125.349 28.3019 123.733 30.0141 123.733 32.3802C123.733 34.7462 125.321 36.4529 127.554 36.4529C129.787 36.4529 131.375 34.7407 131.375 32.3802Z" fill="#7CB8CB"/>
</svg>
