<svg xmlns="http://www.w3.org/2000/svg" xmlns:xlink="http://www.w3.org/1999/xlink" viewBox="0 0 428.70434 126.38529">
  <defs>
    <style>.cls-1{fill-rule:evenodd;fill:url(#Dégradé_sans_nom);}.cls-2{fill:url(#Dégradé_sans_nom_2);}.cls-3{fill:#cd0096;}</style>
    <linearGradient id="Dégradé_sans_nom" x1="141.63606" y1="-1124.78997" x2="190.33317" y2="-1124.78997" gradientTransform="matrix(1, 0, 0, -1, 0, -1074.77152)" gradientUnits="userSpaceOnUse">
      <stop offset="0" stop-color="#ff8a15"/>
      <stop offset="0.05425" stop-color="#fe8524"/>
      <stop offset="0.15949" stop-color="#fd774d"/>
      <stop offset="0.3052" stop-color="#fb618f"/>
      <stop offset="0.48417" stop-color="#f843e8"/>
      <stop offset="0.51277" stop-color="#f73ef7"/>
      <stop offset="0.60955" stop-color="#e436c3"/>
      <stop offset="0.7478" stop-color="#cb2c7e"/>
      <stop offset="0.86368" stop-color="#b9244c"/>
      <stop offset="0.95111" stop-color="#ad202e"/>
      <stop offset="1" stop-color="#a91e22"/>
    </linearGradient>
    <linearGradient id="Dégradé_sans_nom_2" y1="-1137.59003" x2="153.6596" y2="-1137.59003" gradientTransform="matrix(1, 0, 0, -1, 0, -1074.77152)" gradientUnits="userSpaceOnUse">
      <stop offset="0" stop-color="#ff8a15"/>
      <stop offset="0.05425" stop-color="#fe8524"/>
      <stop offset="0.15949" stop-color="#fd774d"/>
      <stop offset="0.3052" stop-color="#fb618f"/>
      <stop offset="0.48417" stop-color="#f843e8"/>
      <stop offset="0.51277" stop-color="#f73ef7"/>
      <stop offset="0.60955" stop-color="#e436c3"/>
      <stop offset="0.7478" stop-color="#cb2c7e"/>
      <stop offset="0.86368" stop-color="#b9244c"/>
      <stop offset="0.95111" stop-color="#ad202e"/>
      <stop offset="1" stop-color="#a91e22"/>
    </linearGradient></defs><title>Woa80s</title><g id="Calque_2" data-name="Calque 2"><g id="Calque_1-2" data-name="Calque 1">
    <path class="cls-1" d="M158.171,99.94821s12.60574-29.09827,11.94044-32.93252a10.22449,10.22449,0,0,1,.52525-3.204c1.103-6.16281,3.9743-21.44728-2.69623-29.43092,0,0,5.91769,3.65917,6.548,7.77355,0,0-.8754-11.95795-8.3513-8.61393-7.0032,3.13393-13.86632-3.62415-19.57393-5.25239V28.148l12.83335,1.40064s-20.852-5.16485-17.36791-19.43386c0,0,13.131-18.48843,33.26517-5.2524a28.13535,28.13535,0,0,0,5.25239,8.24626s-4.76217-6.11028-3.50159-7.66849c0,0,14.47909,11.53776,11.45022,27.365a5.90037,5.90037,0,0,1-.80537,1.9784,37.94092,37.94092,0,0,0-2.95885,5.25239c-1.103,2.50364,5.60255-8.00115,5.60255-8.00115S182.62965,60.41517,174.78608,66.578a9.19174,9.19174,0,0,0-2.95885,3.90428Z"/><path class="cls-2" d="M143.902,123.689a17.8231,17.8231,0,0,1-23.97357-7.78428l-.01236-.02427L108.55338,93.59281l-.19259-.38518L97.05063,71.00751c-4.3945,23.93342-10.90747,36.94185-17.05277,43.99757a17.84064,17.84064,0,0,1-32.21469.8754L36.42049,93.59281l-.19259-.38518L23.63966,68.52137,13.50254,48.63231,13.31,48.24713,1.94727,25.942A17.84071,17.84071,0,1,1,33.74177,9.74708l45.8359,89.9385a17.78816,17.78816,0,0,1,1.94339,8.3338c6.8106-3.76422,13.096-27.75015,15.372-37.327l-1.12051-2.171L85.63543,48.63231l-.19259-.38518L74.08016,25.942a17.84071,17.84071,0,1,1,31.7945-16.19488l45.8359,89.9385a17.84062,17.84062,0,0,1-7.79451,23.99629Z"/><path class="cls-3" d="M169.55119,102.31178a24.07348,24.07348,0,1,1,24.07347,24.07349A24.07347,24.07347,0,0,1,169.55119,102.31178Zm36.76676,0c0-7.47591-5.14735-12.88588-12.133-12.88588s-12.133,5.41-12.133,12.88588,5.04229,12.86837,12.133,12.86837,12.0455-5.41,12.0455-12.86837Z"/><path class="cls-3" d="M271.92037,78.97364v46.65878H259.97991V122.551a23.75828,23.75828,0,0,1-12.97342,3.83426,24.07348,24.07348,0,1,1,12.97342-44.33022V78.97364Zm-12.41316,23.33815c0-7.47591-5.12982-12.88588-12.133-12.88588s-12.133,5.41-12.133,12.88588,5.12982,12.86836,12.133,12.86836S259.50721,109.77019,259.50721,102.31179Z"/><path class="cls-3" d="M322.86861,85.04892l-23.70582,29.3959h23.70579v11.1876h-42.842v-6.05776l23.7058-29.39591h-23.7058V78.97364h42.842Z"/><path class="cls-3" d="M327.15806,102.31178a24.07348,24.07348,0,1,1,24.07348,24.07349A24.07347,24.07347,0,0,1,327.15806,102.31178Zm36.66172,0c0-7.47591-5.12982-12.88588-12.11552-12.88588s-12.0455,5.41-12.0455,12.88588,5.02478,12.86837,12.133,12.86837S363.81978,109.77019,363.81978,102.31178Z"/><path class="cls-3" d="M380.52239,102.31178a24.091,24.091,0,1,1,24.10847,24.07349h-.035A24.14353,24.14353,0,0,1,380.52239,102.31178Zm36.67922,0c0-7.47591-5.12983-12.88588-12.133-12.88588s-12.133,5.41-12.133,12.88588,5.04231,12.86837,12.133,12.86837S417.20161,109.77019,417.20161,102.31178Z"/></g></g></svg>
