<svg xmlns="http://www.w3.org/2000/svg" width="260" height="190" fill="none" viewBox="0 0 260 190"><g clip-path="url(#clip0)"><path fill="#EAE9FF" d="M36.6994 10.4993C34.7712 10.4439 32.7951 10.4993 30.9866 11.0577C26.0656 12.579 23.7331 17.5567 24.4915 21.8581C25.2498 26.1595 28.3694 29.9073 31.6062 33.3325C34.843 36.7577 38.3501 40.1445 40.1252 44.2388C41.0103 46.2824 41.4242 48.5715 40.5247 50.6127C39.1371 53.7587 34.953 55.5158 30.9363 55.8817C26.9196 56.2476 22.8862 55.5351 18.8552 55.2968C17.1638 55.1981 15.4246 55.1861 13.8314 55.6458C12.0826 56.1465 10.6257 57.1695 9.286 58.2358C4.04926 62.4144 -0.142055 68.1215 0.542143 74.1078C1.30768 80.9029 8.13531 86.273 15.6136 89.1543C18.0897 90.1171 20.7092 90.8825 22.8886 92.2449C28.6301 95.8386 29.9196 102.578 29.3478 108.526C28.7761 114.474 26.8287 120.429 27.9125 126.324C29.1876 133.182 34.831 139.377 42.4433 142.271C49.2255 144.848 57.7133 144.678 63.7348 141.041C66.6701 139.264 68.8902 136.797 70.8208 134.245C73.6874 130.478 76.0556 126.351 77.8661 121.97C78.7058 119.926 79.4952 117.728 81.4545 116.308C82.6507 115.434 84.2009 114.946 85.7344 114.565C90.3563 113.42 95.2246 113.107 99.8896 112.086C104.555 111.066 109.236 109.162 111.772 105.76C115.361 100.946 113.686 94.7795 113.703 89.1182C113.731 76.202 123.059 64.6409 126.502 52.0497C127.626 47.9361 128.045 43.3843 125.533 39.7136C123.827 37.2223 120.949 35.4242 117.925 34.0354C111.272 30.9808 103.71 29.6209 96.2724 28.297C85.9353 26.458 73.3829 26.2197 65.3711 20.2695C57.6942 14.5696 47.1753 10.4993 36.6994 10.4993Z"/><g opacity=".5"><path fill="#6C63FF" d="M6.54094 84.0909C6.02899 84.8515 5.60795 85.9563 6.27779 87.2441C7.59356 89.7715 10.8471 89.2516 12.4284 91.6707C12.8509 92.341 13.0864 93.1134 13.1102 93.9068C13.17 95.2764 12.749 96.3548 12.5313 97.5607C12.2465 98.9828 12.4684 100.46 13.158 101.734C13.9343 103.065 15.1057 104.116 16.5073 104.741C17.7321 105.285 18.8996 105.424 20.0718 105.689C21.526 106.025 22.9424 106.509 24.299 107.133C24.9438 107.406 25.5502 107.762 26.1028 108.193C26.7768 108.788 27.3884 109.451 27.9281 110.171L33.0165 116.492C33.6631 117.344 34.3836 118.137 35.1696 118.861C36.0271 119.557 36.9693 120.14 37.9734 120.596C40.0045 121.614 42.1288 122.657 43.8919 122.539C45.6551 122.421 46.8799 120.709 46.045 118.317C45.2556 116.04 43.0307 114.121 42.0212 111.849C40.4303 108.267 42.514 105.591 41.1815 102.004C39.904 98.5572 36.3227 96.2464 34.0357 93.098C32.3945 90.8595 31.4807 88.2551 30.0022 85.9034C27.8492 82.5335 24.6435 79.9556 21.6292 78.651C18.9782 77.517 16.0753 77.1125 13.2179 77.4787C12.127 77.5991 11.0528 77.8037 10.2777 78.4608C9.45477 79.1588 9.56003 80.4635 9.02415 81.3902C8.40933 82.4565 7.2371 83.0607 6.54094 84.0909Z" opacity=".5"/><path stroke="#535461" stroke-miterlimit="10" stroke-width="2" d="M9.73438 79.2441C9.73438 79.2441 35.2076 103.206 45.4801 121.863" opacity=".5"/><path stroke="#535461" stroke-miterlimit="10" stroke-width="2" d="M6.375 87.3903C6.375 87.3903 16.5542 85.3997 23.5996 93.3839" opacity=".5"/><path stroke="#535461" stroke-miterlimit="10" stroke-width="2" d="M13.6094 102.438C13.6094 102.438 24.8532 94.5258 28.7431 99.1281" opacity=".5"/><path stroke="#535461" stroke-miterlimit="10" stroke-width="2" d="M21.5808 78.5938C21.5808 78.5938 20.3967 84.6499 24.6573 94.5428" opacity=".5"/><path stroke="#535461" stroke-miterlimit="10" stroke-width="2" d="M41.1689 102.098C41.1689 102.098 40.1737 106.069 32.1738 103.15" opacity=".5"/><path stroke="#535461" stroke-miterlimit="10" stroke-width="2" d="M33.0469 115.991C33.0469 115.991 37.9296 110.313 35.7095 107.525" opacity=".5"/></g><path fill="#6C63FF" d="M1.75267 56.296C0.556518 57.7186 -0.563078 59.6876 0.317288 61.6301C2.01104 65.4428 8.28126 63.5774 10.5181 67.1277C11.1879 68.1892 11.2788 69.4866 11.1233 70.6444C10.8219 72.9095 9.70707 74.8327 8.93675 76.9027C8.16643 78.9728 7.76691 81.4761 8.85302 83.6617C9.89845 85.7775 12.1018 87.1134 14.2357 87.6454C16.3696 88.1773 18.5083 88.057 20.6399 88.1268C23.1722 88.2267 25.6865 88.5995 28.1397 89.2388C29.2179 89.4845 30.2501 89.9022 31.1971 90.4761C32.2856 91.1765 33.166 92.2043 34.0272 93.2153L41.6826 102.191C42.6993 103.395 43.7375 104.598 44.9983 105.482C46.4528 106.5 48.1083 107.017 49.7374 107.516C53.2422 108.594 56.9143 109.682 60.2636 108.943C63.6128 108.204 66.4237 104.983 65.5864 101.255C64.7898 97.7044 61.1966 95.1866 59.9861 91.7085C58.0722 86.2276 62.797 81.144 61.3784 75.5668C60.0195 70.2184 53.9957 67.4599 50.6465 62.9323C48.2542 59.6876 47.3116 55.6293 45.2208 52.1776C42.2017 47.195 36.9386 43.895 31.6995 42.6409C26.4604 41.3868 21.1901 41.9717 16.2763 43.2258C14.195 43.7578 12.1137 44.4293 10.463 45.758C8.70948 47.1709 8.50853 49.3156 7.23104 51.0198C5.7502 53.0008 3.36508 54.3704 1.75267 56.296Z"/><path stroke="#535461" stroke-miterlimit="10" stroke-width="2" d="M9.20508 47.2461C9.20508 47.2461 49.7952 79.3801 63.4529 107.326"/><path stroke="#535461" stroke-miterlimit="10" stroke-width="2" d="M0.447266 61.8308C0.447266 61.8308 20.1526 55.416 30.9587 66.563"/><path stroke="#535461" stroke-miterlimit="10" stroke-width="2" d="M9.49023 84.6988C9.49023 84.6988 32.9611 68.0902 38.894 74.5676"/><path stroke="#535461" stroke-miterlimit="10" stroke-width="2" d="M31.6404 42.5469C31.6404 42.5469 27.5951 52.991 32.5974 68.1723"/><path stroke="#535461" stroke-miterlimit="10" stroke-width="2" d="M61.3159 75.7188C61.3159 75.7188 58.2513 82.6342 44.1152 80.2151"/><path stroke="#535461" stroke-miterlimit="10" stroke-width="2" d="M41.8887 101.332C41.8887 101.332 52.7665 90.3846 49.4412 86.4082"/><path fill="#EAE9FF" d="M147.838 185.746C209.275 185.746 259.08 172.327 259.08 155.773C259.08 139.22 209.275 125.801 147.838 125.801C86.4004 125.801 36.5957 139.22 36.5957 155.773C36.5957 172.327 86.4004 185.746 147.838 185.746Z"/><path fill="#6C63FF" d="M234.482 0.0976562C234.482 0.0976562 225.91 8.72209 230.75 21.5203C235.589 34.3186 222.453 55.6017 222.453 55.6017C222.453 55.6017 222.594 55.58 222.855 55.5343C240.46 52.4051 249.209 32.1474 239.419 17.0962C235.781 11.5022 232.793 4.94063 234.482 0.0976562Z"/><path stroke="#535461" stroke-miterlimit="10" stroke-width="2" d="M234.482 0.0976562C234.482 0.0976562 229.642 10.6694 234.482 19.2938C239.321 27.9183 235.312 52.1235 222.453 55.6017"/><path fill="#6C63FF" d="M249.75 34.9847C249.75 34.9847 239.968 33.4177 239.078 42.2371C238.188 51.0565 220.27 52.2793 220.27 52.2793L220.604 52.5031C235.398 62.2733 249.551 58.7277 247.398 45.7634C246.616 40.9301 246.681 36.0775 249.75 34.9847Z"/><path fill="#F5F5F5" d="M249.75 34.9847C249.75 34.9847 239.968 33.4177 239.078 42.2371C238.188 51.0565 220.27 52.2793 220.27 52.2793L220.604 52.5031C235.398 62.2733 249.551 58.7277 247.398 45.7634C246.616 40.9301 246.681 36.0775 249.75 34.9847Z" opacity=".2"/><path stroke="#535461" stroke-miterlimit="10" stroke-width="2" d="M249.75 34.9844C249.75 34.9844 242.157 36.6693 242.781 43.6064C243.405 50.5435 231.506 58.8791 220.27 52.2718"/><path stroke="#535461" stroke-miterlimit="10" stroke-width="2" d="M59.0182 67.3496C59.0182 67.3496 55.846 56.5179 59.6139 48.5409C61.2148 45.2065 61.6975 41.4395 60.9894 37.8055C60.6402 36.0833 60.1349 34.397 59.4799 32.7676"/><path fill="#6C63FF" d="M61.8198 27.7254C61.8198 29.0541 59.4275 32.9029 59.4275 32.9029C59.4275 32.9029 57.0352 29.0517 57.0352 27.7254C57.0352 27.087 57.2872 26.4748 57.7358 26.0234C58.1845 25.572 58.793 25.3184 59.4275 25.3184C60.0619 25.3184 60.6704 25.572 61.1191 26.0234C61.5677 26.4748 61.8198 27.087 61.8198 27.7254Z"/><path fill="#6C63FF" d="M65.7705 35.0814C65.0528 36.1958 60.9668 38.1214 60.9668 38.1214C60.9668 38.1214 61.041 33.5818 61.7586 32.4673C61.9219 32.1865 62.14 31.9419 62.3998 31.7482C62.6596 31.5546 62.9557 31.416 63.2703 31.3407C63.5848 31.2654 63.9113 31.2551 64.2299 31.3103C64.5485 31.3656 64.8527 31.4852 65.1241 31.662C65.3955 31.8389 65.6284 32.0692 65.8089 32.3392C65.9893 32.6091 66.1135 32.913 66.1739 33.2326C66.2343 33.5522 66.2297 33.8808 66.1604 34.1986C66.0911 34.5163 65.9584 34.8166 65.7705 35.0814Z"/><path fill="#6C63FF" d="M65.5999 47.649C64.4205 48.2459 59.9277 47.8343 59.9277 47.8343C59.9277 47.8343 62.2698 43.9541 63.4468 43.3572C63.7285 43.1986 64.0392 43.099 64.3602 43.0645C64.6811 43.0299 65.0057 43.061 65.3144 43.156C65.6231 43.2509 65.9095 43.4078 66.1563 43.6171C66.4032 43.8263 66.6054 44.0837 66.7508 44.3737C66.8962 44.6636 66.9817 44.9802 67.0023 45.3043C67.0229 45.6285 66.9781 45.9534 66.8705 46.2596C66.763 46.5659 66.595 46.847 66.3766 47.0862C66.1583 47.3254 65.894 47.5176 65.5999 47.6514V47.649Z"/><path fill="#6C63FF" d="M63.341 57.1281C62.2788 57.9176 57.7812 58.2739 57.7812 58.2739C57.7812 58.2739 59.4367 54.0519 60.4989 53.2624C60.7497 53.0561 61.0395 52.9032 61.3507 52.8129C61.662 52.7226 61.9883 52.6969 62.3097 52.7373C62.6311 52.7777 62.9411 52.8833 63.2207 53.0478C63.5004 53.2123 63.7439 53.4323 63.9365 53.6943C64.1292 53.9564 64.2669 54.255 64.3414 54.5722C64.4159 54.8894 64.4256 55.2185 64.3699 55.5396C64.3143 55.8607 64.1943 56.167 64.0175 56.4401C63.8406 56.7132 63.6104 56.9472 63.341 57.1281Z"/><path fill="#6C63FF" d="M55.9525 38.3781C56.9094 39.3024 61.3088 40.2628 61.3088 40.2628C61.3088 40.2628 60.2299 35.8555 59.2826 34.9312C59.0613 34.6936 58.7944 34.5036 58.498 34.3728C58.2017 34.2419 57.882 34.173 57.5584 34.17C57.2348 34.1671 56.9139 34.2303 56.6153 34.3557C56.3166 34.4811 56.0464 34.6662 55.8209 34.8998C55.5954 35.1334 55.4193 35.4106 55.3034 35.7146C55.1874 36.0186 55.134 36.3431 55.1463 36.6685C55.1586 36.9939 55.2364 37.3134 55.3749 37.6077C55.5135 37.9019 55.71 38.1648 55.9525 38.3805V38.3781Z"/><path fill="#6C63FF" d="M53.4469 49.4975C54.6263 50.0944 59.119 49.6828 59.119 49.6828C59.119 49.6828 56.777 45.8026 55.6 45.2057C55.0379 44.9502 54.3996 44.923 53.8181 45.1297C53.2366 45.3364 52.7568 45.761 52.4791 46.3151C52.2013 46.8691 52.1469 47.5096 52.3272 48.1031C52.5075 48.6965 52.9087 49.1969 53.4469 49.4999V49.4975Z"/><path fill="#6C63FF" d="M52.4893 60.6435C53.5515 61.433 58.049 61.7892 58.049 61.7892C58.049 61.7892 56.3935 57.5673 55.3313 56.7778C54.8203 56.4347 54.1976 56.3026 53.5924 56.4089C52.9871 56.5152 52.4457 56.8517 52.0804 57.3486C51.715 57.8456 51.5536 58.465 51.6298 59.0784C51.7059 59.6918 52.0137 60.2522 52.4893 60.6435Z"/><path fill="url(#paint0_linear)" d="M256.554 130.341H236.198C236.669 129.394 236.915 128.35 236.916 127.291V34.0228C236.914 32.2048 236.196 30.4618 234.918 29.1768C233.64 27.8918 231.907 27.1699 230.1 27.1699H72.5263C70.7187 27.1699 68.9851 27.8924 67.7069 29.1785C66.4287 30.4645 65.7107 32.2088 65.7107 34.0276V127.291C65.7116 128.35 65.9573 129.394 66.4284 130.341H45.3522C44.8744 130.341 44.4162 130.532 44.0784 130.871C43.7406 131.211 43.5508 131.672 43.5508 132.153V133.614C43.5508 136.304 44.6129 138.884 46.5035 140.787C48.3941 142.689 50.9582 143.757 53.6319 143.757H248.289C250.962 143.757 253.527 142.689 255.417 140.787C257.308 138.884 258.37 136.304 258.37 133.614V132.153C258.37 131.914 258.323 131.677 258.231 131.456C258.14 131.235 258.006 131.035 257.837 130.866C257.668 130.698 257.468 130.565 257.248 130.474C257.028 130.384 256.792 130.339 256.554 130.341ZM131.128 136.142L129.382 134.146H172.709L170.776 136.142H131.128Z"/><path fill="#535461" d="M229.403 28.4883H73.2051C70.1319 28.4883 67.6406 30.9949 67.6406 34.0871V127.449C67.6406 130.541 70.1319 133.048 73.2051 133.048H229.403C232.476 133.048 234.968 130.541 234.968 127.449V34.0871C234.968 30.9949 232.476 28.4883 229.403 28.4883Z"/><path fill="#F1F1F4" d="M231.094 43.7285H71.1641V129.147H231.094V43.7285Z"/><path fill="#fff" d="M151.13 37.7007C151.908 37.7007 152.539 37.066 152.539 36.283C152.539 35.5 151.908 34.8652 151.13 34.8652C150.352 34.8652 149.721 35.5 149.721 36.283C149.721 37.066 150.352 37.7007 151.13 37.7007Z"/><path fill="#535461" d="M175.821 129.322L170.319 134.993H131.564L126.598 129.322H47.7353C47.2684 129.322 46.8205 129.509 46.4903 129.841C46.1601 130.173 45.9746 130.624 45.9746 131.094V132.524C45.9746 133.826 46.2298 135.116 46.7257 136.32C47.2215 137.523 47.9482 138.616 48.8643 139.537C49.7803 140.457 50.8678 141.187 52.0644 141.685C53.261 142.182 54.5433 142.437 55.8381 142.436H246.074C248.687 142.436 251.192 141.392 253.04 139.533C254.887 137.674 255.925 135.153 255.925 132.524V131.094C255.925 130.624 255.74 130.173 255.41 129.841C255.079 129.509 254.632 129.322 254.165 129.322H175.821Z"/><path fill="#fff" d="M124.656 50.2383H80.9316V83.3929H124.656V50.2383Z"/><path fill="#6C63FF" d="M99.7829 53.1055H85.209V61.3929H99.7829V53.1055Z" opacity=".2"/><path fill="#E6E8EC" d="M120.379 53.1055H103.27V55.0191H120.379V53.1055Z"/><path fill="#E6E8EC" d="M115.31 56.2949H103.27V58.2085H115.31V56.2949Z"/><path fill="#E6E8EC" d="M120.379 59.4805H103.27V61.3941H120.379V59.4805Z"/><path fill="#E6E8EC" d="M120.378 62.6699H85.209V64.5835H120.378V62.6699Z"/><path fill="#E6E8EC" d="M120.378 65.8574H85.209V67.771H120.378V65.8574Z"/><path fill="#E6E8EC" d="M120.378 69.0469H85.209V70.9605H120.378V69.0469Z"/><path fill="#E6E8EC" d="M117.527 72.2324H85.209V74.146H117.527V72.2324Z"/><path fill="#E6E8EC" d="M120.378 75.4199H85.209V77.3335H120.378V75.4199Z"/><path fill="#E6E8EC" d="M120.378 78.6094H85.209V80.523H120.378V78.6094Z"/><path fill="#fff" d="M172.816 50.2383H129.092V83.3929H172.816V50.2383Z"/><path fill="#6C63FF" d="M147.939 53.1055H133.365V61.3929H147.939V53.1055Z" opacity=".2"/><path fill="#E6E8EC" d="M168.537 53.1055H151.428V55.0191H168.537V53.1055Z"/><path fill="#E6E8EC" d="M163.468 56.2949H151.428V58.2085H163.468V56.2949Z"/><path fill="#E6E8EC" d="M168.537 59.4805H151.428V61.3941H168.537V59.4805Z"/><path fill="#E6E8EC" d="M168.534 62.6699H133.365V64.5835H168.534V62.6699Z"/><path fill="#E6E8EC" d="M168.534 65.8574H133.365V67.771H168.534V65.8574Z"/><path fill="#E6E8EC" d="M168.534 69.0469H133.365V70.9605H168.534V69.0469Z"/><path fill="#E6E8EC" d="M165.683 72.2324H133.365V74.146H165.683V72.2324Z"/><path fill="#E6E8EC" d="M168.534 75.4199H133.365V77.3335H168.534V75.4199Z"/><path fill="#E6E8EC" d="M168.534 78.6094H133.365V80.523H168.534V78.6094Z"/><path fill="#fff" d="M220.972 50.2383H177.248V83.3929H220.972V50.2383Z"/><path fill="#6C63FF" d="M196.099 53.1055H181.525V61.3929H196.099V53.1055Z" opacity=".2"/><path fill="#E6E8EC" d="M216.696 53.1055H199.586V55.0191H216.696V53.1055Z"/><path fill="#E6E8EC" d="M211.626 56.2949H199.586V58.2085H211.626V56.2949Z"/><path fill="#E6E8EC" d="M216.696 59.4805H199.586V61.3941H216.696V59.4805Z"/><path fill="#E6E8EC" d="M216.695 62.6699H181.525V64.5835H216.695V62.6699Z"/><path fill="#E6E8EC" d="M216.695 65.8574H181.525V67.771H216.695V65.8574Z"/><path fill="#E6E8EC" d="M216.695 69.0469H181.525V70.9605H216.695V69.0469Z"/><path fill="#E6E8EC" d="M213.843 72.2324H181.525V74.146H213.843V72.2324Z"/><path fill="#E6E8EC" d="M216.695 75.4199H181.525V77.3335H216.695V75.4199Z"/><path fill="#E6E8EC" d="M216.695 78.6094H181.525V80.523H216.695V78.6094Z"/><path fill="#fff" d="M124.656 87.5352H80.9316V120.69H124.656V87.5352Z"/><path fill="#6C63FF" d="M99.7829 90.4043H85.209V98.6917H99.7829V90.4043Z" opacity=".2"/><path fill="#E6E8EC" d="M120.379 90.4043H103.27V92.3179H120.379V90.4043Z"/><path fill="#E6E8EC" d="M115.31 93.5918H103.27V95.5054H115.31V93.5918Z"/><path fill="#E6E8EC" d="M120.379 96.7793H103.27V98.6929H120.379V96.7793Z"/><path fill="#E6E8EC" d="M120.378 99.9668H85.209V101.88H120.378V99.9668Z"/><path fill="#E6E8EC" d="M120.378 103.156H85.209V105.07H120.378V103.156Z"/><path fill="#E6E8EC" d="M120.378 106.344H85.209V108.257H120.378V106.344Z"/><path fill="#E6E8EC" d="M117.527 109.531H85.209V111.445H117.527V109.531Z"/><path fill="#E6E8EC" d="M120.378 112.721H85.209V114.634H120.378V112.721Z"/><path fill="#E6E8EC" d="M120.378 115.906H85.209V117.82H120.378V115.906Z"/><path fill="#fff" d="M172.816 87.5352H129.092V120.69H172.816V87.5352Z"/><path fill="#6C63FF" d="M147.939 90.4043H133.365V98.6917H147.939V90.4043Z" opacity=".2"/><path fill="#E6E8EC" d="M168.537 90.4043H151.428V92.3179H168.537V90.4043Z"/><path fill="#E6E8EC" d="M163.468 93.5918H151.428V95.5054H163.468V93.5918Z"/><path fill="#E6E8EC" d="M168.537 96.7793H151.428V98.6929H168.537V96.7793Z"/><path fill="#E6E8EC" d="M168.534 99.9668H133.365V101.88H168.534V99.9668Z"/><path fill="#E6E8EC" d="M168.534 103.156H133.365V105.07H168.534V103.156Z"/><path fill="#E6E8EC" d="M168.534 106.344H133.365V108.257H168.534V106.344Z"/><path fill="#E6E8EC" d="M165.683 109.531H133.365V111.445H165.683V109.531Z"/><path fill="#E6E8EC" d="M168.534 112.721H133.365V114.634H168.534V112.721Z"/><path fill="#E6E8EC" d="M168.534 115.906H133.365V117.82H168.534V115.906Z"/><path fill="#000" d="M220.972 87.5352H177.248V120.69H220.972V87.5352Z" opacity=".1"/><path fill="url(#paint1_linear)" d="M105.756 61.3945H38.2928C37.4806 61.393 36.6759 61.5525 35.925 61.8641C35.1741 62.1757 34.4916 62.6332 33.9165 63.2105C33.3415 63.7877 32.8852 64.4734 32.5738 65.2282C32.2623 65.983 32.1019 66.7922 32.1016 67.6095V161.662C32.1025 162.479 32.2633 163.288 32.5749 164.042C32.8865 164.796 33.3426 165.481 33.9174 166.058C34.4921 166.634 35.1741 167.091 35.9244 167.403C36.6748 167.714 37.4788 167.874 38.2904 167.873H105.753C106.565 167.874 107.369 167.714 108.119 167.403C108.87 167.091 109.552 166.634 110.126 166.058C110.701 165.481 111.157 164.796 111.469 164.042C111.78 163.288 111.941 162.479 111.942 161.662V67.6095C111.942 66.7926 111.782 65.9838 111.47 65.2293C111.159 64.4748 110.703 63.7894 110.129 63.2122C109.554 62.635 108.872 62.1774 108.122 61.8655C107.372 61.5536 106.568 61.3936 105.756 61.3945Z"/><path fill="#535461" d="M106.211 62.6699H37.8393C35.1968 62.6699 33.0547 64.8253 33.0547 67.484V162.1C33.0547 164.759 35.1968 166.914 37.8393 166.914H106.211C108.854 166.914 110.996 164.759 110.996 162.1V67.484C110.996 64.8253 108.854 62.6699 106.211 62.6699Z"/><path fill="#F1F1F4" d="M107.034 72.5312H37.0137V157.055H107.034V72.5312Z"/><path fill="#fff" d="M71.7076 68.4092C72.2321 68.4092 72.6573 67.9814 72.6573 67.4536C72.6573 66.9259 72.2321 66.498 71.7076 66.498C71.183 66.498 70.7578 66.9259 70.7578 67.4536C70.7578 67.9814 71.183 68.4092 71.7076 68.4092Z"/><path fill="#fff" d="M71.7071 164.684C73.282 164.684 74.5587 163.399 74.5587 161.815C74.5587 160.23 73.282 158.945 71.7071 158.945C70.1322 158.945 68.8555 160.23 68.8555 161.815C68.8555 163.399 70.1322 164.684 71.7071 164.684Z"/><path fill="#fff" d="M60.0119 81.168H40.041V96.3131H60.0119V81.168Z"/><path fill="#6C63FF" d="M48.6519 82.4805H41.9941V86.2668H48.6519V82.4805Z" opacity=".2"/><path fill="#E6E8EC" d="M58.0578 82.4805H50.2422V83.3542H58.0578V82.4805Z"/><path fill="#E6E8EC" d="M55.7421 83.9355H50.2422V84.8093H55.7421V83.9355Z"/><path fill="#E6E8EC" d="M58.0578 85.3926H50.2422V86.2663H58.0578V85.3926Z"/><path fill="#E6E8EC" d="M58.0584 86.8496H41.9941V87.7234H58.0584V86.8496Z"/><path fill="#E6E8EC" d="M58.0584 88.3047H41.9941V89.1784H58.0584V88.3047Z"/><path fill="#E6E8EC" d="M58.0584 89.7598H41.9941V90.6335H58.0584V89.7598Z"/><path fill="#E6E8EC" d="M56.757 91.2168H41.9941V92.0906H56.757V91.2168Z"/><path fill="#E6E8EC" d="M58.0584 92.6738H41.9941V93.5476H58.0584V92.6738Z"/><path fill="#E6E8EC" d="M58.0584 94.1289H41.9941V95.0027H58.0584V94.1289Z"/><path fill="#fff" d="M82.01 81.168H62.0391V96.3131H82.01V81.168Z"/><path fill="#6C63FF" d="M70.648 82.4805H63.9902V86.2668H70.648V82.4805Z" opacity=".2"/><path fill="#E6E8EC" d="M80.0578 82.4805H72.2422V83.3542H80.0578V82.4805Z"/><path fill="#E6E8EC" d="M77.7421 83.9355H72.2422V84.8093H77.7421V83.9355Z"/><path fill="#E6E8EC" d="M80.0578 85.3926H72.2422V86.2663H80.0578V85.3926Z"/><path fill="#E6E8EC" d="M80.0545 86.8496H63.9902V87.7234H80.0545V86.8496Z"/><path fill="#E6E8EC" d="M80.0545 88.3047H63.9902V89.1784H80.0545V88.3047Z"/><path fill="#E6E8EC" d="M80.0545 89.7598H63.9902V90.6335H80.0545V89.7598Z"/><path fill="#E6E8EC" d="M78.7531 91.2168H63.9902V92.0906H78.7531V91.2168Z"/><path fill="#E6E8EC" d="M80.0545 92.6738H63.9902V93.5476H80.0545V92.6738Z"/><path fill="#E6E8EC" d="M80.0545 94.1289H63.9902V95.0027H80.0545V94.1289Z"/><path fill="#fff" d="M104.008 81.168H84.0371V96.3131H104.008V81.168Z"/><path fill="#6C63FF" d="M92.6499 82.4805H85.9922V86.2668H92.6499V82.4805Z" opacity=".2"/><path fill="#E6E8EC" d="M102.056 82.4805H94.2402V83.3542H102.056V82.4805Z"/><path fill="#E6E8EC" d="M99.7401 83.9355H94.2402V84.8093H99.7401V83.9355Z"/><path fill="#E6E8EC" d="M102.056 85.3926H94.2402V86.2663H102.056V85.3926Z"/><path fill="#E6E8EC" d="M102.056 86.8496H85.9922V87.7234H102.056V86.8496Z"/><path fill="#E6E8EC" d="M102.056 88.3047H85.9922V89.1784H102.056V88.3047Z"/><path fill="#E6E8EC" d="M102.056 89.7598H85.9922V90.6335H102.056V89.7598Z"/><path fill="#E6E8EC" d="M100.755 91.2168H85.9922V92.0906H100.755V91.2168Z"/><path fill="#E6E8EC" d="M102.056 92.6738H85.9922V93.5476H102.056V92.6738Z"/><path fill="#E6E8EC" d="M102.056 94.1289H85.9922V95.0027H102.056V94.1289Z"/><path fill="#fff" d="M60.0119 98.2051H40.041V113.35H60.0119V98.2051Z"/><path fill="#6C63FF" d="M48.6519 99.5176H41.9941V103.304H48.6519V99.5176Z" opacity=".2"/><path fill="#E6E8EC" d="M58.0578 99.5176H50.2422V100.391H58.0578V99.5176Z"/><path fill="#E6E8EC" d="M55.7421 100.973H50.2422V101.846H55.7421V100.973Z"/><path fill="#E6E8EC" d="M58.0578 102.43H50.2422V103.303H58.0578V102.43Z"/><path fill="#E6E8EC" d="M58.0584 103.885H41.9941V104.759H58.0584V103.885Z"/><path fill="#E6E8EC" d="M58.0584 105.342H41.9941V106.216H58.0584V105.342Z"/><path fill="#E6E8EC" d="M58.0584 106.799H41.9941V107.673H58.0584V106.799Z"/><path fill="#E6E8EC" d="M56.757 108.254H41.9941V109.128H56.757V108.254Z"/><path fill="#E6E8EC" d="M58.0584 109.711H41.9941V110.585H58.0584V109.711Z"/><path fill="#E6E8EC" d="M58.0584 111.168H41.9941V112.042H58.0584V111.168Z"/><path fill="#fff" d="M82.01 98.2051H62.0391V113.35H82.01V98.2051Z"/><path fill="#6C63FF" d="M70.648 99.5176H63.9902V103.304H70.648V99.5176Z" opacity=".2"/><path fill="#E6E8EC" d="M80.0578 99.5176H72.2422V100.391H80.0578V99.5176Z"/><path fill="#E6E8EC" d="M77.7421 100.973H72.2422V101.846H77.7421V100.973Z"/><path fill="#E6E8EC" d="M80.0578 102.43H72.2422V103.303H80.0578V102.43Z"/><path fill="#E6E8EC" d="M80.0545 103.885H63.9902V104.759H80.0545V103.885Z"/><path fill="#E6E8EC" d="M80.0545 105.342H63.9902V106.216H80.0545V105.342Z"/><path fill="#E6E8EC" d="M80.0545 106.799H63.9902V107.673H80.0545V106.799Z"/><path fill="#E6E8EC" d="M78.7531 108.254H63.9902V109.128H78.7531V108.254Z"/><path fill="#E6E8EC" d="M80.0545 109.711H63.9902V110.585H80.0545V109.711Z"/><path fill="#E6E8EC" d="M80.0545 111.168H63.9902V112.042H80.0545V111.168Z"/><path fill="#fff" d="M104.008 98.2051H84.0371V113.35H104.008V98.2051Z"/><path fill="#6C63FF" d="M92.6499 99.5176H85.9922V103.304H92.6499V99.5176Z" opacity=".2"/><path fill="#E6E8EC" d="M102.056 99.5176H94.2402V100.391H102.056V99.5176Z"/><path fill="#E6E8EC" d="M99.7401 100.973H94.2402V101.846H99.7401V100.973Z"/><path fill="#E6E8EC" d="M102.056 102.43H94.2402V103.303H102.056V102.43Z"/><path fill="#E6E8EC" d="M102.056 103.885H85.9922V104.759H102.056V103.885Z"/><path fill="#E6E8EC" d="M102.056 105.342H85.9922V106.216H102.056V105.342Z"/><path fill="#E6E8EC" d="M102.056 106.799H85.9922V107.673H102.056V106.799Z"/><path fill="#E6E8EC" d="M100.755 108.254H85.9922V109.128H100.755V108.254Z"/><path fill="#E6E8EC" d="M102.056 109.711H85.9922V110.585H102.056V109.711Z"/><path fill="#E6E8EC" d="M102.056 111.168H85.9922V112.042H102.056V111.168Z"/><path fill="#fff" d="M60.0119 115.916H40.041V131.061H60.0119V115.916Z"/><path fill="#6C63FF" d="M48.6519 117.229H41.9941V121.015H48.6519V117.229Z" opacity=".2"/><path fill="#E6E8EC" d="M58.0578 117.229H50.2422V118.102H58.0578V117.229Z"/><path fill="#E6E8EC" d="M55.7421 118.684H50.2422V119.557H55.7421V118.684Z"/><path fill="#E6E8EC" d="M58.0578 120.141H50.2422V121.014H58.0578V120.141Z"/><path fill="#E6E8EC" d="M58.0584 121.598H41.9941V122.471H58.0584V121.598Z"/><path fill="#E6E8EC" d="M58.0584 123.053H41.9941V123.926H58.0584V123.053Z"/><path fill="#E6E8EC" d="M58.0584 124.51H41.9941V125.384H58.0584V124.51Z"/><path fill="#E6E8EC" d="M56.757 125.965H41.9941V126.839H56.757V125.965Z"/><path fill="#E6E8EC" d="M58.0584 127.422H41.9941V128.296H58.0584V127.422Z"/><path fill="#E6E8EC" d="M58.0584 128.877H41.9941V129.751H58.0584V128.877Z"/><path fill="#fff" d="M82.01 115.916H62.0391V131.061H82.01V115.916Z"/><path fill="#6C63FF" d="M70.648 117.229H63.9902V121.015H70.648V117.229Z" opacity=".2"/><path fill="#E6E8EC" d="M80.0578 117.229H72.2422V118.102H80.0578V117.229Z"/><path fill="#E6E8EC" d="M77.7421 118.684H72.2422V119.557H77.7421V118.684Z"/><path fill="#E6E8EC" d="M80.0578 120.141H72.2422V121.014H80.0578V120.141Z"/><path fill="#E6E8EC" d="M80.0545 121.598H63.9902V122.471H80.0545V121.598Z"/><path fill="#E6E8EC" d="M80.0545 123.053H63.9902V123.926H80.0545V123.053Z"/><path fill="#E6E8EC" d="M80.0545 124.51H63.9902V125.384H80.0545V124.51Z"/><path fill="#E6E8EC" d="M78.7531 125.965H63.9902V126.839H78.7531V125.965Z"/><path fill="#E6E8EC" d="M80.0545 127.422H63.9902V128.296H80.0545V127.422Z"/><path fill="#E6E8EC" d="M80.0545 128.877H63.9902V129.751H80.0545V128.877Z"/><path fill="#fff" d="M104.008 115.916H84.0371V131.061H104.008V115.916Z"/><path fill="#6C63FF" d="M92.6499 117.229H85.9922V121.015H92.6499V117.229Z" opacity=".2"/><path fill="#E6E8EC" d="M102.056 117.229H94.2402V118.102H102.056V117.229Z"/><path fill="#E6E8EC" d="M99.7401 118.684H94.2402V119.557H99.7401V118.684Z"/><path fill="#E6E8EC" d="M102.056 120.141H94.2402V121.014H102.056V120.141Z"/><path fill="#E6E8EC" d="M102.056 121.598H85.9922V122.471H102.056V121.598Z"/><path fill="#E6E8EC" d="M102.056 123.053H85.9922V123.926H102.056V123.053Z"/><path fill="#E6E8EC" d="M102.056 124.51H85.9922V125.384H102.056V124.51Z"/><path fill="#E6E8EC" d="M100.755 125.965H85.9922V126.839H100.755V125.965Z"/><path fill="#E6E8EC" d="M102.056 127.422H85.9922V128.296H102.056V127.422Z"/><path fill="#E6E8EC" d="M102.056 128.877H85.9922V129.751H102.056V128.877Z"/><path fill="#fff" d="M60.0119 132.953H40.041V148.098H60.0119V132.953Z"/><path fill="#6C63FF" d="M48.6519 134.266H41.9941V138.052H48.6519V134.266Z" opacity=".2"/><path fill="#E6E8EC" d="M58.0578 134.266H50.2422V135.139H58.0578V134.266Z"/><path fill="#E6E8EC" d="M55.7421 135.721H50.2422V136.594H55.7421V135.721Z"/><path fill="#E6E8EC" d="M58.0578 137.178H50.2422V138.051H58.0578V137.178Z"/><path fill="#E6E8EC" d="M58.0584 138.635H41.9941V139.509H58.0584V138.635Z"/><path fill="#E6E8EC" d="M58.0584 140.09H41.9941V140.964H58.0584V140.09Z"/><path fill="#E6E8EC" d="M58.0584 141.545H41.9941V142.419H58.0584V141.545Z"/><path fill="#E6E8EC" d="M56.757 143.002H41.9941V143.876H56.757V143.002Z"/><path fill="#E6E8EC" d="M58.0584 144.459H41.9941V145.333H58.0584V144.459Z"/><path fill="#E6E8EC" d="M58.0584 145.916H41.9941V146.79H58.0584V145.916Z"/><path fill="#fff" d="M82.01 132.953H62.0391V148.098H82.01V132.953Z"/><path fill="#6C63FF" d="M70.648 134.266H63.9902V138.052H70.648V134.266Z" opacity=".2"/><path fill="#E6E8EC" d="M80.0578 134.266H72.2422V135.139H80.0578V134.266Z"/><path fill="#E6E8EC" d="M77.7421 135.721H72.2422V136.594H77.7421V135.721Z"/><path fill="#E6E8EC" d="M80.0578 137.178H72.2422V138.051H80.0578V137.178Z"/><path fill="#E6E8EC" d="M80.0545 138.635H63.9902V139.509H80.0545V138.635Z"/><path fill="#E6E8EC" d="M80.0545 140.09H63.9902V140.964H80.0545V140.09Z"/><path fill="#E6E8EC" d="M80.0545 141.545H63.9902V142.419H80.0545V141.545Z"/><path fill="#E6E8EC" d="M78.7531 143.002H63.9902V143.876H78.7531V143.002Z"/><path fill="#E6E8EC" d="M80.0545 144.459H63.9902V145.333H80.0545V144.459Z"/><path fill="#E6E8EC" d="M80.0545 145.916H63.9902V146.79H80.0545V145.916Z"/><path fill="#000" d="M104.008 132.953H84.0371V148.098H104.008V132.953Z" opacity=".1"/><path fill="url(#paint2_linear)" d="M54.3332 93.2734H19.6927C19.2428 93.2725 18.7972 93.3607 18.3812 93.5331C17.9652 93.7054 17.587 93.9585 17.2682 94.2779C16.9494 94.5973 16.6963 94.9768 16.5233 95.3946C16.3502 95.8124 16.2607 96.2605 16.2598 96.7131V173.038C16.2607 173.491 16.3502 173.939 16.5233 174.357C16.6963 174.774 16.9494 175.154 17.2682 175.473C17.587 175.793 17.9652 176.046 18.3812 176.218C18.7972 176.39 19.2428 176.479 19.6927 176.478H54.3332C54.7831 176.479 55.2288 176.39 55.6448 176.218C56.0608 176.046 56.4389 175.793 56.7577 175.473C57.0765 175.154 57.3296 174.774 57.5027 174.357C57.6757 173.939 57.7652 173.491 57.7662 173.038V96.7155C57.7655 96.2627 57.6762 95.8144 57.5033 95.3963C57.3305 94.9782 57.0774 94.5984 56.7586 94.2788C56.4398 93.9591 56.0615 93.7058 55.6453 93.5333C55.2292 93.3608 54.7833 93.2725 54.3332 93.2734Z"/><path fill="#535461" d="M54.819 93.9121H19.2097C17.7563 93.9121 16.5781 95.0975 16.5781 96.5599V173.513C16.5781 174.975 17.7563 176.161 19.2097 176.161H54.819C56.2724 176.161 57.4506 174.975 57.4506 173.513V96.5599C57.4506 95.0975 56.2724 93.9121 54.819 93.9121Z"/><path fill="#F1F1F4" d="M54.4389 101.562H19.5879V168.507H54.4389V101.562Z"/><path fill="#fff" d="M32.8939 98.0554C33.0683 98.0554 33.2097 97.9131 33.2097 97.7376C33.2097 97.5622 33.0683 97.4199 32.8939 97.4199C32.7195 97.4199 32.5781 97.5622 32.5781 97.7376C32.5781 97.9131 32.7195 98.0554 32.8939 98.0554Z"/><path fill="#fff" d="M41.2124 97.418H34.7197C34.5876 97.418 34.4805 97.5257 34.4805 97.6587V97.8151C34.4805 97.948 34.5876 98.0558 34.7197 98.0558H41.2124C41.3445 98.0558 41.4516 97.948 41.4516 97.8151V97.6587C41.4516 97.5257 41.3445 97.418 41.2124 97.418Z"/><path fill="#fff" d="M36.8563 173.927C38.0811 173.927 39.074 172.928 39.074 171.696C39.074 170.464 38.0811 169.465 36.8563 169.465C35.6316 169.465 34.6387 170.464 34.6387 171.696C34.6387 172.928 35.6316 173.927 36.8563 173.927Z"/><path fill="#000" d="M48.896 105.57H25.1309V123.592H48.896V105.57Z" opacity=".1"/><path fill="#fff" d="M48.896 125.846H25.1309V143.867H48.896V125.846Z"/><path fill="#6C63FF" d="M35.3779 127.404H27.457V131.91H35.3779V127.404Z" opacity=".2"/><path fill="#E6E8EC" d="M46.5704 127.404H37.2715V128.444H46.5704V127.404Z"/><path fill="#E6E8EC" d="M43.8168 129.137H37.2715V130.177H43.8168V129.137Z"/><path fill="#E6E8EC" d="M46.5704 130.869H37.2715V131.909H46.5704V130.869Z"/><path fill="#E6E8EC" d="M46.5739 132.602H27.457V133.641H46.5739V132.602Z"/><path fill="#E6E8EC" d="M46.5739 134.336H27.457V135.376H46.5739V134.336Z"/><path fill="#E6E8EC" d="M46.5739 136.068H27.457V137.108H46.5739V136.068Z"/><path fill="#E6E8EC" d="M45.0237 137.801H27.457V138.841H45.0237V137.801Z"/><path fill="#E6E8EC" d="M46.5739 139.535H27.457V140.575H46.5739V139.535Z"/><path fill="#E6E8EC" d="M46.5739 141.268H27.457V142.307H46.5739V141.268Z"/><path fill="#fff" d="M48.896 146.16H25.1309V164.182H48.896V146.16Z"/><path fill="#6C63FF" d="M35.3779 147.721H27.457V152.227H35.3779V147.721Z" opacity=".2"/><path fill="#E6E8EC" d="M46.5704 147.721H37.2715V148.761H46.5704V147.721Z"/><path fill="#E6E8EC" d="M43.8168 149.453H37.2715V150.493H43.8168V149.453Z"/><path fill="#E6E8EC" d="M46.5704 151.186H37.2715V152.225H46.5704V151.186Z"/><path fill="#E6E8EC" d="M46.5739 152.92H27.457V153.96H46.5739V152.92Z"/><path fill="#E6E8EC" d="M46.5739 154.652H27.457V155.692H46.5739V154.652Z"/><path fill="#E6E8EC" d="M46.5739 156.387H27.457V157.427H46.5739V156.387Z"/><path fill="#E6E8EC" d="M45.0237 158.119H27.457V159.159H45.0237V158.119Z"/><path fill="#E6E8EC" d="M46.5739 159.85H27.457V160.889H46.5739V159.85Z"/><path fill="#E6E8EC" d="M46.5739 161.582H27.457V162.622H46.5739V161.582Z"/><path fill="url(#paint3_linear)" d="M130.06 154.673C128.452 152.712 126.505 150.456 126.778 147.845C126.998 145.729 126.469 143.774 126.574 141.654C126.723 138.64 126.117 136.279 123.96 134.346C122.699 133.217 120.591 132.329 119.964 132.555C118.72 133.003 117.364 132.832 116.084 133.133C115.113 133.373 114.465 133.713 114.065 134.153C113.259 134.875 113.244 135.901 113.613 136.996C113.291 137.588 113.097 138.241 113.043 138.913C112.989 139.585 113.076 140.261 113.299 140.897C113.522 141.533 113.876 142.114 114.337 142.603C114.799 143.092 115.357 143.478 115.976 143.736C115.079 144.111 114.302 144.98 114.003 146.742C113.79 147.953 113.47 149.142 113.046 150.295C112.856 150.386 112.661 150.466 112.462 150.536C112.505 150.552 112.551 150.564 112.596 150.581C112.503 150.617 112.407 150.654 112.314 150.687C112.486 150.754 112.664 150.806 112.845 150.841C112.192 152.546 111.315 154.154 110.237 155.624C110.237 155.624 107.529 156.226 106.477 155.174C106.477 155.174 106.649 155.376 106.881 155.679C105.85 155.249 104.161 154.548 102.716 153.97C101.668 153.552 101.398 153.97 101.412 154.553C101.155 154.583 100.906 154.665 100.68 154.794C100.37 154.594 100.046 154.418 99.7088 154.269C99.106 154.12 97.1515 153.065 95.1946 156.676C94.0558 158.777 91.1277 162.609 88.8909 165.447C84.5249 167.467 78.8432 170.021 76.7332 170.668H75.3839C75.2069 170.377 75.0825 170.187 75.0825 170.187L74.9772 170.256L74.9318 170.187C74.9318 170.187 72.2739 172.038 69.5754 172.052C69.1915 172.046 68.8094 171.996 68.4367 171.903C67.1951 171.588 66.3219 171.448 65.6975 171.46C64.9583 171.448 64.5396 171.624 64.2789 171.956C64.2449 172 64.2138 172.045 64.1856 172.093C64.1566 172.142 64.1303 172.193 64.1066 172.245C64.0827 172.298 64.0612 172.353 64.0396 172.411C64.0314 172.461 64.0346 172.513 64.0491 172.562C64.0636 172.612 64.089 172.657 64.1234 172.695C64.1593 172.747 64.1985 172.797 64.2406 172.844L64.3148 172.926C64.8493 173.427 65.4282 173.877 66.0444 174.271C66.2669 174.423 66.5013 174.577 66.7477 174.736L67.2142 175.034L67.6305 175.297L67.7979 175.4L67.9845 175.516L68.3171 175.72L68.5156 175.841L68.8888 176.065L69.1903 176.245C69.9797 176.727 70.7692 177.17 71.4773 177.572L71.9749 177.853L72.0227 177.88L72.3409 178.058L72.8935 178.366L73.2739 178.575L73.451 178.674L73.6423 178.777L73.6806 178.799L74.0107 178.98C74.0787 178.991 74.1484 178.987 74.2148 178.969C74.2813 178.951 74.3431 178.918 74.3959 178.874C74.4916 178.465 74.726 177.588 74.9748 177.521C75.2236 177.454 76.3097 175.538 76.6184 174.262H79.5537C80.1307 174.213 80.7037 174.125 81.269 173.999C80.5106 174.543 79.7594 174.885 79.1757 174.738C77.9413 174.43 76.7715 175.186 76.6542 175.942L76.6399 175.988C76.6399 176.002 76.6399 176.019 76.6399 176.033C76.6399 176.048 76.6399 176.069 76.6399 176.089C76.6399 176.108 76.6399 176.12 76.6399 176.134C76.6399 176.149 76.6399 176.171 76.6399 176.19C76.6399 176.209 76.6399 176.221 76.6399 176.236C76.6399 176.25 76.6399 176.274 76.6399 176.291C76.6399 176.308 76.6399 176.32 76.6399 176.334C76.6399 176.349 76.6399 176.375 76.6542 176.394C76.6686 176.414 76.6542 176.421 76.6542 176.433C76.6631 176.459 76.6735 176.485 76.6853 176.51V176.529C76.7016 176.561 76.72 176.592 76.7404 176.621L76.7643 176.652L76.8121 176.712L76.8456 176.746L76.9007 176.799L76.9413 176.833L77.0059 176.881L77.0538 176.912L77.1327 176.958L77.1853 176.987L77.2834 177.032L77.3337 177.054C77.3863 177.076 77.4413 177.097 77.5011 177.117C77.5609 177.136 77.7069 177.179 77.8336 177.21L77.9604 177.242L78.1446 177.285L78.2427 177.307L78.6446 177.389L78.8408 177.425L79.0011 177.454L79.3695 177.519L80.0872 177.636L80.7212 177.733L81.5465 177.851L81.7283 177.875L82.025 177.916L82.4508 177.973L82.7426 178.012L83.4962 178.108L83.7355 178.137L84.2139 178.195C84.8383 178.27 85.4436 178.342 85.9986 178.404L86.6421 178.477L86.9675 178.513L87.1062 178.527L87.4961 178.57L87.7138 178.594L87.9794 178.623L88.355 178.662H88.3957L88.6349 178.686C88.6648 178.689 88.6951 178.686 88.7237 178.676C88.7523 178.667 88.7787 178.652 88.8012 178.632C88.8237 178.611 88.8417 178.587 88.8543 178.559C88.8669 178.532 88.8736 178.502 88.8741 178.472C88.8741 178.472 88.8741 178.455 88.8741 178.448C88.8969 178.413 88.9093 178.373 88.91 178.332C88.916 177.972 88.961 177.614 89.044 177.263C89.0607 177.203 89.0799 177.141 89.099 177.08L89.1229 177.011C89.1492 176.936 89.1755 176.861 89.2066 176.784C89.2279 176.73 89.2463 176.675 89.2617 176.618L89.276 176.565C89.276 176.536 89.2904 176.505 89.2975 176.474C89.6014 175.434 89.2354 173.496 89.1301 172.736C89.0971 172.49 89.0418 172.249 88.965 172.014C88.9841 172.016 89.0033 172.016 89.0224 172.014C89.1784 171.955 89.3251 171.874 89.4578 171.773C91.6755 170.976 93.5487 170.066 94.1396 169.154C95.1008 168.896 96.1225 169.004 97.0103 169.455C98.1586 170.03 106.85 172.883 110.898 174.202C111.615 174.832 112.194 175.201 112.508 175.164C112.508 175.164 117.658 176.002 119.73 174.365C119.914 174.493 120.029 174.563 120.029 174.563C120.029 174.563 123.039 173.058 123.491 171.104C123.637 170.471 123.768 169.534 123.902 168.499C124.601 167.792 124.994 166.835 124.995 165.837C125.089 162.552 126.354 158.799 127.292 155.456C128.431 155.545 128.871 155.33 129.924 154.81L129.878 154.75L130.06 154.673ZM112.807 159.593L112.233 159.398C112.427 159.137 112.595 158.856 112.733 158.561L112.807 159.593ZM109.568 160.975L113.055 163.081L113.087 163.51C113.044 163.836 113.054 164.166 113.115 164.489C111.579 163.115 109.78 161.447 109.57 160.975H109.568ZM108.144 157.908C107.764 157.749 107.448 157.607 107.233 157.49L108.041 157.54C108.089 157.659 108.124 157.782 108.146 157.908H108.144ZM98.8141 161.338C98.8141 161.338 99.417 159.986 100.771 162.241C100.982 162.592 101.369 163.148 101.881 163.842L97.9433 163.31C98.3524 162.713 98.6461 162.044 98.8093 161.338H98.8141Z"/><path fill="#F7C4A7" d="M107.476 155.901C107.476 155.901 104.716 154.731 102.539 153.855C100.362 152.979 101.668 155.901 101.668 155.901C101.668 155.901 105.299 156.924 105.299 157.071C105.299 157.218 108.35 157.362 108.35 157.362L107.476 155.901Z"/><path fill="#000" d="M107.476 155.901C107.476 155.901 104.716 154.731 102.539 153.855C100.362 152.979 101.668 155.901 101.668 155.901C101.668 155.901 105.299 156.924 105.299 157.071C105.299 157.218 108.35 157.362 108.35 157.362L107.476 155.901Z" opacity=".05"/><path fill="#575988" d="M119.235 144.358C119.235 144.358 114.297 141.727 113.424 146.842C112.88 149.956 111.641 152.905 109.799 155.467C109.799 155.467 107.185 156.052 106.168 155.029C106.168 155.029 108.637 157.951 107.474 158.244C107.474 158.244 110.089 160.144 111.252 159.559C112.414 158.974 113.285 155.029 113.72 154.006C114.156 152.983 115.754 144.064 119.235 144.358Z"/><path fill="#000" d="M119.235 144.358C119.235 144.358 114.297 141.727 113.424 146.842C112.88 149.956 111.641 152.905 109.799 155.467C109.799 155.467 107.185 156.052 106.168 155.029C106.168 155.029 108.637 157.951 107.474 158.244C107.474 158.244 110.089 160.144 111.252 159.559C112.414 158.974 113.285 155.029 113.72 154.006C114.156 152.983 115.754 144.064 119.235 144.358Z" opacity=".1"/><path fill="#F7C4A7" d="M116.48 142.602C116.48 142.602 119.531 146.109 119.677 149.031C119.823 151.953 123.162 145.962 123.454 145.815C123.746 145.669 120.547 140.703 120.256 139.097C119.964 137.492 116.48 142.602 116.48 142.602Z"/><path fill="#F7C4A7" d="M118.586 144.104L116.662 145.856L117.569 149.546L120.038 147.209L119.748 144.871L118.586 144.104Z"/><path fill="#F7C4A7" d="M78.4275 170.08H75.0879L76.3941 173.294L79.5902 172.417L78.4275 170.08Z"/><path fill="#000" d="M75.8572 169.615C75.8572 169.615 72.4027 172.039 69.4435 171.283C66.4842 170.527 65.6852 170.802 65.3407 171.786C65.0225 172.682 73.5965 177.421 74.9625 178.17C74.984 178.184 75.0088 178.193 75.0345 178.195C75.0603 178.198 75.0862 178.193 75.11 178.183C75.1337 178.173 75.1545 178.157 75.1706 178.136C75.1866 178.116 75.1973 178.092 75.2017 178.066C75.295 177.669 75.5199 176.817 75.7591 176.752C76.0725 176.668 77.5055 173.979 77.4337 172.918C77.362 171.856 75.8572 169.615 75.8572 169.615Z" opacity=".1"/><path fill="#F3B5B7" d="M75.7146 169.615C75.7146 169.615 72.2601 172.039 69.3009 171.283C66.3416 170.527 65.5426 170.802 65.1981 171.786C64.8799 172.682 73.4539 177.421 74.8199 178.17C74.8414 178.184 74.8662 178.193 74.892 178.195C74.9177 178.198 74.9436 178.193 74.9674 178.183C74.9911 178.173 75.0119 178.157 75.028 178.136C75.044 178.116 75.0547 178.092 75.0591 178.066C75.1524 177.669 75.3773 176.817 75.6165 176.752C75.9299 176.668 77.3629 173.979 77.2912 172.918C77.2194 171.856 75.7146 169.615 75.7146 169.615Z"/><path fill="#575988" d="M104.28 163.795L94.5479 162.48C94.5479 162.48 78.7156 170.079 76.8281 170.226L77.2635 173.596H80.1678C81.3304 173.596 92.658 171.112 94.256 168.628C95.1806 168.38 96.1634 168.484 97.0167 168.919C98.4689 169.641 112.414 174.181 112.414 174.181L104.28 163.795Z"/><path fill="#000" d="M104.28 163.795L94.5479 162.48C94.5479 162.48 78.7156 170.079 76.8281 170.226L77.2635 173.596H80.1678C81.3304 173.596 92.658 171.112 94.256 168.628C95.1806 168.38 96.1634 168.484 97.0167 168.919C98.4689 169.641 112.414 174.181 112.414 174.181L104.28 163.795Z" opacity=".1"/><path fill="#F7C4A7" d="M86.9965 168.324L85.3984 170.37L86.9965 171.246L89.3218 169.494L86.9965 168.324Z"/><path fill="#575988" d="M114.737 165.985C114.737 165.985 109.512 161.484 109.146 160.665C108.78 159.847 100.213 154.296 99.6317 154.149C99.0504 154.003 97.1629 152.98 95.2753 156.487C93.3878 159.994 86.4238 168.469 86.4238 168.469C86.4238 168.469 88.6032 171.538 89.3281 171.391C90.0529 171.244 98.1796 164.377 98.7681 161.014C98.7681 161.014 99.3494 159.7 100.656 161.89C101.962 164.081 110.388 174.604 111.986 174.458C111.986 174.458 118.232 175.481 119.538 172.996C120.844 170.512 114.737 165.985 114.737 165.985Z"/><path fill="url(#paint4_linear)" d="M113.27 142.391H91.5215V158.881H113.27V142.391Z"/><path fill="#fff" d="M112.381 143.062H92.4102V158.208H112.381V143.062Z"/><path fill="#6C63FF" d="M101.023 144.375H94.3652V148.161H101.023V144.375Z" opacity=".2"/><path fill="#E6E8EC" d="M110.429 144.375H102.613V145.249H110.429V144.375Z"/><path fill="#E6E8EC" d="M108.113 145.83H102.613V146.704H108.113V145.83Z"/><path fill="#E6E8EC" d="M110.429 147.287H102.613V148.161H110.429V147.287Z"/><path fill="#E6E8EC" d="M110.43 148.744H94.3652V149.618H110.43V148.744Z"/><path fill="#E6E8EC" d="M110.43 150.199H94.3652V151.073H110.43V150.199Z"/><path fill="#E6E8EC" d="M110.43 151.656H94.3652V152.53H110.43V151.656Z"/><path fill="#E6E8EC" d="M109.128 153.111H94.3652V153.985H109.128V153.111Z"/><path fill="#E6E8EC" d="M110.43 154.568H94.3652V155.442H110.43V154.568Z"/><path fill="#E6E8EC" d="M110.43 156.025H94.3652V156.899H110.43V156.025Z"/><path fill="#F3B5B7" d="M117.715 144.576C117.715 144.576 115.899 145.38 115.754 148.741C115.608 152.101 112.404 157.801 112.404 157.801L112.694 164.523C112.694 164.523 116.179 168.031 116.471 170.223C116.763 172.416 119.234 173.877 119.234 173.877C119.234 173.877 122.139 172.416 122.584 170.507C123.028 168.599 123.301 163.931 124.036 162.177C124.77 160.422 124.325 149.463 124.325 149.463L122.146 145.662L120.983 144.348L117.933 147.855C117.933 147.855 116.263 145.597 117.715 144.576Z"/><path fill="#000" d="M113.432 162.33C113.432 162.33 112.996 157.068 114.302 155.901L116.917 148.439C116.917 148.439 117.862 144.86 117.716 144.566C117.57 144.273 114.302 147.416 114.302 147.416L112.123 155.162L112.704 163.346L113.432 162.33Z" opacity=".1"/><path fill="#575988" d="M113.285 162.331C113.285 162.331 112.85 157.07 114.156 155.902L116.771 148.44C116.771 148.44 117.787 144.786 117.642 144.495C117.496 144.204 114.156 147.417 114.156 147.417L111.977 155.163L112.558 163.347L113.285 162.331Z"/><path fill="#F7C4A7" d="M114.301 159.992C114.301 159.992 107.034 157.655 106.603 157.07C106.172 156.485 101.519 152.687 99.9212 155.315C98.3232 157.944 105.876 158.685 105.876 158.685L113.574 163.362L114.301 159.992Z"/><path fill="#000" d="M87.3086 170.357L85.1556 169.967C85.1556 169.967 81.6341 174.504 79.8016 174.044C77.9691 173.585 76.2801 175.57 78.2179 176.211C79.9691 176.786 87.5263 177.592 88.9713 177.742C89.0008 177.746 89.0309 177.743 89.0595 177.735C89.0882 177.726 89.1147 177.712 89.1373 177.692C89.1599 177.673 89.1781 177.649 89.1908 177.621C89.2034 177.594 89.2101 177.565 89.2105 177.535C89.2173 176.971 89.326 176.413 89.5311 175.888C89.9186 174.925 89.5311 172.875 89.4234 172.095C89.3636 171.635 89.22 171.19 89 170.783L87.3086 170.357Z" opacity=".1"/><path fill="#F3B5B7" d="M87.2753 170.497L85.1222 170.107C85.1222 170.107 81.6055 174.647 79.7611 174.185C77.9166 173.723 76.2396 175.711 78.1774 176.351C79.9285 176.927 87.4858 177.733 88.9308 177.882C88.9603 177.886 88.9904 177.884 89.019 177.875C89.0476 177.867 89.0741 177.852 89.0968 177.833C89.1194 177.813 89.1376 177.789 89.1502 177.762C89.1629 177.735 89.1696 177.705 89.17 177.675C89.1768 177.111 89.2854 176.553 89.4906 176.029C89.8781 175.066 89.4906 173.015 89.3829 172.235C89.323 171.776 89.1795 171.331 88.9595 170.923L87.2753 170.497Z"/><path fill="#000" d="M117.57 144.285C120.137 144.285 122.218 142.192 122.218 139.609C122.218 137.026 120.137 134.932 117.57 134.932C115.003 134.932 112.922 137.026 112.922 139.609C112.922 142.192 115.003 144.285 117.57 144.285Z" opacity=".1"/><path fill="#F7C4A7" d="M117.135 144.285C119.702 144.285 121.783 142.192 121.783 139.609C121.783 137.026 119.702 134.932 117.135 134.932C114.567 134.932 112.486 137.026 112.486 139.609C112.486 142.192 114.567 144.285 117.135 144.285Z"/><path fill="#575988" d="M121.709 144.211C121.709 144.211 127.228 146.11 127.228 150.058C127.228 154.005 124.177 160.288 124.031 165.403C123.886 170.518 115.898 169.786 115.898 169.786C115.898 169.786 114.735 152.542 115.898 151.225C117.06 149.908 122.29 144.796 121.709 144.211Z"/><path fill="#000" d="M120.691 152.395C120.691 152.395 118.657 161.455 113.863 159.857C113.863 159.857 111.394 163.511 113.145 165.118C113.145 165.118 117.358 166.141 120.116 163.364C122.875 160.586 124.903 159.558 125.339 156.188C125.774 152.818 126.057 148.151 124.621 148.589C123.186 149.027 120.691 152.395 120.691 152.395Z" opacity=".1"/><path fill="#575988" d="M120.837 152.247C120.837 152.247 118.804 161.308 114.009 159.709C114.009 159.709 111.541 163.363 113.292 164.971C113.292 164.971 117.505 165.994 120.263 163.216C123.021 160.439 125.048 159.416 125.492 156.055C125.937 152.695 126.21 148.018 124.775 148.456C123.339 148.894 120.837 152.247 120.837 152.247Z"/><path fill="#DDDBE2" d="M89.6169 175.561C89.6169 175.575 89.6169 175.589 89.6025 175.601C89.4987 175.851 89.4186 176.11 89.3633 176.374C89.3968 176.259 89.4374 176.133 89.4853 176.025C89.5466 175.876 89.5907 175.72 89.6169 175.561Z"/><path fill="#DDDBE2" d="M78.2959 175.927C77.6978 175.729 77.4466 175.404 77.437 175.062C77.1978 175.544 77.3461 176.073 78.1906 176.353C79.9418 176.928 87.5014 177.734 88.944 177.884C88.9737 177.888 89.004 177.885 89.0328 177.877C89.0616 177.868 89.0882 177.853 89.1109 177.834C89.1335 177.814 89.1517 177.789 89.1642 177.762C89.1767 177.734 89.1831 177.704 89.1832 177.674C89.1841 177.621 89.1653 177.569 89.1303 177.529C89.0954 177.489 89.0469 177.463 88.9942 177.458C87.4033 177.284 80.0231 176.492 78.2959 175.927Z"/><path fill="#DDDBE2" d="M65.3951 171.527C65.4323 171.42 65.4796 171.316 65.5363 171.217C65.3794 171.376 65.2621 171.571 65.1942 171.785C64.876 172.68 73.45 177.417 74.816 178.168C74.8377 178.182 74.8624 178.19 74.888 178.192C74.9135 178.194 74.9392 178.19 74.9627 178.18C74.9863 178.17 75.007 178.154 75.0231 178.134C75.0393 178.114 75.0503 178.09 75.0553 178.065C75.0633 178.031 75.0601 177.996 75.0463 177.964C75.0325 177.932 75.0088 177.906 74.9787 177.889C73.462 177.056 65.0794 172.413 65.3951 171.527Z"/><path fill="#DDDBE2" d="M75.8045 176.494C75.728 176.515 75.6514 176.616 75.582 176.761H75.606C75.6682 176.744 75.7782 176.619 75.9122 176.424C75.8821 176.455 75.8452 176.479 75.8045 176.494Z"/><path fill="#000" d="M116.489 143.724C116.08 144.631 115.994 145.649 115.692 146.612C115.399 147.544 114.895 148.395 114.221 149.099C113.546 149.803 112.72 150.341 111.805 150.67C113.314 151.277 115.094 150.536 116.262 149.308C117.429 148.08 118.111 146.446 118.766 144.857C120.46 146.003 120.254 148.637 120.821 150.687C121.066 151.579 121.498 152.408 122.088 153.118C122.678 153.828 123.413 154.402 124.242 154.801C125.069 155.174 125.968 155.359 126.874 155.34C127.78 155.322 128.67 155.102 129.481 154.695C127.929 152.789 125.718 150.175 125.981 147.638C126.194 145.582 124.728 144.013 124.831 141.952C124.974 139.025 123.874 137.545 121.781 135.667C120.563 134.57 122.479 133.02 120.91 133.475C120.293 133.653 119.642 132.993 119.037 133.207C117.84 133.641 116.527 133.477 115.293 133.768C108.874 135.28 117.082 142.397 116.489 143.724Z" opacity=".1"/><path fill="#B96B6B" d="M116.633 143.579C116.224 144.486 116.138 145.504 115.837 146.467C115.543 147.399 115.04 148.25 114.365 148.954C113.691 149.658 112.864 150.196 111.949 150.525C113.459 151.132 115.239 150.391 116.406 149.163C117.574 147.935 118.255 146.301 118.911 144.712C120.605 145.858 120.399 148.491 120.966 150.542C121.21 151.434 121.642 152.263 122.232 152.973C122.823 153.683 123.557 154.256 124.387 154.656C125.213 155.029 126.112 155.214 127.018 155.195C127.924 155.177 128.815 154.957 129.626 154.55C128.073 152.644 126.009 150.458 126.277 147.931C126.49 145.875 126.171 143.764 126.277 141.704C126.42 138.777 124.997 135.958 122.913 134.08C121.695 132.983 119.803 132.843 119.188 133.062C117.992 133.496 116.679 133.332 115.444 133.623C109.019 135.137 117.231 142.252 116.633 143.579Z"/><path fill="url(#paint5_linear)" d="M39.1929 188.08C47.5659 185.487 52.5084 185.702 52.5084 185.702L51.8218 181.785C52.0363 181.641 52.231 181.468 52.4008 181.273C52.4008 181.273 51.5419 176.519 52.4008 175.33C53.2596 174.141 55.6232 163.338 55.6232 163.338V159.662C59.9293 158.151 64.9651 149.399 64.9651 149.399L71.3023 165.817C71.3023 165.817 77.6371 178.459 78.496 178.89C79.1826 179.234 79.5247 182.062 79.6371 183.186L79.5845 183.203C79.6108 183.475 79.6228 183.644 79.6228 183.644L79.673 183.61V183.644C79.7793 183.569 79.8913 183.503 80.0079 183.446C78.7711 184.876 76.9194 186.932 75.3788 188.289C74.5295 189.038 76.0534 189.616 76.7663 189.604C77.1719 189.59 77.5767 189.648 77.9625 189.774C81.5725 191.028 87.5078 186.45 87.5078 186.45L86.0222 182.281C86.4097 182.25 86.6489 182.236 86.6489 182.236C86.6489 182.236 81.8165 165.165 79.5606 163.542C78.8475 163.019 78.2042 162.406 77.6467 161.718C76.5738 160.406 76.0329 158.735 76.1324 157.039L76.9242 143.032C78.1969 142.844 79.0175 142.688 79.0175 142.688C79.0175 142.688 79.3141 138.861 79.3046 135.924C79.3046 134.396 79.2424 133.055 79.0175 132.53C78.752 131.909 78.6682 130.667 78.6634 129.42C78.6634 127.735 78.8022 126.156 78.8022 126.156C78.8022 126.156 80.5199 123.886 82.8835 118.694C83.9241 116.41 84.1944 114.602 84.1705 113.307C84.1866 112.704 84.1288 112.101 83.9983 111.512C83.9313 111.22 83.8074 110.945 83.6336 110.703C83.4599 110.46 83.2398 110.255 82.9863 110.099C81.6275 109.261 78.5343 107.194 77.6228 105.191C76.4649 102.649 74.7927 102.288 74.7257 102.274L74.6228 101.826C75.2641 101.292 75.7323 100.578 75.9673 99.775C76.3166 98.6918 76.3884 97.5365 76.685 96.4364C76.8285 95.9069 77.0271 95.3942 77.1635 94.8646C77.2997 94.3317 77.3648 93.7829 77.3572 93.2327C77.3831 92.4312 77.2191 91.635 76.8788 90.9099C76.3238 89.7617 75.2185 88.8591 73.9602 88.7098C73.2664 88.628 72.4985 88.7484 71.9291 88.3416C71.5368 88.0599 71.331 87.5809 70.9722 87.2464C70.2904 86.5964 69.1995 86.6301 68.312 86.9334C67.1169 87.3458 66.093 88.1481 65.4029 89.2129C64.9891 89.8532 64.6996 90.5873 64.1685 91.1385C63.7211 91.5983 63.135 91.8919 62.6422 92.3011C62.2774 92.5876 61.9807 92.9523 61.7738 93.3687C61.5669 93.7851 61.4549 94.2427 61.4461 94.7082C61.4461 94.7082 61.4461 94.7323 61.4461 94.7443C61.4461 94.8045 61.4461 94.8646 61.4461 94.9248C61.47 95.8539 62.1135 96.7782 63.0178 96.966C63.2546 97.0098 63.4967 97.0163 63.7355 96.9853C63.5316 97.7435 63.4819 98.5353 63.5895 99.3133C63.6971 100.091 63.9597 100.839 64.3616 101.513C64.7635 102.186 65.2964 102.771 65.9283 103.232C66.5603 103.693 67.2782 104.021 68.0392 104.197C68.0249 104.274 68.0081 104.351 67.9914 104.437H68.0416C67.938 104.812 67.8085 105.179 67.6541 105.535H67.5847L67.7593 105.222L65.2953 105.051C64.5778 104.997 63.8587 105.132 63.2092 105.444C62.3599 105.858 61.4317 106.647 61.3169 108.139C61.1016 110.936 55.8385 115.149 55.8385 115.149C54.0132 118.066 42.0923 118.605 42.0923 118.605C42.0923 118.605 42.145 118.673 42.1689 118.709L41.9297 118.663L41.0278 118.497C41.0278 118.497 38.236 110.178 35.5518 111.69C32.8676 113.202 40.1689 121.414 40.1689 121.414L42.2789 121.556L42.4919 121.571C42.4144 122.109 42.3033 122.642 42.1593 123.167C42.1306 123.273 42.1091 123.34 42.1043 123.357C42.1043 123.357 47.6544 122.712 52.3697 122.815H52.7955L53.0969 122.801C53.3362 125.408 57.0299 130.706 57.0299 130.706L59.3097 131.187L59.482 131.223C58.7473 132.752 57.8141 134.176 56.7069 135.457L55.9557 139.672L56.0155 139.657L55.9557 139.997C56.0845 139.965 56.2036 139.902 56.3026 139.814C54.8313 143.742 52.3912 149.856 50.6951 151.989C48.1185 155.231 48.4391 160.413 48.4391 160.413C48.4391 160.413 45.8626 174.028 45.9703 176.512C45.9827 177.711 45.6603 178.889 45.0397 179.913C44.5342 180.497 44.0901 181.131 43.7143 181.807C41.7813 185.158 38.6666 184.936 38.6666 184.936C35.9824 186.674 39.1929 188.08 39.1929 188.08ZM55.7787 122.177L56.0562 122.067L56.1208 122.04L56.3863 121.925L56.4318 121.903L56.671 121.792L56.7237 121.768L56.9772 121.641L57.037 121.609L57.2763 121.482H57.2954L57.5346 121.342L57.5921 121.308L57.8313 121.169L57.8696 121.145L58.0777 121.017L58.1255 120.988L58.348 120.846L58.3983 120.813L58.604 120.675L58.6231 120.663L58.8337 120.517L58.8815 120.483L59.0825 120.338L59.1136 120.317L59.2906 120.187L59.3289 120.158L59.5131 120.016L59.5513 119.987L59.7188 119.855H59.7332L59.903 119.717L59.9389 119.688L60.0992 119.556L60.1135 119.544L60.2571 119.421L60.281 119.4L60.4221 119.277L60.4437 119.258L60.5729 119.14L60.6973 119.027L60.714 119.01L60.9532 118.769L61.3025 118.74C61.5992 119.128 61.7164 119.814 61.7283 120.601C61.6949 122.62 61.0872 125.114 61.0872 125.114C61.0354 126.352 60.8214 127.577 60.4509 128.758C60.1889 128.744 59.9318 128.681 59.6925 128.573C59.6925 128.573 59.6781 128.65 59.6566 128.78L59.4509 128.727L58.4054 128.465C58.4054 128.465 57.537 124.016 55.7787 122.177Z"/><path fill="#4F4D59" d="M84.9001 179.727L86.8929 185.313C86.8929 185.313 81.4361 189.526 77.8907 188.654C77.3567 188.521 76.8126 188.432 76.2639 188.39C75.5295 188.334 74.2664 187.797 75.0463 187.111C77.563 184.897 80.917 180.783 80.917 180.783L84.9001 179.727Z"/><path fill="#4F4D59" d="M51.771 179.2L52.7136 184.58C52.7136 184.58 47.8907 184.368 39.7138 186.9C39.7138 186.9 36.568 185.528 39.1899 183.841C39.1899 183.841 42.2305 184.053 44.1181 180.781C46.0056 177.51 47.1587 177.934 47.1587 177.934L51.771 179.2Z"/><path fill="#787C9C" d="M76.7233 140.169L75.7999 156.537C75.701 158.282 76.2761 159.997 77.4051 161.325C77.9155 161.934 78.4971 162.48 79.1372 162.949C81.3381 164.531 86.0557 181.197 86.0557 181.197C86.0557 181.197 80.7089 181.513 79.2424 182.569C79.2424 182.569 78.929 178.35 78.0893 177.928C77.2496 177.507 71.0655 165.171 71.0655 165.171L64.8767 149.135C64.8767 149.135 59.9485 157.68 55.7548 159.156V162.742C55.7548 162.742 53.4486 173.29 52.6089 174.45C51.7692 175.61 52.6089 180.251 52.6089 180.251C52.6089 180.251 50.1975 183.311 44.6426 180.039C44.6426 180.039 46.4248 178.034 46.3172 175.608C46.2095 173.182 48.7334 159.895 48.7334 159.895C48.7334 159.895 48.42 154.84 50.9343 151.668C53.4486 148.495 57.6328 136.373 57.6328 136.373L60.5179 130.127L76.7233 140.169Z"/><g opacity=".1"><path fill="#000" d="M85.059 181.203C85.059 181.203 80.3414 164.537 78.1405 162.955C77.4638 162.458 76.8522 161.876 76.3199 161.225C75.243 159.915 74.7016 158.242 74.8056 156.545L75.729 140.177L60.2676 130.588L60.4781 130.133L76.6716 140.175L75.7482 156.543C75.6441 158.24 76.1855 159.912 77.2625 161.222C77.7948 161.874 78.4064 162.455 79.083 162.953C81.2839 164.534 86.0016 181.201 86.0016 181.201C86.0016 181.201 80.6548 181.516 79.1883 182.573C79.1883 182.573 79.1763 182.409 79.15 182.142C81.2122 181.432 85.059 181.203 85.059 181.203Z" opacity=".1"/><path fill="#000" d="M51.6172 180.26C51.6172 180.26 50.7775 175.62 51.6172 174.459C52.4569 173.299 54.763 162.752 54.763 162.752V159.165C58.9567 157.687 63.8849 149.145 63.8849 149.145L64.2509 150.095C62.8299 152.363 59.0381 157.993 55.708 159.165V162.752C55.708 162.752 53.4018 173.299 52.5621 174.459C51.7224 175.62 52.5621 180.26 52.5621 180.26C52.5621 180.26 51.3923 181.741 48.8086 181.541C50.7344 181.375 51.6172 180.26 51.6172 180.26Z" opacity=".1"/></g><path fill="#714B4F" d="M40.6581 121.815L42.7179 121.953L43.804 122.025V119.377L42.3686 119.117L41.4858 118.956C41.4858 118.956 38.761 110.835 36.139 112.31C33.5171 113.786 40.6581 121.815 40.6581 121.815Z"/><path fill="#714B4F" d="M73.6832 100.088C73.6832 100.088 75.0468 105.362 75.4654 108.633C75.8841 111.904 65.7168 109.266 65.7168 109.266C65.7168 109.266 69.5947 104.519 67.3914 101.987L73.6832 100.088Z"/><path fill="#E6E6F0" d="M62.6758 122.028L62.4653 124.033L65.7141 123.821L68.9628 120.973L72.2115 111.795L74.312 108.529L75.8837 106.524L75.2546 104.098C75.2546 104.098 74.9675 104.338 74.4818 104.723C72.8862 105.953 69.1398 108.507 66.403 107.802C66.2764 107.77 66.1518 107.731 66.0298 107.684L61.9414 114.751L62.6758 122.028Z"/><path fill="#000" d="M74.4171 103.475C74.4171 103.475 76.0917 103.79 77.2472 106.322C78.1347 108.269 81.1275 110.277 82.4648 111.103C82.7198 111.259 82.9409 111.466 83.1151 111.711C83.2893 111.955 83.4131 112.232 83.4791 112.525C83.7495 113.729 83.8523 115.967 82.3835 119.193C80.0773 124.247 78.4003 126.472 78.4003 126.472C78.4003 126.472 77.9816 131.526 78.6108 133.011C79.24 134.497 78.6108 142.611 78.6108 142.611C78.6108 142.611 67.6062 144.719 63.934 142.611C60.2619 140.502 60.7882 132.359 60.7882 132.359C60.7882 132.359 57.3289 139.749 56.0777 139.961L56.7954 135.847C56.7954 135.847 60.8839 131.416 61.1016 125.721C61.1016 125.721 62.3599 120.553 61.3121 119.181C61.3121 119.181 43.5947 120.659 42.5469 119.392C42.5469 119.392 54.183 118.865 55.9653 116.023C55.9653 116.023 61.1016 111.909 61.3121 109.167C61.3428 108.653 61.5032 108.155 61.7782 107.72C62.0532 107.286 62.4337 106.929 62.8838 106.683C63.597 106.275 64.4152 106.092 65.2331 106.156L67.6014 106.32C67.6014 106.32 63.5154 113.584 63.7331 114.547C63.9508 115.51 63.5226 123.196 63.5226 123.196C63.5226 123.196 68.2402 112.963 70.3358 111.803C72.4315 110.643 74.8358 105.882 74.8358 105.882L74.4171 103.475Z" opacity=".1"/><path fill="#000" d="M62.6758 122.028L62.4653 124.033L65.7141 123.821L68.9628 120.973L72.2115 111.795L74.312 108.529L75.8837 106.524L75.2546 104.098C75.2546 104.098 74.9675 104.338 74.4818 104.723L74.6254 105.556C74.6254 105.556 72.2139 110.32 70.1183 111.48C68.0226 112.64 63.305 122.873 63.305 122.873C63.305 122.873 63.7237 115.17 63.5155 114.224C63.372 113.579 65.2093 110.024 66.403 107.802C66.2764 107.77 66.1518 107.731 66.0298 107.684L61.9414 114.751L62.6758 122.028Z" opacity=".1"/><path fill="#000" d="M42.7204 121.955L43.8065 122.027V119.379L42.3711 119.119C42.8759 119.793 42.8591 120.963 42.7204 121.955Z" opacity=".1"/><path fill="#67647E" d="M74.4171 103.146C74.4171 103.146 76.0917 103.462 77.2472 105.994C78.1347 107.941 81.1275 109.949 82.4648 110.774C82.7198 110.931 82.9409 111.138 83.1151 111.382C83.2893 111.627 83.4131 111.904 83.4791 112.197C83.7495 113.4 83.8523 115.639 82.3835 118.864C80.0773 123.919 78.4003 126.143 78.4003 126.143C78.4003 126.143 77.9816 131.198 78.6108 132.683C79.24 134.168 78.6108 142.283 78.6108 142.283C78.6108 142.283 67.6062 144.391 63.934 142.283C60.2619 140.174 60.7882 132.05 60.7882 132.05C60.7882 132.05 57.3289 139.433 56.0777 139.642L56.7954 135.528C56.7954 135.528 60.8839 131.097 61.1016 125.402C61.1016 125.402 62.3599 120.234 61.3121 118.862C61.3121 118.862 57.2236 123.293 52.6113 123.195C47.9989 123.096 42.5469 123.722 42.5469 123.722C42.5469 123.722 43.5947 120.352 42.5469 119.081C42.5469 119.081 54.183 118.554 55.9653 115.711C55.9653 115.711 61.1016 111.598 61.3121 108.856C61.3415 108.34 61.5015 107.84 61.777 107.403C62.0525 106.967 62.4343 106.608 62.8862 106.362C63.5994 105.954 64.4176 105.771 65.2355 105.835L67.6038 105.999C67.6038 105.999 63.5154 113.273 63.7331 114.221C63.9508 115.17 63.5226 122.87 63.5226 122.87C63.5226 122.87 68.2402 112.637 70.3358 111.477C72.4315 110.317 74.8429 105.554 74.8429 105.554L74.4243 103.146"/><path fill="#000" d="M76.7238 114.221C76.7238 114.221 74.2071 122.766 72.7406 123.82C71.2741 124.874 62.3628 130.254 59.7408 128.988C59.7408 128.988 59.1116 132.153 60.0542 132.89C60.0542 132.89 69.8292 132.505 69.9081 132.468C69.9081 132.468 76.3027 131.624 77.3506 128.461C78.3984 125.298 79.6567 119.916 79.6567 119.916L76.7238 114.221Z" opacity=".1"/><path fill="#BA7855" d="M63.3055 123.875C63.5076 123.875 63.6715 123.639 63.6715 123.347C63.6715 123.056 63.5076 122.82 63.3055 122.82C63.1033 122.82 62.9395 123.056 62.9395 123.347C62.9395 123.639 63.1033 123.875 63.3055 123.875Z"/><path fill="#BA7855" d="M62.2566 127.566C62.4588 127.566 62.6227 127.33 62.6227 127.039C62.6227 126.748 62.4588 126.512 62.2566 126.512C62.0545 126.512 61.8906 126.748 61.8906 127.039C61.8906 127.33 62.0545 127.566 62.2566 127.566Z"/><g opacity=".1"><path fill="#000" d="M77.8778 142.175C77.8778 142.175 78.507 134.053 77.8778 132.575C77.2486 131.097 77.6673 126.035 77.6673 126.035C77.6673 126.035 79.3419 123.821 81.6504 118.756C83.1193 115.531 83.014 113.292 82.7461 112.089C82.6798 111.795 82.5556 111.518 82.381 111.274C82.2064 111.03 81.9848 110.823 81.7294 110.666C80.3921 109.841 77.3993 107.833 76.5142 105.886C75.8635 104.459 75.0477 103.734 74.4568 103.375L74.4161 103.135C74.4161 103.135 76.0907 103.45 77.2462 105.982C78.1338 107.93 81.1265 109.937 82.4614 110.763C82.7168 110.919 82.9384 111.126 83.113 111.37C83.2877 111.615 83.4118 111.892 83.4782 112.185C83.7485 113.389 83.8514 115.627 82.3825 118.853C80.0763 123.908 78.3993 126.132 78.3993 126.132C78.3993 126.132 77.9806 131.186 78.6098 132.672C79.239 134.157 78.6098 142.271 78.6098 142.271C78.6098 142.271 70.7463 143.778 66.0957 142.971C70.7942 143.532 77.8778 142.175 77.8778 142.175Z" opacity=".1"/><path fill="#000" d="M63.7336 114.222C63.8771 114.871 63.7336 118.694 63.6164 121.033C63.1092 122.076 62.791 122.764 62.791 122.764C62.791 122.764 63.2097 115.062 63.0015 114.116C62.803 113.213 66.4847 106.594 66.8508 105.932L67.6139 105.985C67.6139 105.985 63.5159 113.273 63.7336 114.222Z" opacity=".1"/><path fill="#000" d="M51.8768 123.083C56.4892 123.189 60.5776 118.75 60.5776 118.75C60.7013 118.922 60.7914 119.117 60.8432 119.323C59.647 120.457 56.2978 123.266 52.6113 123.174C47.9989 123.068 42.5469 123.701 42.5469 123.701C42.5469 123.701 42.5684 123.631 42.6019 123.511C45.6832 123.195 48.7797 123.052 51.8768 123.083Z" opacity=".1"/><path fill="#000" d="M60.0535 131.943C60.0535 131.943 60.0104 132.603 60.0344 133.592C58.9435 135.759 56.9579 139.494 56.0703 139.643L56.2258 138.777C57.7521 136.849 60.0535 131.943 60.0535 131.943Z" opacity=".1"/></g><path fill="url(#paint6_linear)" d="M61.2664 105.322H36.207V124.323H61.2664V105.322Z"/><path fill="#fff" d="M60.6186 105.811H36.8535V123.832H60.6186V105.811Z"/><path fill="#6C63FF" d="M47.1006 107.371H39.1797V111.877H47.1006V107.371Z" opacity=".2"/><path fill="#E6E8EC" d="M58.293 107.371H48.9941V108.411H58.293V107.371Z"/><path fill="#E6E8EC" d="M55.5395 109.104H48.9941V110.143H55.5395V109.104Z"/><path fill="#E6E8EC" d="M58.293 110.838H48.9941V111.878H58.293V110.838Z"/><path fill="#E6E8EC" d="M58.2966 112.57H39.1797V113.61H58.2966V112.57Z"/><path fill="#E6E8EC" d="M58.2966 114.305H39.1797V115.345H58.2966V114.305Z"/><path fill="#E6E8EC" d="M58.2966 116.033H39.1797V117.073H58.2966V116.033Z"/><path fill="#E6E8EC" d="M56.7463 117.768H39.1797V118.807H56.7463V117.768Z"/><path fill="#E6E8EC" d="M58.2966 119.5H39.1797V120.54H58.2966V119.5Z"/><path fill="#E6E8EC" d="M58.2966 121.232H39.1797V122.272H58.2966V121.232Z"/><path fill="#714B4F" d="M57.1191 130.888L59.3463 131.37L61.1023 131.733L60.1597 129.086L59.5042 128.919L58.4827 128.664C58.4827 128.664 57.0162 121.287 54.0809 121.816C51.1455 122.346 57.1191 130.888 57.1191 130.888Z"/><path fill="#000" d="M59.3458 131.361L61.1018 131.734L60.1592 129.086L59.5037 128.92C59.3571 129.725 59.3041 130.544 59.3458 131.361Z" opacity=".1"/><path fill="#67647E" d="M76.7238 114.012C76.7238 114.012 74.2071 122.557 72.7406 123.611C71.2741 124.665 62.3628 130.045 59.7408 128.779C59.7408 128.779 59.1116 131.944 60.0542 132.681C60.0542 132.681 69.8292 132.296 69.9081 132.26C69.9081 132.26 76.3027 131.415 77.3506 128.252C78.3984 125.089 79.6567 119.707 79.6567 119.707L76.7238 114.012Z"/><path fill="#000" d="M73.5769 100.299C73.5769 100.299 73.7898 101.124 74.0745 102.326C73.4929 103.431 72.5658 104.312 71.4363 104.835C70.3069 105.357 69.0381 105.49 67.8258 105.214C68.077 104.131 68.022 103.048 67.2852 102.188L73.5769 100.299Z" opacity=".1"/><path fill="#714B4F" d="M69.1758 105.152C72.3018 105.152 74.836 102.602 74.836 99.4568C74.836 96.3115 72.3018 93.7617 69.1758 93.7617C66.0498 93.7617 63.5156 96.3115 63.5156 99.4568C63.5156 102.602 66.0498 105.152 69.1758 105.152Z"/><path fill="#000" d="M64.2595 97.8887C63.8485 98.0035 63.4181 98.0298 62.9964 97.9658C62.1136 97.7828 61.4844 96.8802 61.4629 95.9727C61.4717 95.5181 61.5811 95.0712 61.783 94.6644C61.9849 94.2576 62.2744 93.9012 62.6303 93.621C63.1088 93.2191 63.6829 92.9326 64.1207 92.4849C64.6399 91.953 64.9222 91.2357 65.3169 90.6098C65.9913 89.5704 66.9917 88.7876 68.1589 88.3857C69.0273 88.0897 70.0895 88.056 70.757 88.6914C71.0991 89.0164 71.3 89.4857 71.6828 89.7601C72.2378 90.1573 72.989 90.0394 73.666 90.1188C74.2797 90.2137 74.8606 90.4593 75.3576 90.8337C75.8545 91.2082 76.2521 91.7001 76.5152 92.2659C77.0293 93.4121 77.1275 94.7034 76.7927 95.915C76.6612 96.4325 76.4698 96.9355 76.3286 97.4507C76.0344 98.5242 75.965 99.6507 75.6253 100.71C75.2856 101.769 74.5847 102.804 73.5249 103.117C73.6087 101.929 73.3758 100.741 72.8502 99.6748C72.7632 99.4424 72.5924 99.2516 72.3718 99.1404C72.1827 99.0916 71.9844 99.0916 71.7952 99.1404C70.468 99.3384 69.1137 99.0625 67.9676 98.3605C67.5656 98.1198 66.9389 97.2749 66.5083 97.1907C65.9652 97.092 64.8336 97.7588 64.2595 97.8887Z" opacity=".1"/><path fill="#503F43" d="M64.2595 97.6758C63.8485 97.7907 63.4181 97.8169 62.9964 97.7529C62.1136 97.5699 61.4844 96.6673 61.4629 95.7598C61.4717 95.3052 61.5811 94.8583 61.783 94.4515C61.9849 94.0447 62.2744 93.6883 62.6303 93.4082C63.1088 93.0062 63.6829 92.7197 64.1207 92.272C64.6399 91.7401 64.9222 91.0228 65.3169 90.3969C65.9913 89.3575 66.9917 88.5747 68.1589 88.1728C69.0273 87.8768 70.0895 87.8431 70.757 88.4785C71.0991 88.8035 71.3 89.2729 71.6828 89.5473C72.2378 89.9444 72.989 89.8265 73.666 89.9059C74.2797 90.0008 74.8606 90.2464 75.3576 90.6208C75.8545 90.9953 76.2521 91.4872 76.5152 92.053C77.0293 93.1992 77.1275 94.4905 76.7927 95.7021C76.6612 96.2196 76.4698 96.7227 76.3286 97.2378C76.0344 98.3113 75.965 99.4378 75.6253 100.497C75.2856 101.556 74.5847 102.591 73.5249 102.904C73.6087 101.717 73.3758 100.528 72.8502 99.4619C72.7632 99.2295 72.5924 99.0387 72.3718 98.9275C72.1827 98.8787 71.9844 98.8787 71.7952 98.9275C70.468 99.1255 69.1137 98.8496 67.9676 98.1476C67.5656 97.9069 66.9389 97.0621 66.5083 96.9778C65.9652 96.8791 64.8336 97.5483 64.2595 97.6758Z"/><path fill="#6C63FF" d="M20.6152 183.005C21.0537 182.645 21.3732 182.16 21.5315 181.613C21.6511 181.06 21.4166 180.398 20.8903 180.196C20.3018 179.969 19.6727 180.379 19.1966 180.795C18.7205 181.211 18.1727 181.683 17.5483 181.594C17.8692 181.302 18.1093 180.93 18.2451 180.516C18.381 180.102 18.4079 179.66 18.3234 179.233C18.2964 179.056 18.222 178.889 18.1081 178.751C17.7803 178.4 17.1894 178.552 16.7971 178.829C15.5531 179.709 15.2062 181.409 15.1991 182.94C15.0747 182.389 15.1799 181.813 15.1751 181.255C15.1703 180.696 15.0172 180.051 14.5436 179.758C14.2498 179.599 13.92 179.52 13.5866 179.529C13.0268 179.507 12.4048 179.565 12.0221 179.977C11.5436 180.487 11.6704 181.346 12.0843 181.902C12.4981 182.458 13.1249 182.817 13.7039 183.207C14.1679 183.484 14.5636 183.864 14.8617 184.317C14.8968 184.379 14.9256 184.445 14.9479 184.514H18.4478C19.2347 184.112 19.9638 183.604 20.6152 183.005Z"/><path fill="#6C63FF" d="M228.506 149.548C228.944 149.188 229.264 148.703 229.422 148.156C229.542 147.603 229.307 146.941 228.781 146.739C228.192 146.512 227.563 146.922 227.087 147.338C226.611 147.754 226.063 148.226 225.439 148.137C225.76 147.844 226 147.473 226.136 147.059C226.272 146.645 226.299 146.203 226.214 145.776C226.187 145.599 226.113 145.432 225.999 145.294C225.671 144.943 225.08 145.095 224.688 145.371C223.444 146.252 223.097 147.952 223.09 149.483C222.965 148.932 223.071 148.356 223.066 147.798C223.061 147.239 222.908 146.594 222.434 146.301C222.14 146.142 221.811 146.063 221.477 146.072C220.917 146.05 220.295 146.108 219.913 146.52C219.434 147.03 219.561 147.889 219.975 148.445C220.389 149.001 221.016 149.36 221.594 149.75C222.058 150.027 222.454 150.407 222.752 150.86C222.787 150.922 222.816 150.988 222.838 151.057H226.343C227.128 150.654 227.856 150.147 228.506 149.548Z"/><path fill="url(#paint7_linear)" d="M259.601 77.1921C259.106 75.7334 258.391 73.8848 257.826 73.4491C257.792 73.4212 257.754 73.3978 257.714 73.3793H257.644V71.5764L256.31 71.7907C256.097 71.1394 255.937 70.4721 255.831 69.7952C255.96 69.9248 256.123 70.0131 256.302 70.0491C256.48 70.0851 256.665 70.0671 256.833 69.9974C256.812 69.9613 256.793 69.9228 256.774 69.8843L256.833 69.8578C256.623 69.4849 256.512 69.0638 256.511 68.635C256.521 68.2434 256.583 67.8549 256.695 67.4796C256.934 66.6492 257.338 65.8741 257.563 65.0389C257.707 64.5015 257.774 63.9464 257.764 63.3901C257.771 62.4469 257.558 61.5152 257.142 60.6701C257.037 60.4261 256.872 60.2125 256.664 60.0491C256.476 59.9442 256.283 59.8494 256.085 59.7651C255.753 59.5402 255.467 59.2534 255.243 58.9202C254.294 57.7581 253.025 56.9053 251.594 56.4698C251.221 56.3297 250.817 56.2972 250.427 56.3759C249.53 56.6166 249.204 57.7359 248.477 58.3232C247.836 58.8408 246.956 58.8937 246.149 59.067C245.343 59.2403 244.532 59.5845 243.982 60.2104C243.603 60.6466 243.396 61.2076 243.401 61.787C243.379 62.0577 243.426 62.3295 243.538 62.5765C243.651 62.8234 243.824 63.0373 244.042 63.1975C244.29 63.3613 244.571 63.4678 244.866 63.5094C245.16 63.551 245.459 63.5267 245.743 63.4382C245.521 64.2087 245.46 65.0169 245.563 65.8122C245.667 66.6076 245.933 67.3728 246.344 68.0599C246.755 68.747 247.303 69.3411 247.954 69.805C248.604 70.2689 249.343 70.5926 250.123 70.7556L250.279 71.0373C250.759 71.9378 251.124 72.8963 251.365 73.8896C250.135 74.59 248.793 75.2472 247.982 75.3098C247.949 75.6287 247.89 75.9443 247.805 76.2533C247.615 77.0282 247.251 77.7488 246.74 78.3595C245.638 79.6063 240.678 89.0323 240.678 89.0323C240.678 89.0323 240.523 89.4078 240.267 90.0481C237.188 90.4284 232.162 90.9772 230.76 90.6956L225.258 85.429C225.258 85.429 223.478 86.7962 223.633 88.457L222.64 87.5087C222.64 87.5087 217.406 91.5284 225.671 94.1617L238.248 95.63C237.052 99.2671 235.932 103.501 236.279 105.805H236.382C236.622 105.804 236.862 105.786 237.099 105.749L237.078 106.158L235.867 127.981C235.867 127.981 235.592 132 239.312 133.801C239.312 133.801 243.858 147.244 242.068 148.77C242.068 148.77 242.281 148.883 242.64 149.04L238.901 152.374C238.901 152.374 236.145 153.067 234.631 152.927C234.364 152.891 234.094 152.954 233.871 153.105C233.649 153.256 233.489 153.484 233.422 153.746C233.422 153.775 233.422 153.803 233.408 153.832V153.868C233.408 153.897 233.408 153.926 233.408 153.958C233.408 153.989 233.408 153.979 233.408 153.991C233.408 154.003 233.408 154.042 233.408 154.068C233.408 154.095 233.408 154.09 233.408 154.1C233.408 154.109 233.408 154.16 233.425 154.189V154.222C233.433 154.254 233.443 154.286 233.456 154.319L233.468 154.347C233.48 154.379 233.494 154.41 233.511 154.441V154.463C233.528 154.494 233.547 154.523 233.566 154.554L233.583 154.581C233.605 154.613 233.63 154.645 233.657 154.677L233.678 154.701C233.707 154.735 233.738 154.766 233.769 154.798L233.784 154.81L233.887 154.899L233.908 154.916C233.946 154.947 233.989 154.976 234.032 155.005L234.061 155.024C234.107 155.053 234.154 155.082 234.205 155.108H234.226L234.382 155.185H234.403L234.585 155.257L234.623 155.272L234.822 155.337H234.855L235.073 155.395H235.09L235.329 155.443H235.377L235.635 155.481H235.686L235.977 155.51C236.544 155.553 237.308 155.57 238.19 155.565C238.19 155.565 238.19 155.587 238.19 155.599C238.19 155.611 238.19 155.65 238.19 155.676V155.707C238.19 155.736 238.19 155.768 238.207 155.797V155.83C238.215 155.862 238.225 155.894 238.238 155.926L238.25 155.955C238.262 155.987 238.276 156.018 238.293 156.049V156.071C238.31 156.102 238.329 156.131 238.348 156.162L238.365 156.189C238.387 156.221 238.412 156.253 238.439 156.285L238.461 156.309C238.489 156.343 238.52 156.374 238.552 156.405L238.566 156.418L238.669 156.507L238.69 156.523C238.729 156.555 238.772 156.584 238.815 156.612L238.846 156.632C238.891 156.661 238.939 156.69 238.989 156.716H239.011L239.166 156.793H239.188L239.37 156.865L239.408 156.88L239.607 156.945H239.64L239.858 157.002H239.874L240.114 157.051H240.162L240.42 157.089H240.47L240.762 157.118C244.35 157.395 255.776 156.564 255.776 156.564V156.533V156.492C255.889 155.955 256.439 152.836 254.487 150.53C254.544 150.47 254.601 150.405 254.654 150.337C254.654 150.337 253.14 147.704 253.965 146.871C254.79 146.038 249.834 131.625 249.834 131.625C249.834 131.625 247.216 127.468 248.731 122.755C250.245 118.042 248.592 112.915 248.592 112.915C248.592 112.915 252.204 111.834 252.279 107.36C252.279 107.225 252.279 107.085 252.279 106.943C252.358 106.955 252.438 106.959 252.518 106.958C252.569 106.961 252.62 106.961 252.671 106.958C252.671 106.958 251.982 104.464 252.81 102.661C253.637 100.858 255.427 102.521 257.08 95.1775C258.276 89.8627 259.329 83.7489 259.819 80.7737C260.032 79.5795 259.958 78.3512 259.601 77.1921ZM228.164 92.7825L226.908 91.579C227.324 91.7523 227.786 91.9232 228.303 92.0869L233.04 92.6405C230.925 92.8378 228.961 92.9438 228.164 92.7849V92.7825Z"/><path fill="#FDC2CC" d="M240.152 92.0776C240.152 92.0776 230.408 93.44 228.377 93.0404L222.964 87.8652C222.964 87.8652 217.82 91.8152 225.942 94.4004L241.1 96.1696L240.152 92.0776Z"/><path fill="#000" d="M240.152 92.0776C240.152 92.0776 230.408 93.44 228.377 93.0404L222.964 87.8652C222.964 87.8652 217.82 91.8152 225.942 94.4004L241.1 96.1696L240.152 92.0776Z" opacity=".05"/><path fill="#47465A" d="M243.672 147.361L238.936 151.583C238.936 151.583 236.23 152.264 234.74 152.127C233.249 151.99 232.575 154.443 236.094 154.715C239.613 154.987 250.845 154.171 250.845 154.171C250.845 154.171 251.928 149.814 248.68 147.361H243.672Z"/><path fill="#000" d="M243.672 147.361L238.936 151.583C238.936 151.583 236.23 152.264 234.74 152.127C233.249 151.99 232.575 154.443 236.094 154.715C239.613 154.987 250.845 154.171 250.845 154.171C250.845 154.171 251.928 149.814 248.68 147.361H243.672Z" opacity=".05"/><path fill="#fff" d="M251.015 152.283C251.007 152.779 250.95 153.274 250.845 153.759C250.845 153.759 239.601 154.575 236.094 154.303C234.403 154.173 233.683 153.537 233.554 152.928C233.4 153.626 234.013 154.551 236.094 154.712C239.613 154.984 250.845 154.168 250.845 154.168C250.977 153.549 251.034 152.916 251.015 152.283Z" opacity=".3"/><path fill="#FDC2CC" d="M249.221 70.1546C249.221 70.1546 252.199 74.3765 251.115 77.2361C250.032 80.0956 256.792 74.2393 256.792 74.2393C256.792 74.2393 254.627 70.4266 255.709 66.3418L249.221 70.1546Z"/><path fill="#47465A" d="M248.419 148.992L243.682 153.214C243.682 153.214 240.976 153.895 239.486 153.758C237.995 153.621 237.321 156.074 240.84 156.346C244.359 156.618 255.591 155.802 255.591 155.802C255.591 155.802 256.674 151.445 253.426 148.992H248.419Z"/><path fill="#565171" d="M249.763 148.04C249.057 148.917 248.062 149.244 247.021 149.304C244.655 149.417 242.05 148.04 242.05 148.04C243.808 146.543 239.344 133.333 239.344 133.333C235.691 131.564 235.962 127.614 235.962 127.614L237.158 106.175L237.457 100.79L241.246 98.4746L244.234 100.781L247.067 102.969C247.251 103.664 247.369 104.376 247.421 105.094C247.748 110.098 243.818 111.275 243.818 111.275C243.818 111.275 245.442 116.313 243.954 120.942C242.466 125.571 245.038 129.655 245.038 129.655C245.038 129.655 249.911 143.816 249.105 144.634C248.299 145.453 249.763 148.04 249.763 148.04Z"/><path fill="#000" d="M249.763 148.04C249.057 148.917 248.062 149.244 247.021 149.304C244.655 149.417 242.05 148.04 242.05 148.04C243.808 146.543 239.344 133.333 239.344 133.333C235.691 131.564 235.962 127.614 235.962 127.614L237.158 106.175L237.457 100.79L241.246 98.4746L244.234 100.781L247.067 102.969C247.251 103.664 247.369 104.376 247.421 105.094C247.748 110.098 243.818 111.275 243.818 111.275C243.818 111.275 245.442 116.313 243.954 120.942C242.466 125.571 245.038 129.655 245.038 129.655C245.038 129.655 249.911 143.816 249.105 144.634C248.299 145.453 249.763 148.04 249.763 148.04Z" opacity=".05"/><path fill="#565171" d="M254.5 149.675C252.199 152.534 246.788 149.675 246.788 149.675C246.898 149.574 246.98 149.446 247.027 149.304C248.02 146.589 243.678 133.608 243.678 133.608C240.024 131.839 239.611 127.617 239.611 127.617L238.654 105.797L238.529 102.971L244.223 100.783L245.972 100.111L251.792 104.605C252.044 105.533 252.17 106.491 252.165 107.453C252.091 111.85 248.543 112.912 248.543 112.912C248.543 112.912 250.168 117.95 248.68 122.579C247.192 127.207 249.764 131.292 249.764 131.292C249.764 131.292 254.637 145.453 253.83 146.271C253.024 147.09 254.5 149.675 254.5 149.675Z"/><path fill="#000" d="M252.165 107.451C250.996 107.282 248.627 105.864 247.409 105.094C246.945 104.8 246.649 104.613 246.649 104.613C246.649 104.613 245.431 101.209 242.182 103.797C241.126 104.66 239.933 105.338 238.654 105.804C238.164 105.978 237.66 106.106 237.146 106.185L237.446 100.8L241.235 98.4844L244.223 100.79L245.972 100.119L251.792 104.613C252.043 105.537 252.169 106.492 252.165 107.451Z" opacity=".1"/><path fill="#F68080" d="M259.491 81.3291C259.013 84.2513 257.974 90.2569 256.8 95.4801C255.175 102.701 253.417 101.062 252.604 102.834C251.79 104.605 252.467 107.056 252.467 107.056C251.113 107.193 246.647 104.196 246.647 104.196C246.647 104.196 245.429 100.792 242.18 103.38C238.932 105.968 236.36 105.83 236.36 105.83C235.683 101.336 240.69 89.3542 240.69 89.3542C240.69 89.3542 245.563 80.0943 246.644 78.8691C247.146 78.2689 247.504 77.5606 247.69 76.7991C247.773 76.4956 247.83 76.1856 247.862 75.8724C249.62 75.7352 253.953 72.7432 253.953 72.7432L257.336 72.1992V73.9684C257.375 73.9862 257.412 74.0088 257.446 74.0358C258.003 74.4642 258.704 76.2816 259.19 77.7138C259.584 78.8756 259.688 80.1174 259.491 81.3291Z"/><path fill="#000" d="M256.792 75.7372C256.792 75.7372 253.273 72.8776 247.995 82.1375C242.718 91.3974 241.5 89.8978 241.5 89.8978C241.5 89.8978 242.584 93.9898 242.041 94.801C242.041 94.801 245.694 94.529 247.048 94.801C248.402 95.073 256.792 84.4579 256.792 84.4579C256.792 84.4579 261.131 78.4595 256.792 75.7372Z" opacity=".1"/><path fill="#000" d="M256.665 75.1903C256.665 75.1903 253.146 72.3307 247.868 81.5906C242.591 90.8505 241.373 89.3509 241.373 89.3509C241.373 89.3509 245.569 93.9797 246.921 94.2541C248.272 94.5285 256.665 83.9038 256.665 83.9038C256.665 83.9038 260.995 77.9151 256.665 75.1903Z" opacity=".1"/><path fill="#000" d="M241.923 93.9158C241.978 92.9072 241.601 91.1332 241.383 90.2137C242.206 90.1054 242.725 90.0332 242.725 90.0332L243.682 94.1252L241.923 93.9158Z" opacity=".1"/><path fill="#000" d="M255.853 66.6152L249.357 70.428C249.631 70.83 249.883 71.2462 250.113 71.6748C250.488 71.7516 250.87 71.7903 251.252 71.7904C252.987 71.7904 253.795 69.9586 254.841 68.7262C254.766 67.7369 255.563 67.7104 255.853 66.6152Z" opacity=".1"/><path fill="#FDC2CC" d="M251.118 71.5144C254.257 71.5144 256.802 68.9539 256.802 65.7953C256.802 62.6367 254.257 60.0762 251.118 60.0762C247.978 60.0762 245.434 62.6367 245.434 65.7953C245.434 68.9539 247.978 71.5144 251.118 71.5144Z"/><path fill="url(#paint8_linear)" d="M242.333 72.3145H196.557V107.024H242.333V72.3145Z"/><path fill="#fff" d="M241.306 73.0918H197.582V106.246H241.306V73.0918Z"/><path fill="#6C63FF" d="M216.435 75.9609H201.861V84.2484H216.435V75.9609Z" opacity=".2"/><path fill="#E6E8EC" d="M237.03 75.9609H219.92V77.8745H237.03V75.9609Z"/><path fill="#E6E8EC" d="M231.96 79.1504H219.92V81.064H231.96V79.1504Z"/><path fill="#E6E8EC" d="M237.03 82.3379H219.92V84.2515H237.03V82.3379Z"/><path fill="#E6E8EC" d="M237.031 85.5234H201.861V87.4371H237.031V85.5234Z"/><path fill="#E6E8EC" d="M237.031 88.7129H201.861V90.6265H237.031V88.7129Z"/><path fill="#E6E8EC" d="M237.031 91.9004H201.861V93.814H237.031V91.9004Z"/><path fill="#E6E8EC" d="M234.179 95.0898H201.861V97.0034H234.179V95.0898Z"/><path fill="#E6E8EC" d="M237.031 98.2773H201.861V100.191H237.031V98.2773Z"/><path fill="#E6E8EC" d="M237.031 101.465H201.861V103.378H237.031V101.465Z"/><path fill="#000" d="M243.927 61.1699C244.501 60.5781 245.246 60.1845 246.056 60.0458C246.846 59.8749 247.712 59.8219 248.343 59.3237C249.061 58.7484 249.377 57.6556 250.257 57.4125C250.64 57.335 251.037 57.3667 251.403 57.5039C252.81 57.9309 254.059 58.7687 254.991 59.911C255.211 60.2383 255.491 60.5202 255.817 60.7414C256.011 60.8243 256.201 60.9175 256.386 61.0206C256.589 61.1816 256.748 61.3909 256.85 61.6296C257.485 62.9189 257.631 64.3967 257.262 65.7866C257.042 66.6074 256.644 67.368 256.41 68.1936C256.176 69.0192 256.116 69.9363 256.546 70.6657C256.13 70.8799 255.604 70.6103 255.35 70.2204C255.097 69.8304 255.01 69.349 254.872 68.8989C254.601 68.0135 254.094 67.22 253.405 66.605C252.979 66.2247 252.209 65.9695 251.92 66.4606C251.805 66.6507 251.812 66.8914 251.714 67.0888C251.52 67.4739 250.96 67.5509 250.59 67.3295C250.232 67.0812 249.981 66.7065 249.886 66.28C249.329 64.3833 248.379 63.1894 246.362 64.0006C245.611 64.3038 244.726 64.5084 244.004 63.9885C243.061 63.3025 243.245 61.9449 243.927 61.1699Z" opacity=".1"/><path fill="#B96B6B" d="M243.927 61.0332C244.501 60.4414 245.246 60.0478 246.056 59.9091C246.846 59.7382 247.712 59.6852 248.343 59.187C249.061 58.6117 249.377 57.5189 250.257 57.2758C250.64 57.1983 251.037 57.23 251.403 57.3672C252.81 57.7942 254.059 58.632 254.991 59.7743C255.211 60.1016 255.491 60.3835 255.817 60.6047C256.011 60.6876 256.201 60.7808 256.386 60.8839C256.589 61.0449 256.748 61.2542 256.85 61.4929C257.485 62.7822 257.631 64.2599 257.262 65.6499C257.042 66.4707 256.644 67.2313 256.41 68.0569C256.176 68.8825 256.116 69.7996 256.546 70.529C256.13 70.7432 255.604 70.4736 255.35 70.0837C255.097 69.6937 255.01 69.2123 254.872 68.7622C254.601 67.8768 254.094 67.0833 253.405 66.4683C252.979 66.088 252.209 65.8328 251.92 66.3238C251.805 66.514 251.812 66.7547 251.714 66.9521C251.52 67.3372 250.96 67.4142 250.59 67.1928C250.232 66.9445 249.981 66.5698 249.886 66.1433C249.329 64.2466 248.379 63.0527 246.362 63.8638C245.611 64.1671 244.726 64.3717 244.004 63.8518C243.061 63.1658 243.245 61.8106 243.927 61.0332Z"/><path fill="#000" d="M257.452 74.0353H254.7C254.7 74.0353 249.287 76.7577 249.153 76.6229C249.062 76.5314 248.224 76.6879 247.693 76.801C247.776 76.4975 247.834 76.1875 247.866 75.8743C249.624 75.7371 253.956 72.7452 253.956 72.7452L257.339 72.2012V73.9703C257.379 73.9872 257.417 74.009 257.452 74.0353Z" opacity=".05"/><path fill="#fff" d="M255.751 153.918C255.743 154.414 255.686 154.909 255.581 155.393C255.581 155.393 244.338 156.209 240.831 155.937C239.139 155.808 238.419 155.172 238.29 154.563C238.137 155.261 238.749 156.185 240.831 156.347C244.35 156.619 255.581 155.803 255.581 155.803C255.713 155.184 255.77 154.551 255.751 153.918Z" opacity=".3"/><g opacity=".05"><path fill="#000" d="M240.896 103.234C239.071 104.678 237.456 105.282 236.396 105.523C236.396 105.624 236.416 105.725 236.43 105.821C236.43 105.821 239.002 105.958 242.25 103.371C242.754 102.937 243.348 102.624 243.99 102.456C243.282 102.126 242.27 102.148 240.896 103.234Z" opacity=".05"/><path fill="#000" d="M259.265 77.718C258.787 76.2738 258.069 74.4685 257.521 74.0401C257.487 74.0131 257.45 73.9904 257.411 73.9727C257.411 73.9727 256.292 74.0112 256.327 74.0401C256.885 74.4685 257.426 76.1486 257.911 77.5808C258.303 78.7417 258.404 79.9818 258.205 81.1914C257.727 84.1135 256.689 90.1191 255.514 95.3424C253.89 102.564 252.131 100.924 251.318 102.696C250.653 104.14 250.985 106.051 251.129 106.694C251.708 106.935 252.21 107.086 252.536 107.053C252.536 107.053 251.859 104.602 252.672 102.831C253.485 101.059 255.244 102.694 256.868 95.4772C258.043 90.2563 259.076 84.2483 259.559 81.3262C259.757 80.1174 259.656 78.8782 259.265 77.718Z" opacity=".05"/></g><path fill="#FDC2CC" d="M243.673 94.1192L241.924 93.9146L228.527 92.3476C220.407 89.7601 225.548 85.8125 225.548 85.8125L230.962 90.9876C232.524 91.303 238.649 90.5688 241.393 90.215C242.216 90.1067 242.735 90.0345 242.735 90.0345L243.673 94.1192Z"/><path fill="#F68080" d="M256.792 75.4657C256.792 75.4657 253.273 72.6061 247.995 81.866C242.718 91.1259 241.5 89.6263 241.5 89.6263C241.5 89.6263 242.584 93.7183 242.041 94.5295C242.041 94.5295 245.694 94.2575 247.048 94.5295C248.402 94.8015 256.792 84.1792 256.792 84.1792C256.792 84.1792 261.131 78.1881 256.792 75.4657Z"/></g><defs><linearGradient id="paint0_linear" x1="150.953" x2="150.953" y1="143.757" y2="27.165" gradientUnits="userSpaceOnUse"><stop stop-color="gray" stop-opacity=".25"/><stop offset=".54" stop-color="gray" stop-opacity=".12"/><stop offset="1" stop-color="gray" stop-opacity=".1"/></linearGradient><linearGradient id="paint1_linear" x1="28587.9" x2="28587.9" y1="80189.3" y2="33088.8" gradientUnits="userSpaceOnUse"><stop stop-color="gray" stop-opacity=".25"/><stop offset=".54" stop-color="gray" stop-opacity=".12"/><stop offset="1" stop-color="gray" stop-opacity=".1"/></linearGradient><linearGradient id="paint2_linear" x1="8786.98" x2="8786.98" y1="65682.4" y2="36921.2" gradientUnits="userSpaceOnUse"><stop stop-color="gray" stop-opacity=".25"/><stop offset=".54" stop-color="gray" stop-opacity=".12"/><stop offset="1" stop-color="gray" stop-opacity=".1"/></linearGradient><linearGradient id="paint3_linear" x1="30583.3" x2="30583.3" y1="37251.4" y2="28275.9" gradientUnits="userSpaceOnUse"><stop stop-color="gray" stop-opacity=".25"/><stop offset=".54" stop-color="gray" stop-opacity=".12"/><stop offset="1" stop-color="gray" stop-opacity=".1"/></linearGradient><linearGradient id="paint4_linear" x1="8411.81" x2="10389" y1="10462.4" y2="10462.4" gradientUnits="userSpaceOnUse"><stop stop-color="gray" stop-opacity=".25"/><stop offset=".54" stop-color="gray" stop-opacity=".12"/><stop offset="1" stop-color="gray" stop-opacity=".1"/></linearGradient><linearGradient id="paint5_linear" x1="-26844" x2="-26844" y1="87292.9" y2="42994.3" gradientUnits="userSpaceOnUse"><stop stop-color="gray" stop-opacity=".25"/><stop offset=".54" stop-color="gray" stop-opacity=".12"/><stop offset="1" stop-color="gray" stop-opacity=".1"/></linearGradient><linearGradient id="paint6_linear" x1="5141.3" x2="5141.3" y1="9919.44" y2="8419.49" gradientUnits="userSpaceOnUse"><stop stop-color="gray" stop-opacity=".25"/><stop offset=".54" stop-color="gray" stop-opacity=".12"/><stop offset="1" stop-color="gray" stop-opacity=".1"/></linearGradient><linearGradient id="paint7_linear" x1="41564.4" x2="41564.4" y1="71509.9" y2="29214.4" gradientUnits="userSpaceOnUse"><stop stop-color="gray" stop-opacity=".25"/><stop offset=".54" stop-color="gray" stop-opacity=".12"/><stop offset="1" stop-color="gray" stop-opacity=".1"/></linearGradient><linearGradient id="paint8_linear" x1="42187.5" x2="42187.5" y1="15505.2" y2="10500.1" gradientUnits="userSpaceOnUse"><stop stop-color="gray" stop-opacity=".25"/><stop offset=".54" stop-color="gray" stop-opacity=".12"/><stop offset="1" stop-color="gray" stop-opacity=".1"/></linearGradient><clipPath id="clip0"><rect width="260" height="190" fill="#fff"/></clipPath></defs></svg>