<svg width="260" height="200" viewBox="0 0 260 200" fill="none" xmlns="http://www.w3.org/2000/svg">
<g clip-path="url(#clip0)">
<path d="M14.9679 102.764C23.7955 114.014 20.366 130.447 14.7575 143.611C12.878 148.019 10.7559 152.68 11.5384 157.405C12.5066 163.183 17.6521 167.41 23.0552 169.649C32.903 173.731 44.6896 172.758 53.7401 167.115C61.5599 162.238 67.1611 154.308 75.1146 149.654C88.4266 141.866 105.369 144.807 119.822 150.173C130.049 153.968 141.229 158.904 151.389 154.938C158.537 152.146 163.48 145.353 166.174 138.151C167.474 134.676 168.417 130.911 170.901 128.154C172.387 126.515 174.303 125.351 176.277 124.371C194.296 115.416 217.052 120.211 234.554 110.281C246.373 103.58 253.94 90.9224 257.29 77.7285C260.641 64.5347 260.262 50.7005 259.4 37.1145C258.796 27.4574 257.711 17.15 251.556 9.69682C245.043 1.81426 233.868 -1.11936 223.768 0.379718C213.667 1.87879 204.51 7.21987 196.455 13.509C186.39 21.3717 177.052 31.1604 164.693 34.3571C156.274 36.5263 147.422 35.3499 138.74 34.9279C124.227 34.2405 109.709 35.7693 95.2757 37.4396C81.4586 39.0405 67.5424 40.8026 54.379 45.3073C45.066 48.4842 37.6028 54.272 28.8074 58.3051C23.075 60.9409 16.8226 61.6681 11.3923 65.0261C4.70659 69.161 -1.42445 76.3536 0.28907 84.7697C1.9184 92.7789 10.283 96.7921 14.9679 102.764Z" fill="#EAE9FF"/>
<path d="M46.9938 151.946C46.9938 151.946 46.1767 127.683 33.0801 113.973C27.583 108.22 23.9727 100.913 23.0169 93.0054C22.5701 89.2527 22.4673 85.4668 22.7099 81.6953" stroke="#535461" stroke-width="2" stroke-miterlimit="10"/>
<path d="M14.5063 73.0125C15.4027 75.7227 22.8956 81.9473 22.8956 81.9473C22.8956 81.9473 25.191 72.464 24.2947 69.7562C23.8642 68.4552 22.9357 67.3788 21.7135 66.764C20.4912 66.1491 19.0753 66.0461 17.7773 66.4776C16.4793 66.9091 15.4055 67.8397 14.792 69.0648C14.1786 70.2898 14.0758 71.709 14.5063 73.01V73.0125Z" fill="#6C63FF"/>
<path d="M11.3898 90.7076C13.6184 92.4946 23.2755 93.6413 23.2755 93.6413C23.2755 93.6413 20.0565 84.4309 17.8279 82.6464C16.7558 81.8565 15.4206 81.5127 14.1014 81.6868C12.7822 81.861 11.5813 82.5396 10.7498 83.5807C9.91833 84.6219 9.52063 85.9449 9.63991 87.2732C9.75919 88.6014 10.3862 89.832 11.3898 90.7076Z" fill="#6C63FF"/>
<path d="M20.2169 116.232C23.0348 116.649 31.9565 112.757 31.9565 112.757C31.9565 112.757 24.5428 106.433 21.7249 106.017C20.372 105.816 18.9951 106.163 17.8971 106.98C16.7991 107.797 16.0699 109.018 15.8699 110.374C15.6699 111.73 16.0156 113.11 16.8308 114.21C17.646 115.311 18.864 116.042 20.2169 116.242V116.232Z" fill="#6C63FF"/>
<path d="M31.2427 134.038C33.9492 134.927 43.4008 132.594 43.4008 132.594C43.4008 132.594 37.1583 125.106 34.4518 124.217C33.1525 123.789 31.7368 123.896 30.5162 124.515C29.2956 125.133 28.37 126.212 27.9432 127.514C27.5163 128.817 27.6231 130.236 28.24 131.459C28.8569 132.683 29.9335 133.61 31.2328 134.038H31.2427Z" fill="#6C63FF"/>
<path d="M33.718 90.7498C32.4032 93.2814 24.0188 98.2402 24.0188 98.2402C24.0188 98.2402 23.2561 88.5136 24.571 85.9796C24.8835 85.3776 25.3112 84.8432 25.8298 84.4069C26.3483 83.9706 26.9475 83.641 27.5932 83.4368C28.2388 83.2326 28.9183 83.1578 29.5928 83.2168C30.2673 83.2758 30.9235 83.4674 31.5241 83.7806C32.1247 84.0939 32.6579 84.5226 33.0932 85.0423C33.5285 85.5621 33.8574 86.1627 34.0611 86.8098C34.2649 87.457 34.3394 88.138 34.2805 88.814C34.2217 89.4901 34.0305 90.1479 33.718 90.7498Z" fill="#6C63FF"/>
<path d="M46.3489 111.735C44.3382 113.758 34.8594 115.972 34.8594 115.972C34.8594 115.972 37.0359 106.461 39.0441 104.438C39.522 103.958 40.0896 103.576 40.7146 103.315C41.3397 103.054 42.0098 102.919 42.6869 102.918C43.3639 102.917 44.0346 103.049 44.6606 103.308C45.2866 103.566 45.8556 103.946 46.3353 104.425C46.8149 104.904 47.1957 105.473 47.456 106.099C47.7163 106.726 47.8509 107.397 47.8521 108.076C47.8534 108.754 47.7213 109.427 47.4634 110.054C47.2054 110.682 46.8267 111.252 46.3489 111.733V111.735Z" fill="#6C63FF"/>
<path d="M55.8331 133.824C54.1939 136.157 45.2227 139.946 45.2227 139.946C45.2227 139.946 45.7625 130.205 47.4042 127.869C47.784 127.29 48.2761 126.794 48.8513 126.409C49.4265 126.025 50.0729 125.76 50.7522 125.631C51.4314 125.502 52.1296 125.512 52.8052 125.659C53.4809 125.806 54.1201 126.087 54.6849 126.487C55.2497 126.886 55.7286 127.396 56.093 127.985C56.4574 128.574 56.6999 129.23 56.8061 129.915C56.9123 130.599 56.88 131.298 56.7112 131.97C56.5423 132.642 56.2403 133.273 55.8232 133.826L55.8331 133.824Z" fill="#6C63FF"/>
<path d="M162.081 135.47C162.081 135.47 158.148 134.135 156.257 137.607C155.757 138.549 155.503 139.601 155.518 140.667C155.533 141.733 155.816 142.778 156.341 143.705C157.579 145.957 160.144 148.88 165.007 148.62C169.123 148.399 170.48 145.252 170.856 142.323C170.999 141.225 170.857 140.109 170.446 139.081C170.035 138.053 169.367 137.149 168.507 136.454C167.647 135.759 166.623 135.297 165.534 135.112C164.445 134.927 163.326 135.026 162.286 135.399L162.081 135.47Z" fill="#6C63FF"/>
<path opacity="0.1" d="M157.174 144.018C156.649 143.09 156.366 142.045 156.351 140.979C156.336 139.913 156.59 138.861 157.089 137.92C158.981 134.445 162.913 135.783 162.913 135.783L163.114 135.711C164.613 135.167 166.261 135.204 167.735 135.815C166.922 135.33 166.011 135.031 165.069 134.941C164.127 134.851 163.177 134.971 162.287 135.294L162.086 135.366C162.086 135.366 158.154 134.03 156.262 137.503C155.763 138.444 155.509 139.496 155.524 140.562C155.539 141.628 155.822 142.673 156.347 143.601C157.166 145.09 158.555 146.854 160.804 147.82C159.269 146.909 158.014 145.594 157.174 144.018Z" fill="white"/>
<path opacity="0.2" d="M160.051 137.141C160.051 137.141 161.509 138.288 165.048 137.141H160.051Z" fill="black"/>
<path d="M159.74 128.791C159.74 128.791 162.239 135.574 162.031 137.349L164.012 137.14C164.012 137.14 160.679 131.184 161.513 128.791H159.74Z" fill="#6C63FF"/>
<path opacity="0.2" d="M159.74 128.791C159.74 128.791 162.239 135.574 162.031 137.349L164.012 137.14C164.012 137.14 160.679 131.184 161.513 128.791H159.74Z" fill="black"/>
<path d="M169.939 129.357C169.939 129.357 166.006 127.341 164.243 129.007C162.48 130.672 162.213 134.929 162.213 134.929C162.213 134.929 168.629 135.812 169.939 129.357Z" fill="#6C63FF"/>
<path opacity="0.1" d="M169.939 129.357C169.939 129.357 166.006 127.341 164.243 129.007C162.48 130.672 162.213 134.929 162.213 134.929C162.213 134.929 168.629 135.812 169.939 129.357Z" fill="white"/>
<path d="M162.215 134.929C162.215 134.929 163.247 129.988 169.938 129.357" stroke="#6C63FF" stroke-miterlimit="10"/>
<path d="M49.1835 105.359C49.1835 105.359 49.9858 92.2392 43.6294 84.1779C40.9414 80.8139 39.4148 76.6667 39.2787 72.359C39.2308 70.3129 39.3701 68.2667 39.6947 66.2461" stroke="#535461" stroke-width="2" stroke-miterlimit="10"/>
<path d="M35.7209 61.1444C36.0651 62.651 39.7843 66.3937 39.7843 66.3937C39.7843 66.3937 41.5177 61.4001 41.1636 59.896C41.0823 59.5375 40.9313 59.1986 40.7193 58.8985C40.5073 58.5985 40.2385 58.3432 39.928 58.1473C39.6176 57.9514 39.2718 57.8187 38.9102 57.7568C38.5486 57.6949 38.1784 57.7049 37.8207 57.7864C37.463 57.8679 37.1248 58.0192 36.8255 58.2317C36.5261 58.4442 36.2714 58.7137 36.076 59.0248C35.8806 59.3359 35.7482 59.6826 35.6864 60.045C35.6246 60.4074 35.6347 60.7785 35.7159 61.137L35.7209 61.1444Z" fill="#6C63FF"/>
<path d="M33.1314 70.5206C34.2382 71.5978 39.3887 72.7146 39.3887 72.7146C39.3887 72.7146 38.1283 67.5845 37.0215 66.5098C36.7586 66.2538 36.4479 66.0522 36.1073 65.9165C35.7666 65.7809 35.4027 65.7137 35.0362 65.719C34.6696 65.7243 34.3078 65.802 33.9712 65.9474C33.6346 66.0929 33.3299 66.3034 33.0744 66.5669C32.819 66.8304 32.6179 67.1418 32.4825 67.4832C32.3471 67.8247 32.2802 68.1895 32.2854 68.5568C32.2907 68.9242 32.3682 69.2869 32.5133 69.6243C32.6585 69.9617 32.8685 70.2671 33.1314 70.5231V70.5206Z" fill="#6C63FF"/>
<path d="M36.5858 84.735C38.0715 85.1048 43.0907 83.4618 43.0907 83.4618C43.0907 83.4618 39.4185 79.6719 37.9229 79.3021C37.567 79.2141 37.1973 79.1973 36.8349 79.2525C36.4725 79.3077 36.1244 79.4339 35.8107 79.6239C35.1771 80.0077 34.7215 80.628 34.5441 81.3485C34.3668 82.0689 34.4823 82.8305 34.8652 83.4656C35.2481 84.1007 35.867 84.5573 36.5858 84.735Z" fill="#6C63FF"/>
<path d="M41.6148 94.8955C43.0287 95.5135 48.2411 94.7416 48.2411 94.7416C48.2411 94.7416 45.2697 90.3834 43.8483 89.7778C43.511 89.6222 43.1462 89.5356 42.775 89.5231C42.4039 89.5106 42.0341 89.5724 41.6871 89.705C41.3402 89.8376 41.0231 90.0382 40.7545 90.2952C40.4859 90.5522 40.2711 90.8603 40.1228 91.2015C39.9745 91.5427 39.8957 91.9101 39.8909 92.2823C39.886 92.6544 39.9554 93.0238 40.0948 93.3687C40.2342 93.7137 40.4409 94.0273 40.7027 94.2912C40.9646 94.555 41.2764 94.7639 41.6198 94.9054L41.6148 94.8955Z" fill="#6C63FF"/>
<path d="M45.1677 71.6961C44.3307 72.9942 39.5566 75.2328 39.5566 75.2328C39.5566 75.2328 39.6433 69.9513 40.4827 68.6533C40.8853 68.0306 41.5182 67.5937 42.2421 67.4387C42.9661 67.2837 43.7218 67.4233 44.3431 67.8268C44.9644 68.2303 45.4003 68.8647 45.5549 69.5903C45.7095 70.3159 45.5703 71.0734 45.1677 71.6961Z" fill="#6C63FF"/>
<path d="M50.9011 83.6556C49.715 84.6484 44.4902 85.3483 44.4902 85.3483C44.4902 85.3483 46.1493 80.3348 47.3379 79.347C47.9079 78.8734 48.6423 78.6462 49.3795 78.7153C50.1167 78.7844 50.7963 79.1442 51.2688 79.7156C51.7413 80.2869 51.968 81.023 51.8991 81.7619C51.8301 82.5008 51.4711 83.182 50.9011 83.6556Z" fill="#6C63FF"/>
<path d="M54.8797 96.0476C53.8768 97.2215 48.8477 98.8025 48.8477 98.8025C48.8477 98.8025 49.6376 93.5905 50.6429 92.4066C50.8816 92.1276 51.1728 91.8984 51.4998 91.7322C51.8268 91.566 52.1833 91.466 52.5489 91.4379C52.9145 91.4098 53.282 91.4541 53.6305 91.5684C53.9791 91.6826 54.3017 91.8646 54.58 92.1038C54.8584 92.343 55.087 92.6349 55.2528 92.9626C55.4187 93.2904 55.5184 93.6478 55.5465 94.0142C55.5746 94.3806 55.5303 94.749 55.4163 95.0984C55.3023 95.4477 55.1208 95.771 54.8821 96.05L54.8797 96.0476Z" fill="#6C63FF"/>
<path opacity="0.5" d="M35.7209 61.1444C36.0651 62.651 39.7843 66.3937 39.7843 66.3937C39.7843 66.3937 41.5177 61.4001 41.1636 59.896C41.0823 59.5375 40.9313 59.1986 40.7193 58.8985C40.5073 58.5985 40.2385 58.3432 39.928 58.1473C39.6176 57.9514 39.2718 57.8187 38.9102 57.7568C38.5486 57.6949 38.1784 57.7049 37.8207 57.7864C37.463 57.8679 37.1248 58.0192 36.8255 58.2317C36.5261 58.4442 36.2714 58.7137 36.076 59.0248C35.8806 59.3359 35.7482 59.6826 35.6864 60.045C35.6246 60.4074 35.6347 60.7785 35.7159 61.137L35.7209 61.1444Z" fill="white"/>
<path opacity="0.5" d="M33.1314 70.5206C34.2382 71.5978 39.3887 72.7146 39.3887 72.7146C39.3887 72.7146 38.1283 67.5845 37.0215 66.5098C36.7586 66.2538 36.4479 66.0522 36.1073 65.9165C35.7666 65.7809 35.4027 65.7137 35.0362 65.719C34.6696 65.7243 34.3078 65.802 33.9712 65.9474C33.6346 66.0929 33.3299 66.3034 33.0744 66.5669C32.819 66.8304 32.6179 67.1418 32.4825 67.4832C32.3471 67.8247 32.2802 68.1895 32.2854 68.5568C32.2907 68.9242 32.3682 69.2869 32.5133 69.6243C32.6585 69.9617 32.8685 70.2671 33.1314 70.5231V70.5206Z" fill="white"/>
<path opacity="0.5" d="M36.5858 84.735C38.0715 85.1048 43.0907 83.4618 43.0907 83.4618C43.0907 83.4618 39.4185 79.6719 37.9229 79.3021C37.567 79.2141 37.1973 79.1973 36.8349 79.2525C36.4725 79.3077 36.1244 79.4339 35.8107 79.6239C35.1771 80.0077 34.7215 80.628 34.5441 81.3485C34.3668 82.0689 34.4823 82.8305 34.8652 83.4656C35.2481 84.1007 35.867 84.5573 36.5858 84.735Z" fill="white"/>
<path opacity="0.5" d="M41.6148 94.8955C43.0287 95.5135 48.2411 94.7416 48.2411 94.7416C48.2411 94.7416 45.2697 90.3834 43.8483 89.7778C43.511 89.6222 43.1462 89.5356 42.775 89.5231C42.4039 89.5106 42.0341 89.5724 41.6871 89.705C41.3402 89.8376 41.0231 90.0382 40.7545 90.2952C40.4859 90.5522 40.2711 90.8603 40.1228 91.2015C39.9745 91.5427 39.8957 91.9101 39.8909 92.2823C39.886 92.6544 39.9554 93.0238 40.0948 93.3687C40.2342 93.7137 40.4409 94.0273 40.7027 94.2912C40.9646 94.555 41.2764 94.7639 41.6198 94.9054L41.6148 94.8955Z" fill="white"/>
<path opacity="0.5" d="M45.1677 71.6961C44.3307 72.9942 39.5566 75.2328 39.5566 75.2328C39.5566 75.2328 39.6433 69.9513 40.4827 68.6533C40.8853 68.0306 41.5182 67.5937 42.2421 67.4387C42.9661 67.2837 43.7218 67.4233 44.3431 67.8268C44.9644 68.2303 45.4003 68.8647 45.5549 69.5903C45.7095 70.3159 45.5703 71.0734 45.1677 71.6961Z" fill="white"/>
<path opacity="0.5" d="M50.9011 83.6556C49.715 84.6484 44.4902 85.3483 44.4902 85.3483C44.4902 85.3483 46.1493 80.3348 47.3379 79.347C47.9079 78.8734 48.6423 78.6462 49.3795 78.7153C50.1167 78.7844 50.7963 79.1442 51.2688 79.7156C51.7413 80.2869 51.968 81.023 51.8991 81.7619C51.8301 82.5008 51.4711 83.182 50.9011 83.6556Z" fill="white"/>
<path opacity="0.5" d="M54.8797 96.0476C53.8768 97.2215 48.8477 98.8025 48.8477 98.8025C48.8477 98.8025 49.6376 93.5905 50.6429 92.4066C50.8816 92.1276 51.1728 91.8984 51.4998 91.7322C51.8268 91.566 52.1833 91.466 52.5489 91.4379C52.9145 91.4098 53.282 91.4541 53.6305 91.5684C53.9791 91.6826 54.3017 91.8646 54.58 92.1038C54.8584 92.343 55.087 92.6349 55.2528 92.9626C55.4187 93.2904 55.5184 93.6478 55.5465 94.0142C55.5746 94.3806 55.5303 94.749 55.4163 95.0984C55.3023 95.4477 55.1208 95.771 54.8821 96.05L54.8797 96.0476Z" fill="white"/>
<path d="M124.924 5.06055V9.36667V90.4284H249.952V9.36667V5.06055H124.924Z" fill="url(#paint0_linear)"/>
<path d="M248.626 8.93359H126.777V88.8835H248.626V8.93359Z" fill="white"/>
<path d="M248.626 5.13086H126.777V11.013H248.626V5.13086Z" fill="#EEEEEE"/>
<path d="M131.414 9.40889C132.2 9.40889 132.838 8.76995 132.838 7.98179C132.838 7.19362 132.2 6.55469 131.414 6.55469C130.628 6.55469 129.99 7.19362 129.99 7.98179C129.99 8.76995 130.628 9.40889 131.414 9.40889Z" fill="#FF5252"/>
<path d="M135.33 9.40889C136.116 9.40889 136.754 8.76995 136.754 7.98179C136.754 7.19362 136.116 6.55469 135.33 6.55469C134.544 6.55469 133.906 7.19362 133.906 7.98179C133.906 8.76995 134.544 9.40889 135.33 9.40889Z" fill="#FFFF00"/>
<path d="M139.242 9.40889C140.029 9.40889 140.666 8.76995 140.666 7.98179C140.666 7.19362 140.029 6.55469 139.242 6.55469C138.456 6.55469 137.818 7.19362 137.818 7.98179C137.818 8.76995 138.456 9.40889 139.242 9.40889Z" fill="#69F0AE"/>
<path opacity="0.5" d="M176.855 20.4336H131.449V22.3298H176.855V20.4336Z" fill="#6C63FF"/>
<path opacity="0.5" d="M176.855 24.2266H131.449V26.1227H176.855V24.2266Z" fill="#6C63FF"/>
<path opacity="0.5" d="M176.855 28.0176H131.449V29.9138H176.855V28.0176Z" fill="#6C63FF"/>
<path opacity="0.5" d="M176.852 31.8105H147.098V33.7067H176.852V31.8105Z" fill="#6C63FF"/>
<path opacity="0.5" d="M155.357 35.6055H131.449V37.5016H155.357V35.6055Z" fill="#6C63FF"/>
<path opacity="0.5" d="M162.751 39.3984H144.348V41.2946H162.751V39.3984Z" fill="#6C63FF"/>
<path opacity="0.5" d="M236.366 33.709H182.875V64.5666H236.366V33.709Z" fill="#6C63FF"/>
<path d="M242.729 36.6387H189.238V67.4963H242.729V36.6387Z" fill="#EEEEEE"/>
<path d="M219.166 67.4878H189.238V61.844C196.55 58.4189 207.8 56.4954 219.166 67.4878Z" fill="#6C63FF"/>
<g opacity="0.1">
<path opacity="0.1" d="M242.384 66.6894V67.4886H205.061V67.3173C205.061 67.3173 223.426 49.4029 242.384 66.6894Z" fill="black"/>
</g>
<path d="M242.73 66.6894V67.4886H205.406V67.3173C205.406 67.3173 223.772 49.4029 242.73 66.6894Z" fill="#6C63FF"/>
<path d="M195.431 44.9132C196.95 44.9132 198.182 43.6787 198.182 42.1558C198.182 40.633 196.95 39.3984 195.431 39.3984C193.911 39.3984 192.68 40.633 192.68 42.1558C192.68 43.6787 193.911 44.9132 195.431 44.9132Z" fill="#6C63FF"/>
<path d="M218.857 40.0663C218.543 40.0663 218.191 40.0663 217.953 40.0862C217.846 40.0921 217.74 40.1139 217.639 40.1507L216.02 40.734C217.327 40.7662 218.691 40.7563 220.028 40.734L227.541 40.6769C228.306 40.6769 229.114 40.6645 229.752 40.6173C230.181 40.5875 230.495 40.5404 230.889 40.5056C232.31 40.379 234.385 40.4039 236.238 40.4088C238.09 40.4138 240.326 40.3666 240.977 40.1805H237.003C236.574 40.1805 236.124 40.1805 235.745 40.1582C235.302 40.1333 235.032 40.0837 234.643 40.0489C233.999 39.9943 233.113 39.9869 232.286 39.9844C227.759 39.9819 223.285 40.0911 218.857 40.0663Z" fill="#F4F4F4"/>
<path d="M223.317 43.4141C223.248 43.4141 223.174 43.4141 223.122 43.4141C223.099 43.4159 223.076 43.4209 223.055 43.429L222.703 43.5553C222.985 43.5553 223.283 43.5553 223.572 43.5553L225.199 43.5429C225.365 43.5429 225.538 43.5429 225.677 43.5306L225.925 43.5058C226.232 43.4785 226.682 43.4835 227.084 43.486C227.427 43.4974 227.77 43.4809 228.111 43.4364H227.249C227.155 43.4364 227.059 43.4364 226.977 43.4364C226.895 43.4364 226.824 43.4191 226.729 43.4141C226.591 43.4141 226.398 43.4017 226.219 43.3992C225.244 43.3943 224.276 43.4141 223.317 43.4141Z" fill="#F4F4F4"/>
<path d="M211.794 48.2377C211.724 48.2377 211.65 48.2377 211.598 48.2377C211.575 48.2395 211.553 48.2446 211.531 48.2526L211.18 48.379C211.462 48.379 211.759 48.379 212.049 48.379L213.676 48.3666C213.842 48.3666 214.015 48.3666 214.154 48.3542L214.401 48.3294C214.708 48.3021 215.159 48.3071 215.56 48.3096C215.903 48.3211 216.247 48.3045 216.588 48.26H215.726C215.632 48.26 215.535 48.26 215.454 48.26C215.372 48.26 215.3 48.2427 215.206 48.2377C215.067 48.2377 214.874 48.2253 214.696 48.2228C213.723 48.2204 212.752 48.2427 211.794 48.2377Z" fill="#F4F4F4"/>
<path d="M205.321 65.9664H204.038C204.038 65.9664 203.634 51.7897 205.331 47.4141H205.655C205.655 47.4141 204.513 63.4571 205.321 65.9664Z" fill="#6C63FF"/>
<path d="M204.432 46.687C204.432 46.687 203.382 49.6033 203.867 50.9063C203.867 50.9063 204.595 48.2332 205.445 47.8287C206.294 47.4241 207.178 50.9063 207.178 50.9063C207.178 50.9063 207.673 48.7197 206.775 46.9352C207.912 47.6099 208.836 48.5922 209.441 49.7696C209.441 49.7696 209.602 48.5534 207.503 46.0467C207.503 46.0467 209.362 46.5431 210.573 47.6674C210.573 47.6674 210.977 46.7764 208.471 45.317C208.471 45.317 208.795 44.2647 210.734 44.7511C210.734 44.7511 210.734 43.3737 207.663 43.6169C207.663 43.6169 207.663 42.7259 209.684 42.8872C209.684 42.8872 209.684 41.753 207.339 42.1575C207.339 42.1575 207.834 41.4278 208.146 41.2665C207.742 41.2293 207.338 41.3453 207.015 41.5916C207.015 41.5916 207.096 40.1323 205.883 39.5664L205.722 41.5916C205.722 41.5916 204.363 39.9859 204.672 40.2961C204.867 40.7843 204.952 41.3099 204.92 41.8349C204.92 41.8349 203.546 40.7006 201.849 41.9168C201.849 41.9168 203.952 42.0781 204.274 42.8078C204.274 42.8078 202.496 42.4827 202.092 42.7259C202.092 42.7259 203.466 43.2223 203.385 43.535C203.385 43.535 200.96 43.535 200.636 44.426C200.636 44.426 203.142 44.7511 203.303 44.9919C203.303 44.9919 200.393 47.099 200.232 47.6649C200.232 47.6649 203.224 45.8829 203.699 45.8829C204.175 45.8829 201.518 48.4765 201.679 49.1243C201.686 49.1218 203.867 46.5232 204.432 46.687Z" fill="#6C63FF"/>
<path d="M221.275 65.4379H222.265C222.265 65.4379 222.575 54.6068 221.275 51.2637H221.027C221.027 51.2637 221.892 63.5169 221.275 65.4379Z" fill="#6C63FF"/>
<path d="M221.953 50.7058C221.953 50.7058 222.755 52.9395 222.386 53.9323C222.386 53.9323 221.832 51.8897 221.183 51.5794C220.534 51.2692 219.856 53.9323 219.856 53.9323C219.856 53.9323 219.484 52.262 220.165 50.8994C219.296 51.4151 218.59 52.1661 218.127 53.0661C218.127 53.0661 218.003 52.1379 219.613 50.2194C219.613 50.2194 218.192 50.5916 217.265 51.4603C217.265 51.4603 216.956 50.7803 218.87 49.6659C218.87 49.6659 218.622 48.8618 217.137 49.2316C217.137 49.2316 217.137 48.1792 219.484 48.3654C219.484 48.3654 219.484 47.6853 217.941 47.8094C217.941 47.8094 217.941 46.9432 219.732 47.2535C219.566 46.9935 219.358 46.7636 219.115 46.5734C219.424 46.5447 219.733 46.6333 219.979 46.8216C219.979 46.8216 219.917 45.7072 220.844 45.2754L220.967 46.8216C220.967 46.8216 222.005 45.5956 221.77 45.8289C221.622 46.2024 221.558 46.6042 221.584 47.0053C221.584 47.0053 222.634 46.1391 223.931 47.0673C223.931 47.0673 222.327 47.1914 222.079 47.7474C222.079 47.7474 223.439 47.4992 223.746 47.6853C223.746 47.6853 222.696 48.0576 222.755 48.3033C222.755 48.3033 224.607 48.3033 224.855 48.9834C224.855 48.9834 222.941 49.2316 222.817 49.4177C222.817 49.4177 225.046 51.026 225.165 51.4603C225.165 51.4603 222.879 50.0977 222.51 50.0977C222.141 50.0977 224.177 52.0833 224.053 52.5797C224.053 52.5623 222.386 50.5817 221.953 50.7058Z" fill="#6C63FF"/>
<path d="M233.097 63.3215H233.709C233.709 63.3215 233.899 56.6203 233.097 54.543H232.943C232.943 54.543 233.478 62.1327 233.097 63.3215Z" fill="#6C63FF"/>
<path d="M233.505 54.1982C233.505 54.1982 234.001 55.5781 233.773 56.1837C233.773 56.1837 233.429 54.9179 233.03 54.7268C232.631 54.5357 232.208 56.1837 232.208 56.1837C232.081 55.5525 232.148 54.8977 232.398 54.3049C231.86 54.6245 231.422 55.0899 231.136 55.6476C231.136 55.6476 231.059 55.0718 232.054 53.8855C231.521 54.0342 231.025 54.2957 230.601 54.6524C230.601 54.6524 230.41 54.2305 231.591 53.5405C231.591 53.5405 231.438 53.0441 230.521 53.2724C230.521 53.2724 230.521 52.6197 231.975 52.7363C231.975 52.7363 231.975 52.3144 231.019 52.3914C231.019 52.3914 231.019 51.8553 232.129 52.0464C232.026 51.8851 231.897 51.7424 231.747 51.6245C231.938 51.6071 232.129 51.662 232.282 51.7783C232.273 51.5845 232.318 51.392 232.413 51.2226C232.507 51.0533 232.647 50.9139 232.817 50.8203L232.894 51.7783C232.894 51.7783 233.537 51.0189 233.389 51.1653C233.298 51.3963 233.259 51.6446 233.275 51.8925C233.487 51.737 233.745 51.6563 234.008 51.663C234.271 51.6697 234.524 51.7635 234.729 51.9297C234.729 51.9297 233.738 52.0067 233.582 52.3517C233.582 52.3517 234.424 52.1978 234.615 52.3144C234.615 52.3144 233.963 52.5452 234.003 52.6966C234.003 52.6966 235.149 52.6966 235.303 53.1186C235.303 53.1186 234.117 53.2724 234.04 53.3866C234.04 53.3866 235.417 54.3794 235.494 54.6524C235.494 54.6524 234.08 53.8085 233.849 53.8085C233.619 53.8085 234.882 55.0346 234.805 55.3424C234.818 55.3473 233.785 54.1213 233.505 54.1982Z" fill="#6C63FF"/>
<path d="M210.724 55.7374L210.595 55.0475C210.595 54.9968 210.585 54.9468 210.565 54.9003C210.545 54.8538 210.516 54.8118 210.479 54.7769L209.882 54.4841C209.838 54.4304 209.802 54.3701 209.776 54.3054V54.2905C209.809 54.249 209.833 54.2007 209.845 54.149C209.846 54.1358 209.846 54.1225 209.845 54.1093C209.901 54.1173 209.959 54.1032 210.005 54.0699C210.051 54.0366 210.082 53.9867 210.093 53.9306V53.9157C210.081 53.9612 210.056 54.0018 210.02 54.0317C209.983 54.0616 209.939 54.0792 209.892 54.082C209.974 54.0272 210.041 53.9534 210.088 53.867C210.135 53.7806 210.16 53.684 210.162 53.5856C210.162 53.5856 210.162 53.5682 210.162 53.5608C210.188 53.5445 210.211 53.5229 210.229 53.4972C210.246 53.4715 210.258 53.4425 210.264 53.4119V53.397C210.256 53.4262 210.243 53.4536 210.225 53.4775C210.206 53.5014 210.183 53.5213 210.157 53.536C210.153 53.4791 210.14 53.4231 210.12 53.3697H210.135C210.193 53.3697 210.249 53.3464 210.291 53.305C210.332 53.2636 210.355 53.2074 210.355 53.1488C210.355 53.1488 210.355 53.1488 210.355 53.1339C210.351 53.1899 210.327 53.2423 210.286 53.2806C210.245 53.3188 210.191 53.34 210.135 53.3399H210.108C210.172 53.319 210.23 53.2803 210.274 53.228C210.318 53.1758 210.346 53.1122 210.355 53.0446C210.355 53.0446 210.355 53.0446 210.355 53.0297C210.352 53.0729 210.337 53.1143 210.311 53.1488C210.315 53.12 210.313 53.0906 210.306 53.0623C210.299 53.034 210.287 53.0074 210.269 52.984C210.252 52.9606 210.23 52.9409 210.205 52.926C210.18 52.911 210.152 52.9011 210.124 52.8969C210.095 52.8926 210.066 52.8941 210.037 52.9013C210.009 52.9084 209.983 52.921 209.959 52.9384C209.936 52.9558 209.916 52.9776 209.901 53.0027C209.886 53.0277 209.877 53.0554 209.872 53.0843L209.833 53.0619C209.845 53.0174 209.871 52.9779 209.907 52.9489C209.943 52.92 209.987 52.9031 210.033 52.9006H210.018C209.972 52.8996 209.926 52.9135 209.888 52.9403C209.849 52.9671 209.821 53.0053 209.805 53.0495C209.672 52.9875 209.522 52.9757 209.38 53.0163C209.239 53.0569 209.118 53.1471 209.038 53.2704C208.991 53.3052 208.931 53.3548 208.934 53.397C208.914 53.4167 208.897 53.4384 208.882 53.4615C208.816 53.6051 208.792 53.7641 208.812 53.9207C208.821 53.9985 208.811 54.0774 208.784 54.1507C208.756 54.224 208.712 54.2898 208.654 54.3426C208.68 54.3535 208.708 54.3592 208.736 54.3592C208.764 54.3592 208.792 54.3535 208.817 54.3426C208.869 54.3211 208.917 54.2927 208.961 54.2582C209.002 54.2339 209.036 54.2008 209.063 54.1614C209.091 54.1803 209.122 54.1961 209.154 54.2086C209.167 54.3128 209.169 54.432 209.124 54.4692V54.4493C209.013 54.5338 208.875 54.5737 208.736 54.561C208.654 54.5657 208.574 54.5909 208.504 54.6342C208.434 54.6775 208.376 54.7377 208.335 54.8092L208.149 55.6059V55.6183V55.6307C208.151 55.6416 208.157 55.6516 208.165 55.6595C208.173 55.6674 208.183 55.6729 208.193 55.6754L208.25 55.6903C208.27 55.817 208.269 55.946 208.248 56.0725C208.209 56.2654 208.186 56.4614 208.181 56.6582C208.196 56.7575 208.221 57.2688 208.231 57.512C208.21 57.5939 208.193 57.6767 208.181 57.7602L207.904 59.4256C207.904 59.4256 207.698 60.7584 207.708 61.1629L207.671 61.3962C207.671 61.3962 207.109 62.1036 207.275 62.2028C207.441 62.3021 207.693 62.3468 207.936 61.9695C207.968 61.8809 208.021 61.801 208.089 61.7362C208.117 61.7124 208.138 61.6824 208.151 61.6487C208.164 61.6151 208.17 61.5787 208.166 61.5426L208.149 61.3788H208.179H208.196C208.349 60.8763 208.432 60.3553 208.444 59.8301C208.444 59.8301 208.956 57.9985 209.347 57.7106L209.385 57.6932L209.469 59.4653L209.385 61.421L209.367 61.5377C209.367 61.5377 208.805 62.245 208.971 62.3443C209.137 62.4436 209.389 62.4882 209.632 62.111C209.665 62.0223 209.717 61.9425 209.786 61.8777C209.813 61.8538 209.834 61.8238 209.847 61.7902C209.861 61.7565 209.866 61.7202 209.862 61.6841L209.838 61.4359C209.934 61.1083 210.184 60.1577 210.085 59.6092L210.256 58.4402C210.429 58.2467 210.405 57.7528 210.405 57.7528C210.541 57.4698 210.571 56.353 210.571 56.353L210.605 55.802H210.682H210.709L210.722 55.7871V55.7747L210.724 55.7374ZM210.244 56.8568C210.229 56.8196 210.212 56.7798 210.192 56.7426H210.177V56.7277V56.7153V56.7004C210.185 56.6818 210.191 56.6628 210.197 56.6433C210.219 56.6076 210.23 56.5662 210.229 56.5242C210.254 56.6332 210.262 56.7453 210.254 56.8568H210.244ZM210.192 56.3852L210.157 56.0154V55.9856L210.204 56.4547L210.192 56.3852ZM208.56 56.4349C208.548 56.4484 208.54 56.4643 208.535 56.4814C208.53 56.4985 208.528 56.5164 208.53 56.5341C208.53 56.5719 208.535 56.6094 208.545 56.6458L208.491 56.8766V56.4349C208.526 56.3881 208.556 56.3382 208.582 56.2859C208.594 56.3354 208.591 56.3874 208.572 56.4349H208.56Z" fill="url(#paint1_linear)"/>
<path d="M208.92 53.5885C208.857 53.7266 208.833 53.8796 208.853 54.0302C208.862 54.1055 208.853 54.1818 208.826 54.2527C208.799 54.3236 208.756 54.3869 208.699 54.4373C208.724 54.4476 208.75 54.4529 208.777 54.4529C208.804 54.4529 208.83 54.4476 208.855 54.4373C208.905 54.4164 208.952 54.3888 208.994 54.3554C209.033 54.3315 209.066 54.2993 209.09 54.2611C209.114 54.2012 209.122 54.1362 209.113 54.0724C209.113 53.9601 209.123 53.848 209.142 53.7374C209.142 53.6679 209.219 53.4892 209.142 53.4445C209.066 53.3998 208.954 53.5339 208.92 53.5885Z" fill="#72351C"/>
<path d="M207.782 60.9133L207.73 61.2533C207.73 61.2533 207.187 61.9358 207.348 62.0302C207.509 62.1245 207.752 62.1691 207.985 61.8068C208.016 61.7218 208.067 61.6453 208.133 61.5834C208.159 61.5605 208.18 61.5316 208.193 61.4993C208.205 61.4669 208.211 61.432 208.207 61.3973L208.155 60.8711L207.782 60.9133Z" fill="#333333"/>
<path d="M209.414 61.05L209.362 61.39C209.362 61.39 208.82 62.0726 208.981 62.1669C209.142 62.2612 209.385 62.3059 209.617 61.9435C209.649 61.8585 209.7 61.7821 209.766 61.7201C209.792 61.6972 209.813 61.6683 209.825 61.636C209.838 61.6036 209.843 61.5687 209.84 61.534L209.788 61.0078L209.414 61.05Z" fill="#333333"/>
<path d="M208.569 56.9282C208.569 56.9282 208.322 57.1119 208.22 57.7547L207.953 59.358C207.856 59.9328 207.795 60.513 207.77 61.0953L208.22 61.2492C208.37 60.7665 208.453 60.2654 208.468 59.7601C208.468 59.7601 209.01 57.8267 209.389 57.6902L209.468 59.3977L209.384 61.3237L209.77 61.4006C209.77 61.4006 210.162 60.177 210.038 59.5292L210.238 58.1518C210.368 57.6977 210.336 57.2127 210.149 56.7793L208.569 56.9282Z" fill="#4D8AF0"/>
<g opacity="0.1">
<path opacity="0.1" d="M209.345 57.7134V57.6836C208.966 57.8201 208.424 59.7535 208.424 59.7535C208.415 60.2533 208.336 60.7494 208.191 61.2278L208.241 61.2451C208.391 60.7624 208.474 60.2614 208.489 59.756C208.489 59.756 208.969 57.9914 209.345 57.7134Z" fill="black"/>
<path opacity="0.1" d="M210.157 56.7734H210.105C210.29 57.2057 210.321 57.6887 210.192 58.141L209.991 59.5184C210.11 60.1315 209.763 61.2558 209.729 61.3799H209.778C209.778 61.3799 210.169 60.1563 210.045 59.5085L210.246 58.131C210.372 57.6816 210.341 57.2024 210.157 56.7734Z" fill="black"/>
</g>
<path d="M208.223 55.6725C208.222 55.6857 208.227 55.6986 208.235 55.709C208.243 55.7194 208.254 55.7266 208.267 55.7295C208.392 55.7589 208.508 55.8147 208.609 55.8931C208.8 56.0417 208.408 55.5957 208.408 55.5957L208.277 55.6254L208.223 55.6725Z" fill="#F55F44"/>
<path opacity="0.1" d="M208.223 55.6725C208.222 55.6857 208.227 55.6986 208.235 55.709C208.243 55.7194 208.254 55.7266 208.267 55.7295C208.392 55.7589 208.508 55.8147 208.609 55.8931C208.8 56.0417 208.408 55.5957 208.408 55.5957L208.277 55.6254L208.223 55.6725Z" fill="black"/>
<path d="M210.084 56.0709C210.243 55.9569 210.427 55.8838 210.621 55.8578C210.634 55.8578 210.647 55.8525 210.656 55.8432C210.666 55.834 210.671 55.8214 210.671 55.8082C210.616 55.7829 210.555 55.7698 210.495 55.7695C210.434 55.7693 210.374 55.782 210.318 55.8069C210.263 55.8317 210.213 55.8681 210.173 55.9136C210.132 55.9592 210.102 56.0128 210.084 56.0709Z" fill="#F55F44"/>
<path opacity="0.1" d="M210.671 55.8004C210.616 55.7751 210.555 55.7619 210.495 55.7617C210.434 55.7615 210.374 55.7742 210.318 55.7991C210.263 55.8239 210.213 55.8603 210.173 55.9058C210.132 55.9513 210.102 56.0049 210.084 56.0631C210.084 56.0631 210.416 55.8153 210.646 55.8499" fill="black"/>
<path d="M209.562 54.3112C209.886 54.3112 210.148 54.0478 210.148 53.723C210.148 53.3981 209.886 53.1348 209.562 53.1348C209.237 53.1348 208.975 53.3981 208.975 53.723C208.975 54.0478 209.237 54.3112 209.562 54.3112Z" fill="#72351C"/>
<path d="M209.157 54.135C209.157 54.135 209.241 54.48 209.157 54.552C209.073 54.6239 208.909 54.753 209.033 54.8548C209.157 54.9565 209.608 55.1278 209.756 55.0459C209.905 54.964 210.076 54.9863 210.036 54.8151C209.996 54.6438 209.669 54.6785 209.662 53.8223L209.157 54.135Z" fill="#FDB797"/>
<path opacity="0.1" d="M208.328 55.5742C208.34 55.7611 208.329 55.9488 208.293 56.1327C208.255 56.3182 208.234 56.5067 208.229 56.696C208.246 56.8201 208.283 57.6417 208.283 57.6417C208.283 57.6417 208.219 58.3614 208.568 58.2944C208.917 58.2274 208.513 57.4754 208.513 57.4754L208.531 56.4826C208.627 56.3544 208.689 56.2029 208.709 56.0433C208.724 55.8224 208.328 55.5742 208.328 55.5742Z" fill="black"/>
<path d="M208.32 55.5742C208.332 55.7611 208.321 55.9488 208.285 56.1327C208.247 56.3182 208.226 56.5067 208.221 56.696C208.238 56.8201 208.275 57.6417 208.275 57.6417C208.275 57.6417 208.211 58.3614 208.56 58.2944C208.909 58.2274 208.505 57.4754 208.505 57.4754L208.523 56.4826C208.62 56.3544 208.681 56.2029 208.701 56.0433C208.718 55.8224 208.32 55.5742 208.32 55.5742Z" fill="#FDB797"/>
<path opacity="0.1" d="M210.554 55.623L210.507 56.39C210.507 56.39 210.477 57.4646 210.346 57.7376C210.346 57.7376 210.381 58.4822 210.032 58.4822C209.683 58.4822 210.091 57.6557 210.091 57.6557C210.091 57.6557 210.279 56.8168 210.183 56.5488L210.091 55.628L210.554 55.623Z" fill="black"/>
<path d="M210.56 55.623L210.513 56.39C210.513 56.39 210.483 57.4646 210.352 57.7376C210.352 57.7376 210.387 58.4822 210.038 58.4822C209.688 58.4822 210.097 57.6557 210.097 57.6557C210.097 57.6557 210.285 56.8168 210.189 56.5488L210.097 55.628L210.56 55.623Z" fill="#FDB797"/>
<path opacity="0.1" d="M209.425 54.8779C209.425 54.8779 209.707 55.0095 209.863 54.6297L210.44 54.9127C210.475 54.9463 210.503 54.9867 210.522 55.0315C210.542 55.0763 210.551 55.1245 210.551 55.1733L210.675 55.8384C210.623 55.8177 210.567 55.8078 210.51 55.8091C210.454 55.8104 210.399 55.823 210.347 55.8462C210.296 55.8693 210.249 55.9024 210.211 55.9437C210.172 55.985 210.143 56.0336 210.123 56.0866L210.158 56.4614C210.186 56.5539 210.18 56.6535 210.14 56.7418C210.137 56.7497 210.135 56.7581 210.135 56.7667C210.135 56.7752 210.137 56.7836 210.14 56.7915C210.151 56.8188 210.154 56.8482 210.151 56.8772C210.148 56.9063 210.137 56.9341 210.121 56.9583C210.105 56.9826 210.083 57.0026 210.058 57.0168C210.032 57.0309 210.004 57.0388 209.974 57.0397C209.82 57.041 209.665 57.0526 209.511 57.0744C209.388 57.1092 209.016 57.0024 208.89 57.0744C208.764 57.1464 208.504 57.0198 208.504 57.0198L208.575 56.717C208.575 56.717 208.528 56.5681 208.575 56.516C208.621 56.301 208.61 56.0781 208.546 55.8682C208.546 55.8682 208.333 55.6672 208.209 55.7019L208.387 54.935C208.425 54.8637 208.48 54.8034 208.548 54.7599C208.615 54.7164 208.693 54.6912 208.774 54.6868C208.907 54.699 209.04 54.661 209.147 54.5801C209.147 54.5801 209.009 54.8308 209.425 54.8779Z" fill="black"/>
<path opacity="0.1" d="M209.454 54.866C209.531 54.8858 209.739 54.9107 209.863 54.5979L210.44 54.8809C210.475 54.9145 210.503 54.9549 210.522 54.9997C210.541 55.0445 210.551 55.0927 210.551 55.1415L210.675 55.8066C210.623 55.786 210.567 55.776 210.51 55.7773C210.454 55.7787 210.398 55.7913 210.347 55.8144C210.296 55.8375 210.249 55.8707 210.211 55.9119C210.172 55.9532 210.142 56.0018 210.123 56.0548L210.158 56.4296L210.18 56.504C210.19 56.5356 210.193 56.5692 210.188 56.6019C210.182 56.6347 210.17 56.6658 210.15 56.6927C210.144 56.7032 210.14 56.7152 210.14 56.7274C210.14 56.7397 210.144 56.7517 210.15 56.7622C210.16 56.7895 210.164 56.8189 210.161 56.8479C210.157 56.8769 210.147 56.9047 210.131 56.929C210.115 56.9533 210.093 56.9733 210.067 56.9875C210.042 57.0016 210.013 57.0095 209.984 57.0104C209.829 57.0116 209.675 57.0233 209.521 57.0451C209.397 57.0799 209.026 56.9731 208.9 57.0451C208.773 57.1171 208.513 56.9905 208.513 56.9905L208.585 56.6877C208.585 56.6877 208.538 56.5388 208.585 56.4867C208.63 56.2717 208.62 56.0488 208.556 55.8389C208.556 55.8389 208.343 55.6379 208.219 55.6726L208.397 54.9057C208.435 54.8344 208.49 54.7741 208.558 54.7306C208.625 54.6871 208.703 54.6619 208.783 54.6575C208.917 54.6697 209.05 54.6317 209.157 54.5508C209.157 54.5508 209.019 54.799 209.385 54.861L209.454 54.866Z" fill="black"/>
<path d="M209.454 54.8782C209.531 54.8981 209.739 54.9229 209.863 54.6102L210.44 54.8931C210.475 54.9267 210.503 54.9672 210.522 55.012C210.542 55.0568 210.551 55.105 210.551 55.1537L210.675 55.8189C210.623 55.7982 210.567 55.7882 210.51 55.7896C210.454 55.7909 210.399 55.8035 210.347 55.8266C210.296 55.8497 210.249 55.8829 210.211 55.9242C210.172 55.9655 210.143 56.014 210.123 56.0671L210.158 56.4418C210.186 56.5343 210.18 56.6339 210.14 56.7223C210.137 56.7301 210.135 56.7386 210.135 56.7471C210.135 56.7556 210.137 56.7641 210.14 56.7719C210.151 56.7993 210.154 56.8287 210.151 56.8577C210.148 56.8867 210.137 56.9145 210.121 56.9388C210.105 56.963 210.083 56.9831 210.058 56.9972C210.032 57.0114 210.004 57.0192 209.974 57.0201C209.82 57.0214 209.665 57.033 209.511 57.0548C209.388 57.0896 209.016 56.9829 208.89 57.0548C208.764 57.1268 208.504 57.0002 208.504 57.0002L208.575 56.6975C208.575 56.6975 208.528 56.5485 208.575 56.4964C208.621 56.2815 208.61 56.0585 208.546 55.8486C208.546 55.8486 208.333 55.6476 208.209 55.6824L208.387 54.9155C208.425 54.8442 208.48 54.7838 208.548 54.7403C208.615 54.6969 208.693 54.6717 208.774 54.6673C208.907 54.6795 209.04 54.6414 209.147 54.5605C209.147 54.5605 209.009 54.8087 209.375 54.8708L209.454 54.8782Z" fill="#F55F44"/>
<path opacity="0.1" d="M209.671 53.8496L209.176 54.1643C209.188 54.2183 209.198 54.2729 209.205 54.3279C209.263 54.3506 209.324 54.3624 209.386 54.3625C209.51 54.3545 209.626 54.3016 209.713 54.2139C209.688 54.094 209.674 53.9721 209.671 53.8496Z" fill="black"/>
<path d="M209.368 54.3343C209.636 54.3343 209.854 54.1165 209.854 53.8478C209.854 53.5791 209.636 53.3613 209.368 53.3613C209.1 53.3613 208.883 53.5791 208.883 53.8478C208.883 54.1165 209.1 54.3343 209.368 54.3343Z" fill="#FDB797"/>
<path d="M210.084 53.4711C210.202 53.4711 210.297 53.3757 210.297 53.258C210.297 53.1403 210.202 53.0449 210.084 53.0449C209.966 53.0449 209.871 53.1403 209.871 53.258C209.871 53.3757 209.966 53.4711 210.084 53.4711Z" fill="#72351C"/>
<path d="M210.125 53.4853C210.071 53.4855 210.019 53.4651 209.98 53.4283C209.94 53.3915 209.916 53.341 209.912 53.2871C209.912 53.2871 209.912 53.2871 209.912 53.302C209.912 53.3585 209.935 53.4127 209.974 53.4527C210.014 53.4926 210.069 53.5151 210.125 53.5151C210.182 53.5151 210.236 53.4926 210.276 53.4527C210.316 53.4127 210.338 53.3585 210.338 53.302C210.338 53.302 210.338 53.302 210.338 53.2871C210.334 53.341 210.31 53.3915 210.271 53.4283C210.231 53.4651 210.179 53.4855 210.125 53.4853Z" fill="#72351C"/>
<path d="M210.003 53.6978C209.95 53.6881 209.903 53.6586 209.871 53.6154C209.838 53.5722 209.824 53.5184 209.83 53.4648V53.4797C209.819 53.5356 209.832 53.5932 209.864 53.6399C209.896 53.6866 209.946 53.7186 210.002 53.7287C210.058 53.7389 210.115 53.7265 210.162 53.6942C210.208 53.6619 210.24 53.6124 210.251 53.5565V53.5417C210.237 53.5944 210.204 53.64 210.158 53.669C210.112 53.6981 210.056 53.7083 210.003 53.6978Z" fill="#72351C"/>
<path d="M209.839 54.2095C209.786 54.1998 209.739 54.1704 209.706 54.1272C209.674 54.0839 209.66 54.0301 209.666 53.9766V53.9914C209.655 54.0473 209.668 54.1049 209.7 54.1516C209.732 54.1983 209.782 54.2303 209.838 54.2405C209.893 54.2507 209.951 54.2382 209.998 54.2059C210.044 54.1736 210.076 54.1241 210.087 54.0682V54.0534C210.073 54.1061 210.04 54.1517 209.994 54.1808C209.948 54.2098 209.892 54.2201 209.839 54.2095Z" fill="#72351C"/>
<path d="M210.125 53.3721C210.071 53.3722 210.019 53.3518 209.98 53.315C209.94 53.2782 209.916 53.2277 209.912 53.1738C209.912 53.1738 209.912 53.1738 209.912 53.1887C209.912 53.2452 209.935 53.2994 209.974 53.3394C210.014 53.3793 210.069 53.4018 210.125 53.4018C210.182 53.4018 210.236 53.3793 210.276 53.3394C210.316 53.2994 210.338 53.2452 210.338 53.1887C210.338 53.1887 210.338 53.1887 210.338 53.1738C210.334 53.2277 210.31 53.2782 210.271 53.315C210.231 53.3518 210.179 53.3722 210.125 53.3721Z" fill="#72351C"/>
<path d="M209.828 53.2555C209.829 53.2015 209.85 53.1498 209.887 53.1107C209.924 53.0716 209.975 53.0481 210.029 53.0449H210.014C209.957 53.0449 209.903 53.0674 209.863 53.1073C209.823 53.1473 209.801 53.2015 209.801 53.258C209.801 53.3145 209.823 53.3687 209.863 53.4087C209.903 53.4487 209.957 53.4711 210.014 53.4711H210.029C209.974 53.4679 209.922 53.4438 209.885 53.4036C209.848 53.3634 209.827 53.3104 209.828 53.2555Z" fill="#72351C"/>
<path opacity="0.1" d="M210.042 55.2754C210.065 55.3809 210.065 55.49 210.042 55.5956C210.042 55.5956 210.013 55.876 210.06 55.9232" fill="black"/>
<path opacity="0.1" d="M208.601 55.3262C208.623 55.4317 208.623 55.5408 208.601 55.6463C208.601 55.6463 208.571 55.9268 208.618 55.974" fill="black"/>
<path opacity="0.1" d="M208.59 56.4872C208.636 56.5032 208.685 56.5032 208.731 56.4872C208.787 56.4704 208.846 56.4704 208.902 56.4872" fill="black"/>
<path opacity="0.1" d="M208.662 56.071C208.831 56.0794 208.999 56.0533 209.157 55.9941C209.157 55.9941 209.762 56.1428 209.935 56.0363" fill="black"/>
<path d="M208.493 58.625H208.327C208.269 58.625 208.223 58.6716 208.223 58.7291V58.7514C208.223 58.8088 208.269 58.8554 208.327 58.8554H208.493C208.55 58.8554 208.597 58.8088 208.597 58.7514V58.7291C208.597 58.6716 208.55 58.625 208.493 58.625Z" fill="#FDB797"/>
<path d="M208.223 58.6855H208.423L208.597 58.7128H208.535L208.223 58.6855Z" fill="#F0E4E4"/>
<path d="M209.568 57.7227H209.769L209.942 57.74H209.88L209.568 57.7227Z" fill="#F0E4E4"/>
<path d="M209.568 57.7637H209.769L209.942 57.781H209.88L209.568 57.7637Z" fill="#F0E4E4"/>
<path d="M209.568 57.8086H209.769L209.942 57.8259H209.88L209.568 57.8086Z" fill="#F0E4E4"/>
<path d="M209.568 57.8457H209.769L209.942 57.8631H209.88L209.568 57.8457Z" fill="#F0E4E4"/>
<path d="M208.223 58.8496H208.423L208.597 58.8694H208.535L208.223 58.8496Z" fill="#F0E4E4"/>
<path d="M208.223 58.8301H208.423L208.597 58.8499H208.535L208.223 58.8301Z" fill="#F0E4E4"/>
<path d="M208.223 58.8008H208.423L208.597 58.8206H208.535L208.223 58.8008Z" fill="#F0E4E4"/>
<path d="M208.223 58.7871H208.423L208.597 58.8069H208.535L208.223 58.7871Z" fill="#F0E4E4"/>
<path d="M208.223 58.6562H208.423L208.597 58.6835H208.535L208.223 58.6562Z" fill="#F0E4E4"/>
<path d="M208.223 58.623H208.423L208.597 58.6503H208.535L208.223 58.623Z" fill="#F0E4E4"/>
<path opacity="0.1" d="M209.448 53.5359C209.429 53.7173 209.452 53.9009 209.515 54.072C209.545 54.1546 209.558 54.2427 209.553 54.3307C209.548 54.4187 209.525 54.5047 209.485 54.5832C209.512 54.5897 209.539 54.5896 209.565 54.5832C209.592 54.5767 209.616 54.5639 209.636 54.546C209.679 54.5085 209.715 54.465 209.745 54.4169C209.777 54.3777 209.8 54.332 209.812 54.2829C209.817 54.206 209.805 54.129 209.777 54.0571C209.744 53.9249 209.72 53.7905 209.706 53.655C209.706 53.5731 209.706 53.3348 209.614 53.3125C209.522 53.2902 209.465 53.4664 209.448 53.5359Z" fill="black"/>
<path d="M209.462 53.529C209.442 53.7105 209.465 53.894 209.529 54.0651C209.56 54.1483 209.574 54.2372 209.569 54.3261C209.565 54.415 209.541 54.5019 209.501 54.5813C209.528 54.5877 209.555 54.5877 209.581 54.5812C209.608 54.5748 209.632 54.562 209.652 54.5441C209.695 54.5066 209.731 54.4631 209.761 54.415C209.793 54.3758 209.816 54.3301 209.828 54.281C209.833 54.2041 209.821 54.127 209.794 54.0552C209.76 53.923 209.736 53.7886 209.722 53.6531C209.722 53.5712 209.722 53.3329 209.63 53.3106C209.539 53.2883 209.487 53.4595 209.462 53.529Z" fill="#72351C"/>
<path opacity="0.1" d="M209.252 53.6573C209.292 53.6995 209.302 53.7641 209.336 53.8137C209.368 53.8475 209.406 53.8738 209.449 53.8906C209.492 53.9074 209.538 53.9142 209.584 53.9105C209.608 53.9092 209.632 53.9144 209.653 53.9254C209.69 53.9502 209.693 54.0048 209.718 54.042C209.73 54.0564 209.746 54.0678 209.764 54.0756C209.781 54.0835 209.8 54.0875 209.819 54.0875C209.838 54.0875 209.857 54.0835 209.875 54.0756C209.892 54.0678 209.908 54.0564 209.921 54.042C209.962 53.9825 209.983 53.911 209.98 53.8385C209.988 53.756 209.988 53.6729 209.98 53.5903C209.978 53.4921 209.939 53.3983 209.871 53.3272C209.815 53.2856 209.749 53.2576 209.68 53.2453C209.586 53.2118 209.484 53.2041 209.386 53.223C209.338 53.2389 209.293 53.2615 209.252 53.29L209.079 53.4067C209.014 53.4513 208.896 53.5407 209.012 53.5903C209.096 53.6077 209.19 53.5903 209.252 53.6573Z" fill="black"/>
<path d="M209.266 53.6516C209.306 53.6938 209.316 53.7583 209.35 53.808C209.382 53.8418 209.42 53.8681 209.463 53.8849C209.506 53.9016 209.552 53.9084 209.598 53.9048C209.622 53.9035 209.646 53.9086 209.667 53.9197C209.704 53.9445 209.707 53.9991 209.732 54.0363C209.744 54.0506 209.76 54.0621 209.777 54.0699C209.795 54.0778 209.814 54.0818 209.833 54.0818C209.852 54.0818 209.871 54.0778 209.889 54.0699C209.906 54.0621 209.922 54.0506 209.935 54.0363C209.984 53.9764 210.012 53.9008 210.011 53.8229C210.019 53.7403 210.019 53.6572 210.011 53.5747C210.009 53.4765 209.97 53.3827 209.902 53.3116C209.846 53.27 209.781 53.242 209.712 53.2297C209.617 53.1962 209.516 53.1885 209.417 53.2074C209.37 53.2233 209.325 53.2458 209.283 53.2744L209.11 53.391C209.046 53.4357 208.927 53.5251 209.043 53.5747C209.11 53.5896 209.202 53.5896 209.266 53.6516Z" fill="#72351C"/>
<path d="M209.58 57.7227H209.781L209.954 57.74H209.892L209.58 57.7227Z" fill="#F0E4E4"/>
<path d="M209.58 57.7637H209.781L209.954 57.781H209.892L209.58 57.7637Z" fill="#F0E4E4"/>
<path d="M209.58 57.8086H209.781L209.954 57.8259H209.892L209.58 57.8086Z" fill="#F0E4E4"/>
<path d="M209.58 57.8457H209.781L209.954 57.8631H209.892L209.58 57.8457Z" fill="#F0E4E4"/>
<path d="M209.486 60.1367H209.687L209.86 60.1541H209.798L209.486 60.1367Z" fill="#F0E4E4"/>
<path d="M209.486 60.1758H209.687L209.86 60.1931H209.798L209.486 60.1758Z" fill="#F0E4E4"/>
<path d="M209.486 60.2188H209.687L209.86 60.2361H209.798L209.486 60.2188Z" fill="#F0E4E4"/>
<path d="M209.486 60.2617H209.687L209.86 60.2791H209.798L209.486 60.2617Z" fill="#F0E4E4"/>
<path opacity="0.2" d="M97.1605 172.414H77.4648V161.293H97.1605V172.414ZM78.2968 171.581H96.3235V162.127H78.2968V171.581Z" fill="#6C63FF"/>
<path d="M64.3565 155.74C65.5946 156.465 66.8996 156.76 68.2491 156.311C68.5997 156.193 68.9387 156.042 69.2618 155.862C81.8904 156.13 93.5855 156.006 94.0386 154.643C94.7815 152.385 90.0767 141.261 87.702 135.885C88.4006 135.409 88.9912 134.791 89.4354 134.071C92.7337 137.851 98.8697 142.728 102.517 142.971C102.517 142.971 107.841 155.646 113.831 153.643C119.821 151.64 120.487 140.968 117.491 139.635L97.5251 126.96V105.928C98.1319 104.723 98.4192 103.381 98.3596 102.032C98.3596 101.784 98.3719 101.535 98.3596 101.287L97.6935 95.2834C97.6935 95.2834 97.6588 95.0849 97.5672 94.725C96.0815 88.9396 92.7708 85.0455 88.1032 84.4672C88.3304 84.0511 88.4687 83.5922 88.5093 83.1196C88.6058 81.9977 88.1403 80.8536 88.4028 79.759C88.7098 78.4833 89.8885 77.6593 90.8567 76.7808C92.9243 74.8846 94.2268 72.3133 95.4847 69.8041C96.6832 67.414 97.899 64.9619 98.2085 62.3062C98.518 59.6506 97.7133 56.7021 95.5466 55.1385C93.8628 53.9198 91.4931 53.5997 90.2822 51.912C89.7399 51.1525 89.5146 50.2168 89.1407 49.3631C88.0636 46.9035 85.7409 45.1587 83.2201 44.2478C74.3752 41.0561 63.5245 44.7194 57.8813 52.0808C56.039 54.4832 54.7093 57.2332 53.3944 59.9608L48.6401 69.8115C47.8205 71.5067 47.0281 73.6238 48.1226 75.1551C48.6575 75.8997 49.5737 76.3613 49.9451 77.2027C50.4403 78.3195 49.8213 79.7814 50.5493 80.7642C50.9504 81.3078 51.6462 81.5237 52.243 81.8414C53.0444 82.2985 53.7418 82.9181 54.2908 83.6606L43.8512 91.769C43.0968 92.3549 42.4694 93.0885 42.0071 93.9252C41.5447 94.762 41.2572 95.6843 41.162 96.6361L40.1295 106.951C39.8009 108.122 39.6441 109.335 39.6639 110.552C39.6268 111.639 39.7531 112.838 40.2954 113.779L40.5232 113.724C40.7708 120.959 41.2017 131.368 41.6276 133.291C41.8752 134.433 43.4377 136.446 45.5424 138.521L44.7996 140.63H45.0472L44.7996 141.293H45.2948C43.195 148.898 37.4824 154.628 37.4824 154.628C37.4824 154.628 50.6929 155.348 64.3565 155.74ZM51.9409 120.601V112.493C53.1592 112.682 54.058 113.104 54.3453 113.873L51.9409 120.601ZM55.467 85.3136L55.5066 85.3731H55.4918L55.467 85.3136Z" fill="url(#paint2_linear)"/>
<path d="M85.5059 103.724C85.5059 103.724 86.1373 126.215 86.7712 129.067C87.4051 131.919 96.572 140.481 101.309 140.799C101.309 140.799 106.365 152.836 112.056 150.935C117.746 149.034 118.377 138.898 115.522 137.629L96.5719 125.592V101.518L85.5059 103.724Z" fill="#FDB797"/>
<path d="M85.9808 131.297C85.9808 131.297 94.1993 149.038 93.2509 151.897C92.3025 154.756 39.5176 151.897 39.5176 151.897C39.5176 151.897 49.3159 142.076 47.4191 131.297H85.9808Z" fill="#565171"/>
<path d="M79.6591 78.7092C79.6591 78.7092 78.3938 91.0642 80.6075 93.9159C82.8212 96.7676 71.7576 98.3486 70.8191 98.3486C69.8806 98.3486 59.758 94.8739 57.8612 93.9134C55.9644 92.9529 54.3945 85.9936 54.3945 85.9936C54.3945 85.9936 63.8759 87.8948 66.721 76.8105L79.6591 78.7092Z" fill="#FDB797"/>
<path d="M82.9716 47.0166C85.3661 47.8803 87.5724 49.5382 88.595 51.8737C88.9516 52.6853 89.1646 53.5738 89.6796 54.2961C90.8286 55.9043 93.0794 56.2071 94.679 57.3662C96.7318 58.8553 97.492 61.6524 97.2072 64.1741C96.9225 66.6957 95.7661 69.0262 94.6295 71.2947C93.4335 73.6798 92.1979 76.1195 90.2343 77.9214C89.3181 78.7628 88.1939 79.5446 87.9017 80.7557C87.6541 81.7957 88.0948 82.8803 88.0008 83.9475C87.7729 86.5808 84.6331 87.8068 82.0108 88.0997C80.8718 88.2263 79.5668 88.2337 78.7646 87.4122C78.3535 86.9903 78.148 86.4195 77.8855 85.8883C77.2889 84.6788 76.3697 83.6585 75.2298 82.9406C74.0899 82.2228 72.7739 81.8355 71.4278 81.8216C70.0817 81.8077 68.758 82.1678 67.6037 82.862C66.4493 83.5562 65.5093 84.5573 64.888 85.7543C64.2739 86.9407 63.9148 88.3777 62.7956 89.1024C61.0821 90.2118 58.7916 88.9088 57.5312 87.3055C56.2708 85.7022 55.3522 83.6869 53.552 82.7264C52.9849 82.4236 52.3139 82.23 51.9449 81.7038C51.2541 80.7706 51.8409 79.3832 51.3729 78.321C51.0188 77.5218 50.1497 77.08 49.6396 76.3752C48.5996 74.9208 49.3524 72.9005 50.1348 71.2996L54.6514 61.9428C55.8895 59.3517 57.1648 56.7308 58.9129 54.4574C64.264 47.4633 74.5699 43.9837 82.9716 47.0166Z" fill="#8F5A6A"/>
<path opacity="0.1" d="M71.4427 96.131C71.4427 96.131 59.1163 96.1309 55.9567 84.7266L45.5814 92.7853C44.8654 93.3423 44.2699 94.0395 43.831 94.8343C43.3921 95.6292 43.1191 96.5052 43.0285 97.4091L42.038 107.22C42.038 107.22 40.9311 110.864 42.1965 113.08C42.1965 113.08 55.3203 109.754 55.6298 113.554L46.4728 139.214C46.4728 139.214 60.6961 139.532 64.4871 136.998C64.4871 136.998 79.9732 140.165 83.7668 136.68C87.5603 133.196 91.3513 133.514 88.1917 125.594C88.1917 125.594 94.5134 119.257 91.6584 110.387C88.8033 101.517 91.4999 110.546 91.4999 110.546C91.4999 110.546 97.6631 107.535 97.3462 101.834L96.7147 96.126C96.7147 96.126 96.6801 95.9374 96.5934 95.5973C94.6669 88.0821 89.4892 83.9324 82.2117 86.5781C80.0847 87.3499 77.9106 86.4664 77.9106 86.4664C77.9106 86.4664 80.2902 96.7738 71.4427 96.131Z" fill="black"/>
<path d="M71.4427 95.4981C71.4427 95.4981 59.1163 95.4981 55.9567 84.0938L45.5814 92.1525C44.8657 92.7093 44.2703 93.406 43.8315 94.2004C43.3926 94.9948 43.1194 95.8704 43.0285 96.7738L42.038 106.585C42.038 106.585 40.9311 110.228 42.1965 112.445C42.1965 112.445 55.3203 109.119 55.6298 112.919L46.4679 138.579C46.4679 138.579 60.6911 138.897 64.4822 136.363C64.4822 136.363 79.9683 139.53 83.7618 136.045C87.5553 132.561 91.3464 132.878 88.1868 124.958C88.1868 124.958 94.5085 118.622 91.6534 109.752C88.7984 100.881 91.4949 109.911 91.4949 109.911C91.4949 109.911 97.6582 106.9 97.3412 101.199L96.7098 95.4907C96.7098 95.4907 96.6751 95.3021 96.5885 94.962C94.662 87.4468 89.4843 83.2971 82.2067 85.9428C80.0797 86.7146 77.9056 85.8311 77.9056 85.8311C77.9056 85.8311 80.2902 96.131 71.4427 95.4981Z" fill="#B45181"/>
<path d="M42.207 106.269C42.207 106.269 42.8385 128.76 43.4724 131.612C44.1063 134.464 53.2706 143.016 58.0101 143.334C58.0101 143.334 63.0665 155.371 68.7567 153.47C74.447 151.569 75.0784 141.433 72.2234 140.165L53.2607 128.127V104.053L42.207 106.269Z" fill="#FDB797"/>
<path opacity="0.1" d="M55.7957 107.06C55.7957 107.06 48.533 112.004 42.2063 111.592C42.2063 111.592 41.5749 103.101 43.4717 102.627C45.3684 102.153 53.5844 102.627 55.7957 107.06Z" fill="black"/>
<path d="M55.7957 106.744C55.7957 106.744 48.533 111.688 42.2063 111.274C42.2063 111.274 41.5749 102.783 43.4717 102.309C45.3684 101.835 53.5844 102.309 55.7957 106.744Z" fill="#B45181"/>
<path opacity="0.1" d="M66.0698 77.4414L79.0277 79.3426C79.0277 79.3426 78.7355 82.2017 78.6786 85.4853C76.1606 86.5493 73.3945 86.8808 70.6972 86.4418C67.9999 86.0029 65.4805 84.8112 63.4277 83.0034C64.5123 81.6631 65.4483 79.8613 66.0698 77.4414Z" fill="black"/>
<path d="M73.6549 85.9942C81.6839 85.9942 88.1926 79.4704 88.1926 71.4229C88.1926 63.3754 81.6839 56.8516 73.6549 56.8516C65.6259 56.8516 59.1172 63.3754 59.1172 71.4229C59.1172 79.4704 65.6259 85.9942 73.6549 85.9942Z" fill="#FDB797"/>
<path opacity="0.1" d="M69.8295 68.6222C70.4288 68.9002 71.1122 68.9051 71.7733 68.9002C74.3453 68.8836 76.9147 68.7885 79.4817 68.6147C81.428 68.4832 83.5031 68.2549 85.0036 67.0065C87.0242 65.3262 87.3436 62.1767 86.3012 59.7618C85.2587 57.3468 83.1316 55.5673 80.8857 54.2072C79.6151 53.3998 78.2383 52.7741 76.7951 52.3483C72.6276 51.214 68.0194 52.5965 64.7088 55.3886C61.3981 58.1808 59.2884 62.1841 58.1716 66.3661C57.7853 67.8131 57.2901 69.5355 55.8613 69.9748C56.8122 71.5608 59.1324 71.8114 60.8013 71.0172C63.2577 69.8458 64.5156 65.3634 66.7219 64.6586C69.1758 63.8817 67.7446 67.6642 69.8295 68.6222Z" fill="black"/>
<path d="M69.8279 68.3051C70.4272 68.583 71.1106 68.588 71.7718 68.583C74.3437 68.5665 76.9131 68.4714 79.4801 68.2976C81.4264 68.1661 83.5015 67.9377 85.002 66.6893C87.0226 65.0091 87.342 61.8595 86.2996 59.4446C85.2571 57.0297 83.13 55.2502 80.8841 53.8901C79.6151 53.0877 78.2409 52.4662 76.8009 52.0436C72.6335 50.9094 68.0253 52.2918 64.7146 55.0839C61.4039 57.8761 59.2942 61.8794 58.1775 66.0614C57.7912 67.5084 57.2959 69.2308 55.8672 69.6701C56.818 71.2561 59.1382 71.5067 60.8072 70.7125C63.2636 69.5411 64.5215 65.0587 66.7278 64.3539C69.1742 63.5671 67.743 67.3471 69.8279 68.3051Z" fill="#8F5A6A"/>
<path opacity="0.1" d="M88.3502 124.8C83.6084 123.53 78.7206 122.891 73.8125 122.899L88.3502 124.8Z" fill="black"/>
<path opacity="0.1" d="M55.7949 107.695C55.7949 107.695 60.5368 111.17 59.2616 113.081L55.7949 107.695Z" fill="black"/>
<g opacity="0.7">
<path opacity="0.7" d="M186.849 143.613H31.666V157.212H40.6992V159.867V200.002H178.138V159.867V157.212H186.849V143.613Z" fill="url(#paint3_linear)"/>
</g>
<path d="M176.734 151.533H42.0957V200.002H176.734V151.533Z" fill="#E0E0E0"/>
<path opacity="0.1" d="M176.734 154.068H42.0957V161.67H176.734V154.068Z" fill="black"/>
<path d="M185.269 146.148H33.2461V159.136H185.269V146.148Z" fill="#E0E0E0"/>
<path d="M89.4371 142.951H63.5783C62.6894 142.951 61.9688 143.673 61.9688 144.564V145.455C61.9688 146.346 62.6894 147.069 63.5783 147.069H89.4371C90.326 147.069 91.0466 146.346 91.0466 145.455V144.564C91.0466 143.673 90.326 142.951 89.4371 142.951Z" fill="#535461"/>
<g opacity="0.7">
<path opacity="0.7" d="M144.946 97.0352H86.6538C82.7946 97.0352 79.666 100.171 79.666 104.039V140.116C79.666 143.984 82.7946 147.12 86.6538 147.12H144.946C148.805 147.12 151.934 143.984 151.934 140.116V104.039C151.934 100.171 148.805 97.0352 144.946 97.0352Z" fill="url(#paint4_linear)"/>
</g>
<path d="M142.77 97.9609H87.6031C83.9326 97.9609 80.957 100.943 80.957 104.622V140.459C80.957 144.138 83.9326 147.12 87.6031 147.12H142.77C146.441 147.12 149.416 144.138 149.416 140.459V104.622C149.416 100.943 146.441 97.9609 142.77 97.9609Z" fill="#3E3F49"/>
<path d="M143.719 97.9609H88.5523C84.8818 97.9609 81.9062 100.943 81.9062 104.622V140.459C81.9062 144.138 84.8818 147.12 88.5523 147.12H143.719C147.39 147.12 150.365 144.138 150.365 140.459V104.622C150.365 100.943 147.39 97.9609 143.719 97.9609Z" fill="#535461"/>
<path d="M119.332 124.419C120.554 124.419 121.544 123.427 121.544 122.203C121.544 120.979 120.554 119.986 119.332 119.986C118.111 119.986 117.121 120.979 117.121 122.203C117.121 123.427 118.111 124.419 119.332 124.419Z" fill="#E0E0E0"/>
</g>
<defs>
<linearGradient id="paint0_linear" x1="187.438" y1="90.4284" x2="187.438" y2="5.05806" gradientUnits="userSpaceOnUse">
<stop stop-color="#808080" stop-opacity="0.25"/>
<stop offset="0.54" stop-color="#808080" stop-opacity="0.12"/>
<stop offset="1" stop-color="#808080" stop-opacity="0.1"/>
</linearGradient>
<linearGradient id="paint1_linear" x1="3405.42" y1="2894.76" x2="3405.42" y2="2528.84" gradientUnits="userSpaceOnUse">
<stop stop-color="#808080" stop-opacity="0.25"/>
<stop offset="0.54" stop-color="#808080" stop-opacity="0.12"/>
<stop offset="1" stop-color="#808080" stop-opacity="0.1"/>
</linearGradient>
<linearGradient id="paint2_linear" x1="-43370" y1="76922" x2="-43370" y2="25066.7" gradientUnits="userSpaceOnUse">
<stop stop-color="#808080" stop-opacity="0.25"/>
<stop offset="0.54" stop-color="#808080" stop-opacity="0.12"/>
<stop offset="1" stop-color="#808080" stop-opacity="0.1"/>
</linearGradient>
<linearGradient id="paint3_linear" x1="68503" y1="45583.6" x2="68503" y2="32772.5" gradientUnits="userSpaceOnUse">
<stop stop-color="#808080" stop-opacity="0.25"/>
<stop offset="0.54" stop-color="#808080" stop-opacity="0.12"/>
<stop offset="1" stop-color="#808080" stop-opacity="0.1"/>
</linearGradient>
<linearGradient id="paint4_linear" x1="33876.3" y1="29785.9" x2="33876.3" y2="19678.8" gradientUnits="userSpaceOnUse">
<stop stop-color="#808080" stop-opacity="0.25"/>
<stop offset="0.54" stop-color="#808080" stop-opacity="0.12"/>
<stop offset="1" stop-color="#808080" stop-opacity="0.1"/>
</linearGradient>
<clipPath id="clip0">
<rect width="260" height="200" fill="white"/>
</clipPath>
</defs>
</svg>
