<svg xmlns="http://www.w3.org/2000/svg" width="260" height="210" fill="none" viewBox="0 0 260 210"><g clip-path="url(#clip0)"><path fill="#EAE9FF" d="M254.291 209.217C256.488 207.042 253.945 200.998 248.611 195.718C243.277 190.437 237.171 187.92 234.974 190.095C232.777 192.27 235.32 198.314 240.654 203.594C245.988 208.875 252.093 211.392 254.291 209.217Z"/><path fill="#3F3D56" d="M245.598 200.538C247.266 200.538 248.618 198.786 248.618 196.624C248.618 194.462 247.266 192.709 245.598 192.709C243.93 192.709 242.578 194.462 242.578 196.624C242.578 198.786 243.93 200.538 245.598 200.538Z"/><path fill="#3F3D56" d="M245.598 195.755C247.266 195.755 248.618 194.002 248.618 191.84C248.618 189.678 247.266 187.926 245.598 187.926C243.93 187.926 242.578 189.678 242.578 191.84C242.578 194.002 243.93 195.755 245.598 195.755Z"/><path fill="#3F3D56" d="M245.598 190.97C247.266 190.97 248.618 189.217 248.618 187.055C248.618 184.893 247.266 183.141 245.598 183.141C243.93 183.141 242.578 184.893 242.578 187.055C242.578 189.217 243.93 190.97 245.598 190.97Z"/><path fill="#3F3D56" d="M245.598 186.185C247.266 186.185 248.618 184.432 248.618 182.27C248.618 180.108 247.266 178.355 245.598 178.355C243.93 178.355 242.578 180.108 242.578 182.27C242.578 184.432 243.93 186.185 245.598 186.185Z"/><path fill="#3F3D56" d="M245.598 181.402C247.266 181.402 248.618 179.649 248.618 177.487C248.618 175.325 247.266 173.572 245.598 173.572C243.93 173.572 242.578 175.325 242.578 177.487C242.578 179.649 243.93 181.402 245.598 181.402Z"/><path fill="#3F3D56" d="M245.598 176.618C247.266 176.618 248.618 174.866 248.618 172.704C248.618 170.542 247.266 168.789 245.598 168.789C243.93 168.789 242.578 170.542 242.578 172.704C242.578 174.866 243.93 176.618 245.598 176.618Z"/><path fill="#3F3D56" d="M245.598 171.835C247.266 171.835 248.618 170.082 248.618 167.92C248.618 165.758 247.266 164.006 245.598 164.006C243.93 164.006 242.578 165.758 242.578 167.92C242.578 170.082 243.93 171.835 245.598 171.835Z"/><path fill="#6C63FF" d="M256.905 135.182C257.318 134.662 257.694 134.115 258.03 133.544L250.094 132.254L258.678 132.315C259.501 130.542 259.951 128.621 259.999 126.67C260.048 124.718 259.694 122.778 258.959 120.967L247.445 126.882L258.058 119.153C257.064 117.449 255.726 115.967 254.128 114.797C252.529 113.628 250.705 112.798 248.768 112.357C246.831 111.917 244.823 111.877 242.869 112.238C240.916 112.6 239.058 113.356 237.413 114.46C235.768 115.564 234.37 116.991 233.306 118.653C232.243 120.315 231.537 122.177 231.232 124.121C230.927 126.065 231.03 128.051 231.534 129.954C232.039 131.857 232.934 133.636 234.164 135.182C233.52 135.991 232.967 136.866 232.514 137.793L242.815 143.087L231.839 139.437C231.068 141.694 230.878 144.105 231.285 146.454C231.693 148.802 232.685 151.012 234.172 152.886C232.494 154.998 231.45 157.535 231.159 160.208C230.869 162.88 231.344 165.579 232.53 167.996C233.716 170.414 235.565 172.452 237.867 173.878C240.168 175.304 242.828 176.061 245.543 176.061C248.257 176.061 250.917 175.304 253.219 173.878C255.52 172.452 257.369 170.414 258.555 167.996C259.741 165.579 260.216 162.88 259.926 160.208C259.635 157.535 258.591 154.998 256.913 152.886C258.918 150.361 260.009 147.243 260.009 144.031C260.009 140.819 258.918 137.701 256.913 135.176L256.905 135.182Z"/><path fill="#000" d="M231.068 144.035C231.063 147.248 232.154 150.368 234.164 152.89C232.486 155.002 231.442 157.54 231.151 160.212C230.861 162.884 231.336 165.583 232.522 168.001C233.708 170.418 235.558 172.456 237.859 173.883C240.16 175.309 242.82 176.065 245.535 176.065C248.25 176.065 250.91 175.309 253.211 173.883C255.512 172.456 257.361 170.418 258.547 168.001C259.733 165.583 260.208 162.884 259.918 160.212C259.628 157.54 258.584 155.002 256.905 152.89C258.844 150.455 231.068 142.428 231.068 144.035Z" opacity=".1"/><path fill="#444053" d="M238.375 0V200.608L169.703 191.135L86.2229 207.994L85.5502 208.13L19.1289 190.02V15.6028L88.0832 0L163.511 15.6028L166.379 15.0038L238.375 0Z"/><path fill="#fff" d="M226.838 10.9551V190.446L165.395 181.97L90.7024 197.055L90.1001 197.175L30.6699 180.973V24.914L92.3686 10.9551L159.854 24.914L162.421 24.3791L226.838 10.9551Z"/><path fill="#000" d="M169.704 191.135L86.2246 207.994L88.085 0L163.513 15.6028L166.381 15.0038L169.704 191.135Z" opacity=".1"/><g opacity=".3"><path stroke="#444053" stroke-miterlimit="10" stroke-width="3" d="M161.365 38.4492L161.399 96.8205H185.885V72.859H227.82L232.746 66.6067" opacity=".3"/><path stroke="#444053" stroke-miterlimit="10" stroke-width="3" d="M25.0391 56.9783H116.087L121.716 54.4707H123.967V110.752H163.37L165.059 115.767V141.122H195.455V172.467" opacity=".3"/><path stroke="#444053" stroke-miterlimit="10" stroke-width="3" d="M135.994 172.467V110.752" opacity=".3"/><path stroke="#444053" stroke-miterlimit="10" stroke-width="3" d="M232.747 155.934H135.994" opacity=".3"/><path stroke="#444053" stroke-miterlimit="10" stroke-width="3" d="M208.514 38.4492V172.466" opacity=".3"/><path stroke="#444053" stroke-miterlimit="10" stroke-width="3" d="M24.7578 144.086H232.747" opacity=".3"/><path stroke="#444053" stroke-miterlimit="10" stroke-width="3" d="M50.0723 172.466V38.4492" opacity=".3"/><path stroke="#444053" stroke-miterlimit="10" stroke-width="3" d="M98.418 38.4492V172.466" opacity=".3"/><path stroke="#444053" stroke-miterlimit="10" stroke-width="3" d="M25.0391 72.3027L185.886 72.86" opacity=".3"/><path stroke="#444053" stroke-miterlimit="10" stroke-width="3" d="M71.8516 38.6914V172.466" opacity=".3"/><path stroke="#444053" stroke-miterlimit="10" stroke-width="3" d="M24.7578 103.318H98.4179L135.994 144.086" opacity=".3"/><path stroke="#444053" stroke-miterlimit="10" stroke-width="3" d="M144.133 38.4492V110.752" opacity=".3"/><path stroke="#444053" stroke-miterlimit="10" stroke-width="3" d="M135.994 123.701H232.747" opacity=".3"/></g><path fill="#6C63FF" d="M164.918 123.151H136.492V110.891L163.37 110.752L165.059 115.489L164.918 123.151Z"/><path fill="#6C63FF" d="M150.847 59.625C146.721 59.625 142.764 61.2477 139.846 64.1362C136.928 67.0247 135.289 70.9423 135.289 75.0272C135.289 83.5335 150.847 111.17 150.847 111.17C150.847 111.17 166.406 83.5447 166.406 75.0272C166.406 70.9423 164.767 67.0247 161.849 64.1362C158.931 61.2477 154.974 59.625 150.847 59.625ZM150.847 81.5971C149.494 81.5971 148.17 81.1997 147.045 80.4551C145.919 79.7106 145.042 78.6523 144.524 77.4141C144.006 76.176 143.87 74.8135 144.134 73.4991C144.398 72.1846 145.05 70.9773 146.007 70.0296C146.965 69.082 148.184 68.4366 149.512 68.1752C150.84 67.9137 152.216 68.0479 153.467 68.5607C154.718 69.0736 155.787 69.9421 156.539 71.0564C157.291 72.1708 157.692 73.4808 157.692 74.821C157.691 76.6177 156.97 78.3405 155.686 79.6106C154.403 80.8808 152.662 81.5943 150.847 81.5943V81.5971Z"/><path fill="#000" d="M150.847 59.625C146.721 59.625 142.764 61.2477 139.846 64.1362C136.928 67.0247 135.289 70.9423 135.289 75.0272C135.289 83.5335 150.847 111.17 150.847 111.17C150.847 111.17 166.406 83.5447 166.406 75.0272C166.406 70.9423 164.767 67.0247 161.849 64.1362C158.931 61.2477 154.974 59.625 150.847 59.625ZM150.847 81.5971C149.494 81.5971 148.17 81.1997 147.045 80.4551C145.919 79.7106 145.042 78.6523 144.524 77.4141C144.006 76.176 143.87 74.8135 144.134 73.4991C144.398 72.1846 145.05 70.9773 146.007 70.0296C146.965 69.082 148.184 68.4366 149.512 68.1752C150.84 67.9137 152.216 68.0479 153.467 68.5607C154.718 69.0736 155.787 69.9421 156.539 71.0564C157.291 72.1708 157.692 73.4808 157.692 74.821C157.691 76.6177 156.97 78.3405 155.686 79.6106C154.403 80.8808 152.662 81.5943 150.847 81.5943V81.5971Z" opacity=".1"/><path fill="#6C63FF" d="M150.847 61.8535C146.721 61.8535 142.764 63.4762 139.846 66.3647C136.928 69.2532 135.289 73.1708 135.289 77.2557C135.289 85.7621 150.847 113.399 150.847 113.399C150.847 113.399 166.406 85.7732 166.406 77.2557C166.406 73.1708 164.767 69.2532 161.849 66.3647C158.931 63.4762 154.974 61.8535 150.847 61.8535ZM150.847 83.8256C149.494 83.8256 148.17 83.4282 147.045 82.6837C145.919 81.9391 145.042 80.8808 144.524 79.6426C144.006 78.4045 143.87 77.042 144.134 75.7276C144.398 74.4132 145.05 73.2058 146.007 72.2581C146.965 71.3105 148.184 70.6651 149.512 70.4037C150.84 70.1422 152.216 70.2764 153.467 70.7893C154.718 71.3021 155.787 72.1706 156.539 73.285C157.291 74.3993 157.692 75.7094 157.692 77.0496C157.691 78.8462 156.97 80.569 155.686 81.8392C154.403 83.1093 152.662 83.8228 150.847 83.8228V83.8256Z"/><path fill="#EAE9FF" d="M145.574 207.872C150.349 205.836 153.534 202.607 152.687 200.659C151.839 198.712 147.281 198.783 142.506 200.819C137.731 202.855 134.546 206.085 135.393 208.032C136.241 209.98 140.799 209.908 145.574 207.872Z"/><path fill="#3F3D56" d="M143.928 205.525C145.079 205.525 146.011 204.317 146.011 202.828C146.011 201.338 145.079 200.131 143.928 200.131C142.778 200.131 141.846 201.338 141.846 202.828C141.846 204.317 142.778 205.525 143.928 205.525Z"/><path fill="#3F3D56" d="M143.928 202.226C145.079 202.226 146.011 201.019 146.011 199.529C146.011 198.04 145.079 196.832 143.928 196.832C142.778 196.832 141.846 198.04 141.846 199.529C141.846 201.019 142.778 202.226 143.928 202.226Z"/><path fill="#3F3D56" d="M143.928 198.931C145.079 198.931 146.011 197.724 146.011 196.234C146.011 194.745 145.079 193.537 143.928 193.537C142.778 193.537 141.846 194.745 141.846 196.234C141.846 197.724 142.778 198.931 143.928 198.931Z"/><path fill="#3F3D56" d="M143.928 195.634C145.079 195.634 146.011 194.427 146.011 192.937C146.011 191.448 145.079 190.24 143.928 190.24C142.778 190.24 141.846 191.448 141.846 192.937C141.846 194.427 142.778 195.634 143.928 195.634Z"/><path fill="#3F3D56" d="M143.928 192.335C145.079 192.335 146.011 191.128 146.011 189.638C146.011 188.149 145.079 186.941 143.928 186.941C142.778 186.941 141.846 188.149 141.846 189.638C141.846 191.128 142.778 192.335 143.928 192.335Z"/><path fill="#3F3D56" d="M143.928 189.039C145.079 189.039 146.011 187.831 146.011 186.342C146.011 184.852 145.079 183.645 143.928 183.645C142.778 183.645 141.846 184.852 141.846 186.342C141.846 187.831 142.778 189.039 143.928 189.039Z"/><path fill="#3F3D56" d="M143.928 185.744C145.079 185.744 146.011 184.536 146.011 183.047C146.011 181.557 145.079 180.35 143.928 180.35C142.778 180.35 141.846 181.557 141.846 183.047C141.846 184.536 142.778 185.744 143.928 185.744Z"/><path fill="#6C63FF" d="M136.135 160.481C135.851 160.127 135.591 159.755 135.358 159.366L140.829 158.475L134.919 158.519C134.352 157.297 134.043 155.973 134.01 154.628C133.977 153.284 134.221 151.946 134.728 150.698L142.664 154.761L135.347 149.433C136.032 148.26 136.954 147.238 138.056 146.433C139.158 145.627 140.415 145.055 141.75 144.752C143.085 144.449 144.468 144.421 145.814 144.67C147.16 144.92 148.44 145.441 149.574 146.202C150.707 146.962 151.671 147.946 152.404 149.091C153.136 150.236 153.623 151.519 153.833 152.858C154.044 154.198 153.973 155.566 153.625 156.878C153.278 158.189 152.661 159.416 151.814 160.481C152.253 161.039 152.631 161.643 152.94 162.281L145.845 165.933L153.416 163.426C153.947 164.981 154.079 166.644 153.798 168.262C153.518 169.881 152.834 171.404 151.809 172.695C152.966 174.151 153.686 175.9 153.886 177.743C154.086 179.585 153.759 181.445 152.941 183.112C152.124 184.778 150.849 186.183 149.263 187.166C147.677 188.15 145.843 188.671 143.972 188.671C142.1 188.671 140.267 188.15 138.68 187.166C137.094 186.183 135.819 184.778 135.002 183.112C134.184 181.445 133.857 179.585 134.057 177.743C134.258 175.9 134.978 174.151 136.135 172.695C134.753 170.955 134.001 168.806 134.001 166.592C134.001 164.379 134.753 162.229 136.135 160.489V160.481Z"/><path fill="#000" d="M153.942 166.575C153.946 168.789 153.194 170.94 151.808 172.679C152.966 174.135 153.686 175.884 153.886 177.726C154.086 179.568 153.759 181.429 152.941 183.096C152.124 184.762 150.849 186.167 149.263 187.15C147.677 188.133 145.843 188.655 143.972 188.655C142.1 188.655 140.267 188.133 138.68 187.15C137.094 186.167 135.819 184.762 135.002 183.096C134.184 181.429 133.857 179.568 134.057 177.726C134.258 175.884 134.978 174.135 136.135 172.679C134.798 171.007 153.942 165.477 153.942 166.575Z" opacity=".1"/><path fill="#EAE9FF" d="M23.2221 203.086C25.4193 200.911 22.8763 194.867 17.5423 189.587C12.2083 184.306 6.10313 181.789 3.90599 183.964C1.70886 186.139 4.2518 192.183 9.58581 197.463C14.9198 202.744 21.025 205.261 23.2221 203.086Z"/><path fill="#3F3D56" d="M14.5316 194.407C16.1995 194.407 17.5516 192.655 17.5516 190.493C17.5516 188.331 16.1995 186.578 14.5316 186.578C12.8638 186.578 11.5117 188.331 11.5117 190.493C11.5117 192.655 12.8638 194.407 14.5316 194.407Z"/><path fill="#3F3D56" d="M14.5316 189.624C16.1995 189.624 17.5516 187.872 17.5516 185.71C17.5516 183.548 16.1995 181.795 14.5316 181.795C12.8638 181.795 11.5117 183.548 11.5117 185.71C11.5117 187.872 12.8638 189.624 14.5316 189.624Z"/><path fill="#3F3D56" d="M14.5316 184.841C16.1995 184.841 17.5516 183.088 17.5516 180.926C17.5516 178.764 16.1995 177.012 14.5316 177.012C12.8638 177.012 11.5117 178.764 11.5117 180.926C11.5117 183.088 12.8638 184.841 14.5316 184.841Z"/><path fill="#3F3D56" d="M14.5316 180.056C16.1995 180.056 17.5516 178.303 17.5516 176.141C17.5516 173.979 16.1995 172.227 14.5316 172.227C12.8638 172.227 11.5117 173.979 11.5117 176.141C11.5117 178.303 12.8638 180.056 14.5316 180.056Z"/><path fill="#3F3D56" d="M14.5316 175.273C16.1995 175.273 17.5516 173.52 17.5516 171.358C17.5516 169.196 16.1995 167.443 14.5316 167.443C12.8638 167.443 11.5117 169.196 11.5117 171.358C11.5117 173.52 12.8638 175.273 14.5316 175.273Z"/><path fill="#3F3D56" d="M14.5316 170.487C16.1995 170.487 17.5516 168.735 17.5516 166.573C17.5516 164.411 16.1995 162.658 14.5316 162.658C12.8638 162.658 11.5117 164.411 11.5117 166.573C11.5117 168.735 12.8638 170.487 14.5316 170.487Z"/><path fill="#3F3D56" d="M14.5316 165.704C16.1995 165.704 17.5516 163.952 17.5516 161.79C17.5516 159.628 16.1995 157.875 14.5316 157.875C12.8638 157.875 11.5117 159.628 11.5117 161.79C11.5117 163.952 12.8638 165.704 14.5316 165.704Z"/><path fill="#6C63FF" d="M25.8362 129.051C26.2494 128.532 26.6256 127.984 26.962 127.413L19.0252 126.123L27.6093 126.184C28.4328 124.411 28.8824 122.49 28.9308 120.539C28.9792 118.588 28.6253 116.647 27.8907 114.836L16.3768 120.751L26.9901 113.022C25.996 111.318 24.6579 109.836 23.0594 108.667C21.461 107.497 19.6363 106.667 17.6993 106.227C15.7623 105.786 13.7544 105.746 11.8008 106.108C9.84729 106.469 7.98997 107.226 6.34469 108.329C4.69941 109.433 3.30145 110.86 2.23797 112.522C1.17449 114.185 0.468301 116.046 0.163435 117.99C-0.141432 119.934 -0.0384367 121.92 0.465993 123.823C0.970422 125.726 1.86547 127.506 3.09534 129.051C2.45197 129.86 1.89898 130.735 1.44606 131.662L11.747 136.956L0.770587 133.306C-0.000132272 135.563 -0.190408 137.974 0.216966 140.323C0.62434 142.671 1.61652 144.882 3.10378 146.755C1.42537 148.867 0.381272 151.405 0.0908701 154.077C-0.199532 156.749 0.275476 159.448 1.46159 161.866C2.6477 164.283 4.49705 166.321 6.79818 167.747C9.09932 169.174 11.7594 169.93 14.4742 169.93C17.189 169.93 19.8491 169.174 22.1502 167.747C24.4514 166.321 26.3007 164.283 27.4868 161.866C28.6729 159.448 29.1479 156.749 28.8575 154.077C28.5671 151.405 27.523 148.867 25.8446 146.755C27.8501 144.23 28.9404 141.112 28.9404 137.9C28.9404 134.689 27.8501 131.57 25.8446 129.046L25.8362 129.051Z"/><path fill="#000" d="M2.02389e-05 137.906C-0.0054187 141.119 1.08552 144.239 3.09593 146.761C1.41752 148.873 0.373423 151.411 0.0830206 154.083C-0.207382 156.755 0.267627 159.454 1.45374 161.872C2.63985 164.289 4.4892 166.328 6.79033 167.754C9.09146 169.18 11.7515 169.936 14.4664 169.936C17.1812 169.936 19.8412 169.18 22.1424 167.754C24.4435 166.328 26.2929 164.289 27.479 161.872C28.6651 159.454 29.1401 156.755 28.8497 154.083C28.5593 151.411 27.5152 148.873 25.8368 146.761C27.7759 144.326 2.02389e-05 136.299 2.02389e-05 137.906Z" opacity=".1"/></g><defs><clipPath id="clip0"><rect width="260" height="210" fill="#fff"/></clipPath></defs></svg>