<svg width="260" height="195" viewBox="0 0 260 195" fill="none" xmlns="http://www.w3.org/2000/svg">
<g clip-path="url(#clip0)">
<path d="M232.846 194.071C245.421 194.071 255.615 191.569 255.615 188.483C255.615 185.397 245.421 182.895 232.846 182.895C220.27 182.895 210.076 185.397 210.076 188.483C210.076 191.569 220.27 194.071 232.846 194.071Z" fill="#EAE9FF"/>
<path d="M31.8514 195.001C44.4266 195.001 54.6208 192.499 54.6208 189.413C54.6208 186.326 44.4266 183.824 31.8514 183.824C19.2762 183.824 9.08203 186.326 9.08203 189.413C9.08203 192.499 19.2762 195.001 31.8514 195.001Z" fill="#EAE9FF"/>
<path d="M134.64 31.063C118.401 33.7544 102.136 32.3059 86.4789 30.2992C70.8216 28.2925 55.2008 25.7299 38.9272 26.2315C28.4648 26.557 16.8265 28.5998 9.58696 34.8685C2.62264 40.8999 1.62643 49.1459 1.69239 56.6032C1.74243 62.212 2.27237 68.0219 6.0957 72.5325C8.74997 75.6623 12.8076 77.9357 15.8758 80.8305C26.5656 90.9046 23.5338 106.511 16.7651 119.726C13.5809 125.927 9.68931 132.013 7.55362 138.369C5.41792 144.726 5.2064 151.573 9.2276 156.836C13.217 162.054 20.8477 165.06 28.7878 166.671C44.9112 169.941 62.8065 168.253 80.115 165.905C118.426 160.683 156.309 152.236 194.082 143.804C208.063 140.686 222.106 137.549 235.557 132.957C243.026 130.413 250.625 127.211 255.408 122.146C261.479 115.717 261.533 106.843 255.535 101.46C245.473 92.421 222.963 94.1203 215.141 83.8337C210.834 78.1842 212.587 70.5868 215.878 63.9091C222.929 49.582 236.746 35.5148 234.756 21.1176C233.392 11.2288 223.753 2.94888 210.947 0.659703C197.528 -1.73794 180.377 2.26642 172.787 12.0988C164.972 22.2498 148.978 28.6902 134.64 31.063Z" fill="#EAE9FF"/>
<path d="M155.741 52.623C155.741 52.623 152.541 51.3326 142.365 55.972C132.189 60.6114 130.911 60.0193 128.282 59.3097C125.653 58.6001 124.188 58.4329 121.354 54.5641C121.354 54.5641 119.361 43.8346 117.435 42.1714C115.509 40.5082 107.314 43.1183 107.314 43.1183C107.314 43.1183 97.4904 45.3577 95.6186 32.3142C95.6186 32.3142 96.9468 22.4818 95.1387 19.465C95.1387 19.465 98.7778 21.031 104.814 18.5046C110.85 15.9781 115.661 21.2163 115.661 21.2163C115.661 21.2163 117.18 25.1258 117.026 27.4556C116.871 29.7855 117.828 30.66 120.703 29.5347C120.703 29.5347 122.113 27.5393 120.114 24.2422C118.115 20.9452 116.689 18.4865 117.248 15.9262C117.808 13.3658 119.409 9.82472 124.563 8.03948C129.717 6.25424 136.718 5.91979 140.079 4.53002C143.441 3.14025 144.253 2.23633 144.253 2.23633C144.253 2.23633 142.181 4.30178 147.059 13.0269C151.938 21.7519 148.827 25.5416 148.827 25.5416C148.827 25.5416 146.234 31.6792 134.793 31.1911C134.793 31.1911 123.769 31.5911 129.79 36.2372C129.79 36.2372 133.64 35.4576 139.395 33.6407C145.149 31.8238 149.304 39.3241 150.335 44.5442C151.365 49.7643 155.741 52.623 155.741 52.623Z" fill="#6C63FF"/>
<path d="M140.917 8.85957L140.978 8.84375C141.419 10.5092 136.491 17.205 132.281 22.5223L132.23 22.4839C138.174 14.9791 141.26 10.1409 140.917 8.85957Z" fill="#444053"/>
<path d="M132.321 22.375L132.346 22.4428C128.982 26.6935 124.752 31.7645 121.365 35.5202C121.042 35.8795 120.721 36.2547 120.412 36.6388L120.316 36.5597C120.626 36.1756 120.949 35.7982 121.272 35.4298C124.656 31.6854 128.959 26.6234 132.321 22.375Z" fill="#444053"/>
<path d="M120.397 36.459L120.463 36.572C114.3 44.2169 113.892 56.0876 113.867 56.1915L112.566 54.7001C112.594 54.5961 114.19 44.1558 120.397 36.459Z" fill="#444053"/>
<path d="M148.591 48.4765C148.591 48.4765 141.313 44.723 135.661 46.0699C130.009 47.4167 117.238 41.3107 117.238 41.3107C117.238 41.3107 111.822 39.1232 110.735 36.6329C110.735 36.6329 107.021 32.7325 106.81 30.7123C106.598 28.692 102.982 23.6165 100.623 23.4199" stroke="#444053" stroke-miterlimit="10"/>
<path d="M147.541 52.0909C147.541 52.0909 143.875 49.6412 144.307 46.7871" stroke="#444053" stroke-miterlimit="10"/>
<path d="M141.925 55.2568C141.925 55.2568 136.694 53.3676 136.166 45.9668" stroke="#444053" stroke-miterlimit="10"/>
<path d="M133.48 57.1741C133.48 57.1741 128.477 53.0499 130.139 45.8457" stroke="#444053" stroke-miterlimit="10"/>
<path d="M123.331 55.1561C123.331 55.1561 119.999 48.2162 122.962 43.7012" stroke="#444053" stroke-miterlimit="10"/>
<path d="M148.679 43.9023C148.679 43.9023 144.892 45.0955 145.704 47.0661" stroke="#444053" stroke-miterlimit="10"/>
<path d="M144.102 37.0762C144.102 37.0762 139.037 38.6738 138.916 45.7922" stroke="#444053" stroke-miterlimit="10"/>
<path d="M137.051 35.4336C137.051 35.4336 132.443 41.0831 132.781 46.2241" stroke="#444053" stroke-miterlimit="10"/>
<path d="M128.971 37.6504C128.971 37.6504 124.393 41.9982 124.977 44.4185" stroke="#444053" stroke-miterlimit="10"/>
<path d="M126.211 36.1135C126.211 36.1135 121.917 36.8796 121.316 35.4785" stroke="#444053" stroke-miterlimit="10"/>
<path d="M120.631 30.9648C120.631 30.9648 122.801 33.819 123.36 33.1794" stroke="#444053" stroke-miterlimit="10"/>
<path d="M142.137 29.1582C142.137 29.1582 131.315 29.9333 128.863 26.6973" stroke="#444053" stroke-miterlimit="10"/>
<path d="M118.355 16.5801C118.355 16.5801 123.434 27.4113 127.121 28.783" stroke="#444053" stroke-miterlimit="10"/>
<path d="M123.682 11.4219C123.682 11.4219 126.802 21.3853 130.666 24.4948" stroke="#444053" stroke-miterlimit="10"/>
<path d="M146.691 20.9372C146.691 20.9372 138.46 24.4466 133.518 20.8965" stroke="#444053" stroke-width="0.75" stroke-miterlimit="10"/>
<path d="M131.016 9.29688C131.016 9.29688 132.897 16.6209 135.43 18.3903" stroke="#444053" stroke-width="0.75" stroke-miterlimit="10"/>
<path d="M145.448 12.7344C145.448 12.7344 140.824 14.4744 139.096 13.1411" stroke="#444053" stroke-width="0.75" stroke-miterlimit="10"/>
<path d="M116.671 33.3574C116.671 33.3574 116.671 39.7413 114.922 40.1956" stroke="#444053" stroke-miterlimit="10"/>
<path d="M102.369 41.6276C102.369 41.6276 109.315 42.2196 112.52 38.6582" stroke="#444053" stroke-miterlimit="10"/>
<path d="M114.877 25.8164C114.877 25.8164 113.196 32.2907 108.559 34.0353" stroke="#444053" stroke-miterlimit="10"/>
<path d="M98.2031 34.8075C98.2031 34.8075 103.12 36.5069 107.349 32.1816" stroke="#444053" stroke-miterlimit="10"/>
<path d="M109.411 20.25C109.411 20.25 108.956 25.7481 105.938 28.322" stroke="#444053" stroke-miterlimit="10"/>
<path d="M98.3848 26.4293C98.3848 26.4293 102.465 26.4587 103.42 25.1367" stroke="#444053" stroke-miterlimit="10"/>
<path d="M230.657 33.9219H20.1923C18.6234 33.9219 17.3516 35.1855 17.3516 36.7444V152.751C17.3516 154.31 18.6234 155.573 20.1923 155.573H230.657C232.226 155.573 233.498 154.31 233.498 152.751V36.7444C233.498 35.1855 232.226 33.9219 230.657 33.9219Z" fill="url(#paint0_linear)"/>
<path d="M230.339 35.6328H20.5361C18.9672 35.6328 17.6953 36.8965 17.6953 38.4553V152.347C17.6953 153.906 18.9672 155.169 20.5361 155.169H230.339C231.908 155.169 233.18 153.906 233.18 152.347V38.4553C233.18 36.8965 231.908 35.6328 230.339 35.6328Z" fill="white"/>
<path d="M230.339 35.6328H20.5361C18.9672 35.6328 17.6953 36.8965 17.6953 38.4553V152.347C17.6953 153.906 18.9672 155.169 20.5361 155.169H230.339C231.908 155.169 233.18 153.906 233.18 152.347V38.4553C233.18 36.8965 231.908 35.6328 230.339 35.6328Z" fill="white"/>
<path opacity="0.04" d="M230.339 35.6328H20.5361C18.9672 35.6328 17.6953 36.8965 17.6953 38.4553V152.347C17.6953 153.906 18.9672 155.169 20.5361 155.169H230.339C231.908 155.169 233.18 153.906 233.18 152.347V38.4553C233.18 36.8965 231.908 35.6328 230.339 35.6328Z" fill="#5A5773"/>
<path d="M232.085 34.2617H18.7796C18.4894 34.2617 18.2111 34.3762 18.006 34.5801C17.8008 34.7839 17.6855 35.0604 17.6855 35.3487V39.9451H233.17V35.3577C233.171 35.215 233.144 35.0734 233.09 34.9411C233.037 34.8087 232.957 34.6882 232.856 34.5865C232.756 34.4847 232.636 34.4036 232.503 34.3479C232.371 34.2922 232.229 34.2629 232.085 34.2617Z" fill="#5A5773"/>
<path d="M21.9979 38.5706C22.8144 38.5706 23.4763 37.9129 23.4763 37.1017C23.4763 36.2904 22.8144 35.6328 21.9979 35.6328C21.1814 35.6328 20.5195 36.2904 20.5195 37.1017C20.5195 37.9129 21.1814 38.5706 21.9979 38.5706Z" fill="white"/>
<path d="M25.9784 38.5706C26.7949 38.5706 27.4568 37.9129 27.4568 37.1017C27.4568 36.2904 26.7949 35.6328 25.9784 35.6328C25.1619 35.6328 24.5 36.2904 24.5 37.1017C24.5 37.9129 25.1619 38.5706 25.9784 38.5706Z" fill="white"/>
<path d="M29.9589 38.5706C30.7753 38.5706 31.4372 37.9129 31.4372 37.1017C31.4372 36.2904 30.7753 35.6328 29.9589 35.6328C29.1424 35.6328 28.4805 36.2904 28.4805 37.1017C28.4805 37.9129 29.1424 38.5706 29.9589 38.5706Z" fill="white"/>
<path d="M209.482 66.4062H34.4368C33.1568 66.4062 32.1191 67.4372 32.1191 68.709V152.864C32.1191 154.136 33.1568 155.166 34.4368 155.166H209.482C210.762 155.166 211.8 154.136 211.8 152.864V68.709C211.8 67.4372 210.762 66.4062 209.482 66.4062Z" fill="white"/>
<path opacity="0.2" d="M75.3064 45.9766H25.3779C24.8931 45.9766 24.5 46.3671 24.5 46.8488V50.4939C24.5 50.9756 24.8931 51.3662 25.3779 51.3662H75.3064C75.7913 51.3662 76.1843 50.9756 76.1843 50.4939V46.8488C76.1843 46.3671 75.7913 45.9766 75.3064 45.9766Z" fill="#5A5773"/>
<path opacity="0.2" d="M172.765 76.709H122.837C122.352 76.709 121.959 77.0995 121.959 77.5813V81.2263C121.959 81.7081 122.352 82.0986 122.837 82.0986H172.765C173.25 82.0986 173.643 81.7081 173.643 81.2263V77.5813C173.643 77.0995 173.25 76.709 172.765 76.709Z" fill="#6C63FF"/>
<path opacity="0.2" d="M201.785 91.7988H122.837C122.352 91.7988 121.959 92.1894 121.959 92.6711V96.3162C121.959 96.7979 122.352 97.1884 122.837 97.1884H201.785C202.27 97.1884 202.663 96.7979 202.663 96.3162V92.6711C202.663 92.1894 202.27 91.7988 201.785 91.7988Z" fill="#6C63FF"/>
<path opacity="0.2" d="M201.785 100.613H122.837C122.352 100.613 121.959 101.004 121.959 101.486V105.131C121.959 105.612 122.352 106.003 122.837 106.003H201.785C202.27 106.003 202.663 105.612 202.663 105.131V101.486C202.663 101.004 202.27 100.613 201.785 100.613Z" fill="#6C63FF"/>
<path opacity="0.2" d="M201.785 109.426H122.837C122.352 109.426 121.959 109.816 121.959 110.298V113.943C121.959 114.425 122.352 114.815 122.837 114.815H201.785C202.27 114.815 202.663 114.425 202.663 113.943V110.298C202.663 109.816 202.27 109.426 201.785 109.426Z" fill="#6C63FF"/>
<path opacity="0.2" d="M201.785 118.24H122.837C122.352 118.24 121.959 118.631 121.959 119.113V122.758C121.959 123.239 122.352 123.63 122.837 123.63H201.785C202.27 123.63 202.663 123.239 202.663 122.758V119.113C202.663 118.631 202.27 118.24 201.785 118.24Z" fill="#6C63FF"/>
<path opacity="0.2" d="M201.786 127.955H42.7393C42.2544 127.955 41.8613 128.346 41.8613 128.827V132.472C41.8613 132.954 42.2544 133.345 42.7393 133.345H201.786C202.271 133.345 202.664 132.954 202.664 132.472V128.827C202.664 128.346 202.271 127.955 201.786 127.955Z" fill="#6C63FF"/>
<path opacity="0.2" d="M201.786 136.77H42.7393C42.2544 136.77 41.8613 137.16 41.8613 137.642V141.287C41.8613 141.769 42.2544 142.159 42.7393 142.159H201.786C202.271 142.159 202.664 141.769 202.664 141.287V137.642C202.664 137.16 202.271 136.77 201.786 136.77Z" fill="#6C63FF"/>
<path opacity="0.2" d="M201.786 145.582H42.7393C42.2544 145.582 41.8613 145.973 41.8613 146.454V150.099C41.8613 150.581 42.2544 150.972 42.7393 150.972H201.786C202.271 150.972 202.664 150.581 202.664 150.099V146.454C202.664 145.973 202.271 145.582 201.786 145.582Z" fill="#6C63FF"/>
<path d="M165.874 149.146C165.874 149.146 167.223 150.898 165.251 153.544C163.279 156.19 161.655 158.423 162.312 160.073C162.312 160.073 165.285 155.16 167.707 155.101C170.13 155.042 168.538 152.1 165.874 149.146Z" fill="#6C63FF"/>
<path opacity="0.1" d="M165.875 149.146C165.992 149.316 166.085 149.501 166.15 149.696C168.513 152.453 169.771 155.026 167.501 155.09C165.386 155.151 162.848 158.909 162.24 159.856C162.259 159.933 162.284 160.008 162.313 160.082C162.313 160.082 165.286 155.169 167.708 155.11C170.13 155.051 168.538 152.1 165.875 149.146Z" fill="black"/>
<path d="M168.382 151.381C168.382 151.997 168.313 152.497 168.227 152.497C168.14 152.497 168.072 151.997 168.072 151.381C168.072 150.764 168.159 151.055 168.245 151.055C168.332 151.055 168.382 150.764 168.382 151.381Z" fill="#FFD037"/>
<path d="M169.243 152.116C168.697 152.41 168.221 152.589 168.181 152.514C168.14 152.44 168.549 152.139 169.09 151.836C169.632 151.533 169.42 151.755 169.461 151.836C169.502 151.918 169.786 151.82 169.243 152.116Z" fill="#FFD037"/>
<path d="M158.751 149.146C158.751 149.146 157.403 150.898 159.372 153.544C161.342 156.19 162.97 158.423 162.313 160.073C162.313 160.073 159.338 155.16 156.918 155.101C154.498 155.042 156.088 152.1 158.751 149.146Z" fill="#6C63FF"/>
<path opacity="0.1" d="M158.751 149.146C158.632 149.315 158.539 149.5 158.474 149.696C156.113 152.453 154.855 155.026 157.125 155.09C159.24 155.151 161.776 158.909 162.384 159.856C162.365 159.933 162.342 160.008 162.313 160.082C162.313 160.082 159.338 155.169 156.918 155.11C154.498 155.051 156.088 152.1 158.751 149.146Z" fill="black"/>
<path d="M156.242 151.378C156.242 151.995 156.313 152.495 156.399 152.495C156.486 152.495 156.554 151.995 156.554 151.378C156.554 150.761 156.467 151.057 156.383 151.057C156.299 151.057 156.242 150.761 156.242 151.378Z" fill="#FFD037"/>
<path d="M155.383 152.116C155.929 152.41 156.404 152.589 156.445 152.514C156.486 152.44 156.076 152.139 155.535 151.836C154.994 151.533 155.205 151.755 155.164 151.836C155.123 151.918 154.837 151.82 155.383 152.116Z" fill="#FFD037"/>
<path d="M162.312 173.476C170.1 173.476 176.414 172.514 176.414 171.327C176.414 170.14 170.1 169.178 162.312 169.178C154.524 169.178 148.211 170.14 148.211 171.327C148.211 172.514 154.524 173.476 162.312 173.476Z" fill="#EAE9FF"/>
<path d="M169.576 157.712L169.508 158.259L169.414 159.031L169.373 159.355L169.28 160.127L169.239 160.451L169.144 161.221L168.066 170.012C167.968 170.796 166.678 171.408 165.109 171.408H159.509C157.951 171.408 156.664 170.796 156.568 170.012L155.486 161.228L155.392 160.457L155.351 160.134L155.256 159.361L155.217 159.038L155.122 158.265L155.054 157.719C155.001 157.267 155.699 156.9 156.58 156.9H168.047C168.928 156.894 169.626 157.267 169.576 157.712Z" fill="#65617D"/>
<path d="M169.502 158.258L169.409 159.031H155.217L155.121 158.258H169.502Z" fill="#9D9CB5"/>
<path d="M169.369 159.352L169.275 160.124H155.351L155.256 159.352H169.369Z" fill="#9D9CB5"/>
<path d="M169.233 160.447L169.137 161.22H155.484L155.391 160.447H169.233Z" fill="#9D9CB5"/>
<path opacity="0.2" d="M108.616 73.7188H43.7946C42.7269 73.7188 41.8613 74.5787 41.8613 75.6396V121.861C41.8613 122.922 42.7269 123.782 43.7946 123.782H108.616C109.684 123.782 110.549 122.922 110.549 121.861V75.6396C110.549 74.5787 109.684 73.7188 108.616 73.7188Z" fill="#6C63FF"/>
<path d="M255.886 129.399C255.973 129.173 255.331 127.88 255.331 127.817C255.331 127.754 254.669 127.037 254.669 126.637C254.669 126.238 253.794 125.372 253.794 125.372C253.794 125.372 252.618 124.888 252.491 123.833C252.363 122.778 251.083 122.76 251.08 122.76C251.08 122.76 251.08 122.665 251.08 122.518C251.106 122.101 251.053 121.683 250.923 121.286C250.772 120.995 250.512 120.775 250.198 120.674C250.198 120.674 250.068 119.851 249.813 119.598C249.671 119.45 249.569 119.269 249.517 119.072C249.464 118.874 249.463 118.667 249.513 118.468C249.643 118.071 249.343 117.058 248.724 116.909C248.105 116.76 247.398 116.529 247.398 116.529L247.227 116.559L247.143 116.529C246.993 116.558 246.841 116.577 246.688 116.586C246.558 116.59 246.43 116.548 246.327 116.468C246.113 116.242 244.382 115.79 244.052 115.79C243.723 115.79 242.813 115.368 242.813 115.368C242.813 115.368 242.171 114.884 241.903 114.672C241.635 114.459 241.168 113.689 241.098 113.571V113.556C241.019 113.376 240.955 113.191 240.905 113.002C241.217 112.677 241.484 112.311 241.698 111.915C241.721 111.874 241.742 111.834 241.762 111.791C241.809 111.791 241.856 111.784 241.901 111.77L241.958 111.748C242.065 111.692 242.161 111.616 242.239 111.524C242.317 111.431 242.376 111.325 242.412 111.21C242.429 111.164 242.442 111.117 242.453 111.07C242.453 111.054 242.453 111.038 242.453 111.022L242.474 110.927C242.473 110.909 242.473 110.891 242.474 110.873L242.488 110.778V110.724C242.488 110.683 242.488 110.645 242.503 110.604C242.517 110.453 242.539 110.302 242.569 110.152C242.697 109.581 243.045 109.097 243.288 108.57C243.322 108.496 243.356 108.419 243.386 108.344C243.415 108.27 243.445 108.175 243.47 108.089L243.491 108.01C243.506 107.947 243.52 107.883 243.534 107.82C243.547 107.757 243.534 107.764 243.55 107.734C243.563 107.648 243.575 107.56 243.584 107.47C243.624 106.966 243.546 106.459 243.356 105.99C243.197 105.594 242.958 105.237 242.797 104.842C242.551 104.243 242.485 103.563 242.187 102.991C241.944 102.527 241.543 102.164 241.056 101.967C240.568 101.77 240.026 101.752 239.526 101.915C239.071 102.087 238.657 102.419 238.187 102.568C237.554 102.77 236.881 102.618 236.226 102.53C235.571 102.442 234.861 102.431 234.325 102.855C233.72 103.344 233.556 104.261 232.987 104.797C232.76 105.023 232.453 105.165 232.2 105.373C232.023 105.514 231.886 105.7 231.804 105.911L231.791 105.954C231.785 105.972 231.78 105.991 231.777 106.01C231.772 106.031 231.768 106.052 231.766 106.073C231.765 106.088 231.765 106.102 231.766 106.116C231.761 106.154 231.761 106.192 231.766 106.229C231.769 106.265 231.774 106.3 231.782 106.335V106.365C231.782 106.394 231.798 106.424 231.809 106.453C231.82 106.482 231.809 106.464 231.809 106.469C231.809 106.473 231.834 106.534 231.848 106.566L231.868 106.613C231.868 106.627 231.868 106.641 231.886 106.652C231.968 106.809 232.034 106.973 232.084 107.142C232.111 107.25 232.103 107.362 232.064 107.465C232.01 107.583 231.932 107.688 231.836 107.775C231.411 108.214 231.082 108.737 230.872 109.309C230.846 109.376 230.823 109.441 230.804 109.506H230.833C230.894 109.523 230.957 109.536 231.02 109.544C231.055 109.546 231.091 109.546 231.127 109.544C231.273 109.553 231.42 109.542 231.563 109.513L231.673 109.486C231.821 109.447 231.966 109.395 232.105 109.33C232.105 109.373 232.105 109.416 232.105 109.459C232.105 109.501 232.105 109.506 232.105 109.531C232.106 110.463 232.369 111.377 232.865 112.169C233.36 112.961 234.068 113.6 234.909 114.014C234.909 114.059 234.92 114.105 234.927 114.15L234.941 114.265L234.884 114.211C234.884 114.211 234.5 114.021 234.136 114.568C233.869 114.927 233.507 115.205 233.09 115.37C233.09 115.37 229.2 115.98 229.05 116.486L227.231 116.593C227.231 116.593 226.589 116.676 226.526 118.005C226.462 119.334 226.121 119.458 226.121 119.458C226.121 119.458 225.372 120.767 225.438 121.44C225.446 121.645 225.397 121.849 225.294 122.028C225.192 122.207 225.042 122.354 224.861 122.452L224.776 123.655C224.776 123.655 224.071 123.548 223.867 124.371C223.785 124.806 223.603 125.217 223.334 125.571C223.334 125.571 222.159 126.543 222.095 127.363L221.367 127.815C221.367 127.815 219.679 127.435 219.295 126.762C219.295 126.762 219.25 126.717 219.177 126.651V126.635C218.924 126.409 218.39 125.903 218.472 126.018C218.522 126.124 218.534 126.244 218.506 126.357L218.381 126.219L218.044 125.849C218.044 125.849 215.315 123.309 213.723 123.108C213.702 123.067 213.598 122.656 213.325 122.916C213.099 123.122 212.918 123.372 212.794 123.651C212.67 123.93 212.605 124.231 212.604 124.536C212.602 124.841 212.664 125.143 212.785 125.422C212.907 125.702 213.085 125.955 213.309 126.163L215.865 128.533L215.931 128.581L216.479 129.281C216.386 129.507 216.309 129.715 216.252 129.91V129.93L216.211 130.052C216.206 130.065 216.202 130.079 216.2 130.093C216.186 130.133 216.175 130.172 216.163 130.21L216.143 130.278C216.143 130.292 216.143 130.305 216.143 130.319C216.081 130.531 216.043 130.694 216.024 130.784L215.881 130.739L216.02 130.8V130.82C216.02 130.85 216.02 130.866 216.02 130.866L216.152 130.922C216.9 131.245 220.635 132.875 220.826 133.121C221.017 133.367 222.45 134.197 223.732 133.521C225.015 132.845 225.29 131.815 225.29 131.815C225.29 131.815 226.53 130.106 226.573 129.853C226.616 129.6 227.576 129.306 227.576 129.306C227.576 129.306 227.663 132.129 227.171 133.164C226.68 134.199 225.761 138.77 225.761 138.77C225.822 138.762 225.883 138.762 225.943 138.77L225.889 139.035C225.964 139.021 226.041 139.021 226.116 139.035C226.048 139.554 225.661 141.972 225.661 141.972C225.661 141.972 225.534 143.068 225.32 143.448C225.106 143.828 225.093 145.81 225.093 145.81L224.749 147.242C224.749 147.242 224.795 147.342 224.879 147.489C225.109 147.976 225.444 148.408 225.861 148.752C225.834 148.977 225.776 149.198 225.689 149.407C225.556 149.728 225.497 150.074 225.518 150.42C225.518 150.42 225.156 152.042 225.197 152.505C225.238 152.969 224.97 154.108 224.97 154.108L224.585 157.775C224.585 157.775 224.331 160.957 224.458 161.823C224.519 162.501 224.49 163.185 224.372 163.856C224.372 163.856 224.629 166.365 224.565 166.638C224.501 166.912 224.181 168.093 224.372 168.747C224.563 169.4 224.458 171.192 224.458 171.192C224.458 171.192 224.585 173.553 224.736 174.312C224.816 174.887 224.801 175.471 224.692 176.041C224.692 176.041 224.542 177.664 224.479 177.664C224.415 177.664 223.86 178.78 224.99 179.876C226.121 180.972 225.42 180.803 225.42 180.803C225.42 180.803 224.51 180.351 224.629 181.268C224.729 182.129 224.87 181.905 224.883 181.88L224.67 182.574L224.82 182.595L224.697 182.741C224.568 182.906 224.423 183.057 224.265 183.193C224.098 183.355 223.999 183.573 223.987 183.804C223.987 183.804 222.406 185.512 220.933 186.375C220.157 186.827 219.488 187.214 219.197 187.534C218.933 187.819 218.97 188.05 219.523 188.23C220.676 188.61 222.707 188.8 224.158 188.314C225.027 188.028 225.81 187.528 226.432 186.861C226.432 186.861 227.342 186.396 228.252 186.565C229.162 186.735 230.945 185.575 230.945 185.575L230.911 185.277L230.817 184.414C230.757 184.341 230.713 184.257 230.687 184.167C230.661 184.077 230.654 183.982 230.667 183.889C230.678 183.634 230.653 183.378 230.592 183.13C230.576 183.047 230.56 182.963 230.544 182.886L230.708 182.854C230.708 182.854 230.497 181.781 230.881 181.569C231.265 181.356 231.156 178.597 231.156 178.597C231.156 178.597 230.667 177.964 230.41 177.86C230.153 177.756 230.387 176.446 230.433 176.278C230.478 176.111 230.817 172.841 230.817 172.841C230.817 172.841 230.688 171.811 230.858 171.368C231.029 170.925 230.645 169.217 230.645 169.217C230.609 169.138 230.6 169.051 230.62 168.967C230.639 168.883 230.685 168.808 230.751 168.753C230.979 168.5 230.902 166.245 230.902 166.245C230.902 166.245 230.881 165.115 230.881 164.81C230.881 164.505 231.136 163.441 231.372 163.083C231.609 162.726 231.456 161.608 231.456 161.608L231.47 161.524C231.47 161.493 231.47 161.452 231.488 161.404L231.507 161.291C231.611 160.674 231.751 160.063 231.925 159.461C232.203 158.577 232.523 157.018 232.523 157.018L234.509 151.87L234.532 151.809C234.532 151.809 235.441 153.495 235.441 155.057C235.441 155.057 235.669 156.932 235.614 157.439C235.56 157.945 235.762 160.324 235.762 160.324C235.762 160.324 236.039 163.739 236.039 163.886C236.039 164.033 236.383 166.668 236.597 167.07C236.811 167.472 236.383 168.692 236.253 168.819C236.124 168.945 236.296 172.044 236.296 172.044C236.296 172.044 235.976 174.489 235.912 174.995C235.848 175.501 235.591 177.44 235.805 178.199C236.019 178.959 235.933 179.063 235.933 179.063C235.933 179.063 236.704 179.844 236.253 179.908C236.09 179.943 235.936 180.013 235.802 180.112C235.668 180.212 235.557 180.338 235.476 180.484C235.395 180.629 235.346 180.79 235.332 180.956C235.319 181.121 235.341 181.288 235.398 181.444C235.666 182.216 235.98 182.97 236.34 183.704L236.695 183.63V183.88L236.72 185.137C236.72 185.137 236.87 186.337 236.783 186.612C236.722 186.811 236.635 187.756 236.594 188.251C236.579 188.432 236.569 188.551 236.569 188.551C236.569 188.551 236.569 189.668 238.942 189.331C241.314 188.994 241.739 188.066 241.739 188.066L241.757 187.95C241.792 187.738 241.869 187.286 241.933 187.033C242.017 186.696 241.25 185.178 241.25 185.178C241.25 185.178 241.123 184.145 240.909 183.914C240.819 183.778 240.76 183.624 240.736 183.462C240.718 183.376 240.7 183.288 240.686 183.202C240.74 183.209 240.793 183.218 240.845 183.23C240.845 183.23 240.716 182.493 241.209 182.26C241.703 182.027 241.571 181.544 241.507 181.334C241.444 181.123 241.698 179.942 241.698 179.942C241.662 179.824 241.659 179.699 241.689 179.579C241.719 179.46 241.781 179.351 241.869 179.264C242.169 178.968 242.403 176.902 242.403 176.902L242.447 168.934C242.447 168.934 242.597 167.522 242.426 166.952C242.256 166.383 242.085 165.287 242.319 164.991C242.553 164.695 242.34 163.328 242.34 163.328C242.34 163.328 242.34 160.44 242.66 159.712C242.981 158.984 242.874 154.462 242.874 154.462L242.958 151.491C242.958 151.491 243.657 150.835 243.493 147.423C244.237 147.376 245.085 147.349 245.203 147.452C245.431 147.642 246.955 148.612 247.853 147.999C248.224 147.746 248.58 147.472 248.92 147.179L248.542 140.852C248.77 141.204 248.92 141.437 248.92 141.437C248.92 140.553 251.442 137.686 251.442 137.686C251.442 137.686 253.791 134.671 254.303 134.314C254.815 133.957 255.82 132.054 255.82 132.054C255.969 131.693 256.141 131.341 256.334 131.001C256.571 130.642 255.802 129.629 255.886 129.399ZM250.375 131.611C249.734 131.675 248.387 133.13 248.367 133.446C248.32 133.655 248.223 133.849 248.083 134.011C248.083 133.885 248.062 133.756 248.051 133.625C247.901 131.76 247.737 129.492 247.823 129.272C247.951 128.893 247.908 127.184 247.908 127.184L247.933 127.15C248.362 128.475 249.7 130.034 249.7 130.034C249.7 130.034 249.927 130.712 250.214 130.728C250.5 130.744 250.375 131.611 250.375 131.611Z" fill="url(#paint1_linear)"/>
<path d="M216.121 131.13C216.121 131.13 216.901 127.062 219.405 127.062L221.239 130.807L220.017 131.643C220.017 131.643 217.363 131.715 216.121 131.13Z" fill="#65617D"/>
<path opacity="0.1" d="M221.239 130.795L220.017 131.631C220.017 131.631 218.15 131.69 216.815 131.364C216.577 131.312 216.344 131.236 216.121 131.138L216.135 131.073V131.059C216.249 130.549 216.407 130.05 216.608 129.568C216.685 129.385 216.772 129.197 216.867 129.009C217.233 128.309 217.75 127.62 218.459 127.281C218.719 127.15 219.003 127.073 219.294 127.055H219.405L219.446 127.138L220.065 128.404L221.239 130.795Z" fill="black"/>
<path d="M242.04 147.655C242.04 147.655 244.672 147.405 244.904 147.594C245.136 147.784 246.63 148.745 247.513 148.137C248.395 147.529 247.808 145.425 247.808 145.335C247.808 145.244 247.724 142.259 247.724 142.259L246.146 140.146L244.167 136.445L240.123 136.047L240.228 141.922L240.207 144.935L242.04 147.655Z" fill="#65617D"/>
<path opacity="0.1" d="M242.04 147.655C242.04 147.655 244.672 147.405 244.904 147.594C245.136 147.784 246.63 148.745 247.513 148.137C248.395 147.529 247.808 145.425 247.808 145.335C247.808 145.244 247.724 142.259 247.724 142.259L246.146 140.146L244.167 136.445L240.123 136.047L240.228 141.922L240.207 144.935L242.04 147.655Z" fill="black"/>
<path d="M218.879 126.947C218.879 126.947 218.668 129.498 217.06 129.541C217.06 129.541 216.605 129.27 215.995 128.816C214.59 127.769 212.356 125.76 212.975 123.892C213.86 121.214 218.154 126.151 218.154 126.151L218.486 126.52L218.879 126.947Z" fill="#FBBEBE"/>
<path opacity="0.1" d="M218.88 126.946C218.88 126.946 218.668 129.497 217.06 129.54C217.06 129.54 216.605 129.269 215.996 128.815L215.859 128.641C216.132 128.779 216.432 128.856 216.737 128.867C216.978 128.876 217.215 128.813 217.418 128.685C217.621 128.557 217.781 128.37 217.875 128.15C218.047 127.822 218.199 127.483 218.329 127.136C218.405 126.933 218.459 126.723 218.491 126.51L218.88 126.946Z" fill="black"/>
<path d="M218.184 131.57L217.825 131.118L216.612 129.568L215.996 128.774C216.268 128.913 216.567 128.99 216.872 129C217.112 129.011 217.35 128.948 217.554 128.82C217.757 128.692 217.916 128.505 218.009 128.284C218.178 127.956 218.326 127.618 218.452 127.272C218.653 126.707 218.648 126.418 218.578 126.318C218.507 126.219 219.032 126.698 219.274 126.933L219.39 127.041L219.433 127.127L220.067 128.347C220.069 128.365 220.069 128.382 220.067 128.399C220.113 128.784 220.317 131.222 218.184 131.57Z" fill="#E7EFFD"/>
<path d="M230.798 185.407C230.798 185.407 229.028 186.559 228.143 186.39C227.531 186.313 226.909 186.415 226.353 186.684C225.745 187.345 224.977 187.842 224.122 188.128C222.689 188.609 220.69 188.419 219.553 188.044C219.016 187.866 218.973 187.635 219.232 187.353C219.491 187.07 220.178 186.654 220.943 186.202C222.396 185.344 223.954 183.651 223.954 183.651C223.964 183.421 224.061 183.204 224.227 183.043C224.383 182.907 224.526 182.755 224.652 182.591C224.88 182.327 225.091 182.049 225.091 182.049L230.302 182.243C230.302 182.243 230.391 182.616 230.461 182.998C230.52 183.244 230.545 183.497 230.534 183.75C230.521 183.843 230.528 183.937 230.553 184.027C230.578 184.117 230.622 184.2 230.682 184.272L230.775 185.127L230.798 185.407Z" fill="#65617D"/>
<path d="M241.674 186.857C241.613 187.108 241.535 187.555 241.501 187.761C241.501 187.831 241.485 187.876 241.485 187.876C241.485 187.876 241.065 188.796 238.726 189.13C236.388 189.465 236.391 188.357 236.391 188.357L236.413 188.057C236.454 187.569 236.538 186.631 236.6 186.432C236.684 186.161 236.538 184.968 236.538 184.968L236.513 183.72L236.495 182.855L240.362 182.457C240.387 182.745 240.428 183.031 240.487 183.313C240.509 183.475 240.568 183.629 240.657 183.765C240.867 183.991 240.994 185.02 240.994 185.02C240.994 185.02 241.765 186.522 241.674 186.857Z" fill="#65617D"/>
<path opacity="0.1" d="M230.303 182.244C230.303 182.244 230.392 182.617 230.462 182.998C229.9 183.1 227.444 183.523 226.823 183.224C226.127 182.89 224.633 182.702 224.633 182.702L224.658 182.617C224.885 182.352 225.097 182.074 225.097 182.074L230.303 182.244Z" fill="black"/>
<path opacity="0.1" d="M240.5 183.321C239.52 183.156 237.366 183.547 236.52 183.728L236.502 182.863L240.368 182.465C240.396 182.753 240.44 183.039 240.5 183.321Z" fill="black"/>
<path d="M242.691 151.61L242.61 154.547C242.61 154.547 242.714 159.044 242.398 159.745C242.082 160.445 242.082 163.322 242.082 163.322C242.082 163.322 242.293 164.678 242.061 164.974C241.829 165.27 241.998 166.355 242.166 166.92C242.334 167.485 242.186 168.886 242.186 168.886L242.146 176.795C242.146 176.795 241.918 178.845 241.618 179.138C241.532 179.226 241.47 179.335 241.441 179.455C241.411 179.574 241.414 179.699 241.45 179.816C241.45 179.816 241.197 180.987 241.261 181.197C241.324 181.407 241.45 181.886 240.967 182.117C240.485 182.347 240.608 183.08 240.608 183.08C239.45 182.806 236.166 183.531 236.166 183.531C235.812 182.804 235.502 182.056 235.238 181.292C235.181 181.137 235.159 180.972 235.171 180.807C235.184 180.643 235.232 180.483 235.312 180.338C235.392 180.194 235.502 180.068 235.634 179.969C235.767 179.87 235.92 179.8 236.082 179.764C236.523 179.703 235.766 178.928 235.766 178.928C235.766 178.928 235.85 178.824 235.638 178.07C235.427 177.315 235.682 175.392 235.745 174.89C235.809 174.388 236.123 171.952 236.123 171.952C236.123 171.952 235.955 168.877 236.082 168.752C236.209 168.628 236.628 167.412 236.419 167.017C236.209 166.621 235.87 164.005 235.87 163.853C235.87 163.702 235.597 160.317 235.597 160.317C235.597 160.317 235.345 157.953 235.409 157.451C235.472 156.949 235.238 155.087 235.238 155.087C235.238 153.539 234.328 151.865 234.328 151.865L234.306 151.926L232.35 157.069C232.35 157.069 232.033 158.617 231.76 159.496C231.588 160.09 231.451 160.694 231.349 161.304L231.331 161.417L231.312 161.535L231.299 161.618C231.299 161.618 231.444 162.726 231.212 163.083C230.954 163.623 230.791 164.203 230.73 164.798C230.73 165.092 230.751 166.221 230.751 166.221C230.751 166.221 230.835 168.459 230.603 168.707C230.539 168.762 230.495 168.835 230.476 168.916C230.457 168.997 230.465 169.083 230.498 169.159C230.498 169.159 230.876 170.854 230.707 171.292C230.539 171.731 230.666 172.757 230.666 172.757C230.666 172.757 230.33 176 230.287 176.167C230.243 176.334 230.014 177.631 230.266 177.735C230.519 177.839 231.003 178.467 231.003 178.467C231.003 178.467 231.108 181.208 230.73 181.416C230.353 181.624 230.56 182.693 230.56 182.693C230.56 182.693 227.507 183.278 226.814 182.944C226.12 182.609 224.623 182.422 224.623 182.422L224.833 181.744C224.819 181.769 224.68 181.993 224.582 181.136C224.475 180.232 225.36 180.684 225.36 180.684C225.36 180.684 226.056 180.851 224.939 179.764C223.823 178.677 224.371 177.568 224.434 177.568C224.498 177.568 224.644 175.957 224.644 175.957C224.751 175.391 224.766 174.812 224.687 174.241C224.539 173.489 224.414 171.146 224.414 171.146C224.414 171.146 224.519 169.367 224.328 168.719C224.137 168.07 224.455 166.911 224.519 166.626C224.582 166.341 224.328 163.864 224.328 163.864C224.446 163.193 224.475 162.509 224.414 161.831C224.287 160.972 224.539 157.813 224.539 157.813L224.919 154.174C224.919 154.174 225.192 153.045 225.146 152.593C225.101 152.141 225.463 150.523 225.463 150.523C225.442 150.179 225.5 149.835 225.631 149.517C225.842 149.099 225.927 147.709 225.927 147.709L227.948 143.108L228.938 139.041L242.307 138.914C242.307 138.914 242.355 139.267 242.437 139.906C242.519 140.546 242.632 141.488 242.76 142.661C242.876 143.723 243.003 144.973 243.128 146.362C243.535 150.814 242.691 151.61 242.691 151.61Z" fill="#3F3D56"/>
<path d="M241.447 114.98L238.333 118.291C238.333 118.291 234.335 116.709 234.755 116.155C234.917 115.945 234.892 115.281 234.799 114.548C234.651 113.389 234.344 112.063 234.344 112.063C234.344 112.063 241.333 110.933 240.742 112.103C240.554 112.545 240.538 113.041 240.698 113.493C240.867 114.025 241.12 114.527 241.447 114.98Z" fill="#FBBEBE"/>
<path opacity="0.1" d="M240.733 112.092C240.519 112.521 240.416 112.562 240.551 113.023C239.641 113.997 238.474 115.056 237.028 115.056C236.254 115.057 235.491 114.879 234.799 114.537C234.651 113.377 234.344 112.051 234.344 112.051C234.344 112.051 241.324 110.921 240.733 112.092Z" fill="black"/>
<path d="M242.041 109.96C242.041 111.281 241.513 112.547 240.573 113.481C239.633 114.415 238.358 114.939 237.029 114.939C235.7 114.939 234.425 114.415 233.485 113.481C232.546 112.547 232.018 111.281 232.018 109.96C232.018 109.935 232.018 109.912 232.018 109.888C232.022 109.234 232.157 108.587 232.413 107.985C232.669 107.383 233.042 106.837 233.511 106.378C233.98 105.919 234.535 105.556 235.144 105.311C235.754 105.065 236.407 104.941 237.065 104.945C237.723 104.95 238.373 105.084 238.979 105.338C239.585 105.593 240.135 105.963 240.597 106.429C241.059 106.895 241.424 107.446 241.671 108.052C241.919 108.658 242.044 109.306 242.039 109.96H242.041Z" fill="#FBBEBE"/>
<path opacity="0.1" d="M242.766 142.805C242.102 142.805 239.891 142.827 237.421 142.868H237.392L236.575 142.882H236.55C233.621 142.927 230.734 142.36 229.575 142.466C227.111 142.692 230.459 140.206 230.459 140.206C232.295 140.648 234.183 140.837 236.07 140.769L236.78 140.733C239.018 140.606 241.267 140.398 242.443 140.055C242.525 140.696 242.639 141.637 242.766 142.805Z" fill="black"/>
<path d="M242.766 142.68C242.102 142.68 239.891 142.704 237.421 142.743H237.392L236.575 142.756H236.55C233.621 142.804 230.734 142.234 229.575 142.343C227.111 142.569 230.459 140.083 230.459 140.083C232.295 140.526 234.183 140.715 236.07 140.646L236.78 140.61C239.018 140.485 241.267 140.275 242.443 139.932C242.525 140.571 242.639 141.511 242.766 142.68Z" fill="#5F5D7E"/>
<path opacity="0.1" d="M235.682 116.36L231.815 118.168L228.824 141.136C228.824 141.136 230.594 140.341 231.604 140.843C232.613 141.344 235.729 140.886 235.729 140.886C235.729 140.886 238.004 140.759 238.34 141.012C238.677 141.265 242.637 139.966 242.637 139.966C242.637 139.966 243.353 138.384 242.805 138.124C242.257 137.864 242.973 135.412 242.973 135.412L242.637 118.844L241.955 116.71L240.135 115.621L238.284 117.085L237.399 117.212L235.682 116.36Z" fill="black"/>
<path d="M235.683 116.11L231.816 117.918L228.818 140.888C228.818 140.888 230.588 140.093 231.598 140.595C232.608 141.096 235.724 140.638 235.724 140.638C235.724 140.638 237.998 140.511 238.335 140.762C238.671 141.013 242.631 139.718 242.631 139.718C242.631 139.718 243.347 138.136 242.799 137.876C242.251 137.616 242.968 135.164 242.968 135.164L242.631 118.596L241.949 116.462L240.129 115.373L238.278 116.837L237.393 116.964L235.683 116.11Z" fill="#E7EFFD"/>
<path opacity="0.1" d="M235.618 117.177C235.618 117.177 236.735 118.495 236.714 118.759C236.694 119.024 236.651 119.681 236.651 119.681L235.809 121.374C235.809 121.374 235.354 123.487 235.354 123.927C235.354 124.368 234.617 128.173 234.617 128.173L233.714 134.038L232.598 141.721L233.735 143.667L235.084 142.537L236.874 128.856L237.251 126.158C237.251 126.158 237.651 121.304 237.651 120.802C237.609 120.192 237.533 119.585 237.424 118.983C237.424 118.983 237.699 117.726 238.836 117.435C239.974 117.143 238.75 117.372 238.75 117.372L238.1 116.85L237.531 117.076C237.531 117.076 235.955 116.592 235.618 117.177Z" fill="black"/>
<path d="M235.493 117.05C235.493 117.05 236.607 118.367 236.587 118.632C236.566 118.896 236.523 119.552 236.523 119.552L235.681 121.246C235.681 121.246 235.226 123.359 235.226 123.798C235.226 124.236 234.489 128.044 234.489 128.044L233.607 133.901L232.49 141.585L233.627 143.53L234.974 142.4L236.764 128.719L237.144 126.021C237.144 126.021 237.544 121.167 237.544 120.666C237.501 120.055 237.425 119.447 237.317 118.844C237.317 118.844 237.59 117.59 238.727 117.296C239.864 117.002 238.643 117.235 238.643 117.235L237.99 116.711L237.421 116.937C237.421 116.937 235.829 116.465 235.493 117.05Z" fill="#6C63FF"/>
<path opacity="0.1" d="M234.756 114.854C234.756 114.854 234.588 114.98 234.544 115.816C234.501 116.652 233.912 118.528 233.912 118.528C233.912 118.528 236.102 117.023 237.196 117.19L234.756 114.854Z" fill="black"/>
<path d="M234.756 114.604C234.756 114.604 234.588 114.73 234.544 115.566C234.501 116.402 233.912 118.278 233.912 118.278C233.912 118.278 236.102 116.773 237.196 116.94L234.756 114.604Z" fill="#E7EFFD"/>
<path opacity="0.1" d="M240.736 114.186L237.283 117.198C237.283 117.198 240.188 118.913 240.567 119.331C240.947 119.749 241.325 115.232 241.325 115.232L240.736 114.186Z" fill="black"/>
<path d="M240.861 113.934L237.408 116.946C237.408 116.946 240.315 118.661 240.693 119.079C241.07 119.497 241.45 114.98 241.45 114.98L240.861 113.934Z" fill="#E7EFFD"/>
<path opacity="0.1" d="M234.882 114.853C234.882 114.853 234.504 114.666 234.145 115.211C233.882 115.565 233.525 115.84 233.114 116.004C233.114 116.004 229.282 116.612 229.134 117.113L227.344 117.217C227.344 117.217 226.712 117.301 226.662 118.621C226.612 119.94 226.261 120.062 226.261 120.062C226.261 120.062 225.524 121.359 225.579 122.028C225.587 122.232 225.538 122.434 225.438 122.611C225.338 122.789 225.19 122.935 225.01 123.034L227.642 129.831C227.642 129.831 227.726 132.636 227.242 133.66C226.757 134.683 225.852 139.225 225.852 139.225C225.852 139.225 226.232 139.142 226.209 139.393C226.186 139.643 225.754 142.385 225.754 142.385C225.754 142.385 225.627 143.472 225.418 143.849C225.208 144.226 225.19 146.19 225.19 146.19L224.854 147.614C224.854 147.614 225.652 149.392 226.873 149.141C228.095 148.891 230.303 144.14 230.303 144.14L231.713 139.015L232.809 133.953L233.126 130.523L233.631 122.928L234.367 117.909C234.367 117.909 235.177 115.211 234.882 114.853Z" fill="black"/>
<path d="M234.755 114.603C234.755 114.603 234.375 114.416 234.018 114.961C233.755 115.315 233.397 115.59 232.985 115.754C232.985 115.754 229.153 116.362 229.005 116.863L227.217 116.967C227.217 116.967 226.585 117.051 226.521 118.368C226.458 119.686 226.121 119.812 226.121 119.812C226.121 119.812 225.384 121.109 225.439 121.778C225.447 121.982 225.399 122.184 225.298 122.361C225.198 122.539 225.05 122.685 224.87 122.784L227.511 129.59C227.511 129.59 227.595 132.395 227.111 133.419C226.626 134.442 225.721 138.984 225.721 138.984C225.721 138.984 226.101 138.901 226.08 139.152C226.06 139.402 225.625 142.141 225.625 142.141C225.625 142.141 225.5 143.231 225.289 143.606C225.077 143.981 225.061 145.949 225.061 145.949L224.725 147.373C224.725 147.373 225.525 149.151 226.747 148.898C227.968 148.645 230.179 143.899 230.179 143.899L231.589 138.774L232.683 133.712L232.985 130.268L233.49 122.673L234.227 117.654C234.227 117.654 235.048 114.961 234.755 114.603Z" fill="#65617D"/>
<path opacity="0.1" d="M221.239 130.796L220.017 131.632C220.017 131.632 218.15 131.69 216.815 131.365L216.133 131.064L215.996 131.006L216.137 131.051C216.679 131.243 217.268 131.263 217.822 131.11C219.551 130.531 219.36 127.697 219.292 127.056C219.292 126.99 219.28 126.949 219.278 126.934V126.949C219.302 126.988 219.329 127.025 219.358 127.06L219.435 127.141L220.067 128.348C220.069 128.366 220.069 128.383 220.067 128.4L221.239 130.796Z" fill="black"/>
<path d="M225.47 122.617L224.881 122.784L224.796 123.975C224.796 123.975 224.114 123.871 223.912 124.687C223.831 125.12 223.651 125.528 223.386 125.88C223.386 125.88 222.229 126.843 222.165 127.659L221.448 128.097C221.448 128.097 219.786 127.72 219.401 127.051C219.401 127.051 220.161 132.447 216.117 131.119C216.117 131.119 220.643 133.085 220.855 133.358C221.066 133.631 222.447 134.425 223.718 133.756C224.99 133.087 225.256 132.061 225.256 132.061C225.256 132.061 226.477 130.366 226.518 130.115C226.559 129.864 227.508 129.571 227.508 129.571L229.327 125.22L225.47 122.617Z" fill="#65617D"/>
<path opacity="0.1" d="M240.25 116.695L240.86 113.934C240.86 113.934 241.135 114.838 241.408 115.043L242.318 115.721C242.318 115.721 243.227 116.139 243.539 116.139C243.851 116.139 245.561 116.591 245.77 116.817C245.979 117.043 246.823 116.88 246.823 116.88C246.823 116.88 247.517 117.106 248.129 117.258C248.741 117.409 249.039 118.408 248.907 118.806C248.856 119.004 248.856 119.211 248.908 119.408C248.96 119.606 249.061 119.787 249.202 119.936C249.455 120.186 249.582 121.002 249.582 121.002C249.891 121.103 250.148 121.32 250.296 121.608C250.508 122.06 250.444 123.072 250.444 123.072L247.308 127.465C247.308 127.465 247.349 129.16 247.224 129.537C247.099 129.915 247.665 136.317 247.665 136.317L248.318 147.32C247.983 147.612 247.631 147.884 247.265 148.136C247.076 148.219 246.887 144.244 246.887 144.1C246.887 143.955 242.022 136.868 242.022 136.868C242.022 136.868 241.369 135.822 241.369 135.591C241.369 135.361 240.76 133.248 240.76 133.248L239.834 129.18L240.25 116.695Z" fill="black"/>
<path d="M250.703 122.837C250.703 122.981 250.703 123.076 250.703 123.076L247.569 127.465C247.569 127.465 247.612 129.159 247.485 129.537C247.412 129.763 247.571 132.007 247.712 133.855C247.819 135.189 247.917 136.314 247.917 136.314L248.194 140.981L248.57 147.308C248.235 147.6 247.883 147.872 247.517 148.124C247.328 148.207 247.139 144.232 247.139 144.085C247.139 143.939 242.274 136.854 242.274 136.854C242.274 136.854 241.621 135.808 241.621 135.577C241.621 135.347 241.012 133.234 241.012 133.234L240.086 129.166L240.507 116.699L240.864 113.938C240.864 113.938 241.391 114.841 241.664 115.045L242.574 115.736C242.574 115.736 243.484 116.154 243.796 116.154C244.107 116.154 245.818 116.606 246.027 116.832C246.236 117.058 247.08 116.896 247.08 116.896C247.08 116.896 247.776 117.122 248.385 117.273C248.995 117.424 249.295 118.423 249.163 118.821C249.113 119.019 249.113 119.226 249.165 119.424C249.217 119.621 249.318 119.802 249.459 119.951C249.711 120.202 249.839 121.017 249.839 121.017C250.148 121.118 250.405 121.335 250.553 121.623C250.677 122.015 250.727 122.426 250.703 122.837Z" fill="#65617D"/>
<path opacity="0.1" d="M224.965 178.574C225.069 178.574 229.491 178.741 229.407 179.453C229.323 180.165 224.965 178.574 224.965 178.574Z" fill="black"/>
<path opacity="0.1" d="M225.953 179.758C225.953 179.758 228.921 180.239 228.143 180.678C227.366 181.116 225.953 179.758 225.953 179.758Z" fill="black"/>
<path opacity="0.1" d="M236.986 178.115C236.986 178.115 241.913 178.533 241.176 179.076C240.439 179.618 238.692 179.704 238.608 179.724C238.524 179.745 236.986 178.115 236.986 178.115Z" fill="black"/>
<path opacity="0.1" d="M236.398 180.268C236.398 180.268 239.128 180.72 239.219 181.251C239.31 181.782 236.398 180.268 236.398 180.268Z" fill="black"/>
<path opacity="0.1" d="M237.912 167.676C237.912 167.676 240.414 168.261 240.566 168.659L237.912 167.676Z" fill="black"/>
<path opacity="0.1" d="M228.255 169.473C228.255 169.473 226.949 169.85 228.214 170.603C229.478 171.355 228.255 169.473 228.255 169.473Z" fill="black"/>
<path opacity="0.1" d="M234.039 149.369C234.187 149.369 236.482 148.616 237.282 148.951C237.855 149.163 238.459 149.276 239.07 149.285L234.039 149.369Z" fill="black"/>
<path opacity="0.1" d="M234.334 151.754L234.311 151.962L232.348 157.069C232.348 157.069 232.032 158.617 231.759 159.496C231.587 160.091 231.449 160.694 231.348 161.304L233.085 150.6L234.334 151.754Z" fill="black"/>
<path d="M237.392 142.743L236.575 142.756H236.55L236.07 140.648L236.78 140.609L237.392 142.743Z" fill="#3F3D56"/>
<path d="M247.324 140.189L246.8 140.618L245.049 142.048C245.049 142.048 240.314 144.559 239.008 142.175C237.857 140.073 243.227 138.573 244.521 138.245L244.797 138.18L247.324 140.189Z" fill="#FBBEBE"/>
<path opacity="0.1" d="M227.092 119.625C227.092 119.625 228.017 120.043 228.229 120.628C228.441 121.214 227.092 119.625 227.092 119.625Z" fill="black"/>
<path opacity="0.1" d="M224.228 125.9C224.228 125.9 222.881 127.532 223.427 128.16C223.973 128.788 224.228 125.9 224.228 125.9Z" fill="black"/>
<path opacity="0.1" d="M248.313 120.551C248.313 120.551 247.051 120.677 247.008 121.764L248.313 120.551Z" fill="black"/>
<path opacity="0.1" d="M236.607 137.699C236.735 137.573 239.639 133.306 240.315 133.684L236.607 137.699Z" fill="black"/>
<path opacity="0.1" d="M242.041 109.96C242.042 110.78 241.838 111.588 241.448 112.311H241.411C241.093 112.243 240.927 111.877 240.686 111.646C240.537 111.505 240.347 111.414 240.143 111.385C239.939 111.357 239.731 111.393 239.549 111.488C239.364 111.597 239.214 111.756 239.115 111.946C239.016 112.135 238.973 112.348 238.989 112.561C238.83 111.883 238.88 111.178 238.723 110.507C238.566 109.836 238.095 109.151 237.449 109.151C237.172 109.151 236.847 109.253 236.646 109.045C236.526 108.921 236.501 108.724 236.419 108.573C235.964 107.829 234.554 108.204 233.981 108.586C233.408 108.968 232.741 109.574 232.029 109.899C232.039 108.579 232.576 107.317 233.523 106.39C234.469 105.463 235.747 104.948 237.076 104.957C238.405 104.967 239.676 105.5 240.609 106.441C241.541 107.381 242.06 108.651 242.05 109.972L242.041 109.96Z" fill="black"/>
<path d="M236.41 108.434C236.501 108.585 236.526 108.782 236.638 108.908C236.838 109.114 237.163 109.008 237.441 109.012C238.087 109.023 238.56 109.704 238.714 110.368C238.869 111.032 238.821 111.751 238.983 112.42C238.964 112.207 239.007 111.994 239.106 111.804C239.204 111.615 239.355 111.457 239.54 111.349C239.722 111.254 239.93 111.218 240.134 111.246C240.338 111.274 240.527 111.364 240.677 111.505C240.918 111.731 241.084 112.104 241.403 112.169C241.721 112.235 242.026 111.932 242.14 111.6C242.221 111.256 242.282 110.908 242.322 110.558C242.465 109.907 242.895 109.371 243.131 108.75C243.414 107.995 243.406 107.163 243.111 106.413C242.952 106.02 242.717 105.668 242.558 105.283C242.315 104.689 242.251 104.016 241.955 103.449C241.718 102.989 241.324 102.629 240.843 102.432C240.362 102.236 239.827 102.217 239.333 102.377C238.878 102.549 238.478 102.879 238.014 103.028C237.391 103.227 236.727 103.078 236.083 102.988C235.439 102.897 234.718 102.89 234.209 103.311C233.613 103.797 233.449 104.707 232.89 105.238C232.662 105.464 232.362 105.604 232.114 105.81C231.98 105.908 231.871 106.036 231.795 106.184C231.72 106.331 231.68 106.494 231.68 106.66C231.718 107.094 232.134 107.487 231.987 107.889C231.932 108.005 231.855 108.109 231.759 108.194C231.29 108.683 230.942 109.273 230.74 109.918C231.877 110.266 233.087 109.032 233.968 108.449C234.545 108.068 235.949 107.692 236.41 108.434Z" fill="#7C5C5C"/>
<path opacity="0.1" d="M247.325 140.189L246.802 140.618C246.347 139.852 244.441 138.324 244.441 138.324L244.523 138.245L244.798 138.18L247.325 140.189Z" fill="black"/>
<path d="M247.83 139.413C247.83 139.413 247.643 139.878 247.448 140.281C247.252 140.683 247.041 141.049 247.032 140.753C247.009 140.165 244.568 138.199 244.568 138.199L244.898 137.878L245.283 137.508L247.83 139.413Z" fill="#E7EFFD"/>
<path opacity="0.1" d="M247.913 136.318L248.191 140.985C247.536 139.974 245.741 137.385 244.588 137.468L247.388 134.268C247.504 134.14 247.611 134.003 247.708 133.859C247.815 135.193 247.913 136.318 247.913 136.318Z" fill="black"/>
<path opacity="0.1" d="M247.828 139.413C247.828 139.413 247.642 139.878 247.446 140.281C246.711 139.282 245.704 138.1 244.896 137.878L245.281 137.508L247.828 139.413Z" fill="black"/>
<path d="M249.935 122.49L250.692 123.076C250.692 123.076 251.957 123.098 252.082 124.142C252.207 125.186 253.367 125.67 253.367 125.67C253.367 125.67 254.229 126.528 254.229 126.926C254.229 127.324 254.882 128.034 254.882 128.097C254.882 128.16 255.514 129.435 255.43 129.665C255.346 129.896 256.112 130.899 255.871 131.276C255.682 131.615 255.513 131.964 255.366 132.323C255.366 132.323 254.377 134.205 253.872 134.56C253.367 134.915 251.052 137.909 251.052 137.909C251.052 137.909 248.566 140.752 248.566 141.631C248.566 141.631 246.146 137.615 244.713 137.719L247.513 134.519C247.513 134.519 247.997 133.995 248.02 133.683C248.043 133.371 249.366 131.925 249.999 131.862C249.999 131.862 250.103 131.005 249.83 130.983C249.557 130.96 249.325 130.305 249.325 130.305C249.325 130.305 247.472 128.128 247.451 126.748C247.431 125.367 249.935 122.49 249.935 122.49Z" fill="#65617D"/>
<path opacity="0.1" d="M251.052 124.477C251.052 124.477 249.283 125.774 249.663 126.194C250.043 126.614 251.052 124.477 251.052 124.477Z" fill="black"/>
<path opacity="0.1" d="M251.137 129.832C251.137 129.832 254.421 128.786 254.758 129.832H251.137Z" fill="black"/>
<path opacity="0.1" d="M230.798 185.407C230.798 185.407 229.028 186.56 228.143 186.39C227.531 186.314 226.909 186.416 226.353 186.684C225.745 187.346 224.977 187.843 224.122 188.128C222.689 188.609 220.69 188.42 219.553 188.045C219.016 187.866 218.973 187.636 219.232 187.353C220.467 187.597 223.231 188.083 223.974 187.73C224.794 187.298 225.582 186.809 226.333 186.266C226.333 186.266 228.153 186.015 228.396 186.015C228.576 186.015 229.974 185.441 230.764 185.111L230.798 185.407Z" fill="black"/>
<path opacity="0.1" d="M241.509 187.768C241.509 187.838 241.493 187.883 241.493 187.883C241.493 187.883 241.072 188.803 238.734 189.137C236.396 189.471 236.398 188.364 236.398 188.364L236.421 188.064C237.16 188.344 238.775 188.653 241.509 187.768Z" fill="black"/>
<path opacity="0.1" d="M227.965 124.225C227.965 124.225 227.965 128.995 227.556 129.465C227.147 129.935 227.965 124.225 227.965 124.225Z" fill="black"/>
<path opacity="0.1" d="M246.945 125.764L247.557 127.468C247.557 127.468 247.798 125.795 246.945 125.764Z" fill="black"/>
<g opacity="0.1">
<path opacity="0.1" d="M232.056 107.479C232.211 107.088 231.806 106.702 231.754 106.281C231.7 106.399 231.676 106.529 231.686 106.659C231.713 106.977 231.95 107.273 232.011 107.563C232.029 107.536 232.044 107.508 232.056 107.479Z" fill="black"/>
<path opacity="0.1" d="M239.045 111.985C238.895 111.325 238.94 110.629 238.786 109.967C238.631 109.305 238.158 108.611 237.512 108.611C237.234 108.611 236.909 108.71 236.709 108.505C236.586 108.38 236.563 108.184 236.482 108.03C236.027 107.289 234.617 107.666 234.041 108.046C233.181 108.613 231.994 109.804 230.893 109.533C230.841 109.659 230.791 109.788 230.75 109.922C231.887 110.27 233.097 109.036 233.977 108.453C234.553 108.073 235.956 107.698 236.418 108.439C236.509 108.591 236.534 108.787 236.645 108.914C236.846 109.119 237.171 109.013 237.448 109.018C238.094 109.029 238.567 109.709 238.722 110.374C238.877 111.038 238.829 111.757 238.99 112.425C238.979 112.276 238.998 112.127 239.045 111.985Z" fill="black"/>
<path opacity="0.1" d="M242.21 111.202C242.097 111.534 241.797 111.839 241.471 111.771C241.146 111.703 240.989 111.337 240.748 111.107C240.598 110.966 240.409 110.876 240.205 110.847C240.001 110.819 239.793 110.854 239.611 110.949C239.435 111.053 239.291 111.202 239.192 111.38C239.094 111.559 239.045 111.76 239.051 111.963C239.136 111.707 239.312 111.492 239.547 111.358C239.729 111.263 239.937 111.227 240.141 111.255C240.345 111.283 240.535 111.373 240.684 111.513C240.925 111.739 241.091 112.112 241.41 112.178C241.728 112.243 242.033 111.941 242.147 111.608C242.208 111.413 242.247 111.211 242.263 111.007C242.25 111.073 242.232 111.138 242.21 111.202Z" fill="black"/>
<path opacity="0.1" d="M243.203 108.348C242.976 108.968 242.537 109.503 242.393 110.156C242.366 110.287 242.348 110.423 242.332 110.558C242.478 109.908 242.903 109.374 243.139 108.751C243.245 108.472 243.31 108.18 243.333 107.883C243.302 108.041 243.258 108.197 243.203 108.348Z" fill="black"/>
</g>
<path d="M212.777 123.497C212.806 123.497 212.829 123.474 212.829 123.445C212.829 123.416 212.806 123.393 212.777 123.393C212.748 123.393 212.725 123.416 212.725 123.445C212.725 123.474 212.748 123.497 212.777 123.497Z" fill="#E6E8EC"/>
<path d="M232.832 124.609H194.63C193.8 124.609 193.127 125.278 193.127 126.103V170.169C193.127 170.994 193.8 171.663 194.63 171.663H232.832C233.662 171.663 234.335 170.994 234.335 170.169V126.103C234.335 125.278 233.662 124.609 232.832 124.609Z" fill="white"/>
<path opacity="0.1" d="M232.832 124.609H194.63C193.8 124.609 193.127 125.278 193.127 126.103V170.169C193.127 170.994 193.8 171.663 194.63 171.663H232.832C233.662 171.663 234.335 170.994 234.335 170.169V126.103C234.335 125.278 233.662 124.609 232.832 124.609Z" fill="#5A5773"/>
<path d="M230.73 127.01H196.732C195.902 127.01 195.229 127.679 195.229 128.504V167.77C195.229 168.595 195.902 169.263 196.732 169.263H230.73C231.56 169.263 232.234 168.595 232.234 167.77V128.504C232.234 127.679 231.56 127.01 230.73 127.01Z" fill="white"/>
<path d="M224.629 135.484H201.985C201.227 135.484 200.613 136.094 200.613 136.847V142.826C200.613 143.579 201.227 144.189 201.985 144.189H224.629C225.386 144.189 226.001 143.579 226.001 142.826V136.847C226.001 136.094 225.386 135.484 224.629 135.484Z" fill="#6C63FF"/>
<path d="M225.069 147.373H201.545V149.149H225.069V147.373Z" fill="#6C63FF"/>
<path d="M229.917 151.121H197.547V152.897H229.917V151.121Z" fill="#6C63FF"/>
<path d="M229.917 155.068H197.547V156.845H229.917V155.068Z" fill="#6C63FF"/>
<path d="M229.917 159.014H197.547V160.79H229.917V159.014Z" fill="#6C63FF"/>
<path d="M95.5264 109.055H1.5034C0.673096 109.055 0 109.723 0 110.548V154.614C0 155.439 0.673096 156.108 1.5034 156.108H95.5264C96.3567 156.108 97.0298 155.439 97.0298 154.614V110.548C97.0298 109.723 96.3567 109.055 95.5264 109.055Z" fill="white"/>
<path opacity="0.1" d="M95.5264 109.055H1.5034C0.673096 109.055 0 109.723 0 110.548V154.614C0 155.439 0.673096 156.108 1.5034 156.108H95.5264C96.3567 156.108 97.0298 155.439 97.0298 154.614V110.548C97.0298 109.723 96.3567 109.055 95.5264 109.055Z" fill="#5A5773"/>
<path d="M90.5749 111.455H6.45262C5.62232 111.455 4.94922 112.124 4.94922 112.949V152.215C4.94922 153.04 5.62232 153.709 6.45262 153.709H90.5749C91.4053 153.709 92.0783 153.04 92.0783 152.215V112.949C92.0783 112.124 91.4053 111.455 90.5749 111.455Z" fill="white"/>
<path d="M76.0319 119.932H19.0004C18.2429 119.932 17.6289 120.542 17.6289 121.294V127.274C17.6289 128.026 18.2429 128.636 19.0004 128.636H76.0319C76.7893 128.636 77.4034 128.026 77.4034 127.274V121.294C77.4034 120.542 76.7893 119.932 76.0319 119.932Z" fill="#6C63FF"/>
<path d="M75.2116 131.818H19.8223V133.595H75.2116V131.818Z" fill="#6C63FF"/>
<path d="M86.6226 135.566H10.4062V137.343H86.6226V135.566Z" fill="#6C63FF"/>
<path d="M86.6226 139.514H10.4062V141.29H86.6226V139.514Z" fill="#6C63FF"/>
<path d="M86.6226 143.459H10.4062V145.235H86.6226V143.459Z" fill="#6C63FF"/>
<path d="M23.7153 189.967C23.986 188.986 24.1702 188.123 24.1702 188.123C24.1753 187.467 24.3491 186.824 24.6751 186.254V185.983L24.7524 183.992C24.6322 183.625 24.48 183.27 24.2976 182.93C23.9609 182.29 24.4113 180.01 24.4113 180.01C24.4113 180.01 25.8737 176.83 25.6281 174.767C25.3825 172.704 28.7259 165.766 28.7259 165.766C28.7348 165.083 28.6646 164.4 28.5166 163.733C28.4898 163.593 28.4821 163.451 28.4939 163.31C28.4928 163.293 28.4928 163.275 28.4939 163.258V163.274C28.5917 161.918 29.7653 159.432 29.7653 159.432L29.8085 154.596C29.8085 154.596 29.2308 151.722 30.4909 147.941C30.9344 146.621 31.2255 145.564 31.4165 144.746C31.4393 144.653 31.4598 144.565 31.478 144.479C29.1853 144.041 27.434 143.684 27.434 143.684C27.434 143.684 28.9874 138.174 29.9359 137.236C30.8843 136.299 31.7168 133.266 31.7168 133.266C31.7168 133.266 32.34 129.357 31.6258 128.181C30.9116 127.006 30.8798 125.018 30.8798 125.018C30.8798 125.018 29.1921 123.7 28.9965 123.138C28.8009 122.575 28.4893 121.307 28.5144 120.652C28.5394 119.996 28.7805 119.409 28.7213 119.059C28.6622 118.708 29.2922 117.411 29.0261 116.774C28.9599 116.578 28.9291 116.372 28.9351 116.166C28.9351 116.166 28.9351 116.166 28.9351 116.148C28.954 115.601 29.0264 115.057 29.1512 114.523C29.6683 114.122 30.2652 113.834 30.9025 113.678L30.9457 113.529L31.0595 113.143C31.1154 113.108 31.1731 113.076 31.2323 113.048L31.2437 112.905L31.2801 112.343L31.0617 111.059C30.6068 108.831 33.5909 108.616 33.5909 108.616C33.783 108.285 34.0916 108.035 34.4575 107.916C35.0625 107.73 34.4302 111.24 34.1413 111.454C33.9139 111.615 33.2315 112.697 32.9018 113.228L32.8472 113.317C32.8951 113.362 32.9392 113.411 32.9791 113.463L32.8358 114.225L32.8131 114.34C33.0008 114.59 33.1503 114.867 33.2566 115.161C33.2566 115.161 32.6902 115.73 32.7744 116.394C32.7989 116.911 32.7217 117.428 32.5469 117.915C32.5788 117.881 32.9768 117.486 33.3544 117.599C33.7319 117.712 34.7827 118.071 34.7827 118.071C34.7827 118.071 35.5719 118.241 35.4923 118.412C35.4127 118.584 35.9995 119.371 35.9995 119.371L38.2126 117.443C38.2376 117.382 38.2603 117.323 38.2831 117.262C38.385 116.978 38.4611 116.685 38.5105 116.388C38.2772 116.324 38.0491 116.243 37.8282 116.146C37.6064 116.061 37.4082 115.925 37.2505 115.748C37.0458 115.486 37.023 115.138 36.9434 114.819C36.7979 114.196 36.4567 113.631 36.2179 113.032C35.8173 112.027 35.7116 110.93 35.9131 109.868C35.9617 109.543 36.0863 109.233 36.277 108.964C36.6455 108.501 37.2846 108.331 37.76 107.97C38.2353 107.608 38.5537 107.037 39.0996 106.772C39.5954 106.533 40.1845 106.587 40.7281 106.695C41.7837 106.909 42.7901 107.316 43.6962 107.895C44.001 108.092 44.3353 108.318 44.697 108.266C44.9971 108.187 45.2615 108.009 45.4475 107.762C45.4465 107.751 45.4465 107.741 45.4475 107.73L45.4726 107.705C45.6792 108.213 45.7708 108.759 45.7409 109.305C45.7409 109.389 45.741 109.475 45.7228 109.558C45.7228 109.588 45.7228 109.617 45.7228 109.647C45.7205 109.671 45.7205 109.696 45.7228 109.721C45.7217 109.759 45.7263 109.796 45.7364 109.832C45.7763 109.943 45.8408 110.044 45.9252 110.128C45.987 110.203 46.0418 110.284 46.0889 110.37C46.0889 110.34 46.073 110.311 46.0639 110.282C46.1927 110.485 46.2605 110.72 46.2595 110.96C46.2648 111.134 46.2002 111.304 46.0798 111.432C45.9699 111.533 45.8495 111.623 45.7205 111.699C45.8357 112.519 45.6951 113.355 45.3178 114.094C44.9404 114.833 44.3444 115.439 43.6098 115.832C43.5825 115.89 43.5552 115.951 43.5302 116.012C43.1917 116.731 43.028 117.518 43.0526 118.311C43.0526 118.367 43.0526 118.424 43.0708 118.48C43.089 118.537 43.1231 118.541 43.1458 118.573C43.1458 118.573 46.6712 118.742 47.5309 118.026C48.3907 117.31 49.5552 119.931 49.5552 119.931C49.5552 119.931 50.8107 120.222 51.0722 119.99C51.3338 119.757 52.8099 120.021 52.8099 120.021C53.4354 119.509 54.2343 119.252 55.0434 119.305C55.5519 118.951 56.1087 118.671 56.6969 118.473L56.7379 118.46C56.9952 118.377 57.2682 118.353 57.5362 118.39C57.5362 118.39 59.3262 117.034 59.8607 116.286C60.3951 115.538 62.9039 112.797 62.9039 112.783L62.9198 112.648L62.963 112.236C63.0334 112.251 63.1049 112.26 63.1768 112.263L63.2314 112.121C63.3851 111.724 63.5715 111.34 63.7886 110.973C63.7886 110.973 63.8091 110.451 63.6612 110.316C63.5134 110.18 63.8045 108.282 63.8045 108.282C63.8045 108.282 65.5081 104.711 66.8022 107.475C66.8022 107.475 69.3814 109.33 67.0797 111.287C67.0797 111.287 66.1699 111.68 66.0403 112.013C65.9493 112.239 65.6241 112.831 65.4057 113.231L65.3079 113.409L65.333 113.432L65.2875 113.771L65.2693 113.904C65.6764 114.155 65.9516 114.399 65.8765 114.582C65.7411 114.878 65.644 115.19 65.5877 115.511C65.5877 115.511 62.3716 119.194 61.9122 120.819C61.9122 120.819 53.4831 125.37 50.7675 125.614L51.1427 128.064C51.1873 128.725 51.1979 129.388 51.1746 130.05C51.1177 130.57 51.3884 132.945 51.3884 132.945C51.3884 132.945 51.7227 136.439 52.1026 136.94C52.4824 137.442 52.33 139.526 52.33 139.526C52.387 140.527 52.53 141.522 52.7576 142.5C53.1033 143.835 52.7576 145.458 52.7576 145.458C52.7576 145.458 54.0108 148.637 50.8038 146.391C50.8038 146.391 49.1935 146.23 47.3376 146.097C47.3376 146.156 47.3376 146.219 47.3376 146.28C47.3376 146.52 47.3262 146.777 47.3194 147.048C47.2739 148.841 47.1898 151.308 47.0351 153.173C46.7622 156.47 45.4976 162.964 45.4976 162.964L45.3702 166.245C45.4243 166.557 45.4441 166.872 45.4294 167.188C45.4079 168.346 45.0553 169.474 44.4127 170.44L44.0738 172.62C44.0738 172.62 43.4256 174.039 43.3801 174.9C43.3789 174.971 43.385 175.041 43.3983 175.111C43.415 175.222 43.4203 175.335 43.4142 175.447C43.4142 176.442 42.7137 178.796 42.7137 178.796C42.7137 178.796 42.584 181.194 42.2178 181.318C41.904 181.427 42.5772 182.717 42.7774 183.088C42.7848 183.066 42.7901 183.043 42.7933 183.02L42.8365 183.092C42.9034 183.289 42.9335 183.497 42.9252 183.705C42.9387 183.869 42.9051 184.034 42.8283 184.181C42.7514 184.327 42.6344 184.449 42.4908 184.532C41.788 184.923 41.4059 185.255 41.9836 185.418C42.1969 185.459 42.4079 185.511 42.6159 185.573L42.65 185.494C42.7316 185.529 42.7986 185.591 42.84 185.669C42.8814 185.747 42.8946 185.837 42.8774 185.924C42.8616 186.208 42.7766 186.484 42.6295 186.728C42.3494 187.345 41.9983 187.927 41.5833 188.464L41.3058 188.423C41.3433 188.529 41.3937 188.63 41.4559 188.724C41.5554 188.879 41.6912 189.009 41.8517 189.101C41.9992 189.196 42.165 189.259 42.3384 189.286C42.5344 189.301 42.7251 189.356 42.8983 189.448C43.0715 189.54 43.2232 189.668 43.3437 189.822C43.6849 190.299 43.8873 190.938 43.1526 191.465L40.5348 192.251C40.5348 192.251 36.0678 192.656 36.3407 191.675C36.6136 190.694 36.7956 189.831 36.7956 189.831C36.8004 189.224 36.9467 188.627 37.2232 188.086C37.2737 187.998 37.3299 187.914 37.3915 187.833L37.2346 187.811C37.2346 187.811 36.9753 185.607 36.5477 185.18C36.4521 185.079 36.4317 185.004 36.4567 184.954C36.418 184.835 36.5318 184.769 36.6841 184.728C36.6841 184.755 36.7046 184.785 36.7137 184.814C36.8564 184.79 37.0012 184.78 37.1459 184.785C37.1459 184.785 37.3346 183.644 36.882 183.203C36.8454 183.154 36.8196 183.099 36.8063 183.039C36.793 182.98 36.7924 182.919 36.8047 182.859C36.8056 182.702 36.8278 182.546 36.8706 182.394C36.8751 182.403 36.8804 182.413 36.8866 182.421C37.164 181.391 38.0238 179.768 38.0238 179.768C38.0238 179.768 38.0988 178.726 37.8259 178.297C37.553 177.868 38.0829 172.634 38.0829 172.634C38.0829 172.634 38.0715 170.094 38.4423 168.926C38.813 167.757 38.1443 166.338 38.1443 166.338C38.1443 166.338 38.1443 166.311 38.1557 166.264C38.1565 166.257 38.1565 166.25 38.1557 166.243C38.1557 166.243 38.1784 166.087 38.2148 165.845V165.87C38.3149 165.192 38.4991 163.992 38.622 163.432C38.7971 162.639 38.7653 158.808 38.7653 158.808L38.1762 157.159L36.9093 159.929L35.5447 163.635C35.5447 163.635 34.9055 164.404 34.8623 165.217C34.8623 165.258 34.8623 165.296 34.8623 165.337C34.8679 165.421 34.8679 165.504 34.8623 165.588C34.8642 166.062 34.7145 166.525 34.4347 166.91C34.4347 166.91 34.0412 168.67 33.525 169.102C33.0087 169.533 32.9677 170.403 32.9677 170.403C32.9677 170.403 32.2535 172.953 31.9465 173.393C31.6895 173.764 31.6349 174.81 31.6258 175.131C31.6258 175.19 31.6258 175.224 31.6258 175.224C31.6258 175.224 31.5053 176.141 31.478 176.914C31.478 177.009 31.478 177.102 31.478 177.187C31.4768 177.181 31.4768 177.175 31.478 177.169C31.4693 177.379 31.4861 177.589 31.528 177.795C31.528 177.795 31.528 177.82 31.528 177.834V177.703C31.636 178.232 31.6781 178.772 31.6531 179.312C31.6326 180.236 31.4484 181.325 30.8593 181.947C29.8404 183.022 29.2331 182.85 29.2331 182.85C29.2331 182.85 29.6493 184.258 30.2156 184.559C30.2375 184.57 30.258 184.584 30.2771 184.6C30.2771 184.572 30.2771 184.545 30.293 184.52C30.3531 184.593 30.3976 184.677 30.4234 184.767C30.4492 184.857 30.4559 184.952 30.4431 185.045C30.4613 185.657 30.0337 186.627 29.647 187.079C29.5063 187.208 29.3349 187.299 29.1489 187.345C29.1772 187.367 29.2069 187.386 29.2376 187.404C29.3007 187.441 29.366 187.474 29.4332 187.503C29.525 187.548 29.6232 187.578 29.7244 187.591C29.9206 187.605 30.1118 187.659 30.2852 187.751C30.4585 187.844 30.6101 187.972 30.7297 188.127C31.0708 188.602 31.2733 189.241 30.5386 189.768L27.9207 190.554C27.9207 190.554 23.4401 190.947 23.7153 189.967Z" fill="url(#paint2_linear)"/>
<path d="M40.6254 192.256L43.1614 191.467C43.8733 190.939 43.6777 190.299 43.3479 189.822C43.2341 189.67 43.0883 189.543 42.9207 189.451C42.7531 189.36 42.5675 189.305 42.3767 189.291C42.2072 189.263 42.0458 189.199 41.9036 189.104C41.7488 189.01 41.6185 188.882 41.5238 188.729C41.3529 188.433 41.2671 188.097 41.2759 187.757C41.2759 187.757 38.5602 186.853 37.7778 187.624C37.6395 187.763 37.5223 187.923 37.4298 188.096C37.1614 188.639 37.0185 189.235 37.0113 189.84C37.0113 189.84 36.8385 190.701 36.5724 191.684C36.3062 192.667 40.6254 192.256 40.6254 192.256Z" fill="#2D293D"/>
<path d="M28.4325 190.564L30.9685 189.775C31.6804 189.247 31.4848 188.607 31.155 188.132C31.0411 187.979 30.8952 187.852 30.7271 187.76C30.5591 187.668 30.3729 187.613 30.1815 187.599C30.0834 187.586 29.9881 187.557 29.8995 187.513C29.8346 187.483 29.7715 187.449 29.7107 187.412C29.0284 187.003 29.0807 186.056 29.0807 186.056C29.0807 186.056 26.365 185.152 25.5826 185.922C25.4777 186.026 25.3846 186.142 25.3051 186.266C24.9872 186.84 24.8184 187.484 24.8139 188.139C24.8139 188.139 24.6387 189.002 24.3749 189.983C24.1111 190.964 28.4325 190.564 28.4325 190.564Z" fill="#2D293D"/>
<path opacity="0.1" d="M37.7754 187.624C37.6379 187.764 37.5215 187.923 37.4297 188.096L41.5237 188.727C41.3528 188.432 41.267 188.095 41.2758 187.755C41.2758 187.755 38.5669 186.853 37.7754 187.624Z" fill="black"/>
<path opacity="0.1" d="M25.305 186.275L25.2754 187.041C25.8758 188.114 28.9804 188.004 29.8993 187.513C29.8344 187.483 29.7714 187.449 29.7105 187.412C29.0282 187.003 29.0805 186.056 29.0805 186.056C29.0805 186.056 26.3648 185.152 25.5824 185.922C25.4769 186.029 25.3839 186.147 25.305 186.275Z" fill="black"/>
<path d="M24.9442 182.958C25.1249 183.299 25.2771 183.654 25.3991 184.02L25.2877 186.763C25.9427 187.938 29.5954 187.694 30.1095 187.089C30.6235 186.483 31.2103 184.867 30.6621 184.569C30.114 184.271 29.7114 182.861 29.7114 182.861C29.7114 182.861 30.3005 183.023 31.2899 181.957C32.2793 180.89 32.0928 178.402 31.9381 177.806C31.7834 177.209 32.0405 175.234 32.0405 175.234C32.0405 175.234 32.0587 173.842 32.3566 173.401C32.6546 172.961 33.3483 170.412 33.3483 170.412C33.3483 170.412 33.3801 169.541 33.8873 169.11C34.3945 168.678 34.7789 166.916 34.7789 166.916C35.0831 166.484 35.2271 165.961 35.186 165.435C35.1155 164.563 35.8501 163.65 35.8501 163.65L37.1852 159.944L38.4134 157.171L38.9798 158.828C38.9798 158.828 39.0071 162.658 38.8365 163.451C38.6659 164.245 38.3816 166.357 38.3816 166.357C38.3816 166.357 39.0275 167.774 38.6682 168.945C38.3088 170.115 38.3134 172.653 38.3134 172.653C38.3134 172.653 37.7948 177.889 38.0586 178.316C38.3224 178.743 38.2474 179.785 38.2474 179.785C38.2474 179.785 36.6962 182.788 37.1329 183.225C37.5696 183.661 37.3877 184.806 37.3877 184.806C37.3877 184.806 36.4096 184.768 36.8122 185.202C37.2148 185.636 37.4309 187.821 37.4309 187.821L41.6409 188.47C42.0443 187.93 42.3846 187.347 42.6553 186.732C43.2648 185.469 42.5961 185.582 42.0389 185.421C41.4816 185.261 41.8501 184.926 42.5302 184.535C43.2102 184.144 42.8622 183.191 42.8622 183.191C42.8622 183.191 41.9138 181.448 42.2709 181.324C42.628 181.2 42.7531 178.802 42.7531 178.802C42.7531 178.802 43.5628 175.977 43.4172 175.207C43.2716 174.436 44.079 172.622 44.079 172.622L44.4066 170.443C45.204 169.23 45.5343 167.772 45.3368 166.337L45.4687 162.965C45.4687 162.965 46.706 156.482 46.9835 153.174C47.1564 151.063 47.2428 148.177 47.2815 146.376C47.3042 145.364 47.3133 144.695 47.3133 144.695L32.2634 142.553C32.211 143.302 32.09 144.045 31.9017 144.772C31.7175 145.592 31.4332 146.65 30.9919 147.969C29.7592 151.75 30.3096 154.625 30.3096 154.625L30.2618 159.461C30.2618 159.461 28.8062 162.642 29.045 163.765C29.1877 164.434 29.2548 165.116 29.2452 165.799C29.2452 165.799 26.0064 172.732 26.2429 174.786C26.4795 176.841 25.0579 180.031 25.0579 180.031C25.0579 180.031 24.619 182.318 24.9442 182.958Z" fill="#575988"/>
<path opacity="0.05" d="M34.2851 165.182L29.709 164.391C29.709 164.391 32.2131 167.139 34.2851 165.182Z" fill="black"/>
<path opacity="0.1" d="M30.5455 159.959C30.5455 159.959 30.3181 161.568 31.2983 162.219C31.2892 162.214 29.5266 161.869 30.5455 159.959Z" fill="black"/>
<path opacity="0.1" d="M31.0273 154.826C31.0273 154.826 34.7506 158.119 36.1585 157.913C37.5663 157.707 31.0273 154.826 31.0273 154.826Z" fill="black"/>
<path opacity="0.1" d="M39.9316 166.877C39.9316 166.877 42.827 167.65 42.8702 168.816C42.9134 169.982 39.9316 166.877 39.9316 166.877Z" fill="black"/>
<path opacity="0.05" d="M38.7248 181.34C38.7248 181.34 42.8188 182.262 41.6315 182.739C40.4443 183.215 38.4996 183.559 38.4996 183.559C38.4996 183.559 37.1668 183.582 38.7248 181.34Z" fill="black"/>
<g opacity="0.05">
<path opacity="0.05" d="M42.4333 183.6C42.5393 183.539 42.6302 183.456 42.6995 183.356C42.7688 183.256 42.8146 183.141 42.8336 183.021L42.8723 183.096C42.8723 183.096 43.2225 184.047 42.5402 184.452C42.4629 184.495 42.3901 184.54 42.3128 184.583C42.1922 184.556 42.0603 184.533 41.9352 184.497C41.3802 184.328 41.751 183.993 42.4333 183.6Z" fill="black"/>
<path opacity="0.05" d="M37.1249 183.121C37.0157 183.012 37.0316 182.746 37.1249 182.404C37.2815 182.719 37.3491 183.071 37.3205 183.421C37.2792 183.307 37.2123 183.205 37.1249 183.121Z" fill="black"/>
<path opacity="0.05" d="M38.4302 165.855C38.5659 166.273 38.6425 166.707 38.6577 167.146C38.5908 166.841 38.4948 166.543 38.3711 166.255C38.3711 166.255 38.3961 166.1 38.4302 165.855Z" fill="black"/>
<path opacity="0.05" d="M29.0525 163.671C29.0294 163.545 29.021 163.417 29.0275 163.289C29.0707 163.551 29.098 163.793 29.114 164.005C29.0958 163.897 29.0753 163.786 29.0525 163.671Z" fill="black"/>
<path opacity="0.05" d="M38.0503 178.215C37.982 177.962 37.9573 177.7 37.9775 177.439C38.0948 177.753 38.1503 178.086 38.1413 178.42C38.1192 178.348 38.0887 178.279 38.0503 178.215Z" fill="black"/>
<path opacity="0.05" d="M36.931 184.729C37.1215 185.435 37.2546 186.155 37.329 186.882L41.539 187.531C41.9439 186.992 42.285 186.409 42.5557 185.793C42.6103 185.682 42.6512 185.583 42.6876 185.492C42.9355 185.617 43.0265 185.883 42.6626 186.634C42.3917 187.248 42.0514 187.831 41.6482 188.369L37.4291 187.725C37.4291 187.725 37.2017 185.524 36.7945 185.092C36.6058 184.878 36.7468 184.78 36.931 184.729Z" fill="black"/>
<path opacity="0.05" d="M42.7619 178.707C42.7619 178.707 42.6345 181.105 42.2797 181.229C42.1182 180.825 42.0136 180.445 42.1728 180.388C42.5276 180.262 42.6573 177.867 42.6573 177.867C42.6573 177.867 43.467 175.044 43.3214 174.271C43.1759 173.498 43.981 171.688 43.981 171.688L44.3108 169.508C45.1082 168.295 45.4385 166.837 45.241 165.402L45.3707 162.03C45.3707 162.03 46.6034 155.535 46.8718 152.238C47.0424 150.128 47.1288 147.242 47.1698 145.441C47.1698 145.115 47.1834 144.826 47.188 144.582L47.3085 144.6C47.3085 144.6 47.3085 145.278 47.2767 146.279C47.238 148.087 47.1516 150.968 46.9787 153.079C46.7103 156.374 45.4799 162.871 45.4799 162.871L45.3479 166.24C45.5454 167.675 45.216 169.133 44.42 170.346L44.0879 172.527C44.0879 172.527 43.2805 174.334 43.426 175.112C43.5716 175.889 42.7619 178.707 42.7619 178.707Z" fill="black"/>
<path opacity="0.05" d="M30.004 186.156C30.3659 185.675 30.616 185.12 30.7363 184.531C31.1526 184.933 30.5999 186.418 30.1109 186.994C29.6219 187.571 25.9441 187.844 25.2891 186.671L25.3141 186.009C26.2239 186.976 29.5172 186.73 30.004 186.156Z" fill="black"/>
<path opacity="0.05" d="M24.8389 182.019C25.0196 182.36 25.1718 182.716 25.2938 183.081L25.2734 183.567C25.178 183.325 25.0702 183.089 24.9504 182.858C24.8502 182.581 24.8099 182.286 24.8321 181.992L24.8389 182.019Z" fill="black"/>
<path opacity="0.05" d="M29.9252 182.768C29.8022 182.495 29.6973 182.215 29.6113 181.929C29.6113 181.929 30.2004 182.09 31.1875 181.014C31.9062 180.23 32.004 178.705 31.9449 177.701C32.0996 178.3 32.2838 180.777 31.2967 181.852C30.6462 182.557 30.1708 182.731 29.9252 182.768Z" fill="black"/>
<path opacity="0.05" d="M32.0413 175.129C31.953 175.812 31.9028 176.5 31.8912 177.188C31.8777 177.079 31.8579 176.97 31.8321 176.863C31.6797 176.264 31.9322 174.291 31.9322 174.291C31.9322 174.291 31.9526 172.899 32.2483 172.458C32.544 172.018 33.24 169.469 33.24 169.469C33.24 169.469 33.2741 168.601 33.7813 168.167C34.2885 167.733 34.6729 165.973 34.6729 165.973C34.9761 165.541 35.1199 165.018 35.08 164.493C35.0095 163.62 35.7441 162.707 35.7441 162.707L37.0792 159.001L38.3074 156.229L38.8738 157.887C38.8738 157.887 38.8738 158.091 38.8738 158.416L38.4189 157.06L37.1907 159.831L35.8556 163.539C35.8556 163.539 35.1209 164.443 35.1914 165.324C35.2325 165.85 35.0886 166.373 34.7843 166.804C34.7843 166.804 34.3999 168.565 33.8927 168.996C33.3855 169.428 33.3537 170.298 33.3537 170.298C33.3537 170.298 32.6577 172.847 32.362 173.29C32.0664 173.733 32.0413 175.129 32.0413 175.129Z" fill="black"/>
</g>
<path d="M31.5809 111.082L31.7947 112.361L31.7583 112.926L31.731 113.342L33.1843 113.548L33.3595 113.254C33.6824 112.723 34.3511 111.64 34.5626 111.478C34.8401 111.263 35.4588 107.753 34.872 107.939C34.5141 108.061 34.2144 108.311 34.0304 108.639C34.0304 108.639 31.151 108.856 31.5809 111.082Z" fill="#FFCDD3"/>
<path opacity="0.1" d="M31.7305 113.343L33.1838 113.549L33.359 113.255C33.1715 113.027 32.9109 112.871 32.621 112.811C32.3311 112.752 32.0295 112.794 31.7669 112.929L31.7305 113.343Z" fill="black"/>
<path d="M31.334 114.015L33.2422 114.533L33.2923 114.248L33.431 113.487C33.3311 113.344 33.2037 113.222 33.0563 113.129C32.9088 113.035 32.7442 112.972 32.5719 112.942C32.3996 112.912 32.223 112.916 32.0523 112.954C31.8816 112.992 31.7202 113.063 31.5774 113.163L31.4682 113.55L31.334 114.015Z" fill="#DCE6F2"/>
<path d="M62.6172 112.415L64.6278 113.59C64.6278 113.59 64.7119 113.43 64.8302 113.211C65.0417 112.811 65.3556 112.21 65.4443 111.993C65.5785 111.66 66.4519 111.265 66.4519 111.265C68.6831 109.306 66.1881 107.455 66.1881 107.455C64.9371 104.691 63.2859 108.264 63.2859 108.264C63.2859 108.264 63.0016 110.169 63.1449 110.298C63.2881 110.427 63.2677 110.955 63.2677 110.955C63.0557 111.323 62.8747 111.707 62.7264 112.103C62.6559 112.291 62.6172 112.415 62.6172 112.415Z" fill="#FFCDD3"/>
<path opacity="0.1" d="M62.6172 112.417L64.6278 113.592C64.6278 113.592 64.712 113.431 64.8302 113.212C64.5482 112.961 63.552 112.082 63.2131 112.118C63.0513 112.134 62.8882 112.134 62.7264 112.118C62.6559 112.292 62.6172 112.417 62.6172 112.417Z" fill="black"/>
<path d="M62.3828 113.019L64.6573 114.237L64.7209 113.744L64.7664 113.405C64.7664 113.405 63.4745 112.216 63.0788 112.244C62.877 112.264 62.6733 112.255 62.4738 112.219L62.4329 112.63L62.3828 113.019Z" fill="#DCE6F2"/>
<path d="M36.8496 119.723C36.8496 119.723 46.873 121.237 45.0148 120.559C43.7207 120.084 43.2317 119.237 43.1589 118.315C43.134 117.524 43.2895 116.737 43.6138 116.014C43.8771 115.393 44.2024 114.799 44.585 114.243C44.585 114.243 37.052 109.743 38.444 113.626C38.6591 114.213 38.7826 114.83 38.8102 115.454C38.832 116.074 38.7411 116.692 38.5418 117.28C38.2149 118.233 37.6294 119.079 36.8496 119.723Z" fill="#FFCDD3"/>
<path opacity="0.1" d="M38.4531 113.626C38.6682 114.213 38.7917 114.83 38.8193 115.454C39.5198 116.084 40.3159 116.075 41.3371 116.114C42.1218 116.145 42.9815 116.367 43.6115 116.014C43.8748 115.393 44.2002 114.8 44.5827 114.243C44.5827 114.243 37.0611 109.743 38.4531 113.626Z" fill="black"/>
<path d="M41.6254 116.389C43.9254 116.389 45.7899 114.536 45.7899 112.251C45.7899 109.966 43.9254 108.113 41.6254 108.113C39.3254 108.113 37.4609 109.966 37.4609 112.251C37.4609 114.536 39.3254 116.389 41.6254 116.389Z" fill="#FFCDD3"/>
<path opacity="0.1" d="M36.8496 119.724C36.8496 119.724 46.873 121.238 45.0148 120.56C43.7207 120.085 43.2317 119.238 43.1589 118.316C42.679 117.757 41.6873 117.33 41.0482 117.098C40.4663 116.88 39.8311 116.845 39.2287 116.998C38.9884 117.058 38.7585 117.153 38.5463 117.281C38.2182 118.235 37.631 119.08 36.8496 119.724Z" fill="black"/>
<path opacity="0.1" d="M31.334 114.015L33.2422 114.533L33.2923 114.248C33.0979 113.96 32.819 113.738 32.4934 113.613C32.1679 113.488 31.8115 113.466 31.4727 113.55L31.334 114.015Z" fill="black"/>
<path opacity="0.1" d="M62.3828 113.018L64.6573 114.236L64.7209 113.743C63.9837 113.32 63.2159 112.951 62.4238 112.641L62.3828 113.018Z" fill="black"/>
<path opacity="0.1" d="M31.8926 144.772C35.7591 145.533 41.286 146.541 42.1753 146.309C42.9145 146.116 45.2458 146.229 47.2723 146.376C47.2951 145.364 47.3042 144.695 47.3042 144.695L32.2542 142.553C32.2019 143.302 32.0808 144.045 31.8926 144.772Z" fill="black"/>
<path d="M28.041 143.713C28.041 143.713 40.7915 146.393 42.1857 146.03C43.58 145.666 50.6353 146.387 50.6353 146.387C53.7353 148.628 52.5276 145.451 52.5276 145.451C52.5276 145.451 52.871 143.828 52.5276 142.493C52.3076 141.515 52.1699 140.52 52.1159 139.519C52.1159 139.519 52.2683 137.436 51.9021 136.936C51.5359 136.437 51.2198 132.941 51.2198 132.941C51.2198 132.941 50.9628 130.566 51.0174 130.046C51.072 129.526 50.9901 128.06 50.9901 128.06L50.6284 125.61C53.2645 125.364 61.4275 120.803 61.4275 120.803C61.8824 119.185 64.9961 115.475 64.9961 115.475C65.0519 115.155 65.1466 114.843 65.2781 114.546C65.5055 113.999 62.4055 112.768 62.4055 112.768C62.4055 112.768 59.9468 115.527 59.4373 116.273C58.9279 117.018 57.1834 118.379 57.1834 118.379C56.9236 118.343 56.659 118.367 56.4101 118.449H56.3691C55.8007 118.649 55.2644 118.93 54.777 119.283C53.9891 119.234 53.2129 119.491 52.6117 119.999C52.6117 119.999 51.1857 119.737 50.9332 119.97C50.6807 120.202 49.4639 119.913 49.4639 119.913C49.4639 119.913 48.3267 117.296 47.5056 118.013C46.6846 118.729 43.2593 118.564 43.2593 118.564C42.8294 117.945 41.7377 117.472 41.0553 117.224C40.4737 117.005 39.8381 116.97 39.2358 117.124C38.9744 117.188 38.726 117.296 38.5011 117.443L36.3541 119.377C36.3541 119.377 35.7877 118.591 35.8651 118.419C35.9424 118.248 35.1827 118.08 35.1827 118.08C35.1827 118.08 34.1797 117.728 33.7999 117.61C33.4201 117.493 33.0493 117.891 33.0175 117.927C33.1911 117.439 33.2684 116.923 33.2449 116.406C33.1653 115.741 33.7112 115.17 33.7112 115.17C32.6035 112.135 29.7446 114.532 29.7446 114.532C29.7446 114.532 29.3647 116.153 29.6217 116.792C29.8788 117.432 29.2669 118.727 29.3215 119.077C29.3761 119.427 29.1464 120.01 29.1214 120.67C29.0964 121.33 29.3966 122.595 29.5763 123.156C29.7559 123.716 31.3958 125.036 31.3958 125.036C31.3958 125.036 31.4254 127.02 32.1145 128.2C32.8037 129.379 32.1987 133.284 32.1987 133.284C32.1987 133.284 31.3799 136.315 30.4678 137.255C29.5558 138.195 28.041 143.713 28.041 143.713Z" fill="#656691"/>
<path opacity="0.1" d="M47.6371 121.564C47.6371 121.564 48.067 120.435 48.4195 120.342C48.7729 120.228 49.1179 120.09 49.4521 119.928L49.2428 119.492C49.2428 119.492 47.9146 119.802 47.6917 120.17C47.4688 120.538 47.6371 121.564 47.6371 121.564Z" fill="black"/>
<path opacity="0.1" d="M54.7656 119.297C54.8225 119.647 57.9225 120.079 57.9225 120.079L56.41 118.449H56.3714C55.7974 118.652 55.2564 118.938 54.7656 119.297Z" fill="black"/>
<path d="M63.9575 115.148C64.112 115.148 64.2372 115.023 64.2372 114.87C64.2372 114.716 64.112 114.592 63.9575 114.592C63.803 114.592 63.6777 114.716 63.6777 114.87C63.6777 115.023 63.803 115.148 63.9575 115.148Z" fill="#575988"/>
<path d="M63.5766 115.691C63.7311 115.691 63.8564 115.566 63.8564 115.413C63.8564 115.259 63.7311 115.135 63.5766 115.135C63.4221 115.135 63.2969 115.259 63.2969 115.413C63.2969 115.566 63.4221 115.691 63.5766 115.691Z" fill="#575988"/>
<path d="M63.2075 116.191C63.362 116.191 63.4872 116.066 63.4872 115.913C63.4872 115.759 63.362 115.635 63.2075 115.635C63.053 115.635 62.9277 115.759 62.9277 115.913C62.9277 116.066 63.053 116.191 63.2075 116.191Z" fill="#575988"/>
<path d="M62.8188 116.732C62.9733 116.732 63.0986 116.607 63.0986 116.454C63.0986 116.3 62.9733 116.176 62.8188 116.176C62.6643 116.176 62.5391 116.3 62.5391 116.454C62.5391 116.607 62.6643 116.732 62.8188 116.732Z" fill="#575988"/>
<path d="M29.8524 115.389C29.9781 115.389 30.0799 115.288 30.0799 115.163C30.0799 115.039 29.9781 114.938 29.8524 114.938C29.7268 114.938 29.625 115.039 29.625 115.163C29.625 115.288 29.7268 115.389 29.8524 115.389Z" fill="#575988"/>
<path d="M29.7978 115.899C29.9234 115.899 30.0252 115.798 30.0252 115.673C30.0252 115.548 29.9234 115.447 29.7978 115.447C29.6721 115.447 29.5703 115.548 29.5703 115.673C29.5703 115.798 29.6721 115.899 29.7978 115.899Z" fill="#575988"/>
<path d="M29.745 116.411C29.8706 116.411 29.9725 116.31 29.9725 116.185C29.9725 116.06 29.8706 115.959 29.745 115.959C29.6194 115.959 29.5176 116.06 29.5176 116.185C29.5176 116.31 29.6194 116.411 29.745 116.411Z" fill="#575988"/>
<path opacity="0.1" d="M47.2564 130.981C47.2905 130.942 39.0229 140.533 33.123 134.583C33.123 134.583 42.7439 136.255 47.2564 130.981Z" fill="black"/>
<path opacity="0.1" d="M51.5862 136.297C51.5862 136.297 46.8622 136.245 46.3163 137.574L46.2617 138.977C46.3933 139.056 46.5428 139.101 46.6963 139.107C46.8498 139.112 47.0023 139.08 47.1397 139.011C47.6264 138.774 50.5331 137.443 51.5134 138.175L51.5862 136.297Z" fill="black"/>
<path d="M51.4984 136.293C51.4984 136.293 46.9836 136.244 46.4605 137.511L46.4082 138.849C46.5338 138.925 46.6769 138.967 46.8237 138.973C46.9706 138.978 47.1164 138.947 47.2475 138.881C47.7024 138.655 50.4931 137.387 51.4302 138.083L51.4984 136.293Z" fill="#656691"/>
<path opacity="0.1" d="M49.4046 126.02C48.8789 127.109 48.2246 128.132 47.4554 129.068C46.6149 130.103 45.6101 130.994 44.4805 131.707C44.4805 131.707 49.3 126.652 49.4046 126.02Z" fill="black"/>
<path opacity="0.1" d="M51.1589 120.633C51.1589 120.633 50.2491 123.98 48.168 125.048L51.1589 120.633Z" fill="black"/>
<path opacity="0.1" d="M52.3533 121.019C52.376 120.958 52.9492 123.717 49.5762 125.102C49.5762 125.102 51.0022 124.679 52.3533 121.019Z" fill="black"/>
<path opacity="0.1" d="M31.8394 117.968C31.8917 117.968 30.1632 118.974 29.6855 119.451C29.6969 119.451 30.8455 117.86 31.8394 117.968Z" fill="black"/>
<path d="M42.6055 116.043C42.5629 116.262 42.4386 116.457 42.2576 116.59C42.1331 116.644 41.9974 116.668 41.8618 116.66C40.5904 116.692 39.2667 116.696 38.1135 116.165C37.8978 116.08 37.7064 115.943 37.5563 115.767C37.3561 115.505 37.3289 115.159 37.2583 114.838C37.1173 114.215 36.7875 113.652 36.5578 113.053C36.171 112.045 36.071 110.95 36.269 109.89C36.3145 109.565 36.4352 109.256 36.6215 108.986C36.9763 108.522 37.5972 108.353 38.0567 107.989C38.5161 107.625 38.8254 107.056 39.3577 106.789C39.8353 106.55 40.4062 106.602 40.9316 106.712C41.9629 106.927 42.9434 107.336 43.8201 107.917C44.1135 108.113 44.4365 108.337 44.7867 108.285C45.087 108.202 45.349 108.019 45.5282 107.765C45.7534 108.34 45.8361 108.96 45.7693 109.573C45.7533 109.663 45.7533 109.755 45.7693 109.844C45.8081 109.955 45.8702 110.056 45.9512 110.14C46.2492 110.513 46.4243 111.092 46.1014 111.444C45.9603 111.598 45.7488 111.67 45.6124 111.835C45.3667 112.115 45.4281 112.536 45.419 112.909C45.4273 113.038 45.3903 113.167 45.3144 113.272C45.2438 113.332 45.1591 113.372 45.0684 113.39C44.9777 113.408 44.8838 113.402 44.7958 113.374C44.6204 113.315 44.4349 113.29 44.25 113.302C44.0526 113.358 43.8803 113.479 43.761 113.645C43.1446 114.355 42.8899 115.162 42.6055 116.043Z" fill="#2D293D"/>
<g opacity="0.1">
<path opacity="0.1" d="M37.4312 115.442C37.5805 115.619 37.7721 115.757 37.9885 115.842C39.1416 116.373 40.4653 116.366 41.7367 116.337C41.8726 116.345 42.0085 116.321 42.1325 116.265C42.3139 116.134 42.4384 115.939 42.4805 115.72C42.7602 114.836 43.0195 114.032 43.6359 113.313C43.7548 113.146 43.9272 113.025 44.1249 112.968C44.3098 112.957 44.4951 112.982 44.6708 113.04C44.7587 113.069 44.8527 113.075 44.9435 113.057C45.0344 113.039 45.1191 112.998 45.1893 112.938C45.2654 112.833 45.3024 112.706 45.294 112.577C45.294 112.204 45.2417 111.783 45.4873 111.501C45.6238 111.345 45.8353 111.275 45.9763 111.112C46.0679 110.997 46.1265 110.859 46.1461 110.714C46.1658 110.568 46.1456 110.42 46.0877 110.285C46.297 110.644 46.3766 111.099 46.1037 111.395C45.9626 111.548 45.7534 111.621 45.6147 111.786C45.369 112.066 45.4327 112.486 45.4236 112.859C45.4322 112.989 45.3943 113.118 45.3167 113.223C45.2462 113.282 45.1615 113.323 45.0708 113.341C44.98 113.359 44.8861 113.353 44.7981 113.325C44.6235 113.265 44.4388 113.241 44.2545 113.252C44.056 113.309 43.8828 113.431 43.7633 113.598C43.1492 114.314 42.8899 115.121 42.6079 116.002C42.6039 116.093 42.5811 116.181 42.5408 116.263C42.5006 116.344 42.4438 116.416 42.3741 116.474C42.3044 116.532 42.2233 116.575 42.1359 116.601C42.0485 116.626 41.9567 116.633 41.8664 116.622C40.595 116.651 39.2713 116.656 38.1158 116.124C37.9002 116.039 37.7089 115.902 37.5586 115.727C37.4835 115.624 37.4273 115.508 37.3926 115.386C37.4039 115.405 37.4168 115.424 37.4312 115.442Z" fill="black"/>
<path opacity="0.1" d="M45.7606 109.726C45.7042 109.661 45.6637 109.584 45.6423 109.5C45.6264 109.411 45.6264 109.319 45.6423 109.229C45.6973 108.723 45.6509 108.212 45.5059 107.724L45.5286 107.699C45.7558 108.273 45.8393 108.894 45.772 109.507C45.7616 109.58 45.7578 109.653 45.7606 109.726Z" fill="black"/>
</g>
<path opacity="0.1" d="M43.2493 118.577C43.2493 118.577 38.0181 119.063 37.5859 118.268L43.2493 118.577Z" fill="black"/>
<path opacity="0.1" d="M33.2245 116.054C33.2245 116.054 30.3337 115.948 29.6582 116.998L33.2245 116.054Z" fill="black"/>
</g>
<defs>
<linearGradient id="paint0_linear" x1="125.426" y1="155.573" x2="125.426" y2="33.9219" gradientUnits="userSpaceOnUse">
<stop stop-color="#808080" stop-opacity="0.25"/>
<stop offset="0.54" stop-color="#808080" stop-opacity="0.12"/>
<stop offset="1" stop-color="#808080" stop-opacity="0.1"/>
</linearGradient>
<linearGradient id="paint1_linear" x1="46591.7" y1="75132.8" x2="46591.7" y2="41176.1" gradientUnits="userSpaceOnUse">
<stop stop-color="#808080" stop-opacity="0.25"/>
<stop offset="0.54" stop-color="#808080" stop-opacity="0.12"/>
<stop offset="1" stop-color="#808080" stop-opacity="0.1"/>
</linearGradient>
<linearGradient id="paint2_linear" x1="-38965" y1="74388.8" x2="-37652.1" y2="41353" gradientUnits="userSpaceOnUse">
<stop stop-color="#808080" stop-opacity="0.25"/>
<stop offset="0.54" stop-color="#808080" stop-opacity="0.12"/>
<stop offset="1" stop-color="#808080" stop-opacity="0.1"/>
</linearGradient>
<clipPath id="clip0">
<rect width="260" height="195" fill="white"/>
</clipPath>
</defs>
</svg>
