<svg xmlns="http://www.w3.org/2000/svg" viewBox="0 0 428.704 126.385"><defs><linearGradient id="a" x1="141.636" y1="-1124.79" x2="190.333" y2="-1124.79" gradientTransform="matrix(1 0 0 -1 0 -1074.772)" gradientUnits="userSpaceOnUse"><stop offset="0" stop-color="#ff8a15"/><stop offset=".054" stop-color="#fe8524"/><stop offset=".159" stop-color="#fd774d"/><stop offset=".305" stop-color="#fb618f"/><stop offset=".484" stop-color="#f843e8"/><stop offset=".513" stop-color="#f73ef7"/><stop offset=".61" stop-color="#e436c3"/><stop offset=".748" stop-color="#cb2c7e"/><stop offset=".864" stop-color="#b9244c"/><stop offset=".951" stop-color="#ad202e"/><stop offset="1" stop-color="#a91e22"/></linearGradient><linearGradient id="b" y1="-1137.59" x2="153.66" y2="-1137.59" gradientTransform="matrix(1 0 0 -1 0 -1074.772)" gradientUnits="userSpaceOnUse"><stop offset="0" stop-color="#ff8a15"/><stop offset=".054" stop-color="#fe8524"/><stop offset=".159" stop-color="#fd774d"/><stop offset=".305" stop-color="#fb618f"/><stop offset=".484" stop-color="#f843e8"/><stop offset=".513" stop-color="#f73ef7"/><stop offset=".61" stop-color="#e436c3"/><stop offset=".748" stop-color="#cb2c7e"/><stop offset=".864" stop-color="#b9244c"/><stop offset=".951" stop-color="#ad202e"/><stop offset="1" stop-color="#a91e22"/></linearGradient></defs><g data-name="Calque 2"><g data-name="Calque 1"><path d="M158.171 99.948s12.606-29.098 11.94-32.932a10.224 10.224 0 0 1 .526-3.204c1.103-6.163 3.974-21.448-2.697-29.431 0 0 5.918 3.659 6.548 7.773 0 0-.875-11.958-8.35-8.614-7.004 3.134-13.867-3.624-19.575-5.252v-.14l12.834 1.4s-20.852-5.164-17.368-19.433c0 0 13.13-18.489 33.265-5.253a28.135 28.135 0 0 0 5.252 8.247s-4.762-6.11-3.501-7.669c0 0 14.479 11.538 11.45 27.365a5.9 5.9 0 0 1-.806 1.979 37.94 37.94 0 0 0-2.958 5.252c-1.103 2.504 5.602-8.001 5.602-8.001s-7.703 28.38-15.547 34.543a9.192 9.192 0 0 0-2.959 3.904z" fill-rule="evenodd" fill="url(#a)"/><path d="M143.902 123.689a17.823 17.823 0 0 1-23.974-7.784l-.012-.025-11.363-22.287-.192-.385-11.31-22.2c-4.395 23.933-10.908 36.941-17.053 43.997a17.84 17.84 0 0 1-32.215.875L36.42 93.593l-.192-.385L23.64 68.52 13.503 48.632l-.193-.385L1.947 25.942A17.84 17.84 0 1 1 33.742 9.747l45.836 89.939a17.788 17.788 0 0 1 1.943 8.333c6.81-3.764 13.096-27.75 15.372-37.327l-1.12-2.17-10.138-19.89-.192-.385L74.08 25.942a17.84 17.84 0 1 1 31.795-16.195l45.836 89.939a17.84 17.84 0 0 1-7.795 23.996z" fill="url(#b)"/><path d="M169.551 102.312a24.073 24.073 0 1 1 24.074 24.073 24.073 24.073 0 0 1-24.074-24.073zm36.767 0c0-7.476-5.147-12.886-12.133-12.886s-12.133 5.41-12.133 12.886 5.042 12.868 12.133 12.868 12.045-5.41 12.045-12.868zm65.602-23.338v46.658h-11.94v-3.081a23.758 23.758 0 0 1-12.974 3.834 24.073 24.073 0 1 1 12.974-44.33v-3.081zm-12.413 23.338c0-7.476-5.13-12.886-12.133-12.886s-12.133 5.41-12.133 12.886 5.13 12.868 12.133 12.868 12.133-5.41 12.133-12.868zm63.362-17.263l-23.706 29.396h23.706v11.187h-42.842v-6.057l23.705-29.396h-23.705V78.974h42.842zm4.289 17.263a24.073 24.073 0 1 1 24.074 24.073 24.073 24.073 0 0 1-24.074-24.073zm36.662 0c0-7.476-5.13-12.886-12.116-12.886s-12.045 5.41-12.045 12.886 5.025 12.868 12.133 12.868 12.028-5.41 12.028-12.868zm16.702 0a24.091 24.091 0 1 1 24.109 24.073h-.035a24.144 24.144 0 0 1-24.074-24.073zm36.68 0c0-7.476-5.13-12.886-12.133-12.886s-12.133 5.41-12.133 12.886 5.042 12.868 12.133 12.868 12.133-5.41 12.133-12.868z" fill="#cd0096"/></g></g></svg>