<svg width="260" height="195" viewBox="0 0 260 195" fill="none" xmlns="http://www.w3.org/2000/svg"><g clip-path="url(#clip0)"><path d="M232.846 194.071c12.575 0 22.769-2.502 22.769-5.588 0-3.086-10.194-5.588-22.769-5.588-12.576 0-22.77 2.502-22.77 5.588 0 3.086 10.194 5.588 22.77 5.588zm-200.995.93c12.576 0 22.77-2.502 22.77-5.588 0-3.087-10.194-5.589-22.77-5.589-12.575 0-22.769 2.502-22.769 5.589 0 3.086 10.194 5.588 22.77 5.588zM134.64 31.063c-16.239 2.691-32.504 1.243-48.161-.764-15.657-2.006-31.278-4.57-47.552-4.067-10.462.325-22.1 2.368-29.34 8.636-6.964 6.032-7.96 14.278-7.895 21.735.05 5.609.58 11.419 4.404 15.93 2.654 3.13 6.712 5.403 9.78 8.297 10.69 10.075 7.658 25.681.89 38.896-3.185 6.201-7.077 12.287-9.212 18.643-2.136 6.357-2.348 13.204 1.674 18.467 3.989 5.218 11.62 8.224 19.56 9.835 16.123 3.27 34.019 1.582 51.327-.766 38.311-5.222 76.194-13.669 113.967-22.101 13.981-3.118 28.024-6.255 41.475-10.847 7.469-2.544 15.068-5.746 19.851-10.811 6.071-6.429 6.125-15.303.127-20.686-10.062-9.039-32.572-7.34-40.394-17.626-4.307-5.65-2.554-13.247.737-19.925 7.051-14.327 20.868-28.394 18.878-42.791-1.364-9.89-11.003-18.17-23.809-20.458-13.419-2.398-30.57 1.606-38.16 11.439-7.815 10.15-23.809 16.591-38.147 18.964z" fill="#EAE9FF"/><path d="M155.741 52.623s-3.2-1.29-13.376 3.349c-10.176 4.64-11.454 4.047-14.083 3.338-2.629-.71-4.094-.877-6.928-4.746 0 0-1.993-10.73-3.919-12.393-1.926-1.663-10.121.947-10.121.947s-9.824 2.24-11.695-10.804c0 0 1.328-9.832-.48-12.849 0 0 3.639 1.566 9.675-.96 6.036-2.527 10.847 2.711 10.847 2.711s1.519 3.91 1.365 6.24c-.155 2.33.802 3.204 3.677 2.079 0 0 1.41-1.996-.589-5.293-1.999-3.297-3.425-5.756-2.866-8.316.56-2.56 2.161-6.101 7.315-7.887 5.154-1.785 12.155-2.12 15.516-3.509 3.362-1.39 4.174-2.294 4.174-2.294s-2.072 2.066 2.806 10.79c4.879 8.726 1.768 12.516 1.768 12.516s-2.593 6.137-14.034 5.65c0 0-11.024.4-5.003 5.045 0 0 3.85-.78 9.605-2.596 5.754-1.817 9.909 5.683 10.94 10.903 1.03 5.22 5.406 8.079 5.406 8.079z" fill="#6C63FF"/><path d="M140.917 8.86l.061-.016c.441 1.665-4.487 8.361-8.697 13.678l-.051-.038c5.944-7.505 9.03-12.343 8.687-13.624z" fill="#444053"/><path d="M132.321 22.375l.025.068c-3.364 4.25-7.594 9.322-10.981 13.077-.323.36-.644.735-.953 1.119l-.096-.08c.31-.383.633-.76.956-1.13a284.758 284.758 0 0 0 11.049-13.054z" fill="#444053"/><path d="M120.397 36.459l.066.113c-6.163 7.645-6.571 19.516-6.596 19.62l-1.301-1.492c.028-.104 1.624-10.544 7.831-18.241z" fill="#444053"/><path d="M148.591 48.477s-7.278-3.754-12.93-2.407-18.423-4.76-18.423-4.76-5.416-2.187-6.503-4.677c0 0-3.714-3.9-3.925-5.92-.212-2.021-3.828-7.097-6.187-7.293m46.918 28.67s-3.666-2.449-3.234-5.303m-2.382 8.47s-5.231-1.89-5.759-9.29m-2.686 11.207s-5.003-4.124-3.341-11.328m-6.808 9.31s-3.332-6.94-.369-11.455m25.717.201s-3.787 1.194-2.975 3.164m-1.602-9.99s-5.065 1.598-5.186 8.716m-1.865-10.358s-4.608 5.65-4.27 10.79m-3.81-8.574s-4.578 4.348-3.994 6.769m1.234-8.305s-4.294.766-4.895-.636m-.685-4.513s2.17 2.854 2.729 2.214m18.777-4.021s-10.822.775-13.274-2.46M118.355 16.58s5.079 10.831 8.766 12.203m-3.439-17.361s3.12 9.963 6.984 13.073" stroke="#444053" stroke-miterlimit="10"/><path d="M146.691 20.937s-8.231 3.51-13.173-.04m-2.502-11.6s1.881 7.324 4.414 9.093m10.018-5.656s-4.624 1.74-6.352.407" stroke="#444053" stroke-width=".75" stroke-miterlimit="10"/><path d="M116.671 33.357s0 6.384-1.749 6.839m-12.553 1.432s6.946.592 10.151-2.97m2.357-12.842s-1.681 6.475-6.318 8.22m-10.356.771s4.917 1.7 9.146-2.625m2.062-11.932s-.455 5.498-3.473 8.072m-7.553-1.892s4.08.029 5.035-1.293" stroke="#444053" stroke-miterlimit="10"/><path d="M230.657 33.922H20.192a2.832 2.832 0 0 0-2.84 2.822v116.007a2.831 2.831 0 0 0 2.84 2.822h210.465a2.831 2.831 0 0 0 2.841-2.822V36.744a2.832 2.832 0 0 0-2.841-2.822z" fill="url(#paint0_linear)"/><path d="M230.339 35.633H20.536a2.832 2.832 0 0 0-2.84 2.822v113.892a2.831 2.831 0 0 0 2.84 2.822H230.34a2.831 2.831 0 0 0 2.841-2.822V38.455a2.832 2.832 0 0 0-2.841-2.822z" fill="#fff"/><path d="M230.339 35.633H20.536a2.832 2.832 0 0 0-2.84 2.822v113.892a2.831 2.831 0 0 0 2.84 2.822H230.34a2.831 2.831 0 0 0 2.841-2.822V38.455a2.832 2.832 0 0 0-2.841-2.822z" fill="#fff"/><path opacity=".04" d="M230.339 35.633H20.536a2.832 2.832 0 0 0-2.84 2.822v113.892a2.831 2.831 0 0 0 2.84 2.822H230.34a2.831 2.831 0 0 0 2.841-2.822V38.455a2.832 2.832 0 0 0-2.841-2.822z" fill="#5A5773"/><path d="M232.085 34.262H18.78c-.29 0-.569.114-.774.318-.205.204-.32.48-.32.769v4.596H233.17v-4.587a1.082 1.082 0 0 0-.667-1.01 1.099 1.099 0 0 0-.418-.086z" fill="#5A5773"/><path d="M21.998 38.57c.816 0 1.478-.657 1.478-1.468 0-.812-.662-1.47-1.478-1.47-.817 0-1.479.658-1.479 1.47 0 .81.662 1.469 1.479 1.469zm3.98 0c.817 0 1.479-.657 1.479-1.468 0-.812-.662-1.47-1.479-1.47-.816 0-1.478.658-1.478 1.47 0 .81.662 1.469 1.478 1.469zm3.981 0c.816 0 1.478-.657 1.478-1.468 0-.812-.662-1.47-1.478-1.47-.817 0-1.479.658-1.479 1.47 0 .81.662 1.469 1.479 1.469zm179.523 27.836H34.437a2.31 2.31 0 0 0-2.318 2.303v84.155a2.31 2.31 0 0 0 2.318 2.302h175.045a2.31 2.31 0 0 0 2.318-2.302V68.709a2.31 2.31 0 0 0-2.318-2.303z" fill="#fff"/><path opacity=".2" d="M75.306 45.977H25.378a.875.875 0 0 0-.878.872v3.645c0 .482.393.872.878.872h49.928c.485 0 .878-.39.878-.872v-3.645a.875.875 0 0 0-.878-.872z" fill="#5A5773"/><path opacity=".2" d="M172.765 76.709h-49.928a.875.875 0 0 0-.878.872v3.645c0 .482.393.873.878.873h49.928c.485 0 .878-.39.878-.873v-3.645a.875.875 0 0 0-.878-.872zm29.02 15.09h-78.948a.875.875 0 0 0-.878.872v3.645c0 .482.393.872.878.872h78.948c.485 0 .878-.39.878-.872v-3.645a.875.875 0 0 0-.878-.872zm0 8.814h-78.948a.876.876 0 0 0-.878.873v3.645c0 .481.393.872.878.872h78.948a.875.875 0 0 0 .878-.872v-3.645a.876.876 0 0 0-.878-.873zm0 8.813h-78.948a.875.875 0 0 0-.878.872v3.645c0 .482.393.872.878.872h78.948c.485 0 .878-.39.878-.872v-3.645a.875.875 0 0 0-.878-.872zm0 8.814h-78.948a.876.876 0 0 0-.878.873v3.645c0 .481.393.872.878.872h78.948a.875.875 0 0 0 .878-.872v-3.645a.876.876 0 0 0-.878-.873zm.001 9.715H42.739a.875.875 0 0 0-.878.872v3.645c0 .482.393.873.878.873h159.047a.876.876 0 0 0 .878-.873v-3.645a.875.875 0 0 0-.878-.872zm0 8.815H42.739a.875.875 0 0 0-.878.872v3.645c0 .482.393.872.878.872h159.047c.485 0 .878-.39.878-.872v-3.645a.875.875 0 0 0-.878-.872zm0 8.812H42.739a.875.875 0 0 0-.878.872v3.645c0 .482.393.873.878.873h159.047a.876.876 0 0 0 .878-.873v-3.645a.875.875 0 0 0-.878-.872z" fill="#6C63FF"/><path d="M165.874 149.146s1.349 1.752-.623 4.398-3.596 4.879-2.939 6.529c0 0 2.973-4.913 5.395-4.972 2.423-.059.831-3.001-1.833-5.955z" fill="#6C63FF"/><path opacity=".1" d="M165.875 149.146c.117.17.21.355.275.55 2.363 2.757 3.621 5.33 1.351 5.394-2.115.061-4.653 3.819-5.261 4.766.019.077.044.152.073.226 0 0 2.973-4.913 5.395-4.972 2.422-.059.83-3.01-1.833-5.964z" fill="#000"/><path d="M168.382 151.381c0 .616-.069 1.116-.155 1.116-.087 0-.155-.5-.155-1.116 0-.617.087-.326.173-.326.087 0 .137-.291.137.326z" fill="#FFD037"/><path d="M169.243 152.116c-.546.294-1.022.473-1.062.398-.041-.074.368-.375.909-.678.542-.303.33-.081.371 0 .041.082.325-.016-.218.28z" fill="#FFD037"/><path d="M158.751 149.146s-1.348 1.752.621 4.398c1.97 2.646 3.598 4.879 2.941 6.529 0 0-2.975-4.913-5.395-4.972-2.42-.059-.83-3.001 1.833-5.955z" fill="#6C63FF"/><path opacity=".1" d="M158.751 149.146a2.105 2.105 0 0 0-.277.55c-2.361 2.757-3.619 5.33-1.349 5.394 2.115.061 4.651 3.819 5.259 4.766a1.794 1.794 0 0 1-.071.226s-2.975-4.913-5.395-4.972c-2.42-.059-.83-3.01 1.833-5.964z" fill="#000"/><path d="M156.242 151.378c0 .617.071 1.117.157 1.117.087 0 .155-.5.155-1.117s-.087-.321-.171-.321c-.084 0-.141-.296-.141.321z" fill="#FFD037"/><path d="M155.383 152.116c.546.294 1.021.473 1.062.398.041-.074-.369-.375-.91-.678-.541-.303-.33-.081-.371 0-.041.082-.327-.016.219.28z" fill="#FFD037"/><path d="M162.312 173.476c7.788 0 14.102-.962 14.102-2.149s-6.314-2.149-14.102-2.149-14.101.962-14.101 2.149 6.313 2.149 14.101 2.149z" fill="#EAE9FF"/><path d="M169.576 157.712l-.068.547-.094.772-.041.324-.093.772-.041.324-.095.77-1.078 8.791c-.098.784-1.388 1.396-2.957 1.396h-5.6c-1.558 0-2.845-.612-2.941-1.396l-1.082-8.784-.094-.771-.041-.323-.095-.773-.039-.323-.095-.773-.068-.546c-.053-.452.645-.819 1.526-.819h11.467c.881-.006 1.579.367 1.529.812z" fill="#65617D"/><path d="M169.502 158.258l-.093.773h-14.192l-.096-.773h14.381zm-.133 1.094l-.094.772h-13.924l-.095-.772h14.113zm-.136 1.095l-.096.773h-13.653l-.093-.773h13.842z" fill="#9D9CB5"/><path opacity=".2" d="M108.616 73.719H43.795c-1.068 0-1.934.86-1.934 1.92v46.222c0 1.061.866 1.921 1.934 1.921h64.821c1.068 0 1.933-.86 1.933-1.921V75.64a1.927 1.927 0 0 0-1.933-1.921z" fill="#6C63FF"/><path d="M255.886 129.399c.087-.226-.555-1.519-.555-1.582 0-.063-.662-.78-.662-1.18 0-.399-.875-1.265-.875-1.265s-1.176-.484-1.303-1.539c-.128-1.055-1.408-1.073-1.411-1.073v-.242a3.299 3.299 0 0 0-.157-1.232 1.246 1.246 0 0 0-.725-.612s-.13-.823-.385-1.076a1.204 1.204 0 0 1-.3-1.13c.13-.397-.17-1.41-.789-1.559-.619-.149-1.326-.38-1.326-.38l-.171.03-.084-.03a3.47 3.47 0 0 1-.455.057.561.561 0 0 1-.361-.118c-.214-.226-1.945-.678-2.275-.678-.329 0-1.239-.422-1.239-.422s-.642-.484-.91-.696c-.268-.213-.735-.983-.805-1.101v-.015a3.786 3.786 0 0 1-.193-.554 5.01 5.01 0 0 0 .857-1.211.468.468 0 0 0 .139-.021l.057-.022a.913.913 0 0 0 .454-.538c.017-.046.03-.093.041-.14v-.048l.021-.095a.486.486 0 0 1 0-.054l.014-.095v-.054c0-.041 0-.079.015-.12.014-.151.036-.302.066-.452.128-.571.476-1.055.719-1.582.034-.074.068-.151.098-.226a3.18 3.18 0 0 0 .084-.255l.021-.079.043-.19c.013-.063 0-.056.016-.086a3.256 3.256 0 0 0-.194-1.744c-.159-.396-.398-.753-.559-1.148-.246-.599-.312-1.279-.61-1.851a2.213 2.213 0 0 0-1.131-1.024 2.236 2.236 0 0 0-1.53-.052c-.455.172-.869.504-1.339.653-.633.202-1.306.05-1.961-.038s-1.365-.099-1.901.325c-.605.489-.769 1.406-1.338 1.942-.227.226-.534.368-.787.576a1.283 1.283 0 0 0-.396.538l-.013.043a.353.353 0 0 0-.014.056.308.308 0 0 0-.011.106.753.753 0 0 0 .016.219v.03c0 .029.016.059.027.088.011.029 0 .011 0 .016 0 .004.025.065.039.097l.02.047c0 .014 0 .028.018.039.082.157.148.321.198.49a.54.54 0 0 1-.02.323.955.955 0 0 1-.228.31 4.375 4.375 0 0 0-1.032 1.731h.029c.061.017.124.03.187.038a.955.955 0 0 0 .107 0c.146.009.293-.002.436-.031l.11-.027c.148-.039.293-.091.432-.156v.201a4.98 4.98 0 0 0 .76 2.638 5.028 5.028 0 0 0 2.044 1.845c0 .045.011.091.018.136l.014.115-.057-.054s-.384-.19-.748.357a2.408 2.408 0 0 1-1.046.802s-3.89.61-4.04 1.116l-1.819.107s-.642.083-.705 1.412c-.064 1.329-.405 1.453-.405 1.453s-.749 1.309-.683 1.982a1.103 1.103 0 0 1-.577 1.012l-.085 1.203s-.705-.107-.909.716a2.858 2.858 0 0 1-.533 1.2s-1.175.972-1.239 1.792l-.728.452s-1.688-.38-2.072-1.053c0 0-.045-.045-.118-.111v-.016c-.253-.226-.787-.732-.705-.617.05.106.062.226.034.339l-.125-.138-.337-.37s-2.729-2.54-4.321-2.741c-.021-.041-.125-.452-.398-.192a2.208 2.208 0 0 0-.54 2.506c.122.28.3.533.524.741l2.556 2.37.066.048.548.7c-.093.226-.17.434-.227.629v.02l-.041.122a.19.19 0 0 0-.011.041c-.014.04-.025.079-.037.117l-.02.068v.041a6.46 6.46 0 0 0-.119.465l-.143-.045.139.061v.066l.132.056c.748.323 4.483 1.953 4.674 2.199.191.246 1.624 1.076 2.906.4 1.283-.676 1.558-1.706 1.558-1.706s1.24-1.709 1.283-1.962c.043-.253 1.003-.547 1.003-.547s.087 2.823-.405 3.858c-.491 1.035-1.41 5.606-1.41 5.606a.693.693 0 0 1 .182 0l-.054.265a.619.619 0 0 1 .227 0c-.068.519-.455 2.937-.455 2.937s-.127 1.096-.341 1.476c-.214.38-.227 2.362-.227 2.362l-.344 1.432s.046.1.13.247c.23.487.565.919.982 1.263a2.473 2.473 0 0 1-.172.655 2.284 2.284 0 0 0-.171 1.013s-.362 1.622-.321 2.085c.041.464-.227 1.603-.227 1.603l-.385 3.667s-.254 3.182-.127 4.048a7.738 7.738 0 0 1-.086 2.033s.257 2.509.193 2.782c-.064.274-.384 1.455-.193 2.109.191.653.086 2.445.086 2.445s.127 2.361.278 3.12a5.31 5.31 0 0 1-.044 1.729s-.15 1.623-.213 1.623c-.064 0-.619 1.116.511 2.212 1.131 1.096.43.927.43.927s-.91-.452-.791.465c.1.861.241.637.254.612l-.213.694.15.021-.123.146a3.186 3.186 0 0 1-.432.452.917.917 0 0 0-.278.611s-1.581 1.708-3.054 2.571c-.776.452-1.445.839-1.736 1.159-.264.285-.227.516.326.696 1.153.38 3.184.57 4.635.084a5.431 5.431 0 0 0 2.274-1.453s.91-.465 1.82-.296c.91.17 2.693-.99 2.693-.99l-.034-.298-.094-.863a.69.69 0 0 1-.15-.525 2.694 2.694 0 0 0-.075-.759l-.048-.244.164-.032s-.211-1.073.173-1.285c.384-.213.275-2.972.275-2.972s-.489-.633-.746-.737c-.257-.104-.023-1.414.023-1.582.045-.167.384-3.437.384-3.437s-.129-1.03.041-1.473c.171-.443-.213-2.151-.213-2.151a.39.39 0 0 1 .106-.464c.228-.253.151-2.508.151-2.508s-.021-1.13-.021-1.435c0-.305.255-1.369.491-1.727.237-.357.084-1.475.084-1.475l.014-.084c0-.031 0-.072.018-.12l.019-.113c.104-.617.244-1.228.418-1.83.278-.884.598-2.443.598-2.443l1.986-5.148.023-.061s.909 1.686.909 3.248c0 0 .228 1.875.173 2.382-.054.506.148 2.885.148 2.885s.277 3.415.277 3.562c0 .147.344 2.782.558 3.184.214.402-.214 1.622-.344 1.749-.129.126.043 3.225.043 3.225s-.32 2.445-.384 2.951c-.064.506-.321 2.445-.107 3.204.214.76.128.864.128.864s.771.781.32.845a1.176 1.176 0 0 0-.921 1.048c-.013.165.009.332.066.488.268.772.582 1.526.942 2.26l.355-.074v.25l.025 1.257s.15 1.2.063 1.475c-.061.199-.148 1.144-.189 1.639l-.025.3s0 1.117 2.373.78c2.372-.337 2.797-1.265 2.797-1.265l.018-.116c.035-.212.112-.664.176-.917.084-.337-.683-1.855-.683-1.855s-.127-1.033-.341-1.264a1.114 1.114 0 0 1-.173-.452 5.95 5.95 0 0 1-.05-.26c.054.007.107.016.159.028 0 0-.129-.737.364-.97.494-.233.362-.716.298-.926-.063-.211.191-1.392.191-1.392a.678.678 0 0 1 .171-.678c.3-.296.534-2.362.534-2.362l.044-7.968s.15-1.412-.021-1.982c-.17-.569-.341-1.665-.107-1.961.234-.296.021-1.663.021-1.663s0-2.888.32-3.616c.321-.728.214-5.25.214-5.25l.084-2.971s.699-.656.535-4.068c.744-.047 1.592-.074 1.71.029.228.19 1.752 1.16 2.65.547.371-.253.727-.527 1.067-.82l-.378-6.327.378.585c0-.884 2.522-3.751 2.522-3.751s2.349-3.015 2.861-3.372c.512-.357 1.517-2.26 1.517-2.26.149-.361.321-.713.514-1.053.237-.359-.532-1.372-.448-1.602zm-5.511 2.212c-.641.064-1.988 1.519-2.008 1.835a1.299 1.299 0 0 1-.284.565c0-.126-.021-.255-.032-.386-.15-1.865-.314-4.133-.228-4.353.128-.379.085-2.088.085-2.088l.025-.034c.429 1.325 1.767 2.884 1.767 2.884s.227.678.514.694c.286.016.161.883.161.883z" fill="url(#paint1_linear)"/><path d="M216.121 131.13s.78-4.068 3.284-4.068l1.834 3.745-1.222.836s-2.654.072-3.896-.513z" fill="#65617D"/><path opacity=".1" d="M221.239 130.795l-1.222.836s-1.867.059-3.202-.267a3.68 3.68 0 0 1-.694-.226l.014-.065v-.014c.114-.51.272-1.009.473-1.491.077-.183.164-.371.259-.559.366-.7.883-1.389 1.592-1.728a2.15 2.15 0 0 1 .835-.226h.111l.041.083.619 1.266 1.174 2.391z" fill="#000"/><path d="M242.04 147.655s2.632-.25 2.864-.061c.232.19 1.726 1.151 2.609.543.882-.608.295-2.712.295-2.802 0-.091-.084-3.076-.084-3.076l-1.578-2.113-1.979-3.701-4.044-.398.105 5.875-.021 3.013 1.833 2.72z" fill="#65617D"/><path opacity=".1" d="M242.04 147.655s2.632-.25 2.864-.061c.232.19 1.726 1.151 2.609.543.882-.608.295-2.712.295-2.802 0-.091-.084-3.076-.084-3.076l-1.578-2.113-1.979-3.701-4.044-.398.105 5.875-.021 3.013 1.833 2.72z" fill="#000"/><path d="M218.879 126.947s-.211 2.551-1.819 2.594c0 0-.455-.271-1.065-.725-1.405-1.047-3.639-3.056-3.02-4.924.885-2.678 5.179 2.259 5.179 2.259l.332.369.393.427z" fill="#FBBEBE"/><path opacity=".1" d="M218.88 126.946s-.212 2.551-1.82 2.594c0 0-.455-.271-1.064-.725l-.137-.174c.273.138.573.215.878.226a1.192 1.192 0 0 0 1.138-.717c.172-.328.324-.667.454-1.014.076-.203.13-.413.162-.626l.389.436z" fill="#000"/><path d="M218.184 131.57l-.359-.452-1.213-1.55-.616-.794c.272.139.571.216.876.226a1.17 1.17 0 0 0 1.137-.716c.169-.328.317-.666.443-1.012.201-.565.196-.854.126-.954-.071-.099.454.38.696.615l.116.108.043.086.634 1.22a.226.226 0 0 1 0 .052c.046.385.25 2.823-1.883 3.171z" fill="#E7EFFD"/><path d="M230.798 185.407s-1.77 1.152-2.655.983a3.195 3.195 0 0 0-1.79.294 5.327 5.327 0 0 1-2.231 1.444c-1.433.481-3.432.291-4.569-.084-.537-.178-.58-.409-.321-.691.259-.283.946-.699 1.711-1.151 1.453-.858 3.011-2.551 3.011-2.551a.9.9 0 0 1 .273-.608c.156-.136.299-.288.425-.452.228-.264.439-.542.439-.542l5.211.194s.089.373.159.755c.059.246.084.499.073.752a.681.681 0 0 0 .148.522l.093.855.023.28zm10.876 1.45c-.061.251-.139.698-.173.904 0 .07-.016.115-.016.115s-.42.92-2.759 1.254c-2.338.335-2.335-.773-2.335-.773l.022-.3c.041-.488.125-1.426.187-1.625.084-.271-.062-1.464-.062-1.464l-.025-1.248-.018-.865 3.867-.398c.025.288.066.574.125.856.022.162.081.316.17.452.21.226.337 1.255.337 1.255s.771 1.502.68 1.837z" fill="#65617D"/><path opacity=".1" d="M230.303 182.244s.089.373.159.754c-.562.102-3.018.525-3.639.226-.696-.334-2.19-.522-2.19-.522l.025-.085c.227-.265.439-.543.439-.543l5.206.17zm10.197 1.077c-.98-.165-3.134.226-3.98.407l-.018-.865 3.866-.398c.028.288.072.574.132.856z" fill="#000"/><path d="M242.691 151.61l-.081 2.937s.104 4.497-.212 5.198c-.316.7-.316 3.577-.316 3.577s.211 1.356-.021 1.652c-.232.296-.063 1.381.105 1.946.168.565.02 1.966.02 1.966l-.04 7.909s-.228 2.05-.528 2.343a.684.684 0 0 0-.168.678s-.253 1.171-.189 1.381c.063.21.189.689-.294.92-.482.23-.359.963-.359.963-1.158-.274-4.442.451-4.442.451a20.14 20.14 0 0 1-.928-2.239 1.16 1.16 0 0 1 .074-.954 1.175 1.175 0 0 1 .77-.574c.441-.061-.316-.836-.316-.836s.084-.104-.128-.858c-.211-.755.044-2.678.107-3.18l.378-2.938s-.168-3.075-.041-3.2c.127-.124.546-1.34.337-1.735-.21-.396-.549-3.012-.549-3.164 0-.151-.273-3.536-.273-3.536s-.252-2.364-.188-2.866c.063-.502-.171-2.364-.171-2.364 0-1.548-.91-3.222-.91-3.222l-.022.061-1.956 5.143s-.317 1.548-.59 2.427a15.972 15.972 0 0 0-.411 1.808l-.018.113-.019.118-.013.083s.145 1.108-.087 1.465a5.21 5.21 0 0 0-.482 1.715c0 .294.021 1.423.021 1.423s.084 2.238-.148 2.486a.393.393 0 0 0-.105.452s.378 1.695.209 2.133c-.168.439-.041 1.465-.041 1.465s-.336 3.243-.379 3.41c-.044.167-.273 1.464-.021 1.568.253.104.737.732.737.732s.105 2.741-.273 2.949c-.377.208-.17 1.277-.17 1.277s-3.053.585-3.746.251c-.694-.335-2.191-.522-2.191-.522l.21-.678c-.014.025-.153.249-.251-.608-.107-.904.778-.452.778-.452s.696.167-.421-.92c-1.116-1.087-.568-2.196-.505-2.196.064 0 .21-1.611.21-1.611a5.313 5.313 0 0 0 .043-1.716c-.148-.752-.273-3.095-.273-3.095s.105-1.779-.086-2.427c-.191-.649.127-1.808.191-2.093.063-.285-.191-2.762-.191-2.762a7.738 7.738 0 0 0 .086-2.033c-.127-.859.125-4.018.125-4.018l.38-3.639s.273-1.129.227-1.581c-.045-.452.317-2.07.317-2.07a2.278 2.278 0 0 1 .168-1.006c.211-.418.296-1.808.296-1.808l2.021-4.601.99-4.067 13.369-.127a148.296 148.296 0 0 0 .453 3.747c.116 1.062.243 2.312.368 3.701.407 4.452-.437 5.248-.437 5.248z" fill="#3F3D56"/><path d="M241.447 114.98l-3.114 3.311s-3.998-1.582-3.578-2.136c.162-.21.137-.874.044-1.607-.148-1.159-.455-2.485-.455-2.485s6.989-1.13 6.398.04a1.917 1.917 0 0 0-.044 1.39c.169.532.422 1.034.749 1.487z" fill="#FBBEBE"/><path opacity=".1" d="M240.733 112.092c-.214.429-.317.47-.182.931-.91.974-2.077 2.033-3.523 2.033a5.017 5.017 0 0 1-2.229-.519c-.148-1.16-.455-2.486-.455-2.486s6.98-1.13 6.389.041z" fill="#000"/><path d="M242.041 109.96a4.963 4.963 0 0 1-1.468 3.521 5.028 5.028 0 0 1-3.544 1.458 5.028 5.028 0 0 1-3.544-1.458 4.966 4.966 0 0 1-1.467-3.521v-.072a4.97 4.97 0 0 1 1.493-3.51 5.008 5.008 0 0 1 1.633-1.067 5.05 5.05 0 0 1 3.835.027 5.017 5.017 0 0 1 1.618 1.091 4.97 4.97 0 0 1 1.442 3.531h.002z" fill="#FBBEBE"/><path opacity=".1" d="M242.766 142.805c-.664 0-2.875.022-5.345.063h-.029l-.817.014h-.025c-2.929.045-5.816-.522-6.975-.416-2.464.226.884-2.26.884-2.26 1.836.442 3.724.631 5.611.563l.71-.036c2.238-.127 4.487-.335 5.663-.678.082.641.196 1.582.323 2.75z" fill="#000"/><path d="M242.766 142.68c-.664 0-2.875.024-5.345.063h-.029l-.817.013h-.025c-2.929.048-5.816-.522-6.975-.413-2.464.226.884-2.26.884-2.26 1.836.443 3.724.632 5.611.563l.71-.036c2.238-.125 4.487-.335 5.663-.678.082.639.196 1.579.323 2.748z" fill="#5F5D7E"/><path opacity=".1" d="M235.682 116.36l-3.867 1.808-2.991 22.968s1.77-.795 2.78-.293c1.009.501 4.125.043 4.125.043s2.275-.127 2.611.126c.337.253 4.297-1.046 4.297-1.046s.716-1.582.168-1.842c-.548-.26.168-2.712.168-2.712l-.336-16.568-.682-2.134-1.82-1.089-1.851 1.464-.885.127-1.717-.852z" fill="#000"/><path d="M235.683 116.11l-3.867 1.808-2.998 22.97s1.77-.795 2.78-.293c1.01.501 4.126.043 4.126.043s2.274-.127 2.611.124c.336.251 4.296-1.044 4.296-1.044s.716-1.582.168-1.842c-.548-.26.169-2.712.169-2.712l-.337-16.568-.682-2.134-1.82-1.089-1.851 1.464-.885.127-1.71-.854z" fill="#E7EFFD"/><path opacity=".1" d="M235.618 117.177s1.117 1.318 1.096 1.582c-.02.265-.063.922-.063.922l-.842 1.693s-.455 2.113-.455 2.553c0 .441-.737 4.246-.737 4.246l-.903 5.865-1.116 7.683 1.137 1.946 1.349-1.13 1.79-13.681.377-2.698s.4-4.854.4-5.356a16.613 16.613 0 0 0-.227-1.819s.275-1.257 1.412-1.548c1.138-.292-.086-.063-.086-.063l-.65-.522-.569.226s-1.576-.484-1.913.101z" fill="#000"/><path d="M235.493 117.05s1.114 1.317 1.094 1.582c-.021.264-.064.92-.064.92l-.842 1.694s-.455 2.113-.455 2.552c0 .438-.737 4.246-.737 4.246l-.882 5.857-1.117 7.684 1.137 1.945 1.347-1.13 1.79-13.681.38-2.698s.4-4.854.4-5.355a17.171 17.171 0 0 0-.227-1.822s.273-1.254 1.41-1.548c1.137-.294-.084-.061-.084-.061l-.653-.524-.569.226s-1.592-.472-1.928.113z" fill="#6C63FF"/><path opacity=".1" d="M234.756 114.854s-.168.126-.212.962c-.043.836-.632 2.712-.632 2.712s2.19-1.505 3.284-1.338l-2.44-2.336z" fill="#000"/><path d="M234.756 114.604s-.168.126-.212.962c-.043.836-.632 2.712-.632 2.712s2.19-1.505 3.284-1.338l-2.44-2.336z" fill="#E7EFFD"/><path opacity=".1" d="M240.736 114.186l-3.453 3.012s2.905 1.715 3.284 2.133c.38.418.758-4.099.758-4.099l-.589-1.046z" fill="#000"/><path d="M240.861 113.934l-3.453 3.012s2.907 1.715 3.285 2.133c.377.418.757-4.099.757-4.099l-.589-1.046z" fill="#E7EFFD"/><path opacity=".1" d="M234.882 114.853s-.378-.187-.737.358c-.263.354-.62.629-1.031.793 0 0-3.832.608-3.98 1.109l-1.79.104s-.632.084-.682 1.404c-.05 1.319-.401 1.441-.401 1.441s-.737 1.297-.682 1.966a1.098 1.098 0 0 1-.569 1.006l2.632 6.797s.084 2.805-.4 3.829c-.485 1.023-1.39 5.565-1.39 5.565s.38-.083.357.168c-.023.25-.455 2.992-.455 2.992s-.127 1.087-.336 1.464c-.21.377-.228 2.341-.228 2.341l-.336 1.424s.798 1.778 2.019 1.527c1.222-.25 3.43-5.001 3.43-5.001l1.41-5.125 1.096-5.062.317-3.43.505-7.595.736-5.019s.81-2.698.515-3.056z" fill="#000"/><path d="M234.755 114.603s-.38-.187-.737.358a2.387 2.387 0 0 1-1.033.793s-3.832.608-3.98 1.109l-1.788.104s-.632.084-.696 1.401c-.063 1.318-.4 1.444-.4 1.444s-.737 1.297-.682 1.966a1.095 1.095 0 0 1-.569 1.006l2.641 6.806s.084 2.805-.4 3.829c-.485 1.023-1.39 5.565-1.39 5.565s.38-.083.359.168c-.02.25-.455 2.989-.455 2.989s-.125 1.09-.336 1.465c-.212.375-.228 2.343-.228 2.343l-.336 1.424s.8 1.778 2.022 1.525c1.221-.253 3.432-4.999 3.432-4.999l1.41-5.125 1.094-5.062.302-3.444.505-7.595.737-5.019s.821-2.693.528-3.051z" fill="#65617D"/><path opacity=".1" d="M221.239 130.796l-1.222.836s-1.867.058-3.202-.267l-.682-.301-.137-.058.141.045a2.81 2.81 0 0 0 1.685.059c1.729-.579 1.538-3.413 1.47-4.054 0-.066-.012-.107-.014-.122v.015a.977.977 0 0 0 .08.111l.077.081.632 1.207a.226.226 0 0 1 0 .052l1.172 2.396z" fill="#000"/><path d="M225.47 122.617l-.589.167-.085 1.191s-.682-.104-.884.712a2.856 2.856 0 0 1-.526 1.193s-1.157.963-1.221 1.779l-.717.438s-1.662-.377-2.047-1.046c0 0 .76 5.396-3.284 4.068 0 0 4.526 1.966 4.738 2.239.211.273 1.592 1.067 2.863.398 1.272-.669 1.538-1.695 1.538-1.695s1.221-1.695 1.262-1.946c.041-.251.99-.544.99-.544l1.819-4.351-3.857-2.603z" fill="#65617D"/><path opacity=".1" d="M240.25 116.695l.61-2.761s.275.904.548 1.109l.91.678s.909.418 1.221.418c.312 0 2.022.452 2.231.678.209.226 1.053.063 1.053.063s.694.226 1.306.378c.612.151.91 1.15.778 1.548-.051.198-.051.405.001.602.052.198.153.379.294.528.253.25.38 1.066.38 1.066.309.101.566.318.714.606.212.452.148 1.464.148 1.464l-3.136 4.393s.041 1.695-.084 2.072c-.125.378.441 6.78.441 6.78l.653 11.003c-.335.292-.687.564-1.053.816-.189.083-.378-3.892-.378-4.036 0-.145-4.865-7.232-4.865-7.232s-.653-1.046-.653-1.277c0-.23-.609-2.343-.609-2.343l-.926-4.068.416-12.485z" fill="#000"/><path d="M250.703 122.837v.239l-3.134 4.389s.043 1.694-.084 2.072c-.073.226.086 2.47.227 4.318.107 1.334.205 2.459.205 2.459l.277 4.667.376 6.327c-.335.292-.687.564-1.053.816-.189.083-.378-3.892-.378-4.039 0-.146-4.865-7.231-4.865-7.231s-.653-1.046-.653-1.277c0-.23-.609-2.343-.609-2.343l-.926-4.068.421-12.467.357-2.761s.527.903.8 1.107l.91.691s.91.418 1.222.418c.311 0 2.022.452 2.231.678.209.226 1.053.064 1.053.064s.696.226 1.305.377c.61.151.91 1.15.778 1.548a1.207 1.207 0 0 0 .296 1.13c.252.251.38 1.066.38 1.066.309.101.566.318.714.606.124.392.174.803.15 1.214z" fill="#65617D"/><path opacity=".1" d="M224.965 178.574c.104 0 4.526.167 4.442.879-.084.712-4.442-.879-4.442-.879zm.988 1.184s2.968.481 2.19.92c-.777.438-2.19-.92-2.19-.92zm11.033-1.643s4.927.418 4.19.961c-.737.542-2.484.628-2.568.648-.084.021-1.622-1.609-1.622-1.609zm-.588 2.153s2.73.452 2.821.983c.091.531-2.821-.983-2.821-.983zm1.514-12.592s2.502.585 2.654.983l-2.654-.983zm-9.657 1.797s-1.306.377-.041 1.13c1.264.752.041-1.13.041-1.13zm5.784-20.104c.148 0 2.443-.753 3.243-.418a5.379 5.379 0 0 0 1.788.334l-5.031.084zm.295 2.385l-.023.208-1.963 5.107s-.316 1.548-.589 2.427c-.172.595-.31 1.198-.411 1.808l1.737-10.704 1.249 1.154z" fill="#000"/><path d="M237.392 142.743l-.817.013h-.025l-.48-2.108.71-.039.612 2.134z" fill="#3F3D56"/><path d="M247.324 140.189l-.524.429-1.751 1.43s-4.735 2.511-6.041.127c-1.151-2.102 4.219-3.602 5.513-3.93l.276-.065 2.527 2.009z" fill="#FBBEBE"/><path opacity=".1" d="M227.092 119.625s.925.418 1.137 1.003c.212.586-1.137-1.003-1.137-1.003zm-2.864 6.275s-1.347 1.632-.801 2.26c.546.628.801-2.26.801-2.26zm24.085-5.349s-1.262.126-1.305 1.213l1.305-1.213zm-11.706 17.148c.128-.126 3.032-4.393 3.708-4.015l-3.708 4.015zm5.434-27.739a4.94 4.94 0 0 1-.593 2.351h-.037c-.318-.068-.484-.434-.725-.665a.993.993 0 0 0-1.137-.158 1.145 1.145 0 0 0-.56 1.073c-.159-.678-.109-1.383-.266-2.054-.157-.671-.628-1.356-1.274-1.356-.277 0-.602.102-.803-.106-.12-.124-.145-.321-.227-.472-.455-.744-1.865-.369-2.438.013-.573.382-1.24.988-1.952 1.313a4.962 4.962 0 0 1 1.494-3.509 5.027 5.027 0 0 1 3.553-1.433c1.329.01 2.6.543 3.533 1.484a4.962 4.962 0 0 1 1.441 3.531l-.009-.012z" fill="#000"/><path d="M236.41 108.434c.091.151.116.348.228.474.2.206.525.1.803.104.646.011 1.119.692 1.273 1.356.155.664.107 1.383.269 2.052a1.131 1.131 0 0 1 .557-1.071.993.993 0 0 1 1.137.156c.241.226.407.599.726.664.318.066.623-.237.737-.569.081-.344.142-.692.182-1.042.143-.651.573-1.187.809-1.808a3.258 3.258 0 0 0-.02-2.337c-.159-.393-.394-.745-.553-1.13-.243-.594-.307-1.267-.603-1.834a2.177 2.177 0 0 0-1.112-1.017 2.203 2.203 0 0 0-1.51-.055c-.455.172-.855.502-1.319.651-.623.199-1.287.05-1.931-.04-.644-.091-1.365-.098-1.874.323-.596.486-.76 1.396-1.319 1.927-.228.226-.528.366-.776.572a1.066 1.066 0 0 0-.434.85c.038.434.454.827.307 1.229a.95.95 0 0 1-.228.305 4.381 4.381 0 0 0-1.019 1.724c1.137.348 2.347-.886 3.228-1.469.577-.381 1.981-.757 2.442-.015z" fill="#7C5C5C"/><path opacity=".1" d="M247.325 140.189l-.523.429c-.455-.766-2.361-2.294-2.361-2.294l.082-.079.275-.065 2.527 2.009z" fill="#000"/><path d="M247.83 139.413s-.187.465-.382.868c-.196.402-.407.768-.416.472-.023-.588-2.464-2.554-2.464-2.554l.33-.321.385-.37 2.547 1.905z" fill="#E7EFFD"/><path opacity=".1" d="M247.913 136.318l.278 4.667c-.655-1.011-2.45-3.6-3.603-3.517l2.8-3.2c.116-.128.223-.265.32-.409.107 1.334.205 2.459.205 2.459z" fill="#000"/><path opacity=".1" d="M247.828 139.413s-.186.465-.382.868c-.735-.999-1.742-2.181-2.55-2.403l.385-.37 2.547 1.905z" fill="#000"/><path d="M249.935 122.49l.757.586s1.265.022 1.39 1.066 1.285 1.528 1.285 1.528.862.858.862 1.256.653 1.108.653 1.171c0 .063.632 1.338.548 1.568-.084.231.682 1.234.441 1.611a9.691 9.691 0 0 0-.505 1.047s-.989 1.882-1.494 2.237c-.505.355-2.82 3.349-2.82 3.349s-2.486 2.843-2.486 3.722c0 0-2.42-4.016-3.853-3.912l2.8-3.2s.484-.524.507-.836c.023-.312 1.346-1.758 1.979-1.821 0 0 .104-.857-.169-.879-.273-.023-.505-.678-.505-.678s-1.853-2.177-1.874-3.557c-.02-1.381 2.484-4.258 2.484-4.258z" fill="#65617D"/><path opacity=".1" d="M251.052 124.477s-1.769 1.297-1.389 1.717c.38.42 1.389-1.717 1.389-1.717zm.085 5.355s3.284-1.046 3.621 0h-3.621zm-20.339 55.575s-1.77 1.153-2.655.983a3.212 3.212 0 0 0-1.79.294 5.308 5.308 0 0 1-2.231 1.444c-1.433.481-3.432.292-4.569-.083-.537-.179-.58-.409-.321-.692 1.235.244 3.999.73 4.742.377.82-.432 1.608-.921 2.359-1.464 0 0 1.82-.251 2.063-.251.18 0 1.578-.574 2.368-.904l.034.296zm10.711 2.361c0 .07-.016.115-.016.115s-.421.92-2.759 1.254c-2.338.334-2.336-.773-2.336-.773l.023-.3c.739.28 2.354.589 5.088-.296zm-13.544-63.543s0 4.77-.409 5.24c-.409.47.409-5.24.409-5.24zm18.98 1.539l.612 1.704s.241-1.673-.612-1.704zm-14.889-18.285c.155-.391-.25-.777-.302-1.198a.767.767 0 0 0-.068.378c.027.318.264.614.325.904a.487.487 0 0 0 .045-.084zm6.989 4.506c-.15-.66-.105-1.356-.259-2.018-.155-.662-.628-1.356-1.274-1.356-.278 0-.603.099-.803-.106-.123-.125-.146-.321-.227-.475-.455-.741-1.865-.364-2.441.016-.86.567-2.047 1.758-3.148 1.487a4.378 4.378 0 0 0-.143.389c1.137.348 2.347-.886 3.227-1.469.576-.38 1.979-.755 2.441-.014.091.152.116.348.227.475.201.205.526.099.803.104.646.011 1.119.691 1.274 1.356.155.664.107 1.383.268 2.051a1.133 1.133 0 0 1 .055-.44zm3.165-.783c-.113.332-.413.637-.739.569-.325-.068-.482-.434-.723-.664a.995.995 0 0 0-1.137-.158 1.144 1.144 0 0 0-.56 1.014c.085-.256.261-.471.496-.605a.993.993 0 0 1 1.137.155c.241.226.407.599.726.665.318.065.623-.237.737-.57.061-.195.1-.397.116-.601a1.48 1.48 0 0 1-.053.195zm.993-2.854c-.227.62-.666 1.155-.81 1.808a4.804 4.804 0 0 0-.061.402c.146-.65.571-1.184.807-1.807a3.12 3.12 0 0 0 .194-.868 3.113 3.113 0 0 1-.13.465z" fill="#000"/><path d="M212.777 123.497a.052.052 0 0 0 .052-.052.052.052 0 0 0-.052-.052.052.052 0 0 0-.052.052c0 .029.023.052.052.052z" fill="#E6E8EC"/><path d="M232.832 124.609H194.63c-.83 0-1.503.669-1.503 1.494v44.066c0 .825.673 1.494 1.503 1.494h38.202c.83 0 1.503-.669 1.503-1.494v-44.066c0-.825-.673-1.494-1.503-1.494z" fill="#fff"/><path opacity=".1" d="M232.832 124.609H194.63c-.83 0-1.503.669-1.503 1.494v44.066c0 .825.673 1.494 1.503 1.494h38.202c.83 0 1.503-.669 1.503-1.494v-44.066c0-.825-.673-1.494-1.503-1.494z" fill="#5A5773"/><path d="M230.73 127.01h-33.998c-.83 0-1.503.669-1.503 1.494v39.266c0 .825.673 1.493 1.503 1.493h33.998c.83 0 1.504-.668 1.504-1.493v-39.266a1.5 1.5 0 0 0-1.504-1.494z" fill="#fff"/><path d="M224.629 135.484h-22.644c-.758 0-1.372.61-1.372 1.363v5.979c0 .753.614 1.363 1.372 1.363h22.644c.757 0 1.372-.61 1.372-1.363v-5.979c0-.753-.615-1.363-1.372-1.363zm.44 11.889h-23.524v1.776h23.524v-1.776zm4.848 3.748h-32.37v1.776h32.37v-1.776zm0 3.947h-32.37v1.777h32.37v-1.777zm0 3.946h-32.37v1.776h32.37v-1.776z" fill="#6C63FF"/><path d="M95.526 109.055H1.503c-.83 0-1.503.668-1.503 1.493v44.066c0 .825.673 1.494 1.503 1.494h94.023a1.5 1.5 0 0 0 1.504-1.494v-44.066c0-.825-.673-1.493-1.504-1.493z" fill="#fff"/><path opacity=".1" d="M95.526 109.055H1.503c-.83 0-1.503.668-1.503 1.493v44.066c0 .825.673 1.494 1.503 1.494h94.023a1.5 1.5 0 0 0 1.504-1.494v-44.066c0-.825-.673-1.493-1.504-1.493z" fill="#5A5773"/><path d="M90.575 111.455H6.453a1.5 1.5 0 0 0-1.504 1.494v39.266c0 .825.673 1.494 1.504 1.494h84.122c.83 0 1.503-.669 1.503-1.494v-39.266c0-.825-.673-1.494-1.503-1.494z" fill="#fff"/><path d="M76.032 119.932H19c-.757 0-1.371.61-1.371 1.362v5.98c0 .752.614 1.362 1.371 1.362h57.032c.757 0 1.371-.61 1.371-1.362v-5.98c0-.752-.614-1.362-1.371-1.362zm-.82 11.886h-55.39v1.777h55.39v-1.777zm11.411 3.748H10.406v1.777h76.217v-1.777zm0 3.948H10.406v1.776h76.217v-1.776zm0 3.945H10.406v1.776h76.217v-1.776z" fill="#6C63FF"/><path d="M23.715 189.967c.271-.981.455-1.844.455-1.844a3.823 3.823 0 0 1 .505-1.869v-.271l.077-1.991a6.574 6.574 0 0 0-.454-1.062c-.337-.64.113-2.92.113-2.92s1.463-3.18 1.217-5.243c-.245-2.063 3.098-9.001 3.098-9.001a8.858 8.858 0 0 0-.21-2.033 1.557 1.557 0 0 1-.022-.423.41.41 0 0 1 0-.052v.016c.098-1.356 1.271-3.842 1.271-3.842l.043-4.836s-.577-2.874.683-6.655a35.327 35.327 0 0 0 .987-3.462c-2.293-.438-4.044-.795-4.044-.795s1.553-5.51 2.502-6.448c.948-.937 1.78-3.97 1.78-3.97s.624-3.909-.09-5.085c-.714-1.175-.746-3.163-.746-3.163s-1.688-1.318-1.883-1.88c-.196-.563-.508-1.831-.483-2.486.025-.656.267-1.243.207-1.593-.059-.351.571-1.648.305-2.285a1.742 1.742 0 0 1-.09-.608v-.018a8.416 8.416 0 0 1 .215-1.625 4.67 4.67 0 0 1 1.752-.845l.043-.149.113-.386a1.68 1.68 0 0 1 .173-.095l.012-.143.036-.562-.218-1.284c-.455-2.228 2.529-2.443 2.529-2.443.192-.331.5-.581.867-.7.605-.186-.028 3.324-.317 3.538-.227.161-.91 1.243-1.24 1.774l-.054.089c.048.045.092.094.132.146l-.143.762-.023.115c.188.25.337.527.444.821 0 0-.567.569-.483 1.233a3.95 3.95 0 0 1-.227 1.521c.032-.034.43-.429.807-.316.378.113 1.429.472 1.429.472s.789.17.71.341c-.08.172.506.959.506.959l2.214-1.928c.025-.061.047-.12.07-.181.102-.284.178-.577.227-.874a4.963 4.963 0 0 1-.682-.242 1.484 1.484 0 0 1-.578-.398c-.204-.262-.227-.61-.307-.929-.145-.623-.486-1.188-.725-1.787a5.682 5.682 0 0 1-.305-3.164c.049-.325.173-.635.364-.904.368-.463 1.008-.633 1.483-.994.475-.362.794-.933 1.34-1.198.495-.239 1.084-.185 1.628-.077a8.736 8.736 0 0 1 2.968 1.2c.305.197.64.423 1.001.371.3-.079.564-.257.75-.504a.171.171 0 0 1 0-.032l.026-.025c.206.508.298 1.054.268 1.6 0 .084 0 .17-.018.253v.089a.398.398 0 0 0 0 .074.37.37 0 0 0 .013.111.8.8 0 0 0 .19.296c.061.075.116.156.163.242 0-.03-.016-.059-.025-.088.129.203.197.438.196.678a.66.66 0 0 1-.18.472 2.13 2.13 0 0 1-.36.267 4.033 4.033 0 0 1-.402 2.395 4.073 4.073 0 0 1-1.708 1.738 3.893 3.893 0 0 0-.08.18 5.03 5.03 0 0 0-.477 2.299c0 .056 0 .113.018.169.018.057.052.061.075.093 0 0 3.525.169 4.385-.547.86-.716 2.024 1.905 2.024 1.905s1.256.291 1.517.059c.262-.233 1.738.031 1.738.031a3.198 3.198 0 0 1 2.233-.716 6.553 6.553 0 0 1 1.654-.832l.04-.013a1.8 1.8 0 0 1 .8-.07s1.79-1.356 2.324-2.104c.534-.748 3.043-3.489 3.043-3.503l.016-.135.043-.412c.07.015.142.024.214.027l.054-.142c.154-.397.34-.781.558-1.148 0 0 .02-.522-.128-.657-.148-.136.143-2.034.143-2.034s1.704-3.571 2.998-.807c0 0 2.58 1.855.278 3.812 0 0-.91.393-1.04.726-.09.226-.416.818-.634 1.218l-.098.178.025.023-.046.339-.018.133c.407.251.683.495.607.678a3.819 3.819 0 0 0-.288.929s-3.216 3.683-3.676 5.308c0 0-8.429 4.551-11.145 4.795l.376 2.45c.044.661.055 1.324.032 1.986-.057.52.213 2.895.213 2.895s.335 3.494.715 3.995c.38.502.227 2.586.227 2.586.057 1.001.2 1.996.428 2.974.345 1.335 0 2.958 0 2.958s1.253 3.179-1.954.933c0 0-1.61-.161-3.466-.294v.183c0 .24-.012.497-.019.768-.045 1.793-.13 4.26-.284 6.125-.273 3.297-1.537 9.791-1.537 9.791l-.128 3.281c.054.312.074.627.06.943a6.074 6.074 0 0 1-1.017 3.252l-.34 2.18s-.647 1.419-.693 2.28c-.001.071.005.141.018.211.017.111.022.224.016.336 0 .995-.7 3.349-.7 3.349s-.13 2.398-.496 2.522c-.314.109.36 1.399.56 1.77a.377.377 0 0 0 .015-.068l.044.072c.066.197.096.405.088.613a.873.873 0 0 1-.434.827c-.703.391-1.085.723-.507.886.213.041.424.093.632.155l.034-.079a.389.389 0 0 1 .227.43c-.015.284-.1.56-.248.804a8.761 8.761 0 0 1-1.046 1.736l-.277-.041c.037.106.088.207.15.301.1.155.235.285.396.377.147.095.313.158.486.185a1.4 1.4 0 0 1 1.005.536c.342.477.544 1.116-.19 1.643l-2.618.786s-4.467.405-4.194-.576c.273-.981.455-1.844.455-1.844a3.9 3.9 0 0 1 .427-1.745c.05-.088.107-.172.169-.253l-.157-.022s-.26-2.204-.687-2.631c-.096-.101-.116-.176-.091-.226-.039-.119.075-.185.227-.226 0 .027.02.057.03.086a2.15 2.15 0 0 1 .432-.029s.189-1.141-.264-1.582a.427.427 0 0 1-.077-.344c0-.157.023-.313.066-.465.004.009.01.019.016.027.277-1.03 1.137-2.653 1.137-2.653s.075-1.042-.198-1.471c-.273-.429.257-5.663.257-5.663s-.011-2.54.36-3.708c.37-1.169-.299-2.588-.299-2.588s0-.027.012-.074v-.021s.022-.156.059-.398v.025c.1-.678.284-1.878.407-2.438.175-.793.143-4.624.143-4.624l-.589-1.649-1.267 2.77-1.364 3.706s-.64.769-.683 1.582v.12c.006.084.006.167 0 .251.002.474-.148.937-.427 1.322 0 0-.394 1.76-.91 2.192-.516.431-.557 1.301-.557 1.301s-.715 2.55-1.022 2.99c-.257.371-.311 1.417-.32 1.738v.093s-.12.917-.148 1.69v.273a2.6 2.6 0 0 0 .05.608v.039-.131a6.53 6.53 0 0 1 .125 1.609c-.02.924-.205 2.013-.794 2.635-1.019 1.075-1.626.903-1.626.903s.416 1.408.983 1.709a.32.32 0 0 1 .061.041c0-.028 0-.055.016-.08a.687.687 0 0 1 .15.525c.018.612-.41 1.582-.796 2.034-.14.129-.312.22-.498.266a.813.813 0 0 0 .089.059c.063.037.128.07.195.099.092.045.19.075.291.088a1.393 1.393 0 0 1 1.005.536c.342.475.544 1.114-.19 1.641l-2.618.786s-4.48.393-4.206-.587z" fill="url(#paint2_linear)"/><path d="M40.625 192.256l2.536-.789c.712-.528.517-1.168.187-1.645a1.34 1.34 0 0 0-.971-.531 1.206 1.206 0 0 1-.473-.187 1.143 1.143 0 0 1-.38-.375 1.848 1.848 0 0 1-.248-.972s-2.716-.904-3.498-.133a2.02 2.02 0 0 0-.348.472 4.044 4.044 0 0 0-.419 1.744s-.172.861-.439 1.844c-.266.983 4.053.572 4.053.572zm-12.192-1.692l2.535-.789c.712-.528.517-1.168.187-1.643a1.329 1.329 0 0 0-.974-.533.9.9 0 0 1-.282-.086 1.887 1.887 0 0 1-.188-.101c-.683-.409-.63-1.356-.63-1.356s-2.716-.904-3.498-.134a2.02 2.02 0 0 0-.278.344 3.922 3.922 0 0 0-.491 1.873s-.175.863-.44 1.844c-.263.981 4.059.581 4.059.581z" fill="#2D293D"/><path opacity=".1" d="M37.775 187.624c-.137.14-.253.299-.345.472l4.094.631a1.845 1.845 0 0 1-.248-.972s-2.71-.902-3.5-.131zm-12.47-1.349l-.03.766c.6 1.073 3.705.963 4.624.472a1.898 1.898 0 0 1-.189-.101c-.682-.409-.63-1.356-.63-1.356s-2.715-.904-3.498-.134a1.989 1.989 0 0 0-.277.353z" fill="#000"/><path d="M24.944 182.958c.18.341.333.696.455 1.062l-.111 2.743c.655 1.175 4.307.931 4.822.326.514-.606 1.1-2.222.552-2.52-.548-.298-.95-1.708-.95-1.708s.588.162 1.578-.904c.99-1.067.803-3.555.648-4.151-.155-.597.103-2.572.103-2.572s.018-1.392.316-1.833c.298-.44.991-2.989.991-2.989s.032-.871.54-1.302c.507-.432.89-2.194.89-2.194.305-.432.45-.955.408-1.481-.07-.872.664-1.785.664-1.785l1.335-3.706 1.228-2.773.567 1.657s.027 3.83-.143 4.623c-.171.794-.455 2.906-.455 2.906s.646 1.417.286 2.588c-.36 1.17-.355 3.708-.355 3.708s-.518 5.236-.254 5.663c.263.427.188 1.469.188 1.469s-1.55 3.003-1.114 3.44c.437.436.255 1.581.255 1.581s-.978-.038-.576.396c.403.434.619 2.619.619 2.619l4.21.649a8.885 8.885 0 0 0 1.014-1.738c.61-1.263-.059-1.15-.616-1.311-.557-.16-.189-.495.491-.886.68-.391.332-1.344.332-1.344s-.948-1.743-.591-1.867c.357-.124.482-2.522.482-2.522s.81-2.825.664-3.595c-.145-.771.662-2.585.662-2.585l.328-2.179a5.987 5.987 0 0 0 .93-4.106l.132-3.372s1.237-6.483 1.514-9.791c.173-2.111.26-4.997.299-6.798.022-1.012.031-1.681.031-1.681l-15.05-2.142a12.265 12.265 0 0 1-.361 2.219c-.184.82-.469 1.878-.91 3.197-1.233 3.781-.682 6.656-.682 6.656l-.048 4.836s-1.456 3.181-1.217 4.304c.143.669.21 1.351.2 2.034 0 0-3.239 6.933-3.002 8.987.237 2.055-1.185 5.245-1.185 5.245s-.439 2.287-.114 2.927z" fill="#575988"/><path opacity=".05" d="M34.285 165.182l-4.576-.791s2.504 2.748 4.576.791z" fill="#000"/><path opacity=".1" d="M30.546 159.959s-.228 1.609.752 2.26c-.009-.005-1.771-.35-.752-2.26zm.481-5.133s3.724 3.293 5.131 3.087c1.408-.206-5.13-3.087-5.13-3.087zm8.905 12.051s2.895.773 2.938 1.939c.043 1.166-2.938-1.939-2.938-1.939z" fill="#000"/><path opacity=".05" d="M38.725 181.34s4.094.922 2.907 1.399c-1.188.476-3.132.82-3.132.82s-1.333.023.225-2.219zm3.708 2.26a.822.822 0 0 0 .4-.579l.04.075s.35.951-.333 1.356c-.077.043-.15.088-.227.131-.12-.027-.253-.05-.378-.086-.555-.169-.184-.504.498-.897zm-5.308-.479c-.11-.109-.093-.375 0-.717.157.315.224.667.196 1.017a.788.788 0 0 0-.196-.3zm1.305-17.266c.136.418.212.852.228 1.291a4.937 4.937 0 0 0-.287-.891s.025-.155.06-.4zm-9.378-2.184a1.652 1.652 0 0 1-.024-.382c.043.262.07.504.086.716a11.804 11.804 0 0 0-.062-.334zm8.998 14.544a2.295 2.295 0 0 1-.072-.776c.117.314.172.647.163.981a.928.928 0 0 0-.09-.205zm-1.119 6.514c.19.706.324 1.426.398 2.153l4.21.649a8.764 8.764 0 0 0 1.017-1.738c.054-.111.095-.21.132-.301.247.125.338.391-.025 1.142a8.853 8.853 0 0 1-1.015 1.735l-4.219-.644s-.227-2.201-.635-2.633c-.188-.214-.047-.312.137-.363zm5.831-6.022s-.127 2.398-.482 2.522c-.162-.404-.266-.784-.107-.841.355-.126.484-2.521.484-2.521s.81-2.823.664-3.596c-.145-.773.66-2.583.66-2.583l.33-2.18a5.987 5.987 0 0 0 .93-4.106l.13-3.372s1.232-6.495 1.5-9.792c.171-2.11.258-4.996.299-6.797 0-.326.013-.615.018-.859l.12.018s0 .678-.031 1.679c-.039 1.808-.125 4.689-.298 6.8-.269 3.295-1.5 9.792-1.5 9.792l-.131 3.369a5.993 5.993 0 0 1-.928 4.106l-.332 2.181s-.807 1.807-.662 2.585c.146.777-.664 3.595-.664 3.595zm-12.758 7.449a4.051 4.051 0 0 0 .732-1.625c.417.402-.136 1.887-.625 2.463-.49.577-4.167.85-4.822-.323l.025-.662c.91.967 4.203.721 4.69.147zm-5.165-4.137c.18.341.333.697.455 1.062l-.02.486a7.565 7.565 0 0 0-.324-.709 2.09 2.09 0 0 1-.118-.866l.007.027zm5.086.749a6.83 6.83 0 0 1-.314-.839s.59.161 1.576-.915c.72-.784.817-2.309.758-3.313.155.599.339 3.076-.648 4.151-.65.705-1.126.879-1.372.916zm2.116-7.639a18.498 18.498 0 0 0-.15 2.059 2.922 2.922 0 0 0-.059-.325c-.152-.599.1-2.572.1-2.572s.02-1.392.316-1.833c.296-.44.992-2.989.992-2.989s.034-.868.541-1.302c.508-.434.892-2.194.892-2.194.303-.432.447-.955.407-1.48-.07-.873.664-1.786.664-1.786l1.335-3.706 1.228-2.772.567 1.658v.529l-.455-1.356-1.228 2.771-1.335 3.708s-.735.904-.665 1.785a2.26 2.26 0 0 1-.407 1.48s-.384 1.761-.891 2.192c-.508.432-.54 1.302-.54 1.302s-.695 2.549-.991 2.992c-.296.443-.32 1.839-.32 1.839z" fill="#000"/><path d="M31.58 111.082l.215 1.279-.037.565-.027.416 1.453.206.175-.294c.323-.531.992-1.614 1.204-1.776.277-.215.896-3.725.309-3.539a1.532 1.532 0 0 0-.842.7s-2.879.217-2.45 2.443z" fill="#FFCDD3"/><path opacity=".1" d="M31.73 113.343l1.454.206.175-.294a1.294 1.294 0 0 0-1.592-.326l-.037.414z" fill="#000"/><path d="M31.334 114.015l1.908.518.05-.285.139-.761a1.311 1.311 0 0 0-.86-.545 1.337 1.337 0 0 0-.994.221l-.109.387-.134.465z" fill="#DCE6F2"/><path d="M62.617 112.415l2.01 1.175.203-.379c.212-.4.526-1.001.614-1.218.135-.333 1.008-.728 1.008-.728 2.231-1.959-.264-3.81-.264-3.81-1.25-2.764-2.902.809-2.902.809s-.284 1.905-.141 2.034c.143.129.123.657.123.657a7.733 7.733 0 0 0-.542 1.148c-.07.188-.109.312-.109.312z" fill="#FFCDD3"/><path opacity=".1" d="M62.617 112.417l2.01 1.175.203-.38c-.282-.251-1.278-1.13-1.617-1.094a2.473 2.473 0 0 1-.487 0c-.07.174-.109.299-.109.299z" fill="#000"/><path d="M62.383 113.019l2.274 1.218.064-.493.045-.339s-1.292-1.189-1.687-1.161a2.19 2.19 0 0 1-.605-.025l-.041.411-.05.389z" fill="#DCE6F2"/><path d="M36.85 119.723s10.023 1.514 8.165.836c-1.294-.475-1.783-1.322-1.856-2.244a5.221 5.221 0 0 1 .455-2.301 9.99 9.99 0 0 1 .971-1.771s-7.533-4.5-6.141-.617c.215.587.339 1.204.366 1.828a5.126 5.126 0 0 1-.268 1.826 5.472 5.472 0 0 1-1.692 2.443z" fill="#FFCDD3"/><path opacity=".1" d="M38.453 113.626c.215.587.339 1.204.366 1.828.7.63 1.497.621 2.518.66.785.031 1.644.253 2.274-.1.264-.621.59-1.214.972-1.771 0 0-7.522-4.5-6.13-.617z" fill="#000"/><path d="M41.625 116.389c2.3 0 4.165-1.853 4.165-4.138s-1.865-4.138-4.165-4.138-4.164 1.853-4.164 4.138 1.864 4.138 4.164 4.138z" fill="#FFCDD3"/><path opacity=".1" d="M36.85 119.724s10.023 1.514 8.165.836c-1.294-.475-1.783-1.322-1.856-2.244-.48-.559-1.472-.986-2.11-1.218a3.049 3.049 0 0 0-1.82-.1c-.24.06-.47.155-.683.283a5.473 5.473 0 0 1-1.696 2.443zm-5.516-5.709l1.908.518.05-.285a1.698 1.698 0 0 0-1.82-.698l-.138.465zm31.049-.997l2.274 1.218.064-.493a17.246 17.246 0 0 0-2.297-1.102l-.041.377zm-30.49 31.754c3.866.761 9.393 1.769 10.282 1.537.74-.193 3.07-.08 5.097.067.023-1.012.032-1.681.032-1.681l-15.05-2.142a12.265 12.265 0 0 1-.361 2.219z" fill="#000"/><path d="M28.041 143.713s12.75 2.68 14.145 2.317c1.394-.364 8.45.357 8.45.357 3.1 2.241 1.892-.936 1.892-.936s.343-1.623 0-2.958a17.96 17.96 0 0 1-.412-2.974s.152-2.083-.214-2.583c-.366-.499-.682-3.995-.682-3.995s-.257-2.375-.203-2.895c.055-.52-.027-1.986-.027-1.986l-.362-2.45c2.636-.246 10.8-4.807 10.8-4.807.454-1.618 3.568-5.328 3.568-5.328.056-.32.15-.632.282-.929.227-.547-2.873-1.778-2.873-1.778s-2.458 2.759-2.968 3.505c-.51.745-2.254 2.106-2.254 2.106a1.718 1.718 0 0 0-.773.07h-.04c-.57.2-1.106.481-1.593.834a3.061 3.061 0 0 0-2.165.716s-1.426-.262-1.679-.029c-.252.232-1.47-.057-1.47-.057s-1.136-2.617-1.957-1.9c-.821.716-4.247.551-4.247.551-.43-.619-1.521-1.092-2.204-1.34a3.033 3.033 0 0 0-1.82-.1c-.26.064-.509.172-.734.319l-2.147 1.934s-.566-.786-.489-.958c.077-.171-.682-.339-.682-.339s-1.003-.352-1.383-.47c-.38-.117-.75.281-.782.317.173-.488.25-1.004.227-1.521-.08-.665.466-1.236.466-1.236-1.108-3.035-3.966-.638-3.966-.638s-.38 1.621-.123 2.26c.257.64-.355 1.935-.3 2.285.054.35-.176.933-.2 1.593-.026.66.275 1.925.454 2.486.18.56 1.82 1.88 1.82 1.88s.03 1.984.718 3.164c.69 1.179.085 5.084.085 5.084s-.82 3.031-1.731 3.971c-.912.94-2.427 6.458-2.427 6.458z" fill="#656691"/><path opacity=".1" d="M47.637 121.564s.43-1.129.782-1.222a7.99 7.99 0 0 0 1.033-.414l-.21-.436s-1.327.31-1.55.678c-.223.368-.055 1.394-.055 1.394zm7.129-2.267c.056.35 3.157.782 3.157.782l-1.513-1.63h-.039a6.25 6.25 0 0 0-1.605.848z" fill="#000"/><path d="M63.958 115.148a.279.279 0 0 0 0-.556.279.279 0 1 0 0 .556zm-.381.543a.279.279 0 0 0 0-.556.279.279 0 1 0 0 .556zm-.369.5a.279.279 0 0 0 0-.556.279.279 0 1 0 0 .556zm-.389.541a.279.279 0 0 0 0-.556.279.279 0 1 0 0 .556zm-32.967-1.343a.227.227 0 0 0 .228-.226.226.226 0 0 0-.228-.225.226.226 0 0 0-.227.225c0 .125.102.226.227.226zm-.054.51a.227.227 0 0 0 .227-.226.227.227 0 0 0-.227-.226.227.227 0 0 0-.228.226c0 .125.102.226.228.226zm-.053.512a.227.227 0 0 0 .227-.226.227.227 0 0 0-.227-.226.227.227 0 0 0-.227.226c0 .125.101.226.227.226z" fill="#575988"/><path opacity=".1" d="M47.256 130.981c.035-.039-8.233 9.552-14.133 3.602 0 0 9.62 1.672 14.133-3.602zm4.33 5.316s-4.724-.052-5.27 1.277l-.054 1.403a.914.914 0 0 0 .878.034c.486-.237 3.393-1.568 4.373-.836l.073-1.878z" fill="#000"/><path d="M51.498 136.293s-4.514-.049-5.037 1.218l-.053 1.338a.87.87 0 0 0 .84.032c.454-.226 3.245-1.494 4.182-.798l.068-1.79z" fill="#656691"/><path opacity=".1" d="M49.405 126.02a15.227 15.227 0 0 1-1.95 3.048 12.263 12.263 0 0 1-2.974 2.639s4.819-5.055 4.924-5.687zm1.754-5.387s-.91 3.347-2.991 4.415l2.99-4.415zm1.194.386c.023-.061.596 2.698-2.777 4.083 0 0 1.426-.423 2.777-4.083zm-20.513-3.051c.052 0-1.677 1.006-2.154 1.483.01 0 1.16-1.591 2.153-1.483z" fill="#000"/><path d="M42.605 116.043a.89.89 0 0 1-.347.547.867.867 0 0 1-.396.07c-1.272.032-2.595.036-3.748-.495a1.414 1.414 0 0 1-.558-.398c-.2-.262-.227-.608-.298-.929-.14-.623-.47-1.186-.7-1.785a5.838 5.838 0 0 1-.289-3.163c.046-.325.166-.634.352-.904.355-.464.976-.633 1.436-.997.46-.364.768-.933 1.3-1.2.478-.239 1.05-.187 1.575-.077a8.293 8.293 0 0 1 2.888 1.205c.294.196.617.42.967.368.3-.083.562-.266.741-.52.225.575.308 1.195.241 1.808a.771.771 0 0 0 0 .271.83.83 0 0 0 .182.296c.298.373.473.952.15 1.304-.14.154-.352.226-.489.391-.245.28-.184.701-.193 1.074a.56.56 0 0 1-.105.363.542.542 0 0 1-.518.102 1.424 1.424 0 0 0-.546-.072.907.907 0 0 0-.489.343c-.616.71-.871 1.517-1.156 2.398z" fill="#2D293D"/><path opacity=".1" d="M37.431 115.442c.15.177.341.315.558.4 1.153.531 2.476.524 3.748.495a.84.84 0 0 0 .395-.072.877.877 0 0 0 .349-.545c.28-.884.538-1.688 1.155-2.407a.908.908 0 0 1 .489-.345c.185-.011.37.014.546.072a.537.537 0 0 0 .518-.102.553.553 0 0 0 .105-.361c0-.373-.052-.794.193-1.076.137-.156.348-.226.49-.389a.815.815 0 0 0 .11-.827c.21.359.29.814.017 1.11-.141.153-.35.226-.49.391-.245.28-.181.7-.19 1.073a.551.551 0 0 1-.107.364.551.551 0 0 1-.519.102 1.413 1.413 0 0 0-.544-.073.914.914 0 0 0-.49.346c-.615.716-.874 1.523-1.156 2.404a.654.654 0 0 1-.742.62c-1.271.029-2.595.034-3.75-.498a1.424 1.424 0 0 1-.557-.397 1.082 1.082 0 0 1-.166-.341.495.495 0 0 0 .038.056zm8.329-5.716a.552.552 0 0 1-.118-.226.776.776 0 0 1 0-.271 3.828 3.828 0 0 0-.136-1.505l.023-.025a3.79 3.79 0 0 1 .243 1.808c-.01.073-.014.146-.011.219zm-2.51 8.851s-5.232.486-5.664-.309l5.663.309zm-10.026-2.523s-2.89-.106-3.566.944l3.566-.944z" fill="#000"/></g><defs><linearGradient id="paint0_linear" x1="125.426" y1="155.573" x2="125.426" y2="33.922" gradientUnits="userSpaceOnUse"><stop stop-color="gray" stop-opacity=".25"/><stop offset=".54" stop-color="gray" stop-opacity=".12"/><stop offset="1" stop-color="gray" stop-opacity=".1"/></linearGradient><linearGradient id="paint1_linear" x1="46591.7" y1="75132.8" x2="46591.7" y2="41176.1" gradientUnits="userSpaceOnUse"><stop stop-color="gray" stop-opacity=".25"/><stop offset=".54" stop-color="gray" stop-opacity=".12"/><stop offset="1" stop-color="gray" stop-opacity=".1"/></linearGradient><linearGradient id="paint2_linear" x1="-38965" y1="74388.8" x2="-37652.1" y2="41353" gradientUnits="userSpaceOnUse"><stop stop-color="gray" stop-opacity=".25"/><stop offset=".54" stop-color="gray" stop-opacity=".12"/><stop offset="1" stop-color="gray" stop-opacity=".1"/></linearGradient><clipPath id="clip0"><path fill="#fff" d="M0 0h260v195H0z"/></clipPath></defs></svg>