<svg width="260" height="210" viewBox="0 0 260 210" fill="none"><g clip-path="url(#clip0)"><path d="M254.291 209.217c2.197-2.175-.346-8.219-5.68-13.499-5.334-5.281-11.44-7.798-13.637-5.623-2.197 2.175.346 8.219 5.68 13.499 5.334 5.281 11.439 7.798 13.637 5.623z" fill="#EAE9FF"/><path d="M245.598 200.538c1.668 0 3.02-1.752 3.02-3.914s-1.352-3.915-3.02-3.915-3.02 1.753-3.02 3.915 1.352 3.914 3.02 3.914z" fill="#3F3D56"/><path d="M245.598 195.755c1.668 0 3.02-1.753 3.02-3.915s-1.352-3.914-3.02-3.914-3.02 1.752-3.02 3.914 1.352 3.915 3.02 3.915z" fill="#3F3D56"/><path d="M245.598 190.97c1.668 0 3.02-1.753 3.02-3.915s-1.352-3.914-3.02-3.914-3.02 1.752-3.02 3.914 1.352 3.915 3.02 3.915z" fill="#3F3D56"/><path d="M245.598 186.185c1.668 0 3.02-1.753 3.02-3.915s-1.352-3.915-3.02-3.915-3.02 1.753-3.02 3.915 1.352 3.915 3.02 3.915z" fill="#3F3D56"/><path d="M245.598 181.402c1.668 0 3.02-1.753 3.02-3.915s-1.352-3.915-3.02-3.915-3.02 1.753-3.02 3.915 1.352 3.915 3.02 3.915z" fill="#3F3D56"/><path d="M245.598 176.618c1.668 0 3.02-1.752 3.02-3.914s-1.352-3.915-3.02-3.915-3.02 1.753-3.02 3.915 1.352 3.914 3.02 3.914z" fill="#3F3D56"/><path d="M245.598 171.835c1.668 0 3.02-1.753 3.02-3.915s-1.352-3.914-3.02-3.914-3.02 1.752-3.02 3.914 1.352 3.915 3.02 3.915z" fill="#3F3D56"/><path d="M256.905 135.182a14.27 14.27 0 0 0 1.125-1.638l-7.936-1.29 8.584.061a14.239 14.239 0 0 0 .281-11.348l-11.514 5.915 10.613-7.729a14.383 14.383 0 0 0-3.93-4.356 14.555 14.555 0 0 0-5.36-2.44 14.634 14.634 0 0 0-5.899-.119 14.55 14.55 0 0 0-5.456 2.222 14.406 14.406 0 0 0-4.107 4.193 14.248 14.248 0 0 0-2.074 5.468 14.19 14.19 0 0 0 .302 5.833 14.279 14.279 0 0 0 2.63 5.228 14.207 14.207 0 0 0-1.65 2.611l10.301 5.294-10.976-3.65a14.199 14.199 0 0 0-.554 7.017 14.28 14.28 0 0 0 2.887 6.432 14.197 14.197 0 0 0-1.642 15.11 14.363 14.363 0 0 0 5.337 5.882 14.58 14.58 0 0 0 15.352 0 14.367 14.367 0 0 0 5.336-5.882 14.197 14.197 0 0 0-1.642-15.11 14.237 14.237 0 0 0 3.096-8.855c0-3.212-1.091-6.33-3.096-8.855l-.008.006z" fill="#6C63FF"/><path opacity=".1" d="M231.068 144.035a14.17 14.17 0 0 0 3.096 8.855 14.202 14.202 0 0 0-1.642 15.111 14.382 14.382 0 0 0 5.337 5.882 14.574 14.574 0 0 0 7.676 2.182c2.715 0 5.375-.756 7.676-2.182a14.38 14.38 0 0 0 5.336-5.882 14.202 14.202 0 0 0-1.642-15.111c1.939-2.435-25.837-10.462-25.837-8.855z" fill="#000"/><path d="M238.375 0v200.608l-68.672-9.473-83.48 16.859-.673.136-66.421-18.11V15.603L88.083 0l75.428 15.603 2.868-.6L238.375 0z" fill="#444053"/><path d="M226.838 10.955v179.491l-61.443-8.476-74.693 15.085-.602.12-59.43-16.202V24.914l61.699-13.959 67.485 13.959 2.567-.535 64.417-13.424z" fill="#fff"/><path opacity=".1" d="M169.704 191.135l-83.48 16.859L88.086 0l75.428 15.603 2.868-.6 3.323 176.132z" fill="#000"/><g opacity=".3" stroke="#444053" stroke-width="3" stroke-miterlimit="10"><path opacity=".3" d="M161.365 38.45l.034 58.37h24.486V72.86h41.935l4.926-6.252M25.04 56.978h91.047l5.629-2.507h2.251v56.281h39.403l1.689 5.015v25.355h30.396v31.345m-59.461 0v-61.715m96.753 45.182h-96.753m72.52-117.484v134.016m-183.756-28.38h207.989m-182.675 28.38V38.449m48.346.001v134.016M25.04 72.303l160.846.557M71.852 38.691v133.775"/><path opacity=".3" d="M24.758 103.318h73.66l37.576 40.768m8.139-105.636v72.302m-8.139 12.949h96.753"/></g><path d="M164.918 123.151h-28.426v-12.26l26.878-.139 1.689 4.737-.141 7.662z" fill="#6C63FF"/><path d="M150.847 59.625a15.639 15.639 0 0 0-11.001 4.511 15.323 15.323 0 0 0-4.557 10.891c0 8.507 15.558 36.143 15.558 36.143s15.559-27.625 15.559-36.143a15.32 15.32 0 0 0-4.557-10.89 15.64 15.64 0 0 0-11.002-4.512zm0 21.972a6.892 6.892 0 0 1-3.802-1.142 6.788 6.788 0 0 1-2.521-3.04 6.714 6.714 0 0 1-.39-3.916 6.756 6.756 0 0 1 1.873-3.47 6.87 6.87 0 0 1 3.505-1.854 6.91 6.91 0 0 1 3.955.386 6.83 6.83 0 0 1 3.072 2.495 6.728 6.728 0 0 1 1.153 3.765 6.741 6.741 0 0 1-2.006 4.79 6.879 6.879 0 0 1-4.839 1.983v.003z" fill="#6C63FF"/><path opacity=".1" d="M150.847 59.625a15.639 15.639 0 0 0-11.001 4.511 15.323 15.323 0 0 0-4.557 10.891c0 8.507 15.558 36.143 15.558 36.143s15.559-27.625 15.559-36.143a15.32 15.32 0 0 0-4.557-10.89 15.64 15.64 0 0 0-11.002-4.512zm0 21.972a6.892 6.892 0 0 1-3.802-1.142 6.788 6.788 0 0 1-2.521-3.04 6.714 6.714 0 0 1-.39-3.916 6.756 6.756 0 0 1 1.873-3.47 6.87 6.87 0 0 1 3.505-1.854 6.91 6.91 0 0 1 3.955.386 6.83 6.83 0 0 1 3.072 2.495 6.728 6.728 0 0 1 1.153 3.765 6.741 6.741 0 0 1-2.006 4.79 6.879 6.879 0 0 1-4.839 1.983v.003z" fill="#000"/><path d="M150.847 61.853a15.639 15.639 0 0 0-11.001 4.512 15.323 15.323 0 0 0-4.557 10.89c0 8.507 15.558 36.144 15.558 36.144s15.559-27.626 15.559-36.143c0-4.085-1.639-8.003-4.557-10.891a15.64 15.64 0 0 0-11.002-4.511zm0 21.973a6.893 6.893 0 0 1-3.802-1.142 6.789 6.789 0 0 1-2.521-3.041 6.714 6.714 0 0 1-.39-3.915 6.756 6.756 0 0 1 1.873-3.47 6.87 6.87 0 0 1 3.505-1.854 6.91 6.91 0 0 1 3.955.385 6.828 6.828 0 0 1 3.072 2.496 6.728 6.728 0 0 1 1.153 3.765 6.741 6.741 0 0 1-2.006 4.79 6.88 6.88 0 0 1-4.839 1.983v.003z" fill="#6C63FF"/><path d="M145.574 207.872c4.775-2.036 7.96-5.265 7.113-7.213-.848-1.947-5.406-1.876-10.181.16-4.775 2.036-7.96 5.266-7.113 7.213.848 1.948 5.406 1.876 10.181-.16z" fill="#EAE9FF"/><path d="M143.928 205.525c1.151 0 2.083-1.208 2.083-2.697 0-1.49-.932-2.697-2.083-2.697-1.15 0-2.082 1.207-2.082 2.697 0 1.489.932 2.697 2.082 2.697z" fill="#3F3D56"/><path d="M143.928 202.226c1.151 0 2.083-1.207 2.083-2.697 0-1.489-.932-2.697-2.083-2.697-1.15 0-2.082 1.208-2.082 2.697 0 1.49.932 2.697 2.082 2.697z" fill="#3F3D56"/><path d="M143.928 198.931c1.151 0 2.083-1.207 2.083-2.697 0-1.489-.932-2.697-2.083-2.697-1.15 0-2.082 1.208-2.082 2.697 0 1.49.932 2.697 2.082 2.697z" fill="#3F3D56"/><path d="M143.928 195.634c1.151 0 2.083-1.207 2.083-2.697 0-1.489-.932-2.697-2.083-2.697-1.15 0-2.082 1.208-2.082 2.697 0 1.49.932 2.697 2.082 2.697z" fill="#3F3D56"/><path d="M143.928 192.335c1.151 0 2.083-1.207 2.083-2.697 0-1.489-.932-2.697-2.083-2.697-1.15 0-2.082 1.208-2.082 2.697 0 1.49.932 2.697 2.082 2.697z" fill="#3F3D56"/><path d="M143.928 189.039c1.151 0 2.083-1.208 2.083-2.697 0-1.49-.932-2.697-2.083-2.697-1.15 0-2.082 1.207-2.082 2.697 0 1.489.932 2.697 2.082 2.697z" fill="#3F3D56"/><path d="M143.928 185.744c1.151 0 2.083-1.208 2.083-2.697 0-1.49-.932-2.697-2.083-2.697-1.15 0-2.082 1.207-2.082 2.697 0 1.489.932 2.697 2.082 2.697z" fill="#3F3D56"/><path d="M136.135 160.481a9.965 9.965 0 0 1-.777-1.115l5.471-.891-5.91.044a9.815 9.815 0 0 1-.191-7.821l7.936 4.063-7.317-5.328a9.897 9.897 0 0 1 2.709-3 10.009 10.009 0 0 1 3.694-1.681 10.036 10.036 0 0 1 7.824 1.45 9.924 9.924 0 0 1 2.83 2.889 9.82 9.82 0 0 1 1.429 3.767 9.755 9.755 0 0 1-.208 4.02 9.832 9.832 0 0 1-1.811 3.603 9.873 9.873 0 0 1 1.126 1.8l-7.095 3.652 7.571-2.507a9.784 9.784 0 0 1 .382 4.836 9.82 9.82 0 0 1-1.989 4.433 9.784 9.784 0 0 1 1.132 10.417 9.904 9.904 0 0 1-3.678 4.054 10.038 10.038 0 0 1-5.291 1.505c-1.872 0-3.705-.521-5.292-1.505a9.904 9.904 0 0 1-3.678-4.054 9.784 9.784 0 0 1 1.133-10.417 9.81 9.81 0 0 1-2.134-6.103c0-2.213.752-4.363 2.134-6.103v-.008z" fill="#6C63FF"/><path opacity=".1" d="M153.942 166.575a9.764 9.764 0 0 1-2.134 6.104 9.788 9.788 0 0 1 1.133 10.417 9.904 9.904 0 0 1-3.678 4.054 10.047 10.047 0 0 1-10.583 0 9.904 9.904 0 0 1-3.678-4.054 9.788 9.788 0 0 1 1.133-10.417c-1.337-1.672 17.807-7.202 17.807-6.104z" fill="#000"/><path d="M23.222 203.086c2.197-2.175-.346-8.219-5.68-13.499-5.334-5.281-11.439-7.798-13.636-5.623-2.197 2.175.346 8.219 5.68 13.499 5.334 5.281 11.439 7.798 13.636 5.623z" fill="#EAE9FF"/><path d="M14.532 194.407c1.668 0 3.02-1.752 3.02-3.914s-1.352-3.915-3.02-3.915-3.02 1.753-3.02 3.915 1.352 3.914 3.02 3.914z" fill="#3F3D56"/><path d="M14.532 189.624c1.668 0 3.02-1.752 3.02-3.914s-1.352-3.915-3.02-3.915-3.02 1.753-3.02 3.915 1.352 3.914 3.02 3.914z" fill="#3F3D56"/><path d="M14.532 184.841c1.668 0 3.02-1.753 3.02-3.915s-1.352-3.914-3.02-3.914-3.02 1.752-3.02 3.914 1.352 3.915 3.02 3.915z" fill="#3F3D56"/><path d="M14.532 180.056c1.668 0 3.02-1.753 3.02-3.915s-1.352-3.914-3.02-3.914-3.02 1.752-3.02 3.914 1.352 3.915 3.02 3.915z" fill="#3F3D56"/><path d="M14.532 175.273c1.668 0 3.02-1.753 3.02-3.915s-1.352-3.915-3.02-3.915-3.02 1.753-3.02 3.915 1.352 3.915 3.02 3.915z" fill="#3F3D56"/><path d="M14.532 170.487c1.668 0 3.02-1.752 3.02-3.914s-1.352-3.915-3.02-3.915-3.02 1.753-3.02 3.915 1.352 3.914 3.02 3.914z" fill="#3F3D56"/><path d="M14.532 165.704c1.668 0 3.02-1.752 3.02-3.914s-1.352-3.915-3.02-3.915-3.02 1.753-3.02 3.915 1.352 3.914 3.02 3.914z" fill="#3F3D56"/><path d="M25.836 129.051c.413-.519.79-1.067 1.126-1.638l-7.937-1.29 8.584.061a14.238 14.238 0 0 0 .282-11.348l-11.514 5.915 10.613-7.729a14.365 14.365 0 0 0-3.93-4.355 14.596 14.596 0 0 0-16.715-.338 14.395 14.395 0 0 0-4.107 4.193 14.245 14.245 0 0 0-2.075 5.468 14.185 14.185 0 0 0 .303 5.833 14.263 14.263 0 0 0 2.63 5.228 14.232 14.232 0 0 0-1.65 2.611l10.301 5.294-10.976-3.65a14.197 14.197 0 0 0-.554 7.017 14.265 14.265 0 0 0 2.887 6.432 14.197 14.197 0 0 0-1.642 15.111 14.372 14.372 0 0 0 5.336 5.881 14.567 14.567 0 0 0 7.676 2.183c2.715 0 5.375-.756 7.676-2.183a14.372 14.372 0 0 0 5.337-5.881 14.197 14.197 0 0 0-1.642-15.111 14.234 14.234 0 0 0 3.095-8.855c0-3.211-1.09-6.33-3.095-8.854l-.009.005z" fill="#6C63FF"/><path opacity=".1" d="M0 137.906a14.164 14.164 0 0 0 3.096 8.855 14.197 14.197 0 0 0-1.642 15.111 14.375 14.375 0 0 0 5.336 5.882 14.575 14.575 0 0 0 7.676 2.182c2.715 0 5.375-.756 7.676-2.182a14.375 14.375 0 0 0 5.337-5.882 14.197 14.197 0 0 0-1.642-15.111C27.776 144.326 0 136.299 0 137.906z" fill="#000"/></g><defs><clipPath id="clip0"><path fill="#fff" d="M0 0h260v210H0z"/></clipPath></defs></svg>