<svg width="260" height="200" viewBox="0 0 260 200" fill="none" xmlns="http://www.w3.org/2000/svg"><g clip-path="url(#clip0)"><path d="M14.968 102.764c8.828 11.25 5.398 27.683-.21 40.847-1.88 4.408-4.002 9.069-3.22 13.794.969 5.778 6.114 10.005 11.517 12.244 9.848 4.082 21.635 3.109 30.685-2.534 7.82-4.877 13.421-12.807 21.375-17.461 13.312-7.788 30.254-4.847 44.707.519 10.227 3.795 21.407 8.731 31.567 4.765 7.148-2.792 12.091-9.585 14.785-16.787 1.3-3.475 2.243-7.24 4.727-9.997 1.486-1.639 3.402-2.803 5.376-3.783 18.019-8.955 40.775-4.16 58.277-14.09 11.819-6.701 19.386-19.359 22.736-32.553 3.351-13.193 2.972-27.027 2.11-40.613-.604-9.658-1.689-19.965-7.844-27.418C245.043 1.814 233.868-1.12 223.768.38c-10.101 1.499-19.258 6.84-27.313 13.129-10.065 7.863-19.403 17.651-31.762 20.848-8.419 2.17-17.271.993-25.953.57-14.513-.687-29.031.842-43.464 2.513-13.817 1.6-27.734 3.363-40.897 7.867-9.313 3.177-16.776 8.965-25.572 12.998-5.732 2.636-11.984 3.363-17.415 6.721C4.707 69.161-1.424 76.354.29 84.77c1.63 8.009 9.994 12.022 14.679 17.994z" fill="#EAE9FF"/><path d="M46.994 151.946s-.817-24.263-13.914-37.973c-5.497-5.753-9.107-13.06-10.063-20.968a62.002 62.002 0 0 1-.307-11.31" stroke="#535461" stroke-width="2" stroke-miterlimit="10"/><path d="M14.506 73.013c.897 2.71 8.39 8.934 8.39 8.934s2.295-9.483 1.399-12.19a5.165 5.165 0 0 0-2.582-2.993 5.145 5.145 0 0 0-3.936-.286 5.16 5.16 0 0 0-2.985 2.587 5.18 5.18 0 0 0-.286 3.945v.002zM11.39 90.708c2.228 1.787 11.886 2.933 11.886 2.933s-3.22-9.21-5.448-10.995a5.146 5.146 0 0 0-7.078.935 5.176 5.176 0 0 0 .64 7.127zm8.827 25.524c2.818.417 11.74-3.475 11.74-3.475s-7.414-6.324-10.232-6.74a5.145 5.145 0 0 0-3.828.963 5.175 5.175 0 0 0-1.066 7.23 5.151 5.151 0 0 0 3.386 2.032v-.01zm11.026 17.806c2.706.889 12.158-1.444 12.158-1.444s-6.243-7.488-8.95-8.377a5.142 5.142 0 0 0-3.935.298 5.164 5.164 0 0 0-2.573 2.999 5.18 5.18 0 0 0 .297 3.945 5.159 5.159 0 0 0 2.993 2.579h.01zm2.475-43.288c-1.315 2.531-9.7 7.49-9.7 7.49s-.762-9.726.553-12.26a5.165 5.165 0 0 1 3.022-2.543 5.144 5.144 0 0 1 5.5 1.605 5.172 5.172 0 0 1 .625 5.708zm12.631 20.985c-2.01 2.023-11.49 4.237-11.49 4.237s2.177-9.511 4.185-11.534a5.138 5.138 0 0 1 5.617-1.13 5.146 5.146 0 0 1 2.795 2.791 5.177 5.177 0 0 1-1.107 5.634v.002zm9.484 22.089c-1.64 2.333-10.61 6.122-10.61 6.122s.54-9.741 2.181-12.077a5.167 5.167 0 0 1 3.348-2.238 5.143 5.143 0 0 1 3.933.856 5.154 5.154 0 0 1 2.121 3.428 5.176 5.176 0 0 1-.983 3.911l.01-.002zm106.248 1.646s-3.933-1.335-5.824 2.137a6.335 6.335 0 0 0 .084 6.098c1.238 2.252 3.803 5.175 8.666 4.915 4.116-.221 5.473-3.368 5.849-6.297a6.48 6.48 0 0 0-2.349-5.869 6.432 6.432 0 0 0-6.221-1.055l-.205.071z" fill="#6C63FF"/><path opacity=".1" d="M157.174 144.018a6.353 6.353 0 0 1-.085-6.098c1.892-3.475 5.824-2.137 5.824-2.137l.201-.072a6.381 6.381 0 0 1 4.621.104 6.392 6.392 0 0 0-5.448-.521l-.201.072s-3.932-1.336-5.824 2.137a6.339 6.339 0 0 0 .085 6.098c.819 1.489 2.208 3.253 4.457 4.219a9.756 9.756 0 0 1-3.63-3.802z" fill="#fff"/><path opacity=".2" d="M160.051 137.141s1.458 1.147 4.997 0h-4.997z" fill="#000"/><path d="M159.74 128.791s2.499 6.783 2.291 8.558l1.981-.209s-3.333-5.956-2.499-8.349h-1.773z" fill="#6C63FF"/><path opacity=".2" d="M159.74 128.791s2.499 6.783 2.291 8.558l1.981-.209s-3.333-5.956-2.499-8.349h-1.773z" fill="#000"/><path d="M169.939 129.357s-3.933-2.016-5.696-.35c-1.763 1.665-2.03 5.922-2.03 5.922s6.416.883 7.726-5.572z" fill="#6C63FF"/><path opacity=".1" d="M169.939 129.357s-3.933-2.016-5.696-.35c-1.763 1.665-2.03 5.922-2.03 5.922s6.416.883 7.726-5.572z" fill="#fff"/><path d="M162.215 134.929s1.032-4.941 7.723-5.572" stroke="#6C63FF" stroke-miterlimit="10"/><path d="M49.184 105.359s.802-13.12-5.555-21.181a19.943 19.943 0 0 1-4.35-11.819 33.585 33.585 0 0 1 .416-6.113" stroke="#535461" stroke-width="2" stroke-miterlimit="10"/><path d="M35.72 61.144c.345 1.507 4.064 5.25 4.064 5.25s1.734-4.994 1.38-6.498a2.803 2.803 0 0 0-1.236-1.749 2.788 2.788 0 0 0-3.852.878 2.805 2.805 0 0 0-.36 2.112l.005.007zm-2.589 9.376c1.107 1.078 6.258 2.195 6.258 2.195s-1.26-5.13-2.367-6.205a2.791 2.791 0 0 0-3.05-.563 2.793 2.793 0 0 0-1.687 2.61 2.805 2.805 0 0 0 .846 1.966v-.002zm3.455 14.215c1.486.37 6.505-1.273 6.505-1.273s-3.672-3.79-5.168-4.16a2.785 2.785 0 0 0-2.112.322 2.798 2.798 0 0 0-.946 3.842 2.792 2.792 0 0 0 1.72 1.269zm5.029 10.16c1.414.618 6.626-.153 6.626-.153s-2.971-4.359-4.393-4.964a2.786 2.786 0 0 0-3.725 1.423 2.802 2.802 0 0 0 1.497 3.704l-.005-.01zm3.553-23.199c-.837 1.298-5.611 3.537-5.611 3.537s.086-5.282.926-6.58a2.791 2.791 0 0 1 3.86-.826 2.798 2.798 0 0 1 .825 3.87zm5.733 11.96c-1.186.992-6.41 1.692-6.41 1.692s1.658-5.013 2.847-6.001a2.787 2.787 0 0 1 3.93.369 2.803 2.803 0 0 1-.367 3.94zm3.979 12.392c-1.003 1.174-6.032 2.754-6.032 2.754s.79-5.212 1.795-6.395a2.794 2.794 0 0 1 2.987-.839 2.789 2.789 0 0 1 1.623 1.395 2.804 2.804 0 0 1-.37 3.087l-.003-.002z" fill="#6C63FF"/><path opacity=".5" d="M35.72 61.144c.345 1.507 4.064 5.25 4.064 5.25s1.734-4.994 1.38-6.498a2.803 2.803 0 0 0-1.236-1.749 2.788 2.788 0 0 0-3.852.878 2.805 2.805 0 0 0-.36 2.112l.005.007zm-2.589 9.376c1.107 1.078 6.258 2.195 6.258 2.195s-1.26-5.13-2.367-6.205a2.791 2.791 0 0 0-3.05-.563 2.793 2.793 0 0 0-1.687 2.61 2.805 2.805 0 0 0 .846 1.966v-.002zm3.455 14.215c1.486.37 6.505-1.273 6.505-1.273s-3.672-3.79-5.168-4.16a2.785 2.785 0 0 0-2.112.322 2.798 2.798 0 0 0-.946 3.842 2.792 2.792 0 0 0 1.72 1.269zm5.029 10.16c1.414.618 6.626-.153 6.626-.153s-2.971-4.359-4.393-4.964a2.786 2.786 0 0 0-3.725 1.423 2.802 2.802 0 0 0 1.497 3.704l-.005-.01zm3.553-23.199c-.837 1.298-5.611 3.537-5.611 3.537s.086-5.282.926-6.58a2.791 2.791 0 0 1 3.86-.826 2.798 2.798 0 0 1 .825 3.87zm5.733 11.96c-1.186.992-6.41 1.692-6.41 1.692s1.658-5.013 2.847-6.001a2.787 2.787 0 0 1 3.93.369 2.803 2.803 0 0 1-.367 3.94zm3.979 12.392c-1.003 1.174-6.032 2.754-6.032 2.754s.79-5.212 1.795-6.395a2.794 2.794 0 0 1 2.987-.839 2.789 2.789 0 0 1 1.623 1.395 2.804 2.804 0 0 1-.37 3.087l-.003-.002z" fill="#fff"/><path d="M124.924 5.06v85.369h125.028V5.061H124.924z" fill="url(#paint0_linear)"/><path d="M248.626 8.934H126.777v79.95h121.849V8.933z" fill="#fff"/><path d="M248.626 5.13H126.777v5.883h121.849V5.131z" fill="#EEE"/><path d="M131.414 9.409a1.427 1.427 0 0 0 0-2.854c-.786 0-1.424.639-1.424 1.427s.638 1.427 1.424 1.427z" fill="#FF5252"/><path d="M135.33 9.409a1.427 1.427 0 0 0 0-2.854c-.786 0-1.424.639-1.424 1.427s.638 1.427 1.424 1.427z" fill="#FF0"/><path d="M139.242 9.409c.787 0 1.424-.64 1.424-1.427a1.425 1.425 0 1 0-2.848 0c0 .788.638 1.427 1.424 1.427z" fill="#69F0AE"/><path opacity=".5" d="M176.855 20.434h-45.406v1.896h45.406v-1.896zm0 3.793h-45.406v1.896h45.406v-1.896zm0 3.791h-45.406v1.896h45.406v-1.896zm-.003 3.792h-29.754v1.897h29.754V31.81zm-21.495 3.795h-23.908v1.897h23.908v-1.897zm7.394 3.793h-18.403v1.897h18.403v-1.897zm73.615-5.689h-53.491v30.858h53.491V33.709z" fill="#6C63FF"/><path d="M242.729 36.639h-53.491v30.857h53.491V36.64z" fill="#EEE"/><path d="M219.166 67.488h-29.928v-5.644c7.312-3.425 18.562-5.349 29.928 5.644z" fill="#6C63FF"/><path opacity=".1" d="M242.384 66.69v.799h-37.323v-.172s18.365-17.914 37.323-.628z" fill="#000"/><path d="M242.73 66.69v.799h-37.324v-.172s18.366-17.914 37.324-.628zm-47.299-21.777a2.754 2.754 0 0 0 2.751-2.757 2.754 2.754 0 0 0-2.751-2.758 2.754 2.754 0 0 0-2.751 2.758 2.754 2.754 0 0 0 2.751 2.757z" fill="#6C63FF"/><path d="M218.857 40.066c-.314 0-.666 0-.904.02a1.094 1.094 0 0 0-.314.065l-1.619.583c1.307.032 2.671.022 4.008 0l7.513-.057c.765 0 1.573-.013 2.211-.06.429-.03.743-.077 1.137-.111 1.421-.127 3.496-.102 5.349-.097 1.852.005 4.088-.042 4.739-.228h-3.974c-.429 0-.879 0-1.258-.023-.443-.025-.713-.074-1.102-.11-.644-.054-1.53-.061-2.357-.064-4.527-.002-9.001.107-13.429.082zm4.46 3.348h-.195a.24.24 0 0 0-.067.015l-.352.126h.869l1.627-.012c.166 0 .339 0 .478-.012l.248-.025c.307-.028.757-.023 1.159-.02a6.3 6.3 0 0 0 1.027-.05h-1.134c-.082 0-.153-.017-.248-.022-.138 0-.331-.012-.51-.015-.975-.005-1.943.015-2.902.015zm-11.523 4.824h-.196a.252.252 0 0 0-.067.015l-.351.126h.869l1.627-.012c.166 0 .339 0 .478-.013l.247-.025c.307-.027.758-.022 1.159-.02.343.012.687-.005 1.028-.049h-1.134c-.082 0-.154-.017-.248-.022-.139 0-.332-.013-.51-.015-.973-.003-1.944.02-2.902.015z" fill="#F4F4F4"/><path d="M205.321 65.966h-1.283s-.404-14.176 1.293-18.552h.324s-1.142 16.043-.334 18.552z" fill="#6C63FF"/><path d="M204.432 46.687s-1.05 2.916-.565 4.22c0 0 .728-2.674 1.578-3.078.849-.405 1.733 3.077 1.733 3.077s.495-2.186-.403-3.97a7.033 7.033 0 0 1 2.666 2.834s.161-1.217-1.938-3.723c0 0 1.859.496 3.07 1.62 0 0 .404-.89-2.102-2.35 0 0 .324-1.052 2.263-.566 0 0 0-1.377-3.071-1.134 0 0 0-.891 2.021-.73 0 0 0-1.134-2.345-.73 0 0 .495-.73.807-.89a1.62 1.62 0 0 0-1.131.325s.081-1.46-1.132-2.026l-.161 2.026s-1.359-1.606-1.05-1.296c.195.488.28 1.014.248 1.539 0 0-1.374-1.134-3.071.082 0 0 2.103.161 2.425.89 0 0-1.778-.324-2.182-.081 0 0 1.374.496 1.293.809 0 0-2.425 0-2.749.891 0 0 2.506.325 2.667.566 0 0-2.91 2.107-3.071 2.673 0 0 2.992-1.782 3.467-1.782.476 0-2.181 2.593-2.02 3.241.007-.002 2.188-2.6 2.753-2.437zm16.843 18.751h.99s.31-10.831-.99-14.174h-.248s.865 12.253.248 14.174z" fill="#6C63FF"/><path d="M221.953 50.706s.802 2.233.433 3.226c0 0-.554-2.042-1.203-2.353-.649-.31-1.327 2.353-1.327 2.353s-.372-1.67.309-3.033a5.38 5.38 0 0 0-2.038 2.167s-.124-.928 1.486-2.847c0 0-1.421.373-2.348 1.241 0 0-.309-.68 1.605-1.794 0 0-.248-.804-1.733-.434 0 0 0-1.053 2.347-.867 0 0 0-.68-1.543-.556 0 0 0-.866 1.791-.555a2.724 2.724 0 0 0-.617-.68c.309-.03.618.06.864.248 0 0-.062-1.115.865-1.547l.123 1.547s1.038-1.226.803-.993a2.717 2.717 0 0 0-.186 1.176s1.05-.866 2.347.062c0 0-1.604.124-1.852.68 0 0 1.36-.248 1.667-.062 0 0-1.05.373-.991.618 0 0 1.852 0 2.1.68 0 0-1.914.249-2.038.435 0 0 2.229 1.608 2.348 2.042 0 0-2.286-1.362-2.655-1.362-.369 0 1.667 1.985 1.543 2.482 0-.018-1.667-1.998-2.1-1.874zm11.144 12.616h.612s.19-6.702-.612-8.779h-.154s.535 7.59.154 8.779z" fill="#6C63FF"/><path d="M233.505 54.198s.496 1.38.268 1.986c0 0-.344-1.266-.743-1.457-.399-.191-.822 1.457-.822 1.457a3.208 3.208 0 0 1 .19-1.88 3.33 3.33 0 0 0-1.262 1.344s-.077-.576.918-1.763a3.876 3.876 0 0 0-1.453.767s-.191-.422.99-1.111c0 0-.153-.497-1.07-.269 0 0 0-.652 1.454-.536 0 0 0-.422-.956-.345 0 0 0-.536 1.11-.345a1.7 1.7 0 0 0-.382-.422.77.77 0 0 1 .535.154 1.037 1.037 0 0 1 .535-.958l.077.958s.643-.76.495-.613c-.091.231-.13.48-.114.727a1.188 1.188 0 0 1 1.454.038s-.991.077-1.147.422c0 0 .842-.154 1.033-.038 0 0-.652.231-.612.383 0 0 1.146 0 1.3.422 0 0-1.186.153-1.263.268 0 0 1.377.992 1.454 1.265 0 0-1.414-.843-1.645-.843-.23 0 1.033 1.226.956 1.533.013.005-1.02-1.22-1.3-1.144z" fill="#6C63FF"/><path d="M210.724 55.737l-.129-.69a.372.372 0 0 0-.116-.27l-.597-.293a.686.686 0 0 1-.106-.179v-.014a.358.358 0 0 0 .069-.142.263.263 0 0 0 0-.04.221.221 0 0 0 .248-.178v-.015a.224.224 0 0 1-.073.116.224.224 0 0 1-.128.05.607.607 0 0 0 .27-.496v-.025a.233.233 0 0 0 .067-.064.238.238 0 0 0 .035-.085v-.015a.238.238 0 0 1-.039.08.235.235 0 0 1-.068.059.594.594 0 0 0-.037-.166h.015a.223.223 0 0 0 .156-.065.222.222 0 0 0 .064-.156v-.015a.221.221 0 0 1-.22.206h-.027a.366.366 0 0 0 .247-.295v-.015a.223.223 0 0 1-.044.119.23.23 0 0 0-.042-.165.215.215 0 0 0-.145-.087.222.222 0 0 0-.252.187l-.039-.022a.218.218 0 0 1 .2-.161h-.015a.223.223 0 0 0-.213.149.607.607 0 0 0-.767.22c-.047.035-.107.085-.104.127a.38.38 0 0 0-.052.065.843.843 0 0 0-.07.459.5.5 0 0 1-.158.422.213.213 0 0 0 .163 0c.052-.022.1-.05.144-.085a.324.324 0 0 0 .102-.097.467.467 0 0 0 .091.048c.013.104.015.223-.03.26v-.02a.556.556 0 0 1-.388.112.496.496 0 0 0-.401.248l-.186.797v.025c.002.01.008.02.016.029a.062.062 0 0 0 .028.015l.057.015a1.2 1.2 0 0 1-.002.383 3.391 3.391 0 0 0-.067.585c.015.1.04.61.05.854a2.34 2.34 0 0 0-.05.248l-.277 1.666s-.206 1.332-.196 1.737l-.037.233s-.562.708-.396.807c.166.1.418.144.661-.234a.61.61 0 0 1 .153-.233.226.226 0 0 0 .077-.194l-.017-.163h.047a5.768 5.768 0 0 0 .248-1.549s.512-1.831.903-2.12l.038-.017.084 1.772-.084 1.956-.018.117s-.562.707-.396.806c.166.1.418.144.661-.233a.61.61 0 0 1 .154-.233.226.226 0 0 0 .076-.194l-.024-.248c.096-.328.346-1.278.247-1.827l.171-1.169c.173-.193.149-.687.149-.687.136-.283.166-1.4.166-1.4l.034-.551h.104l.013-.015v-.012l.002-.038zm-.48 1.12a1.154 1.154 0 0 0-.052-.114h-.015V56.7a.559.559 0 0 0 .02-.057.217.217 0 0 0 .032-.119c.025.11.033.221.025.333h-.01zm-.052-.472l-.035-.37v-.03l.047.47-.012-.07zm-1.632.05a.134.134 0 0 0-.03.1.41.41 0 0 0 .015.11l-.054.232v-.442a.965.965 0 0 0 .091-.15.245.245 0 0 1-.01.15h-.012z" fill="url(#paint1_linear)"/><path d="M208.92 53.589a.808.808 0 0 0-.067.441.469.469 0 0 1-.154.407.203.203 0 0 0 .156 0 .588.588 0 0 0 .139-.082.295.295 0 0 0 .096-.094.369.369 0 0 0 .023-.189c0-.112.01-.224.029-.335 0-.07.077-.248 0-.293-.076-.044-.188.09-.222.145z" fill="#72351C"/><path d="M207.782 60.913l-.052.34s-.543.683-.382.777c.161.094.404.14.637-.223a.579.579 0 0 1 .148-.224.225.225 0 0 0 .06-.084.222.222 0 0 0 .014-.102l-.052-.526-.373.042zm1.632.137l-.052.34s-.542.683-.381.777c.161.094.404.139.636-.224a.593.593 0 0 1 .149-.223.222.222 0 0 0 .074-.186l-.052-.526-.374.042z" fill="#333"/><path d="M208.569 56.928s-.247.184-.349.827l-.267 1.603a14.066 14.066 0 0 0-.183 1.737l.45.154c.15-.483.233-.984.248-1.489 0 0 .542-1.933.921-2.07l.079 1.708-.084 1.926.386.077s.392-1.224.268-1.872l.2-1.377c.13-.454.098-.94-.089-1.373l-1.58.15z" fill="#4D8AF0"/><path opacity=".1" d="M209.345 57.713v-.03c-.379.137-.921 2.07-.921 2.07a5.42 5.42 0 0 1-.233 1.475l.05.017c.15-.483.233-.984.248-1.489 0 0 .48-1.765.856-2.043zm.812-.94h-.052c.185.433.216.916.087 1.368l-.201 1.377c.119.614-.228 1.738-.262 1.862h.049s.391-1.224.267-1.872l.201-1.377c.126-.45.095-.929-.089-1.358z" fill="#000"/><path d="M208.223 55.672a.054.054 0 0 0 .012.037c.008.01.019.018.032.02.125.03.241.086.342.164.191.149-.201-.297-.201-.297l-.131.03-.054.047z" fill="#F55F44"/><path opacity=".1" d="M208.223 55.672a.054.054 0 0 0 .012.037c.008.01.019.018.032.02.125.03.241.086.342.164.191.149-.201-.297-.201-.297l-.131.03-.054.047z" fill="#000"/><path d="M210.084 56.07c.159-.113.343-.186.537-.212a.05.05 0 0 0 .035-.015.047.047 0 0 0 .015-.035.43.43 0 0 0-.587.263z" fill="#F55F44"/><path opacity=".1" d="M210.671 55.8a.428.428 0 0 0-.587.263s.332-.248.562-.213" fill="#000"/><path d="M209.562 54.311a.587.587 0 0 0 .586-.588.587.587 0 1 0-1.173 0c0 .325.262.588.587.588z" fill="#72351C"/><path d="M209.157 54.135s.084.345 0 .417c-.084.072-.248.201-.124.303.124.102.575.273.723.19.149-.081.32-.059.28-.23-.04-.171-.367-.136-.374-.993l-.505.313z" fill="#FDB797"/><path opacity=".1" d="M208.328 55.574a2.18 2.18 0 0 1-.035.559 3.231 3.231 0 0 0-.064.563c.017.124.054.946.054.946s-.064.72.285.652c.349-.067-.055-.819-.055-.819l.018-.992a.926.926 0 0 0 .178-.44c.015-.22-.381-.469-.381-.469z" fill="#000"/><path d="M208.32 55.574a2.18 2.18 0 0 1-.035.559 3.231 3.231 0 0 0-.064.563c.017.124.054.946.054.946s-.064.72.285.652c.349-.067-.055-.819-.055-.819l.018-.992a.916.916 0 0 0 .178-.44c.017-.22-.381-.469-.381-.469z" fill="#FDB797"/><path opacity=".1" d="M210.554 55.623l-.047.767s-.03 1.075-.161 1.348c0 0 .035.744-.314.744s.059-.826.059-.826.188-.84.092-1.107l-.092-.921.463-.005z" fill="#000"/><path d="M210.56 55.623l-.047.767s-.03 1.075-.161 1.348c0 0 .035.744-.314.744-.35 0 .059-.826.059-.826s.188-.84.092-1.107l-.092-.921.463-.005z" fill="#FDB797"/><path opacity=".1" d="M209.425 54.878s.282.132.438-.248l.577.283a.36.36 0 0 1 .111.26l.124.665a.42.42 0 0 0-.464.106.425.425 0 0 0-.088.143l.035.374a.399.399 0 0 1-.018.28.07.07 0 0 0-.005.026.07.07 0 0 0 .005.024.18.18 0 0 1-.019.167.185.185 0 0 1-.147.082 3.519 3.519 0 0 0-.463.034c-.123.035-.495-.072-.621 0s-.386-.054-.386-.054l.071-.303s-.047-.149 0-.201a1.293 1.293 0 0 0-.029-.648s-.213-.2-.337-.166l.178-.767a.469.469 0 0 1 .387-.248.537.537 0 0 0 .373-.107s-.138.25.278.298z" fill="#000"/><path opacity=".1" d="M209.454 54.866c.077.02.285.045.409-.268l.577.283a.36.36 0 0 1 .111.26l.124.666a.421.421 0 0 0-.552.248l.035.375.022.074c.01.032.013.065.008.098a.215.215 0 0 1-.038.09.07.07 0 0 0-.01.035.07.07 0 0 0 .01.035c.01.027.014.057.011.086a.196.196 0 0 1-.03.081.182.182 0 0 1-.147.081 3.49 3.49 0 0 0-.463.035c-.124.035-.495-.072-.621 0-.127.072-.387-.055-.387-.055l.072-.302s-.047-.15 0-.201a1.305 1.305 0 0 0-.029-.648s-.213-.201-.337-.166l.178-.767a.469.469 0 0 1 .386-.248.538.538 0 0 0 .374-.107s-.138.248.228.31l.069.005z" fill="#000"/><path d="M209.454 54.878c.077.02.285.045.409-.268l.577.283a.36.36 0 0 1 .111.26l.124.666a.418.418 0 0 0-.464.105.424.424 0 0 0-.088.143l.035.375a.4.4 0 0 1-.018.28.07.07 0 0 0-.005.025.07.07 0 0 0 .005.025.183.183 0 0 1-.166.248 3.519 3.519 0 0 0-.463.035c-.123.035-.495-.072-.621 0s-.386-.055-.386-.055l.071-.303s-.047-.149 0-.2a1.294 1.294 0 0 0-.029-.648s-.213-.201-.337-.167l.178-.767a.47.47 0 0 1 .387-.248.537.537 0 0 0 .373-.107s-.138.249.228.31l.079.008z" fill="#F55F44"/><path opacity=".1" d="M209.671 53.85l-.495.314c.012.054.022.109.029.164a.498.498 0 0 0 .181.034.506.506 0 0 0 .327-.148 2.028 2.028 0 0 1-.042-.364z" fill="#000"/><path d="M209.368 54.334a.487.487 0 1 0-.001-.973.487.487 0 0 0 .001.973z" fill="#FDB797"/><path d="M210.084 53.471a.213.213 0 1 0 0-.426.213.213 0 0 0 0 .426z" fill="#72351C"/><path d="M210.125 53.485a.213.213 0 0 1-.213-.198v.015c0 .056.023.11.062.15a.215.215 0 0 0 .302 0 .213.213 0 0 0 .062-.15v-.015a.216.216 0 0 1-.067.141.214.214 0 0 1-.146.057z" fill="#72351C"/><path d="M210.003 53.698a.212.212 0 0 1-.132-.083.209.209 0 0 1-.041-.15v.015a.212.212 0 0 0 .172.249.214.214 0 0 0 .249-.172v-.015a.216.216 0 0 1-.248.156zm-.164.512a.213.213 0 0 1-.173-.233v.014a.212.212 0 0 0 .172.25.215.215 0 0 0 .249-.173v-.015a.214.214 0 0 1-.248.156zm.286-.838a.213.213 0 0 1-.213-.198v.015c0 .056.023.11.062.15a.215.215 0 0 0 .302 0 .213.213 0 0 0 .062-.15v-.015a.216.216 0 0 1-.067.141.215.215 0 0 1-.146.057z" fill="#72351C"/><path d="M209.828 53.255a.213.213 0 0 1 .201-.21h-.015a.213.213 0 1 0 0 .426h.015a.213.213 0 0 1-.201-.215z" fill="#72351C"/><path opacity=".1" d="M210.042 55.275a.752.752 0 0 1 0 .32s-.029.281.018.328m-1.459-.597a.784.784 0 0 1 0 .32s-.03.28.017.328m-.028.513a.213.213 0 0 0 .141 0 .296.296 0 0 1 .171 0m-.24-.416c.169.008.337-.018.495-.077 0 0 .605.149.778.042" fill="#000"/><path d="M208.493 58.625h-.166a.104.104 0 0 0-.104.104v.022c0 .058.046.104.104.104h.166a.104.104 0 0 0 .104-.104v-.022a.104.104 0 0 0-.104-.104z" fill="#FDB797"/><path d="M208.223 58.685h.2l.174.028h-.062l-.312-.028zm1.345-.962h.201l.173.017h-.062l-.312-.017zm0 .041h.201l.173.017h-.062l-.312-.017zm0 .045h.201l.173.017h-.062l-.312-.017zm0 .037h.201l.173.017h-.062l-.312-.017zm-1.345 1.004h.2l.174.02h-.062l-.312-.02zm0-.02h.2l.174.02h-.062l-.312-.02zm0-.03h.2l.174.02h-.062l-.312-.02zm0-.013h.2l.174.02h-.062l-.312-.02zm0-.131h.2l.174.028h-.062l-.312-.028zm0-.033h.2l.174.027h-.062l-.312-.027z" fill="#F0E4E4"/><path opacity=".1" d="M209.448 53.536c-.019.181.004.365.067.536a.65.65 0 0 1-.03.511.168.168 0 0 0 .151-.037.57.57 0 0 0 .109-.13.34.34 0 0 0 .067-.133.528.528 0 0 0-.035-.226 2.885 2.885 0 0 1-.071-.402c0-.082 0-.32-.092-.343-.092-.022-.149.154-.166.224z" fill="#000"/><path d="M209.462 53.529c-.02.181.003.365.067.536a.644.644 0 0 1-.028.516.168.168 0 0 0 .151-.037.57.57 0 0 0 .109-.129.34.34 0 0 0 .067-.134.542.542 0 0 0-.034-.226 2.748 2.748 0 0 1-.072-.402c0-.082 0-.32-.092-.342-.091-.023-.143.148-.168.218z" fill="#72351C"/><path opacity=".1" d="M209.252 53.657c.04.043.05.107.084.157a.311.311 0 0 0 .248.096.134.134 0 0 1 .069.015c.037.025.04.08.065.117a.124.124 0 0 0 .046.034.14.14 0 0 0 .157-.034.335.335 0 0 0 .059-.203 1.286 1.286 0 0 0 0-.249.392.392 0 0 0-.109-.263.455.455 0 0 0-.191-.082.561.561 0 0 0-.294-.022.522.522 0 0 0-.134.067l-.173.117c-.065.044-.183.134-.067.183.084.018.178 0 .24.067z" fill="#000"/><path d="M209.266 53.652c.04.042.05.106.084.156a.311.311 0 0 0 .248.097.133.133 0 0 1 .069.015c.037.024.04.08.065.116a.13.13 0 0 0 .101.046.14.14 0 0 0 .102-.046.332.332 0 0 0 .076-.213 1.286 1.286 0 0 0 0-.248.392.392 0 0 0-.109-.263.451.451 0 0 0-.19-.082.565.565 0 0 0-.295-.023.553.553 0 0 0-.134.067l-.173.117c-.064.045-.183.134-.067.184.067.015.159.015.223.077z" fill="#72351C"/><path d="M209.58 57.723h.201l.173.017h-.062l-.312-.017zm0 .041h.201l.173.017h-.062l-.312-.017zm0 .045h.201l.173.017h-.062l-.312-.017zm0 .037h.201l.173.017h-.062l-.312-.017zm-.094 2.291h.201l.173.017h-.062l-.312-.017zm0 .039h.201l.173.017h-.062l-.312-.017zm0 .043h.201l.173.017h-.062l-.312-.017zm0 .043h.201l.173.017h-.062l-.312-.017z" fill="#F0E4E4"/><path opacity=".2" d="M97.16 172.414H77.465v-11.121H97.16v11.121zm-18.863-.833h18.026v-9.454H78.297v9.454z" fill="#6C63FF"/><path d="M64.356 155.74c1.239.725 2.544 1.02 3.893.571.35-.118.69-.269 1.013-.449 12.628.268 24.323.144 24.777-1.219.742-2.258-3.962-13.382-6.337-18.758a6.02 6.02 0 0 0 1.733-1.814c3.299 3.78 9.435 8.657 13.082 8.9 0 0 5.324 12.675 11.314 10.672s6.656-12.675 3.66-14.008L97.525 126.96v-21.032a7.89 7.89 0 0 0 .835-3.896c0-.248.012-.497 0-.745l-.666-6.004s-.035-.198-.127-.558c-1.485-5.785-4.796-9.68-9.464-10.258.227-.416.366-.875.406-1.347.097-1.122-.369-2.266-.106-3.361.307-1.276 1.485-2.1 2.454-2.978 2.067-1.896 3.37-4.468 4.628-6.977 1.198-2.39 2.414-4.842 2.724-7.498.309-2.655-.496-5.604-2.662-7.167-1.684-1.22-4.054-1.54-5.265-3.227-.542-.76-.767-1.695-1.141-2.549-1.077-2.46-3.4-4.204-5.92-5.115-8.846-3.192-19.697.471-25.34 7.833-1.842 2.402-3.172 5.152-4.487 7.88l-4.754 9.85c-.82 1.696-1.612 3.813-.517 5.344.535.745 1.45 1.206 1.822 2.048.495 1.117-.124 2.578.604 3.561.401.544 1.097.76 1.694 1.077a6.636 6.636 0 0 1 2.048 1.82l-10.44 8.108a7.042 7.042 0 0 0-2.689 4.867l-1.032 10.315a12.571 12.571 0 0 0-.466 3.601c-.037 1.087.09 2.286.631 3.227l.228-.055c.248 7.235.679 17.644 1.105 19.567.247 1.142 1.81 3.155 3.914 5.23l-.742 2.109h.247l-.247.663h.495c-2.1 7.605-7.813 13.335-7.813 13.335s13.21.72 26.874 1.112zm-12.415-35.139v-8.108c1.218.189 2.117.611 2.404 1.38l-2.404 6.728zm3.526-35.287l.04.06h-.015l-.025-.06z" fill="url(#paint2_linear)"/><path d="M85.506 103.724s.631 22.491 1.265 25.343c.634 2.852 9.801 11.414 14.538 11.732 0 0 5.056 12.037 10.747 10.136 5.69-1.901 6.321-12.037 3.466-13.306l-18.95-12.037v-24.074l-11.066 2.206z" fill="#FDB797"/><path d="M85.98 131.297s8.22 17.741 7.27 20.6c-.948 2.859-53.732 0-53.732 0s9.798-9.821 7.901-20.6h38.562z" fill="#565171"/><path d="M79.66 78.71s-1.266 12.354.948 15.206c2.213 2.852-8.85 4.433-9.789 4.433-.938 0-11.061-3.475-12.958-4.436-1.897-.96-3.466-7.92-3.466-7.92s9.48 1.902 12.326-9.182l12.938 1.898z" fill="#FDB797"/><path d="M82.972 47.017c2.394.863 4.6 2.521 5.623 4.857.357.811.57 1.7 1.085 2.422 1.149 1.608 3.4 1.911 4.999 3.07 2.053 1.49 2.813 4.286 2.528 6.808-.284 2.522-1.44 4.852-2.578 7.12-1.196 2.386-2.431 4.826-4.395 6.627-.916.842-2.04 1.624-2.332 2.835-.248 1.04.193 2.124.099 3.192-.228 2.633-3.368 3.859-5.99 4.152-1.14.126-2.444.134-3.246-.688-.412-.422-.617-.993-.88-1.524a7.299 7.299 0 0 0-2.655-2.947 7.276 7.276 0 0 0-10.342 2.813c-.614 1.187-.973 2.624-2.092 3.348-1.714 1.11-4.004-.193-5.265-1.797-1.26-1.603-2.179-3.618-3.979-4.579-.567-.302-1.238-.496-1.607-1.022-.69-.933-.104-2.32-.572-3.383-.354-.8-1.223-1.241-1.733-1.946-1.04-1.454-.288-3.475.495-5.075l4.516-9.357c1.238-2.591 2.514-5.212 4.262-7.486 5.351-6.994 15.657-10.473 24.059-7.44z" fill="#8F5A6A"/><path opacity=".1" d="M71.443 96.131s-12.327 0-15.486-11.404L45.58 92.785a6.698 6.698 0 0 0-2.553 4.624l-.99 9.811s-1.107 3.644.159 5.86c0 0 13.123-3.326 13.433.474l-9.157 25.66s14.223.318 18.014-2.216c0 0 15.486 3.167 19.28-.318 3.793-3.484 7.584-3.166 4.425-11.086 0 0 6.321-6.337 3.466-15.207-2.855-8.87-.158.159-.158.159s6.163-3.011 5.846-8.712l-.631-5.708s-.035-.189-.122-.529c-1.926-7.515-7.104-11.665-14.381-9.019-2.127.772-4.301-.112-4.301-.112s2.38 10.308-6.468 9.665z" fill="#000"/><path d="M71.443 95.498s-12.327 0-15.486-11.404L45.58 92.153a6.697 6.697 0 0 0-2.553 4.62l-.99 9.812s-1.107 3.643.159 5.86c0 0 13.123-3.326 13.433.474l-9.162 25.66s14.223.318 18.014-2.216c0 0 15.486 3.167 19.28-.318 3.793-3.484 7.584-3.167 4.425-11.087 0 0 6.322-6.336 3.466-15.206-2.855-8.871-.158.159-.158.159s6.163-3.011 5.846-8.712l-.631-5.708s-.035-.189-.121-.529c-1.927-7.515-7.105-11.665-14.382-9.02-2.127.773-4.301-.11-4.301-.11s2.384 10.299-6.463 9.666z" fill="#B45181"/><path d="M42.207 106.269s.632 22.491 1.265 25.343c.634 2.852 9.799 11.404 14.538 11.722 0 0 5.056 12.037 10.747 10.136 5.69-1.901 6.321-12.037 3.466-13.305l-18.962-12.038v-24.074l-11.054 2.216z" fill="#FDB797"/><path opacity=".1" d="M55.796 107.06s-7.263 4.944-13.59 4.532c0 0-.631-8.491 1.266-8.965 1.896-.474 10.112 0 12.324 4.433z" fill="#000"/><path d="M55.796 106.744s-7.263 4.944-13.59 4.53c0 0-.631-8.491 1.266-8.965 1.896-.474 10.112 0 12.324 4.435z" fill="#B45181"/><path opacity=".1" d="M66.07 77.441l12.958 1.902s-.293 2.859-.35 6.142a14.514 14.514 0 0 1-15.25-2.482c1.084-1.34 2.02-3.142 2.642-5.562z" fill="#000"/><path d="M73.655 85.994c8.029 0 14.538-6.524 14.538-14.571 0-8.048-6.51-14.571-14.538-14.571-8.03 0-14.538 6.523-14.538 14.57 0 8.048 6.509 14.572 14.538 14.572z" fill="#FDB797"/><path opacity=".1" d="M69.83 68.622c.599.278 1.282.283 1.943.278 2.572-.016 5.142-.112 7.709-.285 1.946-.132 4.021-.36 5.522-1.608 2.02-1.68 2.34-4.83 1.297-7.245-1.042-2.415-3.17-4.195-5.415-5.555a16.146 16.146 0 0 0-4.09-1.859c-4.168-1.134-8.777.248-12.087 3.04-3.31 2.793-5.42 6.796-6.537 10.978-.387 1.447-.882 3.17-2.31 3.609.95 1.586 3.27 1.836 4.94 1.042 2.456-1.171 3.714-5.654 5.92-6.358 2.454-.777 1.023 3.005 3.108 3.963z" fill="#000"/><path d="M69.828 68.305c.6.278 1.283.283 1.944.278 2.572-.016 5.141-.112 7.708-.285 1.946-.132 4.021-.36 5.522-1.609 2.02-1.68 2.34-4.83 1.298-7.244-1.043-2.415-3.17-4.195-5.416-5.555a16.15 16.15 0 0 0-4.083-1.846c-4.168-1.135-8.776.248-12.086 3.04-3.311 2.792-5.42 6.795-6.538 10.977-.386 1.447-.881 3.17-2.31 3.61.951 1.585 3.271 1.836 4.94 1.041 2.457-1.17 3.715-5.653 5.92-6.358 2.447-.787 1.016 2.993 3.1 3.951z" fill="#8F5A6A"/><path opacity=".1" d="M88.35 124.8a55.84 55.84 0 0 0-14.537-1.901L88.35 124.8zm-32.555-17.105s4.742 3.475 3.467 5.386l-3.467-5.386z" fill="#000"/><path opacity=".7" d="M186.849 143.613H31.666v13.599h9.033v42.79h137.439v-42.79h8.711v-13.599z" fill="url(#paint3_linear)"/><path d="M176.734 151.533H42.096v48.469h134.638v-48.469z" fill="#E0E0E0"/><path opacity=".1" d="M176.734 154.068H42.096v7.602h134.638v-7.602z" fill="#000"/><path d="M185.269 146.148H33.246v12.988H185.27v-12.988z" fill="#E0E0E0"/><path d="M89.437 142.951H63.578c-.889 0-1.61.722-1.61 1.613v.891c0 .891.721 1.614 1.61 1.614h25.86c.888 0 1.609-.723 1.609-1.614v-.891c0-.891-.721-1.613-1.61-1.613z" fill="#535461"/><path opacity=".7" d="M144.946 97.035H86.654c-3.86 0-6.988 3.136-6.988 7.004v36.077c0 3.868 3.129 7.004 6.988 7.004h58.292c3.859 0 6.988-3.136 6.988-7.004v-36.077c0-3.868-3.129-7.004-6.988-7.004z" fill="url(#paint4_linear)"/><path d="M142.77 97.96H87.603c-3.67 0-6.646 2.983-6.646 6.662v35.837c0 3.679 2.976 6.661 6.646 6.661h55.167c3.671 0 6.646-2.982 6.646-6.661v-35.837c0-3.679-2.975-6.661-6.646-6.661z" fill="#3E3F49"/><path d="M143.719 97.96H88.552c-3.67 0-6.646 2.983-6.646 6.662v35.837c0 3.679 2.976 6.661 6.646 6.661h55.167c3.671 0 6.646-2.982 6.646-6.661v-35.837c0-3.679-2.975-6.661-6.646-6.661z" fill="#535461"/><path d="M119.332 124.419a2.214 2.214 0 0 0 2.212-2.216c0-1.224-.99-2.217-2.212-2.217a2.214 2.214 0 0 0-2.211 2.217c0 1.224.99 2.216 2.211 2.216z" fill="#E0E0E0"/></g><defs><linearGradient id="paint0_linear" x1="187.438" y1="90.428" x2="187.438" y2="5.058" gradientUnits="userSpaceOnUse"><stop stop-color="gray" stop-opacity=".25"/><stop offset=".54" stop-color="gray" stop-opacity=".12"/><stop offset="1" stop-color="gray" stop-opacity=".1"/></linearGradient><linearGradient id="paint1_linear" x1="3405.42" y1="2894.76" x2="3405.42" y2="2528.84" gradientUnits="userSpaceOnUse"><stop stop-color="gray" stop-opacity=".25"/><stop offset=".54" stop-color="gray" stop-opacity=".12"/><stop offset="1" stop-color="gray" stop-opacity=".1"/></linearGradient><linearGradient id="paint2_linear" x1="-43370" y1="76922" x2="-43370" y2="25066.7" gradientUnits="userSpaceOnUse"><stop stop-color="gray" stop-opacity=".25"/><stop offset=".54" stop-color="gray" stop-opacity=".12"/><stop offset="1" stop-color="gray" stop-opacity=".1"/></linearGradient><linearGradient id="paint3_linear" x1="68503" y1="45583.6" x2="68503" y2="32772.5" gradientUnits="userSpaceOnUse"><stop stop-color="gray" stop-opacity=".25"/><stop offset=".54" stop-color="gray" stop-opacity=".12"/><stop offset="1" stop-color="gray" stop-opacity=".1"/></linearGradient><linearGradient id="paint4_linear" x1="33876.3" y1="29785.9" x2="33876.3" y2="19678.8" gradientUnits="userSpaceOnUse"><stop stop-color="gray" stop-opacity=".25"/><stop offset=".54" stop-color="gray" stop-opacity=".12"/><stop offset="1" stop-color="gray" stop-opacity=".1"/></linearGradient><clipPath id="clip0"><path fill="#fff" d="M0 0h260v200H0z"/></clipPath></defs></svg>