<svg width="260" height="190" viewBox="0 0 260 190" fill="none" xmlns="http://www.w3.org/2000/svg"><g clip-path="url(#clip0)"><path d="M36.7 10.5c-1.929-.056-3.905 0-5.713.558-4.921 1.521-7.254 6.499-6.495 10.8.758 4.302 3.877 8.05 7.114 11.475 3.237 3.425 6.744 6.812 8.52 10.906.884 2.043 1.298 4.333.399 6.374-1.388 3.146-5.572 4.903-9.589 5.269-4.016.366-8.05-.347-12.08-.585-1.692-.099-3.431-.11-5.025.349-1.748.5-3.205 1.523-4.545 2.59C4.049 62.414-.142 68.122.542 74.108c.766 6.795 7.593 12.165 15.072 15.046 2.476.963 5.095 1.728 7.275 3.09 5.741 3.595 7.03 10.334 6.459 16.282-.572 5.948-2.52 11.903-1.435 17.798 1.275 6.858 6.918 13.053 14.53 15.947 6.782 2.577 15.27 2.407 21.292-1.23 2.935-1.777 5.155-4.244 7.086-6.796a54.888 54.888 0 0 0 7.045-12.275c.84-2.044 1.63-4.242 3.588-5.662 1.197-.874 2.747-1.362 4.28-1.743 4.622-1.145 9.49-1.458 14.156-2.479 4.665-1.02 9.346-2.924 11.882-6.326 3.589-4.814 1.914-10.98 1.931-16.642.028-12.916 9.356-24.477 12.799-37.068 1.124-4.114 1.543-8.666-.969-12.336-1.706-2.492-4.584-4.29-7.608-5.679-6.653-3.054-14.215-4.414-21.653-5.738-10.337-1.839-22.89-2.077-30.9-8.027-7.678-5.7-18.197-9.77-28.673-9.77z" fill="#EAE9FF"/><g opacity=".5"><path opacity=".5" d="M6.54 84.09c-.511.761-.932 1.866-.262 3.154 1.316 2.528 4.57 2.008 6.15 4.427.423.67.658 1.442.682 2.236.06 1.37-.361 2.448-.579 3.654a6.208 6.208 0 0 0 .627 4.173 7.338 7.338 0 0 0 3.35 3.007c1.224.544 2.392.683 3.564.948 1.454.336 2.87.82 4.227 1.444a8.01 8.01 0 0 1 1.804 1.06 13.196 13.196 0 0 1 1.825 1.978l5.088 6.321a18.086 18.086 0 0 0 2.154 2.369c.857.696 1.8 1.279 2.803 1.735 2.032 1.018 4.156 2.061 5.919 1.943 1.763-.118 2.988-1.83 2.153-4.222-.79-2.277-3.014-4.196-4.024-6.468-1.59-3.582.493-6.258-.84-9.845-1.277-3.447-4.858-5.758-7.145-8.906-1.642-2.239-2.555-4.843-4.034-7.195-2.153-3.37-5.358-5.947-8.373-7.252a16.16 16.16 0 0 0-8.411-1.172c-1.091.12-2.165.325-2.94.982-.823.698-.718 2.002-1.254 2.93-.615 1.066-1.787 1.67-2.483 2.7z" fill="#6C63FF"/><path opacity=".5" d="M9.734 79.244s25.474 23.962 35.746 42.619M6.375 87.39s10.18-1.99 17.225 5.994m-9.99 9.054s11.243-7.912 15.133-3.31M21.58 78.594s-1.183 6.056 3.077 15.949m16.512 7.555s-.995 3.971-8.995 1.052m.873 12.841s4.883-5.678 2.663-8.466" stroke="#535461" stroke-width="2" stroke-miterlimit="10"/></g><path d="M1.753 56.296C.557 57.719-.563 59.688.317 61.63c1.694 3.813 7.964 1.947 10.201 5.498.67 1.061.76 2.359.605 3.516-.301 2.265-1.416 4.189-2.186 6.259-.77 2.07-1.17 4.573-.084 6.759 1.045 2.115 3.249 3.451 5.383 3.983s4.272.412 6.404.482c2.532.1 5.046.473 7.5 1.112 1.078.245 2.11.663 3.057 1.237 1.089.7 1.969 1.728 2.83 2.74l7.656 8.975c1.016 1.204 2.054 2.407 3.315 3.291 1.455 1.018 3.11 1.535 4.74 2.034 3.504 1.078 7.176 2.166 10.526 1.427 3.349-.739 6.16-3.96 5.322-7.688-.796-3.55-4.39-6.068-5.6-9.546-1.914-5.481 2.811-10.565 1.392-16.142-1.358-5.349-7.382-8.107-10.731-12.635-2.393-3.244-3.335-7.303-5.426-10.754-3.02-4.983-8.282-8.283-13.521-9.537-5.24-1.254-10.51-.67-15.424.585-2.081.532-4.162 1.203-5.813 2.532-1.754 1.413-1.954 3.558-3.232 5.262-1.48 1.98-3.866 3.35-5.478 5.276z" fill="#6C63FF"/><path d="M9.205 47.246s40.59 32.134 54.248 60.08M.447 61.83s19.706-6.414 30.512 4.733M9.49 84.699S32.961 68.09 38.894 74.568M31.64 42.547s-4.045 10.444.957 25.625m28.719 7.547s-3.065 6.915-17.2 4.496m-2.227 21.117s10.877-10.947 7.552-14.924" stroke="#535461" stroke-width="2" stroke-miterlimit="10"/><path d="M147.838 185.746c61.437 0 111.242-13.419 111.242-29.973 0-16.553-49.805-29.972-111.242-29.972-61.438 0-111.242 13.419-111.242 29.972 0 16.554 49.804 29.973 111.242 29.973z" fill="#EAE9FF"/><path d="M234.482.098s-8.572 8.624-3.732 21.422c4.839 12.799-8.297 34.082-8.297 34.082s.141-.022.402-.068c17.605-3.129 26.354-23.387 16.564-38.438-3.638-5.594-6.626-12.155-4.937-16.998z" fill="#6C63FF"/><path d="M234.482.098s-4.84 10.571 0 19.196c4.839 8.624.83 32.83-12.029 36.308" stroke="#535461" stroke-width="2" stroke-miterlimit="10"/><path d="M249.75 34.985s-9.782-1.567-10.672 7.252c-.89 8.82-18.808 10.042-18.808 10.042l.334.224c14.794 9.77 28.947 6.225 26.794-6.74-.782-4.833-.717-9.685 2.352-10.778z" fill="#6C63FF"/><path opacity=".2" d="M249.75 34.985s-9.782-1.567-10.672 7.252c-.89 8.82-18.808 10.042-18.808 10.042l.334.224c14.794 9.77 28.947 6.225 26.794-6.74-.782-4.833-.717-9.685 2.352-10.778z" fill="#F5F5F5"/><path d="M249.75 34.984s-7.593 1.685-6.969 8.622c.624 6.938-11.275 15.273-22.511 8.666M59.018 67.35s-3.172-10.832.596-18.81a17.207 17.207 0 0 0 1.375-10.734 28.91 28.91 0 0 0-1.51-5.038" stroke="#535461" stroke-width="2" stroke-miterlimit="10"/><path d="M61.82 27.725c0 1.33-2.392 5.178-2.392 5.178s-2.393-3.851-2.393-5.178c0-.638.252-1.25.7-1.702a2.385 2.385 0 0 1 3.384 0c.449.452.7 1.064.7 1.702zm3.95 7.356c-.717 1.115-4.803 3.04-4.803 3.04s.074-4.54.792-5.654a2.405 2.405 0 0 1 1.511-1.126 2.378 2.378 0 0 1 1.854.321 2.4 2.4 0 0 1 1.05 1.57 2.423 2.423 0 0 1-.404 1.85zm-.17 12.568c-1.18.597-5.672.185-5.672.185s2.342-3.88 3.519-4.477a2.38 2.38 0 0 1 2.71.26 2.403 2.403 0 0 1 .845 1.687 2.419 2.419 0 0 1-.625 1.782 2.38 2.38 0 0 1-.777.565v-.002zm-2.259 9.479c-1.062.79-5.56 1.146-5.56 1.146s1.656-4.222 2.718-5.012a2.389 2.389 0 0 1 1.81-.525 2.383 2.383 0 0 1 1.628.957 2.413 2.413 0 0 1 .433 1.846 2.416 2.416 0 0 1-1.029 1.588zm-7.388-18.75c.956.924 5.356 1.885 5.356 1.885s-1.08-4.407-2.026-5.332a2.392 2.392 0 0 0-1.725-.761 2.38 2.38 0 0 0-1.737.73 2.409 2.409 0 0 0-.675 1.769 2.42 2.42 0 0 0 .806 1.712v-.003zm-2.506 11.12c1.18.596 5.672.185 5.672.185s-2.342-3.88-3.519-4.477a2.379 2.379 0 0 0-1.782-.076 2.397 2.397 0 0 0-1.339 1.185 2.42 2.42 0 0 0-.152 1.788c.18.593.582 1.094 1.12 1.397v-.002zm-.957 11.146c1.061.789 5.559 1.145 5.559 1.145s-1.655-4.222-2.718-5.011a2.38 2.38 0 0 0-3.25.57 2.418 2.418 0 0 0 .408 3.296z" fill="#6C63FF"/><path d="M256.554 130.341h-20.356a6.864 6.864 0 0 0 .718-3.05V34.023a6.882 6.882 0 0 0-1.998-4.846 6.795 6.795 0 0 0-4.818-2.007H72.526a6.795 6.795 0 0 0-4.82 2.008 6.879 6.879 0 0 0-1.995 4.85v93.263a6.85 6.85 0 0 0 .717 3.05H45.352a1.8 1.8 0 0 0-1.274.53c-.337.34-.527.801-.527 1.282v1.461c0 2.69 1.062 5.27 2.953 7.173a10.05 10.05 0 0 0 7.128 2.97h194.657a10.05 10.05 0 0 0 7.128-2.97 10.177 10.177 0 0 0 2.953-7.173v-1.461a1.814 1.814 0 0 0-1.816-1.812zm-125.426 5.801l-1.746-1.996h43.327l-1.933 1.996h-39.648z" fill="url(#paint0_linear)"/><path d="M229.403 28.488H73.205c-3.073 0-5.564 2.507-5.564 5.6v93.361c0 3.092 2.49 5.599 5.564 5.599h156.198c3.073 0 5.565-2.507 5.565-5.599V34.087c0-3.092-2.492-5.599-5.565-5.599z" fill="#535461"/><path d="M231.094 43.728H71.164v85.419h159.93V43.729z" fill="#F1F1F4"/><path d="M151.13 37.7c.778 0 1.409-.634 1.409-1.417s-.631-1.418-1.409-1.418-1.409.635-1.409 1.418c0 .783.631 1.418 1.409 1.418z" fill="#fff"/><path d="M175.821 129.322l-5.502 5.671h-38.755l-4.966-5.671H47.735c-.467 0-.914.187-1.245.519-.33.332-.515.783-.515 1.253v1.43a9.923 9.923 0 0 0 2.89 7.013 9.817 9.817 0 0 0 6.974 2.899h190.235a9.82 9.82 0 0 0 6.966-2.903 9.945 9.945 0 0 0 2.885-7.009v-1.43c0-.47-.185-.921-.515-1.253a1.758 1.758 0 0 0-1.245-.519h-78.344z" fill="#535461"/><path d="M124.656 50.238H80.932v33.155h43.724V50.238z" fill="#fff"/><path opacity=".2" d="M99.783 53.105H85.209v8.288h14.574v-8.288z" fill="#6C63FF"/><path d="M120.379 53.105H103.27v1.914h17.109v-1.913zm-5.069 3.19h-12.04v1.913h12.04v-1.913zm5.069 3.185H103.27v1.914h17.109v-1.913zm-.001 3.19H85.209v1.913h35.169V62.67zm0 3.187H85.209v1.914h35.169v-1.914zm0 3.19H85.209v1.913h35.169v-1.913zm-2.851 3.185H85.209v1.914h32.318v-1.914zm2.851 3.188H85.209v1.913h35.169V75.42zm0 3.19H85.209v1.913h35.169v-1.914z" fill="#E6E8EC"/><path d="M172.816 50.238h-43.724v33.155h43.724V50.238z" fill="#fff"/><path opacity=".2" d="M147.939 53.105h-14.574v8.288h14.574v-8.288z" fill="#6C63FF"/><path d="M168.537 53.105h-17.109v1.914h17.109v-1.913zm-5.069 3.19h-12.04v1.913h12.04v-1.913zm5.069 3.185h-17.109v1.914h17.109v-1.913zm-.003 3.19h-35.169v1.913h35.169V62.67zm0 3.187h-35.169v1.914h35.169v-1.914zm0 3.19h-35.169v1.913h35.169v-1.913zm-2.851 3.185h-32.318v1.914h32.318v-1.914zm2.851 3.188h-35.169v1.913h35.169V75.42zm0 3.19h-35.169v1.913h35.169v-1.914z" fill="#E6E8EC"/><path d="M220.972 50.238h-43.724v33.155h43.724V50.238z" fill="#fff"/><path opacity=".2" d="M196.099 53.105h-14.574v8.288h14.574v-8.288z" fill="#6C63FF"/><path d="M216.696 53.105h-17.11v1.914h17.11v-1.913zm-5.07 3.19h-12.04v1.913h12.04v-1.913zm5.07 3.185h-17.11v1.914h17.11v-1.913zm-.001 3.19h-35.17v1.913h35.17V62.67zm0 3.187h-35.17v1.914h35.17v-1.914zm0 3.19h-35.17v1.913h35.17v-1.913zm-2.852 3.185h-32.318v1.914h32.318v-1.914zm2.852 3.188h-35.17v1.913h35.17V75.42zm0 3.19h-35.17v1.913h35.17v-1.914z" fill="#E6E8EC"/><path d="M124.656 87.535H80.932v33.155h43.724V87.535z" fill="#fff"/><path opacity=".2" d="M99.783 90.404H85.209v8.288h14.574v-8.288z" fill="#6C63FF"/><path d="M120.379 90.404H103.27v1.914h17.109v-1.914zm-5.069 3.188h-12.04v1.913h12.04v-1.913zm5.069 3.188H103.27v1.913h17.109v-1.914zm-.001 3.187H85.209v1.913h35.169v-1.913zm0 3.189H85.209v1.914h35.169v-1.914zm0 3.188H85.209v1.913h35.169v-1.913zm-2.851 3.187H85.209v1.914h32.318v-1.914zm2.851 3.19H85.209v1.913h35.169v-1.913zm0 3.185H85.209v1.914h35.169v-1.914z" fill="#E6E8EC"/><path d="M172.816 87.535h-43.724v33.155h43.724V87.535z" fill="#fff"/><path opacity=".2" d="M147.939 90.404h-14.574v8.288h14.574v-8.288z" fill="#6C63FF"/><path d="M168.537 90.404h-17.109v1.914h17.109v-1.914zm-5.069 3.188h-12.04v1.913h12.04v-1.913zm5.069 3.188h-17.109v1.913h17.109v-1.914zm-.003 3.187h-35.169v1.913h35.169v-1.913zm0 3.189h-35.169v1.914h35.169v-1.914zm0 3.188h-35.169v1.913h35.169v-1.913zm-2.851 3.187h-32.318v1.914h32.318v-1.914zm2.851 3.19h-35.169v1.913h35.169v-1.913zm0 3.185h-35.169v1.914h35.169v-1.914z" fill="#E6E8EC"/><path opacity=".1" d="M220.972 87.535h-43.724v33.155h43.724V87.535z" fill="#000"/><path d="M105.756 61.395H38.293a6.148 6.148 0 0 0-4.377 1.816 6.249 6.249 0 0 0-1.815 4.399v94.052a6.25 6.25 0 0 0 1.816 4.396 6.16 6.16 0 0 0 4.373 1.815h67.463a6.157 6.157 0 0 0 4.373-1.815 6.23 6.23 0 0 0 1.816-4.396V67.609a6.228 6.228 0 0 0-3.82-5.743 6.143 6.143 0 0 0-2.366-.471z" fill="url(#paint1_linear)"/><path d="M106.211 62.67H37.839c-2.642 0-4.784 2.155-4.784 4.814V162.1c0 2.659 2.142 4.814 4.784 4.814h68.372c2.643 0 4.785-2.155 4.785-4.814V67.484c0-2.659-2.142-4.814-4.785-4.814z" fill="#535461"/><path d="M107.034 72.531h-70.02v84.524h70.02V72.531z" fill="#F1F1F4"/><path d="M71.708 68.41c.524 0 .95-.429.95-.956a.953.953 0 0 0-.95-.956.953.953 0 0 0-.95.956c0 .527.425.955.95.955zm-.001 96.274a2.86 2.86 0 0 0 2.852-2.869 2.86 2.86 0 0 0-2.852-2.87 2.86 2.86 0 0 0-2.851 2.87 2.86 2.86 0 0 0 2.851 2.869zM60.012 81.168H40.04v15.145h19.97V81.168z" fill="#fff"/><path opacity=".2" d="M48.652 82.48h-6.658v3.787h6.658V82.48z" fill="#6C63FF"/><path d="M58.058 82.48h-7.816v.874h7.816v-.873zm-2.316 1.456h-5.5v.873h5.5v-.873zm2.316 1.457h-7.816v.873h7.816v-.873zm0 1.457H41.994v.873h16.064v-.873zm0 1.455H41.994v.873h16.064v-.873zm0 1.455H41.994v.873h16.064v-.873zm-1.301 1.457H41.994v.874h14.763v-.874zm1.301 1.457H41.994v.874h16.064v-.874zm0 1.455H41.994v.874h16.064v-.874z" fill="#E6E8EC"/><path d="M82.01 81.168H62.04v15.145h19.97V81.168z" fill="#fff"/><path opacity=".2" d="M70.648 82.48H63.99v3.787h6.658V82.48z" fill="#6C63FF"/><path d="M80.058 82.48h-7.816v.874h7.816v-.873zm-2.316 1.456h-5.5v.873h5.5v-.873zm2.316 1.457h-7.816v.873h7.816v-.873zm-.003 1.457H63.99v.873h16.065v-.873zm0 1.455H63.99v.873h16.065v-.873zm0 1.455H63.99v.873h16.065v-.873zm-1.302 1.457H63.99v.874h14.763v-.874zm1.302 1.457H63.99v.874h16.065v-.874zm0 1.455H63.99v.874h16.065v-.874z" fill="#E6E8EC"/><path d="M104.008 81.168h-19.97v15.145h19.97V81.168z" fill="#fff"/><path opacity=".2" d="M92.65 82.48h-6.658v3.787h6.658V82.48z" fill="#6C63FF"/><path d="M102.056 82.48H94.24v.874h7.816v-.873zm-2.316 1.456h-5.5v.873h5.5v-.873zm2.316 1.457H94.24v.873h7.816v-.873zm0 1.457H85.992v.873h16.064v-.873zm0 1.455H85.992v.873h16.064v-.873zm0 1.455H85.992v.873h16.064v-.873zm-1.301 1.457H85.992v.874h14.763v-.874zm1.301 1.457H85.992v.874h16.064v-.874zm0 1.455H85.992v.874h16.064v-.874z" fill="#E6E8EC"/><path d="M60.012 98.205H40.04v15.145h19.97V98.205z" fill="#fff"/><path opacity=".2" d="M48.652 99.518h-6.658v3.786h6.658v-3.786z" fill="#6C63FF"/><path d="M58.058 99.518h-7.816v.873h7.816v-.873zm-2.316 1.455h-5.5v.873h5.5v-.873zm2.316 1.457h-7.816v.873h7.816v-.873zm0 1.455H41.994v.874h16.064v-.874zm0 1.457H41.994v.874h16.064v-.874zm0 1.457H41.994v.874h16.064v-.874zm-1.301 1.455H41.994v.874h14.763v-.874zm1.301 1.457H41.994v.874h16.064v-.874zm0 1.457H41.994v.874h16.064v-.874z" fill="#E6E8EC"/><path d="M82.01 98.205H62.04v15.145h19.97V98.205z" fill="#fff"/><path opacity=".2" d="M70.648 99.518H63.99v3.786h6.658v-3.786z" fill="#6C63FF"/><path d="M80.058 99.518h-7.816v.873h7.816v-.873zm-2.316 1.455h-5.5v.873h5.5v-.873zm2.316 1.457h-7.816v.873h7.816v-.873zm-.003 1.455H63.99v.874h16.065v-.874zm0 1.457H63.99v.874h16.065v-.874zm0 1.457H63.99v.874h16.065v-.874zm-1.302 1.455H63.99v.874h14.763v-.874zm1.302 1.457H63.99v.874h16.065v-.874zm0 1.457H63.99v.874h16.065v-.874z" fill="#E6E8EC"/><path d="M104.008 98.205h-19.97v15.145h19.97V98.205z" fill="#fff"/><path opacity=".2" d="M92.65 99.518h-6.658v3.786h6.658v-3.786z" fill="#6C63FF"/><path d="M102.056 99.518H94.24v.873h7.816v-.873zm-2.316 1.455h-5.5v.873h5.5v-.873zm2.316 1.457H94.24v.873h7.816v-.873zm0 1.455H85.992v.874h16.064v-.874zm0 1.457H85.992v.874h16.064v-.874zm0 1.457H85.992v.874h16.064v-.874zm-1.301 1.455H85.992v.874h14.763v-.874zm1.301 1.457H85.992v.874h16.064v-.874zm0 1.457H85.992v.874h16.064v-.874z" fill="#E6E8EC"/><path d="M60.012 115.916H40.04v15.145h19.97v-15.145z" fill="#fff"/><path opacity=".2" d="M48.652 117.229h-6.658v3.786h6.658v-3.786z" fill="#6C63FF"/><path d="M58.058 117.229h-7.816v.873h7.816v-.873zm-2.316 1.455h-5.5v.873h5.5v-.873zm2.316 1.457h-7.816v.873h7.816v-.873zm0 1.457H41.994v.873h16.064v-.873zm0 1.455H41.994v.873h16.064v-.873zm0 1.457H41.994v.874h16.064v-.874zm-1.301 1.455H41.994v.874h14.763v-.874zm1.301 1.457H41.994v.874h16.064v-.874zm0 1.455H41.994v.874h16.064v-.874z" fill="#E6E8EC"/><path d="M82.01 115.916H62.04v15.145h19.97v-15.145z" fill="#fff"/><path opacity=".2" d="M70.648 117.229H63.99v3.786h6.658v-3.786z" fill="#6C63FF"/><path d="M80.058 117.229h-7.816v.873h7.816v-.873zm-2.316 1.455h-5.5v.873h5.5v-.873zm2.316 1.457h-7.816v.873h7.816v-.873zm-.003 1.457H63.99v.873h16.065v-.873zm0 1.455H63.99v.873h16.065v-.873zm0 1.457H63.99v.874h16.065v-.874zm-1.302 1.455H63.99v.874h14.763v-.874zm1.302 1.457H63.99v.874h16.065v-.874zm0 1.455H63.99v.874h16.065v-.874z" fill="#E6E8EC"/><path d="M104.008 115.916h-19.97v15.145h19.97v-15.145z" fill="#fff"/><path opacity=".2" d="M92.65 117.229h-6.658v3.786h6.658v-3.786z" fill="#6C63FF"/><path d="M102.056 117.229H94.24v.873h7.816v-.873zm-2.316 1.455h-5.5v.873h5.5v-.873zm2.316 1.457H94.24v.873h7.816v-.873zm0 1.457H85.992v.873h16.064v-.873zm0 1.455H85.992v.873h16.064v-.873zm0 1.457H85.992v.874h16.064v-.874zm-1.301 1.455H85.992v.874h14.763v-.874zm1.301 1.457H85.992v.874h16.064v-.874zm0 1.455H85.992v.874h16.064v-.874z" fill="#E6E8EC"/><path d="M60.012 132.953H40.04v15.145h19.97v-15.145z" fill="#fff"/><path opacity=".2" d="M48.652 134.266h-6.658v3.786h6.658v-3.786z" fill="#6C63FF"/><path d="M58.058 134.266h-7.816v.873h7.816v-.873zm-2.316 1.455h-5.5v.873h5.5v-.873zm2.316 1.457h-7.816v.873h7.816v-.873zm0 1.457H41.994v.874h16.064v-.874zm0 1.455H41.994v.874h16.064v-.874zm0 1.455H41.994v.874h16.064v-.874zm-1.301 1.457H41.994v.874h14.763v-.874zm1.301 1.457H41.994v.874h16.064v-.874zm0 1.457H41.994v.874h16.064v-.874z" fill="#E6E8EC"/><path d="M82.01 132.953H62.04v15.145h19.97v-15.145z" fill="#fff"/><path opacity=".2" d="M70.648 134.266H63.99v3.786h6.658v-3.786z" fill="#6C63FF"/><path d="M80.058 134.266h-7.816v.873h7.816v-.873zm-2.316 1.455h-5.5v.873h5.5v-.873zm2.316 1.457h-7.816v.873h7.816v-.873zm-.003 1.457H63.99v.874h16.065v-.874zm0 1.455H63.99v.874h16.065v-.874zm0 1.455H63.99v.874h16.065v-.874zm-1.302 1.457H63.99v.874h14.763v-.874zm1.302 1.457H63.99v.874h16.065v-.874zm0 1.457H63.99v.874h16.065v-.874z" fill="#E6E8EC"/><path opacity=".1" d="M104.008 132.953h-19.97v15.145h19.97v-15.145z" fill="#000"/><path d="M54.333 93.273h-34.64a3.407 3.407 0 0 0-2.425 1.005 3.448 3.448 0 0 0-1.008 2.435v76.325a3.465 3.465 0 0 0 1.008 2.435 3.41 3.41 0 0 0 2.425 1.005h34.64a3.414 3.414 0 0 0 2.425-1.005 3.45 3.45 0 0 0 1.008-2.435V96.715a3.466 3.466 0 0 0-1.007-2.436 3.423 3.423 0 0 0-2.426-1.006z" fill="url(#paint2_linear)"/><path d="M54.819 93.912h-35.61a2.64 2.64 0 0 0-2.63 2.648v76.953a2.64 2.64 0 0 0 2.63 2.648h35.61a2.64 2.64 0 0 0 2.632-2.648V96.56a2.64 2.64 0 0 0-2.632-2.648z" fill="#535461"/><path d="M54.439 101.562H19.588v66.945h34.85v-66.945z" fill="#F1F1F4"/><path d="M32.894 98.055a.317.317 0 0 0 .316-.317.317.317 0 0 0-.316-.318.317.317 0 0 0-.316.318c0 .175.141.317.316.317zm8.318-.637H34.72a.24.24 0 0 0-.24.24v.157c0 .133.108.24.24.24h6.492a.24.24 0 0 0 .24-.24v-.156a.24.24 0 0 0-.24-.241zm-4.356 76.509a2.224 2.224 0 0 0 2.218-2.231 2.224 2.224 0 0 0-2.218-2.231 2.224 2.224 0 0 0-2.217 2.231c0 1.232.993 2.231 2.217 2.231z" fill="#fff"/><path opacity=".1" d="M48.896 105.57H25.131v18.022h23.765V105.57z" fill="#000"/><path d="M48.896 125.846H25.131v18.021h23.765v-18.021z" fill="#fff"/><path opacity=".2" d="M35.378 127.404h-7.921v4.506h7.92v-4.506z" fill="#6C63FF"/><path d="M46.57 127.404h-9.298v1.04h9.298v-1.04zm-2.753 1.733h-6.545v1.04h6.545v-1.04zm2.753 1.732h-9.298v1.04h9.298v-1.04zm.004 1.733H27.457v1.039h19.117v-1.039zm0 1.734H27.457v1.04h19.117v-1.04zm0 1.732H27.457v1.04h19.117v-1.04zm-1.55 1.733H27.457v1.04h17.567v-1.04zm1.55 1.734H27.457v1.04h19.117v-1.04zm0 1.733H27.457v1.039h19.117v-1.039z" fill="#E6E8EC"/><path d="M48.896 146.16H25.131v18.022h23.765V146.16z" fill="#fff"/><path opacity=".2" d="M35.378 147.721h-7.921v4.506h7.92v-4.506z" fill="#6C63FF"/><path d="M46.57 147.721h-9.298v1.04h9.298v-1.04zm-2.753 1.732h-6.545v1.04h6.545v-1.04zm2.753 1.733h-9.298v1.039h9.298v-1.039zm.004 1.734H27.457v1.04h19.117v-1.04zm0 1.732H27.457v1.04h19.117v-1.04zm0 1.735H27.457v1.04h19.117v-1.04zm-1.55 1.732H27.457v1.04h17.567v-1.04zm1.55 1.731H27.457v1.039h19.117v-1.039zm0 1.732H27.457v1.04h19.117v-1.04z" fill="#E6E8EC"/><path d="M130.06 154.673c-1.608-1.961-3.555-4.217-3.282-6.828.22-2.116-.309-4.071-.204-6.191.149-3.014-.457-5.375-2.614-7.308-1.261-1.129-3.369-2.017-3.996-1.791-1.244.448-2.6.277-3.88.578-.971.24-1.619.58-2.019 1.02-.806.722-.821 1.748-.452 2.843a4.82 4.82 0 0 0 .724 5.607 4.79 4.79 0 0 0 1.639 1.133c-.897.375-1.674 1.244-1.973 3.006a20.666 20.666 0 0 1-.957 3.553c-.19.091-.385.171-.584.241.043.016.089.028.134.045-.093.036-.189.073-.282.106.172.067.35.119.531.154a20.462 20.462 0 0 1-2.608 4.783s-2.708.602-3.76-.45c0 0 .172.202.404.505-1.031-.43-2.72-1.131-4.165-1.709-1.048-.418-1.318 0-1.304.583-.257.03-.506.112-.732.241a7.04 7.04 0 0 0-.971-.525c-.603-.149-2.558-1.204-4.514 2.407-1.14 2.101-4.067 5.933-6.304 8.771-4.366 2.02-10.048 4.574-12.158 5.221h-1.35a18.916 18.916 0 0 0-.3-.481l-.106.069-.045-.069s-2.658 1.851-5.357 1.865a5.028 5.028 0 0 1-1.138-.149c-1.242-.315-2.115-.455-2.74-.443-.739-.012-1.157.164-1.418.496a1.301 1.301 0 0 0-.172.289 2.668 2.668 0 0 0-.067.166.34.34 0 0 0 .083.284c.036.052.075.102.118.149l.074.082c.534.501 1.113.951 1.73 1.345.222.152.456.306.703.465l.466.298.416.263.168.103.186.116.333.204.199.121.373.224.301.18c.79.482 1.58.925 2.287 1.327l.498.281.048.027.318.178.553.308.38.209.177.099.191.103.039.022.33.181a.485.485 0 0 0 .385-.106c.096-.409.33-1.286.579-1.353.249-.067 1.335-1.983 1.643-3.259h2.936c.577-.049 1.15-.137 1.715-.263-.758.544-1.51.886-2.093.739-1.235-.308-2.404.448-2.522 1.204l-.014.046v.346c0 .015 0 .041.014.06.015.02 0 .027 0 .039a.75.75 0 0 0 .031.077v.019a.759.759 0 0 0 .055.092l.024.031.048.06.034.034.055.053.04.034.065.048.048.031.079.046.052.029.098.045.05.022c.053.022.108.043.168.063.06.019.206.062.333.093l.126.032.185.043.098.022.402.082.196.036.16.029.368.065.718.117.634.097.825.118.182.024.297.041.426.057.292.039.753.096.24.029.478.058c.624.075 1.23.147 1.785.209l.643.073.326.036.138.014.39.043.218.024.265.029.376.039h.04l.24.024c.03.003.06 0 .089-.01a.213.213 0 0 0 .13-.117.215.215 0 0 0 .02-.087v-.024a.219.219 0 0 0 .036-.116c.006-.36.051-.718.134-1.069l.055-.183.024-.069c.026-.075.052-.15.084-.227a1.56 1.56 0 0 0 .055-.166l.014-.053c0-.029.014-.06.022-.091.303-1.04-.063-2.978-.168-3.738a4.058 4.058 0 0 0-.165-.722c.02.002.038.002.057 0 .156-.059.303-.14.436-.241 2.218-.797 4.09-1.707 4.682-2.619a4.03 4.03 0 0 1 2.87.301c1.149.575 9.84 3.428 13.888 4.747.717.63 1.296.999 1.61.962 0 0 5.15.838 7.222-.799.184.128.299.198.299.198s3.01-1.505 3.462-3.459c.146-.633.277-1.57.411-2.605a3.792 3.792 0 0 0 1.093-2.662c.094-3.285 1.359-7.038 2.297-10.381 1.139.089 1.579-.126 2.632-.646l-.046-.06.182-.077zm-17.253 4.92l-.574-.195c.194-.261.362-.542.5-.837l.074 1.032zm-3.239 1.382l3.487 2.106.032.429c-.043.326-.033.656.028.979-1.536-1.374-3.335-3.042-3.545-3.514h-.002zm-1.424-3.067c-.38-.159-.696-.301-.911-.418l.808.05c.048.119.083.242.105.368h-.002zm-9.33 3.43s.603-1.352 1.957.903c.211.351.598.907 1.11 1.601l-3.938-.532a5.8 5.8 0 0 0 .866-1.972h.005z" fill="url(#paint3_linear)"/><path d="M107.476 155.901s-2.76-1.17-4.937-2.046c-2.177-.876-.871 2.046-.871 2.046s3.631 1.023 3.631 1.17c0 .147 3.051.291 3.051.291l-.874-1.461z" fill="#F7C4A7"/><path opacity=".05" d="M107.476 155.901s-2.76-1.17-4.937-2.046c-2.177-.876-.871 2.046-.871 2.046s3.631 1.023 3.631 1.17c0 .147 3.051.291 3.051.291l-.874-1.461z" fill="#000"/><path d="M119.235 144.358s-4.938-2.631-5.811 2.484a20.95 20.95 0 0 1-3.625 8.625s-2.614.585-3.631-.438c0 0 2.469 2.922 1.306 3.215 0 0 2.615 1.9 3.778 1.315 1.162-.585 2.033-4.53 2.468-5.553.436-1.023 2.034-9.942 5.515-9.648z" fill="#575988"/><path opacity=".1" d="M119.235 144.358s-4.938-2.631-5.811 2.484a20.95 20.95 0 0 1-3.625 8.625s-2.614.585-3.631-.438c0 0 2.469 2.922 1.306 3.215 0 0 2.615 1.9 3.778 1.315 1.162-.585 2.033-4.53 2.468-5.553.436-1.023 2.034-9.942 5.515-9.648z" fill="#000"/><path d="M116.48 142.602s3.051 3.507 3.197 6.429c.146 2.922 3.485-3.069 3.777-3.216.292-.146-2.907-5.112-3.198-6.718-.292-1.605-3.776 3.505-3.776 3.505z" fill="#F7C4A7"/><path d="M118.586 144.104l-1.924 1.752.907 3.69 2.469-2.337-.29-2.338-1.162-.767zM78.427 170.08h-3.34l1.307 3.214 3.196-.877-1.163-2.337z" fill="#F7C4A7"/><path opacity=".1" d="M75.857 169.615s-3.454 2.424-6.413 1.668c-2.96-.756-3.759-.481-4.103.503-.319.896 8.256 5.635 9.622 6.384a.155.155 0 0 0 .147.013.15.15 0 0 0 .06-.047.152.152 0 0 0 .032-.07c.093-.397.318-1.249.557-1.314.314-.084 1.746-2.773 1.675-3.834-.072-1.062-1.577-3.303-1.577-3.303z" fill="#000"/><path d="M75.715 169.615s-3.455 2.424-6.414 1.668c-2.96-.756-3.758-.481-4.103.503-.318.896 8.256 5.635 9.622 6.384a.155.155 0 0 0 .147.013.15.15 0 0 0 .061-.047.152.152 0 0 0 .031-.07c.093-.397.318-1.249.558-1.314.313-.084 1.746-2.773 1.674-3.834-.072-1.062-1.576-3.303-1.576-3.303z" fill="#F3B5B7"/><path d="M104.28 163.795l-9.732-1.315s-15.832 7.599-17.72 7.746l.435 3.37h2.905c1.162 0 12.49-2.484 14.088-4.968a3.87 3.87 0 0 1 2.76.291c1.453.722 15.398 5.262 15.398 5.262l-8.134-10.386z" fill="#575988"/><path opacity=".1" d="M104.28 163.795l-9.732-1.315s-15.832 7.599-17.72 7.746l.435 3.37h2.905c1.162 0 12.49-2.484 14.088-4.968a3.87 3.87 0 0 1 2.76.291c1.453.722 15.398 5.262 15.398 5.262l-8.134-10.386z" fill="#000"/><path d="M86.996 168.324l-1.598 2.046 1.599.876 2.325-1.752-2.326-1.17z" fill="#F7C4A7"/><path d="M114.737 165.985s-5.225-4.501-5.591-5.32c-.366-.818-8.933-6.369-9.514-6.516-.582-.146-2.47-1.169-4.357 2.338s-8.851 11.982-8.851 11.982 2.18 3.069 2.904 2.922c.725-.147 8.852-7.014 9.44-10.377 0 0 .581-1.314 1.888.876 1.306 2.191 9.732 12.714 11.33 12.568 0 0 6.246 1.023 7.552-1.462 1.306-2.484-4.801-7.011-4.801-7.011z" fill="#575988"/><path d="M113.27 142.391H91.522v16.49h21.748v-16.49z" fill="url(#paint4_linear)"/><path d="M112.381 143.062h-19.97v15.146h19.97v-15.146z" fill="#fff"/><path opacity=".2" d="M101.023 144.375h-6.658v3.786h6.658v-3.786z" fill="#6C63FF"/><path d="M110.429 144.375h-7.816v.874h7.816v-.874zm-2.316 1.455h-5.5v.874h5.5v-.874zm2.316 1.457h-7.816v.874h7.816v-.874zm.001 1.457H94.365v.874h16.065v-.874zm0 1.455H94.365v.874h16.065v-.874zm0 1.457H94.365v.874h16.065v-.874zm-1.302 1.455H94.365v.874h14.763v-.874zm1.302 1.457H94.365v.874h16.065v-.874zm0 1.457H94.365v.874h16.065v-.874z" fill="#E6E8EC"/><path d="M117.715 144.576s-1.816.804-1.961 4.165c-.146 3.36-3.35 9.06-3.35 9.06l.29 6.722s3.485 3.508 3.777 5.7c.292 2.193 2.763 3.654 2.763 3.654s2.905-1.461 3.35-3.37c.444-1.908.717-6.576 1.452-8.33.734-1.755.289-12.714.289-12.714l-2.179-3.801-1.163-1.314-3.05 3.507s-1.67-2.258-.218-3.279z" fill="#F3B5B7"/><path opacity=".1" d="M113.432 162.33s-.436-5.262.87-6.429l2.615-7.462s.945-3.579.799-3.873c-.146-.293-3.414 2.85-3.414 2.85l-2.179 7.746.581 8.184.728-1.016z" fill="#000"/><path d="M113.285 162.331s-.435-5.261.871-6.429l2.615-7.462s1.016-3.654.871-3.945c-.146-.291-3.486 2.922-3.486 2.922l-2.179 7.746.581 8.184.727-1.016z" fill="#575988"/><path d="M114.301 159.992s-7.267-2.337-7.698-2.922c-.431-.585-5.084-4.383-6.682-1.755-1.598 2.629 5.955 3.37 5.955 3.37l7.698 4.677.727-3.37z" fill="#F7C4A7"/><path opacity=".1" d="M87.309 170.357l-2.153-.39s-3.522 4.537-5.354 4.077c-1.833-.459-3.522 1.526-1.584 2.167 1.751.575 9.308 1.381 10.753 1.531a.212.212 0 0 0 .24-.207 4.681 4.681 0 0 1 .32-1.647c.388-.963 0-3.013-.108-3.793a3.786 3.786 0 0 0-.423-1.312l-1.691-.426z" fill="#000"/><path d="M87.275 170.497l-2.153-.39s-3.516 4.54-5.36 4.078c-1.845-.462-3.522 1.526-1.585 2.166 1.751.576 9.309 1.382 10.754 1.531a.211.211 0 0 0 .24-.207 4.67 4.67 0 0 1 .32-1.646c.387-.963 0-3.014-.108-3.794a3.802 3.802 0 0 0-.423-1.312l-1.685-.426z" fill="#F3B5B7"/><path opacity=".1" d="M117.57 144.285c2.567 0 4.648-2.093 4.648-4.676s-2.081-4.677-4.648-4.677c-2.567 0-4.648 2.094-4.648 4.677 0 2.583 2.081 4.676 4.648 4.676z" fill="#000"/><path d="M117.135 144.285c2.567 0 4.648-2.093 4.648-4.676s-2.081-4.677-4.648-4.677c-2.568 0-4.649 2.094-4.649 4.677 0 2.583 2.081 4.676 4.649 4.676z" fill="#F7C4A7"/><path d="M121.709 144.211s5.519 1.899 5.519 5.847c0 3.947-3.051 10.23-3.197 15.345-.145 5.115-8.133 4.383-8.133 4.383s-1.163-17.244 0-18.561c1.162-1.317 6.392-6.429 5.811-7.014z" fill="#575988"/><path opacity=".1" d="M120.691 152.395s-2.034 9.06-6.828 7.462c0 0-2.469 3.654-.718 5.261 0 0 4.213 1.023 6.971-1.754 2.759-2.778 4.787-3.806 5.223-7.176.435-3.37.718-8.037-.718-7.599-1.435.438-3.93 3.806-3.93 3.806z" fill="#000"/><path d="M120.837 152.247s-2.033 9.061-6.828 7.462c0 0-2.468 3.654-.717 5.262 0 0 4.213 1.023 6.971-1.755 2.758-2.777 4.785-3.8 5.229-7.161.445-3.36.718-8.037-.717-7.599-1.436.438-3.938 3.791-3.938 3.791z" fill="#575988"/><path d="M89.617 175.561c0 .014 0 .028-.014.04-.104.25-.184.509-.24.773.034-.115.074-.241.122-.349.062-.149.106-.305.132-.464zm-11.321.366c-.598-.198-.85-.523-.859-.865-.24.482-.09 1.011.754 1.291 1.75.575 9.31 1.381 10.753 1.531.03.004.06.001.089-.007a.229.229 0 0 0 .078-.043.218.218 0 0 0 .072-.16.215.215 0 0 0-.053-.145.207.207 0 0 0-.136-.071c-1.59-.174-8.97-.966-10.698-1.531zm-12.901-4.4a1.84 1.84 0 0 1 .141-.31 1.42 1.42 0 0 0-.342.568c-.318.895 8.256 5.632 9.622 6.383a.16.16 0 0 0 .207-.034.16.16 0 0 0 .032-.069.16.16 0 0 0-.076-.176c-1.517-.833-9.9-5.476-9.584-6.362zm10.41 4.967c-.077.021-.154.122-.223.267h.024c.062-.017.172-.142.306-.337a.29.29 0 0 1-.108.07z" fill="#DDDBE2"/><path opacity=".1" d="M116.489 143.724c-.409.907-.495 1.925-.797 2.888a6.351 6.351 0 0 1-1.471 2.487 6.302 6.302 0 0 1-2.416 1.571c1.509.607 3.289-.134 4.457-1.362 1.167-1.228 1.849-2.862 2.504-4.451 1.694 1.146 1.488 3.78 2.055 5.83a6.495 6.495 0 0 0 1.267 2.431 6.424 6.424 0 0 0 2.154 1.683 6.092 6.092 0 0 0 5.239-.106c-1.552-1.906-3.763-4.52-3.5-7.057.213-2.056-1.253-3.625-1.15-5.686.143-2.927-.957-4.407-3.05-6.285-1.218-1.097.698-2.647-.871-2.192-.617.178-1.268-.482-1.873-.268-1.197.434-2.51.27-3.744.561-6.419 1.512 1.789 8.629 1.196 9.956z" fill="#000"/><path d="M116.633 143.579c-.409.907-.495 1.925-.796 2.888a6.353 6.353 0 0 1-1.472 2.487 6.294 6.294 0 0 1-2.416 1.571c1.51.607 3.29-.134 4.457-1.362 1.168-1.228 1.849-2.862 2.505-4.451 1.694 1.146 1.488 3.779 2.055 5.83a6.44 6.44 0 0 0 3.421 4.114 6.084 6.084 0 0 0 5.239-.106c-1.553-1.906-3.617-4.092-3.349-6.619.213-2.056-.106-4.167 0-6.227.143-2.927-1.28-5.746-3.364-7.624-1.218-1.097-3.11-1.237-3.725-1.018-1.196.434-2.509.27-3.744.561-6.425 1.514 1.787 8.629 1.189 9.956z" fill="#B96B6B"/><path d="M39.193 188.08c8.373-2.593 13.315-2.378 13.315-2.378l-.686-3.917a2.97 2.97 0 0 0 .579-.512s-.86-4.754 0-5.943c.859-1.189 3.222-11.992 3.222-11.992v-3.676c4.306-1.511 9.342-10.263 9.342-10.263l6.337 16.418s6.335 12.642 7.194 13.073c.687.344 1.029 3.172 1.141 4.296l-.052.017c.026.272.038.441.038.441l.05-.034v.034c.106-.075.218-.141.335-.198-1.237 1.43-3.089 3.486-4.63 4.843-.849.749.675 1.327 1.388 1.315.406-.014.81.044 1.197.17 3.61 1.254 9.545-3.324 9.545-3.324l-1.486-4.169a32.6 32.6 0 0 1 .627-.045s-4.832-17.071-7.088-18.694a10.316 10.316 0 0 1-1.914-1.824 6.766 6.766 0 0 1-1.515-4.679l.792-14.007c1.273-.188 2.093-.344 2.093-.344s.297-3.827.288-6.764c0-1.528-.063-2.869-.288-3.394-.265-.621-.349-1.863-.354-3.11 0-1.685.14-3.264.14-3.264s1.717-2.27 4.08-7.462c1.041-2.284 1.311-4.092 1.288-5.387a7.388 7.388 0 0 0-.173-1.795 2.248 2.248 0 0 0-1.012-1.413c-1.359-.838-4.452-2.905-5.363-4.908-1.158-2.542-2.83-2.903-2.897-2.917l-.103-.448a4.206 4.206 0 0 0 1.344-2.051c.35-1.083.421-2.239.718-3.339.144-.53.342-1.042.478-1.571a6.242 6.242 0 0 0 .194-1.632 5.082 5.082 0 0 0-.478-2.323c-.555-1.148-1.66-2.05-2.919-2.2-.694-.082-1.461.038-2.03-.368-.393-.282-.599-.761-.958-1.096-.682-.65-1.772-.616-2.66-.313a5.673 5.673 0 0 0-2.91 2.28c-.413.64-.702 1.374-1.234 1.925-.447.46-1.033.754-1.526 1.163a3.126 3.126 0 0 0-1.196 2.407v.216c.024.93.668 1.854 1.572 2.042.237.044.479.05.718.02a5.87 5.87 0 0 0 .626 4.527 5.799 5.799 0 0 0 3.678 2.684l-.049.24h.05a8.344 8.344 0 0 1-.387 1.098h-.07l.175-.313-2.464-.171a4.105 4.105 0 0 0-2.086.393c-.85.414-1.777 1.203-1.892 2.695-.215 2.797-5.478 7.01-5.478 7.01-1.826 2.917-13.747 3.456-13.747 3.456s.053.068.077.104l-.24-.046-.901-.166s-2.792-8.319-5.476-6.807c-2.684 1.512 4.617 9.724 4.617 9.724l2.11.142.213.015a13.089 13.089 0 0 1-.333 1.596c-.028.106-.05.173-.055.19 0 0 5.55-.645 10.266-.542h.425l.302-.014c.24 2.607 3.933 7.905 3.933 7.905l2.28.481.172.036a19.174 19.174 0 0 1-2.775 4.234l-.751 4.215.06-.015-.06.34a.82.82 0 0 0 .347-.183c-1.472 3.928-3.912 10.042-5.608 12.175-2.577 3.242-2.256 8.424-2.256 8.424s-2.576 13.615-2.469 16.099a6.433 6.433 0 0 1-.93 3.401c-.506.584-.95 1.218-1.326 1.894-1.933 3.351-5.047 3.129-5.047 3.129-2.685 1.738.526 3.144.526 3.144zm16.586-65.903l.277-.11.065-.027.265-.115.046-.022.239-.111.053-.024.253-.127.06-.032.24-.127h.018l.24-.14.057-.034.24-.139.038-.024.208-.128.047-.029.223-.142.05-.033.206-.138.02-.012.21-.146.047-.034.202-.145.03-.021.178-.13.038-.029.184-.142.038-.029.168-.132h.014l.17-.138.036-.029.16-.132.015-.012.143-.123.024-.021.141-.123.022-.019.129-.118.124-.113.017-.017.24-.241.349-.029c.296.388.413 1.074.425 1.861-.033 2.019-.64 4.513-.64 4.513a14.15 14.15 0 0 1-.637 3.644 2.119 2.119 0 0 1-.758-.185s-.015.077-.036.207l-.206-.053-1.046-.262s-.868-4.449-2.626-6.288z" fill="url(#paint5_linear)"/><path d="M84.9 179.727l1.993 5.586s-5.457 4.213-9.002 3.341a9.84 9.84 0 0 0-1.627-.264c-.734-.056-1.998-.593-1.218-1.279 2.517-2.214 5.871-6.328 5.871-6.328l3.983-1.056zm-33.129-.527l.943 5.38s-4.823-.212-13 2.32c0 0-3.146-1.372-.524-3.059 0 0 3.04.212 4.928-3.06 1.888-3.271 3.04-2.847 3.04-2.847l4.613 1.266z" fill="#4F4D59"/><path d="M76.723 140.169l-.923 16.368a6.798 6.798 0 0 0 1.605 4.788 9.883 9.883 0 0 0 1.732 1.624c2.201 1.582 6.919 18.248 6.919 18.248s-5.347.316-6.814 1.372c0 0-.313-4.219-1.153-4.641-.84-.421-7.023-12.757-7.023-12.757l-6.19-16.036s-4.928 8.545-9.121 10.021v3.586s-2.306 10.548-3.146 11.708c-.84 1.16 0 5.801 0 5.801s-2.412 3.06-7.966-.212c0 0 1.782-2.005 1.674-4.431-.108-2.426 2.416-15.713 2.416-15.713s-.313-5.055 2.201-8.227c2.515-3.173 6.699-15.295 6.699-15.295l2.885-6.246 16.205 10.042z" fill="#787C9C"/><path opacity=".1" d="M85.059 181.203s-4.718-16.666-6.918-18.248a9.999 9.999 0 0 1-1.821-1.73 6.723 6.723 0 0 1-1.514-4.68l.923-16.368-15.461-9.589.21-.455 16.194 10.042-.924 16.368a6.72 6.72 0 0 0 1.514 4.679 10.007 10.007 0 0 0 1.821 1.731c2.2 1.581 6.919 18.248 6.919 18.248s-5.347.315-6.814 1.372c0 0-.012-.164-.038-.431 2.062-.71 5.909-.939 5.909-.939zm-33.442-.943s-.84-4.64 0-5.801c.84-1.16 3.146-11.707 3.146-11.707v-3.587c4.194-1.478 9.122-10.02 9.122-10.02l.366.95c-1.421 2.268-5.213 7.898-8.543 9.07v3.587s-2.306 10.547-3.146 11.707c-.84 1.161 0 5.801 0 5.801s-1.17 1.481-3.753 1.281c1.925-.166 2.808-1.281 2.808-1.281z" fill="#000"/><path d="M40.658 121.815l2.06.138 1.086.072v-2.648l-1.435-.26-.883-.161s-2.725-8.121-5.347-6.646c-2.622 1.476 4.52 9.505 4.52 9.505zm33.025-21.727s1.364 5.274 1.782 8.545c.42 3.271-9.748.633-9.748.633s3.878-4.747 1.674-7.279l6.292-1.899z" fill="#714B4F"/><path d="M62.676 122.028l-.21 2.005 3.248-.212 3.249-2.848 3.249-9.178 2.1-3.266 1.572-2.005-.63-2.426s-.287.24-.772.625c-1.596 1.23-5.342 3.784-8.079 3.079a3.258 3.258 0 0 1-.373-.118l-4.089 7.067.735 7.277z" fill="#E6E6F0"/><path opacity=".1" d="M74.417 103.475s1.675.315 2.83 2.847c.888 1.947 3.88 3.955 5.218 4.781a2.254 2.254 0 0 1 1.014 1.422c.27 1.204.373 3.442-1.096 6.668-2.306 5.054-3.983 7.279-3.983 7.279s-.418 5.054.21 6.539c.63 1.486 0 9.6 0 9.6s-11.004 2.108-14.676 0c-3.672-2.109-3.146-10.252-3.146-10.252s-3.46 7.39-4.71 7.602l.717-4.114s4.089-4.431 4.307-10.126c0 0 1.258-5.168.21-6.54 0 0-17.717 1.478-18.765.211 0 0 11.636-.527 13.418-3.369 0 0 5.137-4.114 5.347-6.856a3.03 3.03 0 0 1 1.572-2.484 4.087 4.087 0 0 1 2.35-.527l2.367.164s-4.086 7.264-3.868 8.227c.218.963-.21 8.649-.21 8.649s4.717-10.233 6.813-11.393c2.096-1.16 4.5-5.921 4.5-5.921l-.419-2.407z" fill="#000"/><path opacity=".1" d="M62.676 122.028l-.21 2.005 3.248-.212 3.249-2.848 3.249-9.178 2.1-3.266 1.572-2.005-.63-2.426s-.287.24-.772.625l.143.833s-2.411 4.764-4.507 5.924c-2.095 1.16-6.813 11.393-6.813 11.393s.419-7.703.21-8.649c-.143-.645 1.694-4.2 2.888-6.422a3.258 3.258 0 0 1-.373-.118l-4.089 7.067.735 7.277zm-19.956-.073l1.087.072v-2.648l-1.436-.26c.505.674.488 1.844.35 2.836z" fill="#000"/><path d="M74.417 103.146s1.675.316 2.83 2.848c.888 1.947 3.88 3.955 5.218 4.78a2.247 2.247 0 0 1 1.014 1.423c.27 1.203.373 3.442-1.096 6.667-2.306 5.055-3.983 7.279-3.983 7.279s-.418 5.055.21 6.54c.63 1.485 0 9.6 0 9.6s-11.004 2.108-14.676 0c-3.672-2.109-3.146-10.233-3.146-10.233s-3.46 7.383-4.71 7.592l.717-4.114s4.089-4.431 4.307-10.126c0 0 1.258-5.168.21-6.54 0 0-4.088 4.431-8.7 4.333-4.613-.099-10.065.527-10.065.527s1.048-3.37 0-4.641c0 0 11.636-.527 13.418-3.37 0 0 5.137-4.113 5.347-6.855a3.05 3.05 0 0 1 .465-1.453 3.024 3.024 0 0 1 1.11-1.041 4.087 4.087 0 0 1 2.349-.527l2.368.164s-4.089 7.274-3.87 8.222c.217.949-.211 8.649-.211 8.649s4.717-10.233 6.813-11.393c2.096-1.16 4.507-5.923 4.507-5.923l-.419-2.408" fill="#67647E"/><path opacity=".1" d="M76.724 114.221s-2.517 8.545-3.983 9.599c-1.467 1.054-10.378 6.434-13 5.168 0 0-.63 3.165.313 3.902 0 0 9.775-.385 9.854-.422 0 0 6.395-.844 7.443-4.007 1.047-3.163 2.306-8.545 2.306-8.545l-2.933-5.695z" fill="#000"/><path d="M63.306 123.875c.202 0 .366-.236.366-.528 0-.291-.164-.527-.366-.527-.203 0-.366.236-.366.527 0 .292.163.528.366.528zm-1.049 3.691c.202 0 .366-.236.366-.527 0-.291-.164-.527-.366-.527-.203 0-.366.236-.366.527 0 .291.163.527.366.527z" fill="#BA7855"/><path opacity=".1" d="M77.878 142.175s.629-8.122 0-9.6c-.63-1.478-.21-6.54-.21-6.54s1.674-2.214 3.982-7.279c1.47-3.225 1.364-5.464 1.096-6.667a2.251 2.251 0 0 0-1.017-1.423c-1.337-.825-4.33-2.833-5.215-4.78-.65-1.427-1.466-2.152-2.057-2.511l-.04-.24s1.674.315 2.83 2.847c.887 1.948 3.88 3.955 5.214 4.781a2.235 2.235 0 0 1 1.017 1.422c.27 1.204.373 3.442-1.096 6.668-2.306 5.055-3.983 7.279-3.983 7.279s-.418 5.054.21 6.54c.63 1.485 0 9.599 0 9.599s-7.863 1.507-12.513.7c4.698.561 11.782-.796 11.782-.796zm-14.144-27.953c.143.649 0 4.472-.118 6.811-.507 1.043-.825 1.731-.825 1.731s.419-7.702.21-8.648c-.198-.903 3.484-7.522 3.85-8.184l.763.053s-4.098 7.288-3.88 8.237zm-11.857 8.861c4.612.106 8.7-4.333 8.7-4.333.124.172.214.367.266.573-1.196 1.134-4.545 3.943-8.232 3.851-4.612-.106-10.064.527-10.064.527l.055-.19a82.791 82.791 0 0 1 9.275-.428zm8.176 8.86s-.043.66-.019 1.649c-1.09 2.167-3.076 5.902-3.964 6.051l.156-.866c1.526-1.928 3.828-6.834 3.828-6.834z" fill="#000"/><path d="M61.266 105.322H36.207v19.001h25.06v-19.001z" fill="url(#paint6_linear)"/><path d="M60.619 105.811H36.853v18.021H60.62v-18.021z" fill="#fff"/><path opacity=".2" d="M47.1 107.371h-7.92v4.506h7.92v-4.506z" fill="#6C63FF"/><path d="M58.293 107.371h-9.299v1.04h9.299v-1.04zm-2.753 1.733h-6.546v1.039h6.545v-1.039zm2.753 1.734h-9.299v1.04h9.299v-1.04zm.004 1.732H39.18v1.04h19.117v-1.04zm0 1.735H39.18v1.04h19.117v-1.04zm0 1.728H39.18v1.04h19.117v-1.04zm-1.551 1.735H39.18v1.039h17.566v-1.039zm1.551 1.732H39.18v1.04h19.117v-1.04zm0 1.732H39.18v1.04h19.117v-1.04z" fill="#E6E8EC"/><path d="M57.12 130.888l2.226.482 1.756.363-.942-2.647-.656-.167-1.021-.255s-1.467-7.377-4.402-6.848c-2.936.53 3.038 9.072 3.038 9.072z" fill="#714B4F"/><path opacity=".1" d="M59.346 131.361l1.756.373-.943-2.648-.655-.166c-.147.805-.2 1.624-.158 2.441z" fill="#000"/><path d="M76.724 114.012s-2.517 8.545-3.983 9.599c-1.467 1.054-10.378 6.434-13 5.168 0 0-.63 3.165.313 3.902 0 0 9.775-.385 9.854-.421 0 0 6.395-.845 7.443-4.008 1.047-3.163 2.306-8.545 2.306-8.545l-2.933-5.695z" fill="#67647E"/><path opacity=".1" d="M73.577 100.299s.213.825.498 2.027a5.678 5.678 0 0 1-2.639 2.509 5.626 5.626 0 0 1-3.61.379c.251-1.083.196-2.166-.54-3.026l6.29-1.889z" fill="#000"/><path d="M69.176 105.152c3.126 0 5.66-2.55 5.66-5.695 0-3.145-2.534-5.695-5.66-5.695-3.126 0-5.66 2.55-5.66 5.695 0 3.145 2.534 5.695 5.66 5.695z" fill="#714B4F"/><path opacity=".1" d="M64.26 97.889a3.014 3.014 0 0 1-1.264.077c-.882-.183-1.512-1.086-1.533-1.993a3.077 3.077 0 0 1 1.167-2.352c.479-.402 1.053-.688 1.49-1.136.52-.532.802-1.25 1.197-1.875a5.539 5.539 0 0 1 2.842-2.224c.868-.296 1.93-.33 2.598.305.342.325.543.795.926 1.07.555.396 1.306.278 1.983.358.614.095 1.195.34 1.692.715.496.374.894.866 1.157 1.432a5.403 5.403 0 0 1 .278 3.649c-.132.517-.323 1.02-.464 1.536-.295 1.073-.364 2.2-.704 3.259-.34 1.059-1.04 2.094-2.1 2.407a6.716 6.716 0 0 0-.675-3.442.984.984 0 0 0-.478-.535 1.154 1.154 0 0 0-.577 0 5.712 5.712 0 0 1-3.827-.78c-.402-.24-1.03-1.085-1.46-1.17-.543-.098-1.674.569-2.248.699z" fill="#000"/><path d="M64.26 97.676a3.012 3.012 0 0 1-1.264.077c-.882-.183-1.512-1.086-1.533-1.993a3.077 3.077 0 0 1 1.167-2.352c.479-.402 1.053-.688 1.49-1.136.52-.532.802-1.25 1.197-1.875a5.539 5.539 0 0 1 2.842-2.224c.868-.296 1.93-.33 2.598.305.342.326.543.795.926 1.07.555.396 1.306.278 1.983.358.614.095 1.195.34 1.692.715.496.374.894.866 1.157 1.432a5.403 5.403 0 0 1 .278 3.65c-.132.517-.323 1.02-.464 1.535-.295 1.073-.364 2.2-.704 3.259-.34 1.059-1.04 2.094-2.1 2.407a6.718 6.718 0 0 0-.675-3.442.984.984 0 0 0-.478-.535 1.154 1.154 0 0 0-.577 0 5.712 5.712 0 0 1-3.827-.78c-.402-.24-1.03-1.085-1.46-1.17-.543-.098-1.674.571-2.248.699z" fill="#503F43"/><path d="M20.615 183.005c.439-.36.758-.845.917-1.392.12-.553-.115-1.215-.642-1.417-.588-.227-1.217.183-1.693.599s-1.024.888-1.649.799a2.536 2.536 0 0 0 .775-2.361.993.993 0 0 0-.215-.482c-.328-.351-.919-.199-1.31.078-1.245.88-1.592 2.58-1.599 4.111-.124-.551-.02-1.127-.024-1.685-.005-.559-.158-1.204-.631-1.497a1.902 1.902 0 0 0-.957-.229c-.56-.022-1.182.036-1.565.448-.478.51-.352 1.369.062 1.925s1.04.915 1.62 1.305c.464.277.86.657 1.158 1.11.035.062.064.128.086.197h3.5a9.769 9.769 0 0 0 2.167-1.509zm207.891-33.457c.438-.36.758-.845.916-1.392.12-.553-.115-1.215-.641-1.417-.589-.227-1.218.183-1.694.599s-1.024.888-1.648.799a2.526 2.526 0 0 0 .775-2.361.992.992 0 0 0-.215-.482c-.328-.351-.919-.199-1.311.077-1.244.881-1.591 2.581-1.598 4.112-.125-.551-.019-1.127-.024-1.685-.005-.559-.158-1.204-.632-1.497a1.901 1.901 0 0 0-.957-.229c-.56-.022-1.182.036-1.564.448-.479.51-.352 1.369.062 1.925s1.041.915 1.619 1.305c.464.277.86.657 1.158 1.11.035.062.064.128.086.197h3.505a9.787 9.787 0 0 0 2.163-1.509z" fill="#6C63FF"/><path d="M259.601 77.192c-.495-1.459-1.21-3.307-1.775-3.743a.523.523 0 0 0-.112-.07h-.07v-1.803l-1.334.215a12.78 12.78 0 0 1-.479-1.996.92.92 0 0 0 1.002.202 1.714 1.714 0 0 1-.059-.113l.059-.026a2.504 2.504 0 0 1-.322-1.223c.01-.392.072-.78.184-1.155.239-.83.643-1.606.868-2.441a5.956 5.956 0 0 0 .201-1.649 6.058 6.058 0 0 0-.622-2.72 1.59 1.59 0 0 0-.478-.62 6.058 6.058 0 0 0-.579-.285 3.13 3.13 0 0 1-.842-.845 7.55 7.55 0 0 0-3.649-2.45 2.123 2.123 0 0 0-1.167-.094c-.897.24-1.223 1.36-1.95 1.947-.641.518-1.521.57-2.328.744-.806.173-1.617.517-2.167 1.143a2.373 2.373 0 0 0-.581 1.577 1.591 1.591 0 0 0 .641 1.41 2 2 0 0 0 1.701.241 5.858 5.858 0 0 0 .601 4.622 5.795 5.795 0 0 0 3.779 2.696l.156.281c.48.9.845 1.86 1.086 2.853-1.23.7-2.572 1.357-3.383 1.42a5.813 5.813 0 0 1-.177.943 5.217 5.217 0 0 1-1.065 2.106c-1.102 1.247-6.062 10.673-6.062 10.673s-.155.376-.411 1.016c-3.079.38-8.105.93-9.507.648l-5.502-5.267s-1.78 1.367-1.625 3.028l-.993-.948s-5.234 4.02 3.031 6.653l12.577 1.468c-1.196 3.637-2.316 7.871-1.969 10.175h.103c.24-.001.48-.019.717-.056l-.021.409-1.211 21.823s-.275 4.019 3.445 5.82c0 0 4.546 13.443 2.756 14.969 0 0 .213.113.572.27l-3.739 3.334s-2.756.693-4.27.553a1.093 1.093 0 0 0-1.209.819c0 .029 0 .057-.014.086v.268c0 .009 0 .06.017.089v.033a.776.776 0 0 0 .031.097l.012.028a.719.719 0 0 0 .043.094v.022c.017.031.036.06.055.091l.017.027c.022.032.047.064.074.096l.021.024c.029.034.06.065.091.097l.015.012.103.089.021.017c.038.031.081.06.124.089l.029.019c.046.029.093.058.144.084h.021l.156.077h.021l.182.072.038.015.199.065h.033l.218.058h.017l.239.048h.048l.258.038h.051l.291.029c.567.043 1.331.06 2.213.055v.142c0 .029 0 .061.017.09v.033a.714.714 0 0 0 .031.096l.012.029a.719.719 0 0 0 .043.094v.022c.017.031.036.06.055.091l.017.027c.022.032.047.064.074.096l.022.024c.028.034.059.065.091.096l.014.013.103.089.021.016c.039.032.082.061.125.089l.031.02c.045.029.093.058.143.084h.022l.155.077h.022l.182.072.038.015.199.065h.033l.218.057h.016l.24.049h.048l.258.038h.05l.292.029c3.588.277 15.014-.554 15.014-.554v-.072c.113-.537.663-3.656-1.289-5.962a2.63 2.63 0 0 0 .167-.193s-1.514-2.633-.689-3.466c.825-.833-4.131-15.246-4.131-15.246s-2.618-4.157-1.103-8.87c1.514-4.713-.139-9.84-.139-9.84s3.612-1.081 3.687-5.555v-.417c.079.012.159.016.239.015.051.003.102.003.153 0 0 0-.689-2.494.139-4.297.827-1.803 2.617-.14 4.27-7.484 1.196-5.314 2.249-11.428 2.739-14.403a7.622 7.622 0 0 0-.218-3.582zm-31.437 15.59l-1.256-1.203c.416.173.878.344 1.395.508l4.737.553c-2.115.198-4.079.304-4.876.145v-.002z" fill="url(#paint7_linear)"/><path d="M240.152 92.078s-9.744 1.362-11.775.962l-5.413-5.175s-5.144 3.95 2.978 6.535l15.158 1.77-.948-4.092z" fill="#FDC2CC"/><path opacity=".05" d="M240.152 92.078s-9.744 1.362-11.775.962l-5.413-5.175s-5.144 3.95 2.978 6.535l15.158 1.77-.948-4.092z" fill="#000"/><path d="M243.672 147.361l-4.736 4.222s-2.706.681-4.196.544c-1.491-.137-2.165 2.316 1.354 2.588 3.519.272 14.751-.544 14.751-.544s1.083-4.357-2.165-6.81h-5.008z" fill="#47465A"/><path opacity=".05" d="M243.672 147.361l-4.736 4.222s-2.706.681-4.196.544c-1.491-.137-2.165 2.316 1.354 2.588 3.519.272 14.751-.544 14.751-.544s1.083-4.357-2.165-6.81h-5.008z" fill="#000"/><path opacity=".3" d="M251.015 152.283a7.556 7.556 0 0 1-.17 1.476s-11.244.816-14.751.544c-1.691-.13-2.411-.766-2.54-1.375-.154.698.459 1.623 2.54 1.784 3.519.272 14.751-.544 14.751-.544a7.902 7.902 0 0 0 .17-1.885z" fill="#fff"/><path d="M249.221 70.155s2.978 4.221 1.894 7.081c-1.083 2.86 5.677-2.997 5.677-2.997s-2.165-3.812-1.083-7.897l-6.488 3.813z" fill="#FDC2CC"/><path d="M248.419 148.992l-4.737 4.222s-2.706.681-4.196.544c-1.491-.137-2.165 2.316 1.354 2.588 3.519.272 14.751-.544 14.751-.544s1.083-4.357-2.165-6.81h-5.007z" fill="#47465A"/><path d="M249.763 148.04c-.706.877-1.701 1.204-2.742 1.264-2.366.113-4.971-1.264-4.971-1.264 1.758-1.497-2.706-14.707-2.706-14.707-3.653-1.769-3.382-5.719-3.382-5.719l1.196-21.439.299-5.385 3.789-2.315 2.988 2.306 2.833 2.188c.184.695.302 1.407.354 2.125.327 5.004-3.603 6.181-3.603 6.181s1.624 5.038.136 9.667 1.084 8.713 1.084 8.713 4.873 14.161 4.067 14.979c-.806.819.658 3.406.658 3.406z" fill="#565171"/><path opacity=".05" d="M249.763 148.04c-.706.877-1.701 1.204-2.742 1.264-2.366.113-4.971-1.264-4.971-1.264 1.758-1.497-2.706-14.707-2.706-14.707-3.653-1.769-3.382-5.719-3.382-5.719l1.196-21.439.299-5.385 3.789-2.315 2.988 2.306 2.833 2.188c.184.695.302 1.407.354 2.125.327 5.004-3.603 6.181-3.603 6.181s1.624 5.038.136 9.667 1.084 8.713 1.084 8.713 4.873 14.161 4.067 14.979c-.806.819.658 3.406.658 3.406z" fill="#000"/><path d="M254.5 149.675c-2.301 2.859-7.712 0-7.712 0a.878.878 0 0 0 .239-.371c.993-2.715-3.349-15.696-3.349-15.696-3.654-1.769-4.067-5.991-4.067-5.991l-.957-21.82-.125-2.826 5.694-2.188 1.749-.672 5.82 4.494c.252.928.378 1.886.373 2.848-.074 4.397-3.622 5.459-3.622 5.459s1.625 5.038.137 9.667c-1.488 4.628 1.084 8.713 1.084 8.713s4.873 14.161 4.066 14.979c-.806.819.67 3.404.67 3.404z" fill="#565171"/><path opacity=".1" d="M252.165 107.451c-1.169-.169-3.538-1.587-4.756-2.357l-.76-.481s-1.218-3.404-4.467-.816a12.146 12.146 0 0 1-3.528 2.007c-.49.174-.994.302-1.508.381l.3-5.385 3.789-2.316 2.988 2.306 1.749-.671 5.82 4.494c.251.924.377 1.879.373 2.838z" fill="#000"/><path d="M259.491 81.33c-.478 2.921-1.517 8.927-2.691 14.15-1.625 7.221-3.383 5.582-4.196 7.354-.814 1.771-.137 4.222-.137 4.222-1.354.137-5.82-2.86-5.82-2.86s-1.218-3.404-4.467-.816c-3.248 2.588-5.82 2.45-5.82 2.45-.677-4.494 4.33-16.476 4.33-16.476s4.873-9.26 5.954-10.485a5.12 5.12 0 0 0 1.046-2.07c.083-.303.14-.613.172-.927 1.758-.137 6.091-3.129 6.091-3.129l3.383-.544v1.77c.039.017.076.04.11.067.557.428 1.258 2.246 1.744 3.678a7.508 7.508 0 0 1 .301 3.615z" fill="#F68080"/><path opacity=".1" d="M256.792 75.737s-3.519-2.86-8.797 6.4c-5.277 9.26-6.495 7.76-6.495 7.76s1.084 4.093.541 4.904c0 0 3.653-.272 5.007 0 1.354.272 9.744-10.343 9.744-10.343s4.339-5.998 0-8.72z" fill="#000"/><path opacity=".1" d="M256.665 75.19s-3.519-2.86-8.797 6.4c-5.277 9.26-6.495 7.76-6.495 7.76s4.196 4.63 5.548 4.904c1.351.274 9.744-10.35 9.744-10.35s4.33-5.989 0-8.714z" fill="#000"/><path opacity=".1" d="M241.923 93.916c.055-1.009-.322-2.783-.54-3.702.823-.109 1.342-.18 1.342-.18l.957 4.091-1.759-.21zm13.93-27.301l-6.496 3.813c.274.402.526.818.756 1.247.375.077.757.115 1.139.115 1.735 0 2.543-1.831 3.589-3.064-.075-.99.722-1.016 1.012-2.11z" fill="#000"/><path d="M251.118 71.514c3.139 0 5.684-2.56 5.684-5.719 0-3.158-2.545-5.719-5.684-5.719-3.14 0-5.684 2.56-5.684 5.72 0 3.158 2.544 5.718 5.684 5.718z" fill="#FDC2CC"/><path d="M242.333 72.314h-45.776v34.71h45.776v-34.71z" fill="url(#paint8_linear)"/><path d="M241.306 73.092h-43.724v33.154h43.724V73.092z" fill="#fff"/><path opacity=".2" d="M216.435 75.96h-14.574v8.288h14.574v-8.287z" fill="#6C63FF"/><path d="M237.03 75.96h-17.11v1.915h17.11V75.96zm-5.07 3.19h-12.04v1.914h12.04V79.15zm5.07 3.188h-17.11v1.913h17.11v-1.913zm.001 3.185h-35.17v1.914h35.17v-1.914zm0 3.19h-35.17v1.913h35.17v-1.913zm0 3.187h-35.17v1.914h35.17V91.9zm-2.852 3.19h-32.318v1.913h32.318V95.09zm2.852 3.187h-35.17v1.914h35.17v-1.914zm0 3.188h-35.17v1.913h35.17v-1.913z" fill="#E6E8EC"/><path opacity=".1" d="M243.927 61.17a3.878 3.878 0 0 1 2.129-1.124c.79-.171 1.656-.224 2.287-.722.718-.576 1.034-1.668 1.914-1.911.383-.078.78-.046 1.146.09a7.408 7.408 0 0 1 3.588 2.408c.22.327.5.61.826.83.194.083.384.176.569.28.203.16.362.37.464.609a5.954 5.954 0 0 1 .412 4.157c-.22.82-.618 1.581-.852 2.407-.234.825-.294 1.742.136 2.472-.416.214-.942-.056-1.196-.446-.253-.39-.34-.871-.478-1.321a5.058 5.058 0 0 0-1.467-2.294c-.426-.38-1.196-.636-1.485-.144-.115.19-.108.43-.206.628-.194.385-.754.462-1.124.24a1.735 1.735 0 0 1-.704-1.049c-.557-1.897-1.507-3.09-3.524-2.28-.751.304-1.636.508-2.358-.011-.943-.686-.759-2.044-.077-2.82z" fill="#000"/><path d="M243.927 61.033a3.878 3.878 0 0 1 2.129-1.124c.79-.17 1.656-.224 2.287-.722.718-.575 1.034-1.668 1.914-1.911.383-.078.78-.046 1.146.091a7.408 7.408 0 0 1 3.588 2.407c.22.328.5.61.826.83.194.084.384.177.569.28.203.16.362.37.464.609a5.954 5.954 0 0 1 .412 4.157c-.22.82-.618 1.581-.852 2.407-.234.825-.294 1.743.136 2.472-.416.214-.942-.055-1.196-.445-.253-.39-.34-.872-.478-1.322a5.058 5.058 0 0 0-1.467-2.294c-.426-.38-1.196-.635-1.485-.144-.115.19-.108.43-.206.628-.194.385-.754.462-1.124.24a1.735 1.735 0 0 1-.704-1.049c-.557-1.896-1.507-3.09-3.524-2.28-.751.304-1.636.509-2.358-.011-.943-.686-.759-2.041-.077-2.819z" fill="#B96B6B"/><path opacity=".05" d="M257.452 74.035H254.7s-5.413 2.723-5.547 2.588c-.091-.092-.929.065-1.46.178.083-.303.141-.614.173-.927 1.758-.137 6.09-3.129 6.09-3.129l3.383-.544v1.77c.04.016.078.038.113.064z" fill="#000"/><path opacity=".3" d="M255.751 153.918a7.537 7.537 0 0 1-.17 1.475s-11.243.816-14.75.544c-1.692-.129-2.412-.765-2.541-1.374-.153.698.459 1.622 2.541 1.784 3.519.272 14.75-.544 14.75-.544a7.902 7.902 0 0 0 .17-1.885z" fill="#fff"/><path opacity=".05" d="M240.896 103.234c-1.825 1.444-3.44 2.048-4.5 2.289 0 .101.02.202.034.298 0 0 2.572.137 5.82-2.45a4.355 4.355 0 0 1 1.74-.915c-.708-.33-1.72-.308-3.094.778zm18.369-25.516c-.478-1.444-1.196-3.25-1.744-3.678a.528.528 0 0 0-.11-.067s-1.119.038-1.084.067c.558.428 1.099 2.109 1.584 3.54a7.488 7.488 0 0 1 .294 3.611c-.478 2.922-1.516 8.928-2.691 14.151-1.624 7.222-3.383 5.582-4.196 7.354-.665 1.444-.333 3.355-.189 3.998.579.241 1.081.392 1.407.359 0 0-.677-2.451.136-4.222.813-1.772 2.572-.137 4.196-7.354 1.175-5.22 2.208-11.229 2.691-14.15a7.503 7.503 0 0 0-.294-3.609z" fill="#000"/><path d="M243.673 94.12l-1.749-.205-13.397-1.567c-8.12-2.588-2.979-6.535-2.979-6.535l5.414 5.175c1.562.315 7.687-.42 10.431-.773.823-.108 1.342-.18 1.342-.18l.938 4.084z" fill="#FDC2CC"/><path d="M256.792 75.466s-3.519-2.86-8.797 6.4c-5.277 9.26-6.495 7.76-6.495 7.76s1.084 4.092.541 4.903c0 0 3.653-.272 5.007 0 1.354.273 9.744-10.35 9.744-10.35s4.339-5.99 0-8.713z" fill="#F68080"/></g><defs><linearGradient id="paint0_linear" x1="150.953" y1="143.757" x2="150.953" y2="27.165" gradientUnits="userSpaceOnUse"><stop stop-color="gray" stop-opacity=".25"/><stop offset=".54" stop-color="gray" stop-opacity=".12"/><stop offset="1" stop-color="gray" stop-opacity=".1"/></linearGradient><linearGradient id="paint1_linear" x1="28587.9" y1="80189.3" x2="28587.9" y2="33088.8" gradientUnits="userSpaceOnUse"><stop stop-color="gray" stop-opacity=".25"/><stop offset=".54" stop-color="gray" stop-opacity=".12"/><stop offset="1" stop-color="gray" stop-opacity=".1"/></linearGradient><linearGradient id="paint2_linear" x1="8786.98" y1="65682.4" x2="8786.98" y2="36921.2" gradientUnits="userSpaceOnUse"><stop stop-color="gray" stop-opacity=".25"/><stop offset=".54" stop-color="gray" stop-opacity=".12"/><stop offset="1" stop-color="gray" stop-opacity=".1"/></linearGradient><linearGradient id="paint3_linear" x1="30583.3" y1="37251.4" x2="30583.3" y2="28275.9" gradientUnits="userSpaceOnUse"><stop stop-color="gray" stop-opacity=".25"/><stop offset=".54" stop-color="gray" stop-opacity=".12"/><stop offset="1" stop-color="gray" stop-opacity=".1"/></linearGradient><linearGradient id="paint4_linear" x1="8411.81" y1="10462.4" x2="10389" y2="10462.4" gradientUnits="userSpaceOnUse"><stop stop-color="gray" stop-opacity=".25"/><stop offset=".54" stop-color="gray" stop-opacity=".12"/><stop offset="1" stop-color="gray" stop-opacity=".1"/></linearGradient><linearGradient id="paint5_linear" x1="-26844" y1="87292.9" x2="-26844" y2="42994.3" gradientUnits="userSpaceOnUse"><stop stop-color="gray" stop-opacity=".25"/><stop offset=".54" stop-color="gray" stop-opacity=".12"/><stop offset="1" stop-color="gray" stop-opacity=".1"/></linearGradient><linearGradient id="paint6_linear" x1="5141.3" y1="9919.44" x2="5141.3" y2="8419.49" gradientUnits="userSpaceOnUse"><stop stop-color="gray" stop-opacity=".25"/><stop offset=".54" stop-color="gray" stop-opacity=".12"/><stop offset="1" stop-color="gray" stop-opacity=".1"/></linearGradient><linearGradient id="paint7_linear" x1="41564.4" y1="71509.9" x2="41564.4" y2="29214.4" gradientUnits="userSpaceOnUse"><stop stop-color="gray" stop-opacity=".25"/><stop offset=".54" stop-color="gray" stop-opacity=".12"/><stop offset="1" stop-color="gray" stop-opacity=".1"/></linearGradient><linearGradient id="paint8_linear" x1="42187.5" y1="15505.2" x2="42187.5" y2="10500.1" gradientUnits="userSpaceOnUse"><stop stop-color="gray" stop-opacity=".25"/><stop offset=".54" stop-color="gray" stop-opacity=".12"/><stop offset="1" stop-color="gray" stop-opacity=".1"/></linearGradient><clipPath id="clip0"><path fill="#fff" d="M0 0h260v190H0z"/></clipPath></defs></svg>